<svg width="315" height="65" viewBox="0 0 315 65" fill="none" xmlns="http://www.w3.org/2000/svg">
<g clip-path="url(#clip0_403_102)">
<rect width="315" height="65" rx="30" fill="#999999"/>
<path d="M88.06 23.52H118.048V28.812H88.06V23.52ZM86.404 44.832H119.632V50.16H86.404V44.832ZM92.272 30.612L97.564 29.316C97.996 30.78 98.404 32.328 98.788 33.96C99.196 35.568 99.568 37.152 99.904 38.712C100.24 40.248 100.504 41.64 100.696 42.888L95.044 44.364C94.924 43.116 94.708 41.7 94.396 40.116C94.108 38.532 93.772 36.912 93.388 35.256C93.028 33.6 92.656 32.052 92.272 30.612ZM108.472 29.46L114.376 30.648C113.992 32.16 113.584 33.672 113.152 35.184C112.72 36.672 112.264 38.124 111.784 39.54C111.328 40.956 110.86 42.288 110.38 43.536C109.924 44.784 109.48 45.924 109.048 46.956L103.864 45.696C104.32 44.64 104.764 43.452 105.196 42.132C105.652 40.812 106.084 39.432 106.492 37.992C106.924 36.552 107.308 35.112 107.644 33.672C107.98 32.208 108.256 30.804 108.472 29.46ZM99.184 17.976L104.44 16.68C104.824 17.592 105.196 18.588 105.556 19.668C105.916 20.748 106.204 21.684 106.42 22.476L100.912 24.024C100.768 23.208 100.528 22.236 100.192 21.108C99.856 19.956 99.52 18.912 99.184 17.976ZM125.716 25.788H136.444V30.396H125.716V25.788ZM125.572 18.984H139.972V37.38H125.572V32.736H134.716V23.628H125.572V18.984ZM124.168 50.844L123.592 46.164L125.572 44.544L135.688 41.844C135.88 42.564 136.132 43.356 136.444 44.22C136.78 45.084 137.068 45.792 137.308 46.344C134.788 47.088 132.736 47.7 131.152 48.18C129.568 48.684 128.32 49.092 127.408 49.404C126.496 49.716 125.8 49.98 125.32 50.196C124.864 50.412 124.48 50.628 124.168 50.844ZM131.512 39.972L136.048 37.74C136.648 38.724 137.26 39.792 137.884 40.944C138.532 42.072 139.132 43.188 139.684 44.292C140.236 45.396 140.668 46.392 140.98 47.28L136.084 49.872C135.82 48.984 135.436 47.976 134.932 46.848C134.428 45.696 133.876 44.52 133.276 43.32C132.676 42.12 132.088 41.004 131.512 39.972ZM124.168 50.844C124.072 50.34 123.916 49.74 123.7 49.044C123.508 48.372 123.28 47.712 123.016 47.064C122.752 46.416 122.476 45.876 122.188 45.444C122.644 45.228 123.052 44.916 123.412 44.508C123.772 44.1 123.952 43.548 123.952 42.852V18.984H129.316V46.992C129.316 46.992 129.136 47.064 128.776 47.208C128.44 47.328 128.02 47.52 127.516 47.784C127.012 48.024 126.496 48.3 125.968 48.612C125.464 48.948 125.032 49.296 124.672 49.656C124.336 50.04 124.168 50.436 124.168 50.844ZM149.656 19.236H154.804V40.08C154.804 41.184 154.696 42.096 154.48 42.816C154.264 43.536 153.82 44.1 153.148 44.508C152.5 44.916 151.756 45.168 150.916 45.264C150.076 45.36 149.104 45.408 148 45.408C147.928 44.712 147.76 43.884 147.496 42.924C147.256 41.964 146.968 41.148 146.632 40.476C147.112 40.5 147.604 40.524 148.108 40.548C148.612 40.548 148.948 40.536 149.116 40.512C149.308 40.512 149.44 40.476 149.512 40.404C149.608 40.332 149.656 40.188 149.656 39.972V19.236ZM141.304 19.236H152.068V24.024H146.56V51.42H141.304V19.236ZM160.348 21.036L163.444 17.4C164.188 17.784 165.004 18.24 165.892 18.768C166.78 19.272 167.632 19.788 168.448 20.316C169.288 20.844 169.972 21.336 170.5 21.792L167.188 25.86C166.732 25.404 166.108 24.888 165.316 24.312C164.524 23.736 163.684 23.16 162.796 22.584C161.932 22.008 161.116 21.492 160.348 21.036ZM158.116 31.476L161.068 27.768C161.74 28.104 162.484 28.5 163.3 28.956C164.14 29.388 164.944 29.844 165.712 30.324C166.504 30.78 167.14 31.2 167.62 31.584L164.488 35.724C164.056 35.316 163.468 34.86 162.724 34.356C161.98 33.852 161.2 33.348 160.384 32.844C159.568 32.316 158.812 31.86 158.116 31.476ZM159.412 47.496C160.06 46.608 160.768 45.564 161.536 44.364C162.328 43.14 163.132 41.832 163.948 40.44C164.764 39.048 165.532 37.656 166.252 36.264L170.104 39.756C169.48 41.004 168.82 42.276 168.124 43.572C167.428 44.844 166.72 46.104 166 47.352C165.304 48.6 164.584 49.824 163.84 51.024L159.412 47.496ZM173.38 28.848H185.872V33.564H173.38V28.848ZM173.884 45.264H185.404V49.836H173.884V45.264ZM170.932 35.76H188.176V51.456H182.704V40.332H176.152V51.456H170.932V35.76ZM181.444 18.588C182.236 19.884 183.22 21.192 184.396 22.512C185.596 23.808 186.892 25.032 188.284 26.184C189.676 27.336 191.056 28.32 192.424 29.136C192.016 29.472 191.56 29.892 191.056 30.396C190.576 30.9 190.108 31.428 189.652 31.98C189.22 32.508 188.86 33 188.572 33.456C187.204 32.424 185.836 31.2 184.468 29.784C183.1 28.344 181.804 26.808 180.58 25.176C179.38 23.544 178.324 21.9 177.412 20.244L181.444 18.588ZM177.916 17.076L182.956 18.624C181.636 21.936 179.92 24.9 177.808 27.516C175.696 30.108 173.224 32.256 170.392 33.96C170.152 33.576 169.804 33.12 169.348 32.592C168.916 32.064 168.46 31.548 167.98 31.044C167.524 30.516 167.104 30.108 166.72 29.82C168.4 28.908 169.96 27.792 171.4 26.472C172.84 25.128 174.112 23.652 175.216 22.044C176.344 20.436 177.244 18.78 177.916 17.076ZM211.576 34.644H217.912V38.568H211.576V34.644ZM211.9 28.992H220.072V44.184H211.9V40.116H215.932V33.06H211.9V28.992ZM209.344 28.992H213.412V45.192H209.344V28.992ZM211.936 17.472L217.12 18.66C216.64 20.34 216.04 21.996 215.32 23.628C214.6 25.26 213.808 26.772 212.944 28.164C212.104 29.556 211.228 30.768 210.316 31.8C210.004 31.488 209.572 31.128 209.02 30.72C208.492 30.312 207.952 29.916 207.4 29.532C206.848 29.124 206.368 28.8 205.96 28.56C207.304 27.288 208.492 25.656 209.524 23.664C210.58 21.672 211.384 19.608 211.936 17.472ZM212.872 22.188H224.068V26.904H210.496L212.872 22.188ZM222.628 22.188H227.56C227.56 22.188 227.56 22.344 227.56 22.656C227.56 22.944 227.56 23.28 227.56 23.664C227.56 24.024 227.548 24.312 227.524 24.528C227.452 28.632 227.368 32.124 227.272 35.004C227.176 37.86 227.056 40.224 226.912 42.096C226.792 43.968 226.624 45.444 226.408 46.524C226.192 47.58 225.916 48.348 225.58 48.828C225.1 49.572 224.596 50.1 224.068 50.412C223.54 50.724 222.928 50.952 222.232 51.096C221.584 51.216 220.816 51.288 219.928 51.312C219.04 51.336 218.128 51.336 217.192 51.312C217.168 50.568 217 49.692 216.688 48.684C216.4 47.7 216.028 46.848 215.572 46.128C216.46 46.2 217.276 46.248 218.02 46.272C218.764 46.272 219.34 46.272 219.748 46.272C220.06 46.272 220.312 46.224 220.504 46.128C220.72 46.008 220.924 45.828 221.116 45.588C221.356 45.3 221.56 44.688 221.728 43.752C221.896 42.792 222.028 41.436 222.124 39.684C222.244 37.908 222.34 35.676 222.412 32.988C222.484 30.3 222.556 27.06 222.628 23.268V22.188ZM195.592 28.272H206.464V32.16H195.592V28.272ZM195.592 33.24H206.536V37.128H195.592V33.24ZM194.188 23.124H208.012V27.192H194.188V23.124ZM197.788 38.316H206.536V49.512H197.788V45.372H202.396V42.42H197.788V38.316ZM195.664 38.316H199.696V50.952H195.664V38.316ZM197.572 18.948L201.208 16.896C201.736 17.64 202.252 18.468 202.756 19.38C203.26 20.292 203.644 21.096 203.908 21.792L200.128 24.204C199.888 23.508 199.516 22.668 199.012 21.684C198.532 20.676 198.052 19.764 197.572 18.948Z" fill="white"/>
</g>
<defs>
<clipPath id="clip0_403_102">
<rect width="315" height="65" rx="30" fill="white"/>
</clipPath>
</defs>
</svg>
