<svg width="28" height="41" viewBox="0 0 28 41" fill="none" xmlns="http://www.w3.org/2000/svg">
<path d="M24.9431 0.789551C25.7537 0.789551 26.53 1.31177 27.1001 2.24628C27.6703 3.18079 27.9932 4.44512 27.9932 5.7713V35.6618C27.9932 36.9811 27.6703 38.2523 27.1001 39.1868C26.53 40.1213 25.7537 40.6435 24.9431 40.6435H3.57204C2.76144 40.6435 1.98517 40.1213 1.415 39.1868C0.844832 38.2523 0.521973 36.988 0.521973 35.6618V5.7713C0.521973 4.45199 0.844832 3.18079 1.415 2.24628C1.98517 1.31177 2.76144 0.789551 3.57204 0.789551H24.9431ZM24.9431 20.7165H3.57204V35.6618H24.9431V20.7165ZM24.9431 5.7713H3.57204V15.7348H24.9431V5.7713ZM6.62896 8.25873C7.03427 8.25873 7.41896 8.51984 7.70748 8.9871C7.996 9.45435 8.154 10.0865 8.154 10.7462C8.154 11.4058 7.996 12.038 7.70748 12.5052C7.41896 12.9725 7.03427 13.2336 6.62896 13.2336C6.22366 13.2336 5.83899 12.9725 5.55047 12.5052C5.26195 12.038 5.10393 11.4058 5.10393 10.7462C5.10393 10.0865 5.26195 9.45435 5.55047 8.9871C5.83899 8.51984 6.22366 8.25873 6.62896 8.25873ZM11.2041 8.25873C11.6094 8.25873 11.9941 8.51984 12.2826 8.9871C12.5711 9.45435 12.7291 10.0865 12.7291 10.7462C12.7291 11.4058 12.5711 12.038 12.2826 12.5052C11.9941 12.9725 11.6094 13.2336 11.2041 13.2336C10.7988 13.2336 10.4141 12.9725 10.1256 12.5052C9.83705 12.038 9.67903 11.4058 9.67903 10.7462C9.67903 10.0865 9.83705 9.45435 10.1256 8.9871C10.4141 8.51984 10.7988 8.25873 11.2041 8.25873ZM15.786 8.25873C16.1913 8.25873 16.576 8.51984 16.8646 8.9871C17.1531 9.45435 17.3111 10.0865 17.3111 10.7462C17.3111 11.4058 17.1531 12.038 16.8646 12.5052C16.576 12.9725 16.1913 13.2336 15.786 13.2336C15.3807 13.2336 14.996 12.9725 14.7075 12.5052C14.419 12.038 14.261 11.4058 14.261 10.7462C14.261 10.0865 14.419 9.45435 14.7075 8.9871C14.996 8.51984 15.3807 8.25873 15.786 8.25873Z" fill="#B1AABF"/>
</svg>
