<svg width="42" height="41" viewBox="0 0 42 41" fill="none" xmlns="http://www.w3.org/2000/svg">
<path d="M24.1301 32.3383C23.4088 33.0117 22.7218 33.7469 22.131 34.5578C21.6158 35.2449 21.1624 35.9664 20.7571 36.7085C20.6678 36.894 20.5373 37.0727 20.4755 37.2857C20.4274 37.4094 20.4136 37.5193 20.2419 37.5193C20.0221 37.4987 19.8503 37.2032 19.7267 37.0314C19.4725 36.7016 19.2252 36.3855 18.9848 36.042C17.8994 34.5646 16.9033 33.0529 15.7904 31.5962C15.3027 30.964 14.7875 30.325 14.2929 29.6791C14.0387 29.3493 13.7777 29.0194 13.5372 28.6759C13.2419 28.2636 13.0014 27.9956 13.1251 27.4528C13.3243 26.5251 13.8464 25.6799 14.341 24.8691C14.8699 24.0033 15.4195 23.1581 16.1889 22.4573C16.7178 21.9763 17.3498 21.6121 18.023 21.4059C18.3528 21.296 18.6963 21.2204 19.0466 21.1861C19.3901 21.138 19.7954 21.0486 20.1251 21.083C20.4274 21.1173 20.6266 21.2135 20.8121 21.3785C22.9004 23.6598 28.3273 29.0675 28.7395 29.4317L28.8357 29.5279C28.87 29.5623 28.87 29.6378 28.8082 29.6997C28.7258 29.7821 28.5884 29.8234 28.4785 29.8577C28.2586 29.9333 28.0388 30.002 27.819 30.0776C26.4107 30.5792 25.188 31.3419 24.1026 32.3589L24.1301 32.3314V32.3383ZM37.7592 20.0042C37.7798 20.176 37.663 20.1966 37.5256 20.2378C37.3333 20.3134 37.1478 20.4233 36.9486 20.5195C36.1929 20.9112 35.4785 21.3785 34.7984 21.8938C34.0016 22.4916 33.2665 23.1581 32.5796 23.8934C31.5629 24.9859 30.7935 26.2159 30.2989 27.6108C30.2233 27.8307 30.1546 28.0506 30.0791 28.2704C30.0447 28.3804 30.0035 28.5178 29.9211 28.6003C29.8592 28.6621 29.7974 28.6484 29.7493 28.6278L29.6532 28.5316C29.2891 28.1399 23.8828 22.6909 21.6021 20.602C21.4441 20.4165 21.3479 20.2241 21.3067 19.9149C21.2861 19.5713 21.3548 19.1796 21.4097 18.836C21.4578 18.4925 21.5334 18.1489 21.6433 17.8191C21.8631 17.1319 22.2203 16.5135 22.6943 15.9844C23.395 15.2354 24.2331 14.6857 25.1055 14.136C25.9161 13.6482 26.7542 13.1191 27.6885 12.9198C28.238 12.8098 28.4922 13.0435 28.9112 13.3321C29.2547 13.5726 29.5844 13.8337 29.9142 14.0879C30.5462 14.5758 31.1851 15.0843 31.817 15.5721C33.2665 16.6784 34.7915 17.6679 36.2616 18.7673C36.5776 19.0078 36.9211 19.2552 37.2508 19.5094C37.4088 19.6469 37.7042 19.7912 37.7386 20.0248L37.7661 19.9973L37.7592 20.0042ZM39.8544 20.3958C39.6345 20.176 39.1605 19.482 39.0369 19.3583C37.5462 17.8672 31.7003 13.9299 30.3607 12.8854L30.2851 12.8098C29.7631 12.4044 29.1723 11.8685 28.5678 11.6005C27.9426 11.3188 27.2351 11.7379 26.658 11.9922C24.3361 13.0503 21.8906 14.3971 20.6747 16.7609C20.1938 17.6817 19.9603 18.6917 20.0702 19.8324C18.9436 19.7156 17.92 19.9561 16.9995 20.4371C14.6501 21.6671 13.2899 24.0995 12.232 26.422C11.9847 26.9855 11.5726 27.7207 11.8405 28.3323C12.1084 28.9438 12.6442 29.5279 13.0564 30.0433L13.1319 30.1188C14.183 31.4588 18.1261 37.2994 19.603 38.7974C19.7267 38.9211 20.4068 39.4089 20.6403 39.6151C20.9563 39.9106 21.238 40.261 21.5677 40.5427C21.6501 40.6801 21.7738 40.7489 21.9112 40.7626C22.0348 40.8107 22.1585 40.7832 22.2547 40.7351C22.5981 40.7557 22.7836 40.3297 22.9004 40.0892C24.0751 37.7873 26.026 35.8908 28.0457 34.3379C28.4029 34.0561 28.7807 33.8019 29.1585 33.5408C29.5501 33.2728 29.976 33.0873 30.4088 32.8811C30.766 32.7231 31.1026 32.5238 31.4392 32.2902C31.6865 32.1459 31.8926 31.9604 31.975 31.871L32.0575 31.7886L32.1399 31.7061C32.2223 31.6237 32.4078 31.4107 32.5589 31.1702C32.7788 30.8541 32.978 30.5105 33.1497 30.1395C33.3558 29.7134 33.5413 29.2805 33.8092 28.8889C34.0634 28.5109 34.3382 28.1399 34.6061 27.7757C36.1723 25.7418 38.0614 23.8109 40.3559 22.629C40.61 22.4916 41.0291 22.3198 41.0016 21.9831C41.0497 21.8869 41.0634 21.777 41.0291 21.6396C41.0085 21.4953 40.9466 21.3578 40.8092 21.296C40.507 20.9937 40.1635 20.6982 39.8819 20.3684L39.8475 20.4027L39.8544 20.3958ZM24.0201 32.2284C23.2988 32.9018 22.6119 33.637 22.0211 34.4478C21.5059 35.1349 21.0525 35.8564 20.6472 36.5986C20.5579 36.7841 20.4274 36.9627 20.3655 37.1757C20.3175 37.2994 20.29 37.4231 20.132 37.4094C19.9122 37.3888 19.7404 37.0933 19.6168 36.9215C19.3626 36.5917 19.1153 36.2756 18.8749 35.932C17.7895 34.4547 16.7934 32.943 15.6805 31.4862C15.1928 30.8541 14.6776 30.215 14.1967 29.5829C13.9426 29.2531 13.6815 28.9232 13.4411 28.5797C13.1457 28.1674 12.9053 27.8994 13.0289 27.3566C13.2281 26.4289 13.7502 25.5837 14.2448 24.7729C14.7738 23.9071 15.3233 23.0619 16.0927 22.3611C16.6217 21.8801 17.2537 21.5159 17.9269 21.3097C18.2566 21.1998 18.6001 21.1242 18.9504 21.0899C19.2939 21.0418 19.6992 20.9524 20.0289 20.9868C20.3312 21.0211 20.5304 21.1173 20.7159 21.2823C22.8042 23.5636 28.2312 28.9713 28.6433 29.3355L28.7395 29.4317C28.7738 29.4661 28.7738 29.5417 28.712 29.6035C28.6296 29.6859 28.4922 29.7272 28.3823 29.7615C28.1625 29.8371 27.9426 29.9058 27.7228 29.9814C26.3146 30.483 25.0918 31.2458 24.0064 32.2627L24.0201 32.2284ZM37.6493 19.8942C37.6699 20.066 37.5531 20.0866 37.4157 20.1279C37.2234 20.2034 37.0379 20.3134 36.8387 20.4096C36.083 20.8013 35.3686 21.2685 34.6885 21.7839C33.8916 22.3817 33.1566 23.0482 32.4696 23.7834C31.4529 24.876 30.6904 26.0991 30.189 27.5009C30.1134 27.7207 30.0447 27.9406 29.9691 28.1605C29.9348 28.2704 29.8936 28.4079 29.8111 28.4903C29.7493 28.5522 29.6875 28.5384 29.6394 28.5178L29.5432 28.4216C29.1792 28.0299 23.7728 22.5809 21.4922 20.492C21.3342 20.3065 21.238 20.1141 21.1968 19.8049C21.1762 19.4613 21.2449 19.0697 21.2998 18.7261C21.3479 18.3825 21.4235 18.039 21.5334 17.7091C21.7532 17.022 22.1104 16.4036 22.5844 15.8745C23.2851 15.1255 24.1232 14.5758 24.9956 14.0261C25.8062 13.5382 26.6443 13.0091 27.5785 12.8098C28.1281 12.6999 28.3823 12.9335 28.8013 13.2221C29.1448 13.4626 29.4745 13.7237 29.8043 13.978C30.4363 14.4658 31.0751 14.9743 31.7071 15.4622C33.1566 16.5685 34.6816 17.558 36.1517 18.6574C36.4677 18.8979 36.8112 19.1453 37.1409 19.3995C37.2989 19.5369 37.5943 19.6812 37.6287 19.9149L37.6561 19.8874L37.6493 19.8942ZM24.4667 11.0989V11.0714C24.2262 8.33658 23.0721 5.65674 20.9838 3.57472C18.8955 1.49269 16.2232 0.331428 13.4892 0.0909302H13.4617C13.4136 0.0909302 13.3792 0.0771878 13.3243 0.0771878C13.3243 0.0771878 13.2968 0.0771878 13.2762 0.0771878L13.1182 0.0634447C13.1182 0.0634447 12.9945 0.063445 12.9327 0.0497023C12.8091 0.0497023 12.6786 0.0359592 12.5549 0.0359592L12.3694 0.0222168C12.3694 0.0222168 12.2458 0.0222168 12.1977 0.0222168H12.1496C12.1015 0.0222168 12.074 0.0222165 12.0397 0.0359592C12.0397 0.0359592 12.0259 0.049702 11.9916 0.0359592C9.04458 0.152773 6.14565 1.34152 3.90618 3.58159C1.66672 5.82166 0.471422 8.74887 0.36151 11.6692C0.36151 11.6692 0.347771 11.6829 0.36151 11.7173C0.347771 11.7517 0.36151 11.7929 0.36151 11.841C0.36151 11.841 0.361517 11.8891 0.347778 11.9028C0.347778 11.9509 0.347778 12.0265 0.347778 12.0746L0.36151 12.2601C0.36151 12.3838 0.375241 12.5144 0.375241 12.6381C0.375241 12.6381 0.375255 12.7618 0.388994 12.8236C0.388994 12.8236 0.402739 12.9335 0.416478 12.9954C0.416478 12.9954 0.416478 13.0229 0.416478 13.0435C0.416478 13.0916 0.430209 13.1259 0.430209 13.1809V13.2084C0.670642 15.9432 1.81099 18.6093 3.91306 20.7051C6.01513 22.8008 8.67364 23.9483 11.4077 24.1888H11.4352L11.5726 24.2026C11.5726 24.2026 11.6001 24.2026 11.6207 24.2026L11.7786 24.2163C11.8405 24.2301 11.9023 24.2163 11.9641 24.2301C12.0878 24.2301 12.2183 24.2438 12.342 24.2438C12.342 24.2438 12.4656 24.2438 12.5137 24.2438C12.6511 24.2576 12.7679 24.2576 12.8915 24.2301C15.8385 24.1133 18.7375 22.9245 20.9907 20.6707C23.2439 18.4169 24.4254 15.5034 24.5354 12.5831C24.5354 12.4594 24.5491 12.3289 24.5491 12.2052C24.5491 12.2052 24.5491 12.0815 24.5354 12.0196C24.5354 11.896 24.5216 11.7654 24.5216 11.6417C24.5216 11.6417 24.5216 11.518 24.5079 11.4562C24.5079 11.4081 24.4941 11.3462 24.4941 11.2981C24.4941 11.2981 24.4941 11.2707 24.4941 11.25C24.4941 11.2019 24.4804 11.1676 24.4804 11.1126L24.4667 11.0989ZM21.8288 8.31597C22.1791 9.20925 22.4127 10.1231 22.5088 11.0783C21.6158 11.1401 20.7365 11.3119 19.8916 11.573C19.2183 10.4598 18.3665 9.3398 17.3773 8.27474L20.1183 5.53306C20.8396 6.37824 21.4097 7.31275 21.8219 8.34345V8.31597H21.8288ZM19.0397 4.44738L16.2988 7.18906C15.2272 6.18584 14.1143 5.34753 13.0014 4.67414C13.2693 3.81522 13.4205 2.93568 13.496 2.05614C15.55 2.26916 17.4872 3.11434 19.0535 4.45425L19.0397 4.44051V4.44738ZM8.61181 2.75703C9.69032 2.31726 10.8101 2.06989 11.9847 2.01492C11.9367 2.67457 11.813 3.31361 11.6413 3.94577C10.4803 3.39606 9.36059 3.03188 8.31643 2.87384C8.4126 2.82574 8.52251 2.78451 8.61181 2.75015V2.75703ZM20.2282 17.826C20.1938 18.1283 20.1182 18.4238 20.0221 18.6711L16.4843 15.1324C17.2949 14.4246 18.2085 13.8474 19.1977 13.4145C19.5 14.0398 19.7542 14.6582 19.9396 15.2561C20.2282 16.2112 20.3243 17.0907 20.2419 17.8122L20.2282 17.826ZM9.29189 4.63291C9.88953 4.81844 10.5147 5.07268 11.1329 5.37502C10.7001 6.3645 10.13 7.28526 9.41553 8.08921L5.87773 4.55045C6.12504 4.45425 6.40669 4.36493 6.72269 4.34431C7.44399 4.25498 8.33703 4.36493 9.27815 4.64665L9.29189 4.63291ZM15.392 14.0742L13.4617 12.1433L16.2782 9.32606C17.0957 10.1919 17.8032 11.1195 18.4146 12.0746L18.4421 12.1021C17.3292 12.6037 16.2988 13.2702 15.3989 14.0742H15.392ZM12.4038 11.0851L10.4734 9.15428C11.3047 8.22664 11.9435 7.19593 12.445 6.11026L12.4725 6.13774C13.4342 6.73555 14.341 7.4433 15.2272 8.261L12.4107 11.0783L12.3969 11.092L12.4038 11.0851ZM12.4107 13.2221L14.341 15.153C13.5098 16.0806 12.8709 17.1113 12.3694 18.197L12.342 18.1695C11.3802 17.5717 10.4734 16.864 9.58727 16.0463L12.4038 13.229L12.4175 13.2153L12.4107 13.2221ZM8.50877 14.9743C7.70504 14.0948 6.98373 13.1809 6.37234 12.2258L6.34486 12.1983C7.43024 11.6967 8.46068 11.0576 9.38807 10.2262L11.3184 12.1571L8.50189 14.9743H8.50877ZM15.3989 16.2112L18.9367 19.7499C18.6894 19.8461 18.4077 19.9355 18.0917 19.9561C17.3704 20.0454 16.4774 19.9355 15.5363 19.6537C14.9386 19.4682 14.3135 19.214 13.6953 18.9116C14.128 17.9222 14.7119 17.0151 15.4126 16.1974L15.3989 16.2112ZM8.35077 9.16115C7.54016 9.8689 6.62651 10.4461 5.6373 10.879C5.33504 10.2537 5.08087 9.63527 4.8954 9.03746C4.60688 8.08234 4.5107 7.20281 4.59314 6.48131C4.62748 6.17897 4.70304 5.8835 4.79921 5.63613L8.33703 9.17489L8.35077 9.16115ZM3.01316 8.35033C3.06124 8.25413 3.08872 8.15793 3.1368 8.05486C3.28106 9.10618 3.64515 10.2262 4.19471 11.3875C3.55585 11.5593 2.91009 11.6692 2.26436 11.731C2.31245 10.556 2.55976 9.42913 3.00628 8.3572L3.02001 8.34345L3.01316 8.35033ZM2.98567 15.9913C2.63533 15.098 2.40177 14.1841 2.3056 13.229C3.19863 13.1672 4.07793 12.9954 4.92288 12.7343C5.59609 13.8474 6.4479 14.9675 7.43711 16.0325L4.69618 18.7742C3.97488 17.929 3.40472 16.9945 2.99255 15.9638V15.9913H2.98567ZM5.77469 19.8599L8.51563 17.1182C9.58727 18.1214 10.7001 18.9597 11.813 19.6331C11.5451 20.492 11.394 21.3716 11.3184 22.2511C9.26442 22.0381 7.31348 21.2067 5.76096 19.853L5.77469 19.8668V19.8599ZM16.2095 21.5502C15.131 21.99 14.0112 22.2374 12.8366 22.2923C12.8846 21.6327 13.0083 20.9937 13.18 20.3615C14.341 20.9112 15.4607 21.2754 16.5118 21.4197C16.4156 21.4678 16.3057 21.509 16.2164 21.5434L16.2026 21.5571L16.2095 21.5502ZM21.8082 15.9569C21.7601 16.0531 21.7326 16.1493 21.6845 16.2524C21.5402 15.2011 21.1762 14.0811 20.6129 12.9267C21.2517 12.7549 21.8975 12.6449 22.5432 12.5831C22.4951 13.7306 22.2478 14.885 21.8013 15.9569H21.8082ZM19.5069 22.5947C17.391 23.3712 15.3851 25.2814 14.6364 27.4459C14.4372 28.0093 15.3302 28.2361 15.5432 27.6864C16.2164 25.8861 18.0024 24.2713 19.7885 23.6323C20.4342 23.3986 20.1663 22.3748 19.5206 22.6084L19.5069 22.5947ZM21.238 24.4225C19.026 25.2951 16.7865 27.0199 16.024 29.3699C15.8523 29.8852 16.6354 30.0501 16.8209 29.576C17.6177 27.5077 19.6855 26.1747 21.5952 25.2883C22.0829 25.0684 21.7463 24.2095 21.2311 24.4087L21.2448 24.4225H21.238ZM22.9348 26.2915C22.6394 26.319 22.3509 26.4908 22.0761 26.6144C20.1183 27.5215 18.2085 29.4111 17.5216 31.4862C17.3704 31.9535 18.0711 32.1322 18.2772 31.7542C18.8199 30.7991 19.4038 29.9677 20.1663 29.1843C20.7777 28.5728 21.3891 28.0849 22.1516 27.6658C22.3715 27.5421 22.5707 27.3978 22.8111 27.2947C22.9966 27.2329 23.2027 27.1504 23.3607 27.0405C23.6904 26.7862 23.3263 26.2984 22.9966 26.3052H22.921L22.9348 26.2915ZM24.5079 28.1605C22.0761 29.0332 20.3587 31.0396 19.2664 33.3072C19.0466 33.7744 19.7267 34.1386 19.974 33.6713C20.5167 32.6406 20.9907 31.8023 21.815 30.9572C22.6256 30.1463 23.7453 29.5348 24.762 29.0813C25.3116 28.8476 25.0849 27.9544 24.4804 28.1674H24.5079V28.1605ZM23.8621 19.5094C24.4873 17.7366 26.1085 15.9501 27.9152 15.2629C28.4647 15.0568 28.2449 14.1498 27.6747 14.3559C25.5246 15.1186 23.6148 17.1045 22.8248 19.2277C22.5913 19.8736 23.6148 20.1416 23.8484 19.4957L23.8621 19.5094ZM25.5589 21.351C26.4313 19.4545 27.764 17.3587 29.8455 16.5754C30.3195 16.3898 30.1546 15.6065 29.6394 15.7783C27.2763 16.5273 25.552 18.7673 24.6934 20.9937C24.4941 21.509 25.3528 21.8457 25.5727 21.3578L25.5589 21.3441V21.351ZM27.2763 23.1169C27.3999 22.9726 27.4755 22.7527 27.5305 22.5672C27.6266 22.3198 27.7778 22.1274 27.9014 21.9076C28.3205 21.1517 28.8082 20.5401 29.4196 19.9217C30.2027 19.1384 31.0202 18.5612 32.0025 18.0252C32.3803 17.8191 32.2017 17.1182 31.7346 17.2694C29.6669 17.9428 27.7709 19.8668 26.8641 21.8251C26.7405 22.0931 26.5687 22.3885 26.5413 22.684V22.7596C26.5275 23.0894 27.029 23.4467 27.2763 23.1238V23.1169ZM33.555 19.0147C31.295 20.1073 29.2822 21.8251 28.4098 24.2576C28.1899 24.8416 29.0898 25.089 29.3234 24.5393C29.7631 23.5086 30.3813 22.3885 31.1988 21.5915C32.03 20.76 32.8887 20.2928 33.9122 19.7499C34.3794 19.5026 34.0084 18.8223 33.5482 19.0422V19.0147H33.555Z" fill="white"/>
</svg>
