<svg width="33" height="44" viewBox="0 0 33 44" fill="none" xmlns="http://www.w3.org/2000/svg">
<path d="M20.8203 40.0846C17.6534 40.9298 15.1804 34.8624 14.3354 31.7221L6.42176 33.8454L7.67889 38.5454C8.0155 39.8029 8.54445 40.9435 9.15583 41.7131C9.77409 42.5033 10.3992 42.8606 10.9213 42.7163L20.8134 40.064V40.0846H20.8203ZM20.8203 40.0846C21.6103 39.8716 22.1598 38.9233 22.3659 37.4529C22.5651 35.9893 22.4003 34.0996 21.8988 32.2306L17.4817 15.7324M17.4817 15.7324L18.4709 15.4644C18.993 15.327 19.3708 14.7017 19.4945 13.7122C19.6318 12.7228 19.5219 11.4653 19.1853 10.2285L17.9282 5.52843C17.5916 4.27097 17.0626 3.13032 16.4513 2.36073C15.833 1.57052 15.2079 1.21321 14.6858 1.35751L13.6966 1.6255M17.4817 15.7324L13.6966 1.60488L2.81526 4.51834C2.29318 4.65577 1.91536 5.28107 1.79171 6.27054C1.65432 7.26002 1.76422 8.51749 2.10082 9.75434L8.40706 33.3094M12.2608 12.0906L7.31479 13.4168M11.8143 22.2946L9.83591 22.8237" stroke="#B1AABF" stroke-width="2.06" stroke-linecap="round" stroke-linejoin="round"/>
<path fill-rule="evenodd" clip-rule="evenodd" d="M32.4916 32.8283C32.7664 33.8453 32.8213 34.8829 32.6359 35.6937C32.4572 36.5251 32.0726 37.0611 31.5505 37.1985C31.0284 37.336 30.417 37.068 29.8606 36.4358C29.2904 35.8036 28.8301 34.8966 28.5554 33.8797C28.2806 32.8627 28.2256 31.8251 28.4111 31.0143C28.5897 30.1829 28.9744 29.6469 29.4965 29.5095C30.0186 29.372 30.6299 29.64 31.1864 30.2722C31.7565 30.9044 32.2168 31.8114 32.4916 32.8283ZM29.6888 15.3613C29.4827 15.1277 29.2492 15.0246 29.0568 15.0796C28.8645 15.1346 28.7134 15.3338 28.6515 15.643L27.731 19.9514L24.4405 7.6791C24.3375 7.29431 24.1589 6.95073 23.9528 6.71711C23.7467 6.48348 23.5131 6.38042 23.3208 6.43539C23.1284 6.49036 22.9773 6.68962 22.9155 6.99883C22.8468 7.30805 22.8674 7.69285 22.9704 8.07765L26.2609 20.3499L23.3071 17.0791C23.101 16.8661 22.8811 16.7837 22.6957 16.8318C22.5102 16.8799 22.3659 17.086 22.2972 17.3952C22.2285 17.7044 22.2491 18.0686 22.3522 18.4534C22.4552 18.8382 22.6201 19.168 22.8193 19.4017L27.6898 24.7957L28.4867 25.6752L28.734 24.514L30.2521 17.409C30.2865 17.2578 30.2933 17.086 30.2865 16.9074C30.2796 16.7218 30.2453 16.5294 30.1972 16.337C30.1491 16.1446 30.0735 15.9591 29.9911 15.7942C29.9087 15.6293 29.8125 15.4919 29.7094 15.375L29.6888 15.3613Z" fill="#B1AABF"/>
</svg>
