<svg width="44" height="41" viewBox="0 0 44 41" fill="none" xmlns="http://www.w3.org/2000/svg">
<path d="M23.8054 40.2156C23.5169 40.3805 23.1184 40.2637 22.6101 39.8446C22.1017 39.4254 21.6277 38.8276 21.1675 38.0305C20.7072 37.2334 20.4325 36.5257 20.3157 35.8729C20.2058 35.2201 20.2951 34.8216 20.5905 34.6498C20.8858 34.478 21.2774 34.6017 21.7857 35.0209C22.2941 35.44 22.7681 36.0378 23.2283 36.8349C23.6886 37.632 23.9634 38.3397 24.0733 38.9925C24.1832 39.6453 24.087 40.0507 23.7985 40.2156H23.8054ZM30.2696 36.4776C29.9811 36.6425 29.5827 36.5257 29.0743 36.1065C28.566 35.6874 28.092 35.0896 27.6317 34.2925C27.1714 33.4954 26.8967 32.7877 26.7799 32.1349C26.67 31.4821 26.7593 31.0836 27.0547 30.9118C27.3501 30.74 27.7416 30.8637 28.25 31.2828C28.7583 31.702 29.2392 32.3135 29.6926 33.0969C30.146 33.8802 30.4276 34.6017 30.5444 35.2545C30.6543 35.9073 30.5581 36.3127 30.2696 36.4776ZM6.10951 11.83L13.9614 21.1819L18.5365 18.5364C18.6189 18.4883 18.6532 18.3921 18.6532 18.2478C18.6532 18.1035 18.6189 17.918 18.5571 17.7119L15.2803 7.86518C15.1841 7.57658 15.0468 7.33609 14.8888 7.15056C14.7308 6.9719 14.6002 6.9238 14.4903 6.98564L6.10951 11.83ZM4.70125 10.174L13.6797 4.99295C13.9751 4.82116 14.3941 5.0273 14.9231 5.58389C15.4521 6.14734 15.8505 6.8276 16.1115 7.59033L19.7112 18.3853C19.8692 18.8869 19.9447 19.3129 19.9378 19.6633C19.931 20.0138 19.8279 20.2474 19.6356 20.3573L14.7101 23.2021L16.2558 27.8197C16.3451 28.1357 16.5237 28.4587 16.7847 28.7473C17.0458 29.0428 17.2381 29.1527 17.3686 29.0771L24.8702 24.7481L25.9418 26.6034L18.4472 30.9324C18.0487 31.166 17.4786 30.8774 16.7504 30.0803C16.0291 29.2901 15.4933 28.3625 15.1498 27.3455L13.3156 21.7797L2.53735 8.95086L1.2871 9.67235L0.215454 7.81708L1.89849 6.84822L4.69439 10.174H4.70125ZM31.3069 35.8867L17.142 11.3421L21.353 8.90963L18.09 3.25448L22.301 0.822021L25.564 6.47716L29.775 4.04469L43.9399 28.5893L31.3069 35.8867ZM22.0537 8.50422L24.8564 6.88258L22.6719 3.10332L19.8692 4.72496L22.0537 8.50422ZM37.249 18.612L33.038 21.0445L34.673 23.8824L31.8702 25.504L30.2353 22.6661L26.0242 25.0986L30.9222 33.5916L42.1539 27.105L37.2559 18.612H37.249ZM31.4786 23.2021L32.8869 22.3913L30.7024 18.612L29.2941 19.4228L31.4786 23.2021ZM24.9251 23.209L29.1361 20.7765L27.5012 17.9386L30.304 16.317L31.9389 19.1549L36.1499 16.7224L30.1597 6.33974L18.928 12.8263L24.9182 23.209H24.9251Z" fill="#B1AABF"/>
</svg>
