<svg width="304" height="64" viewBox="0 0 304 64" fill="none" xmlns="http://www.w3.org/2000/svg">
<g clip-path="url(#clip0_1019_786)">
<path d="M0.705566 0.806568L0.705566 63.201L303.301 63.201V0.806568L0.705566 0.806568Z" fill="white" stroke="#231815" stroke-width="2.11" stroke-miterlimit="10"/>
<path d="M125.642 46.6208H104.143C103.41 46.6208 102.811 47.3057 102.811 48.1427V49.8623C103.85 51.0493 104.436 51.7189 105.474 52.906H124.311C125.35 51.7189 125.935 51.0493 126.974 49.8623V48.1427C126.974 47.3057 126.375 46.6208 125.642 46.6208Z" fill="#231815"/>
<path d="M125.642 17.4172H104.143C103.41 17.4172 102.811 16.7324 102.811 15.8954V14.1757C103.85 12.9887 104.436 12.3191 105.474 11.1321H124.311C125.35 12.3191 125.935 12.9887 126.974 14.1757V15.8954C126.974 16.7324 126.375 17.4172 125.642 17.4172Z" fill="#231815"/>
<path d="M102.811 21.9826V41.9793C102.811 42.8198 103.407 43.5011 104.143 43.5011H107.059C107.795 43.5011 108.391 42.8198 108.391 41.9793V21.9826C108.391 21.1421 107.795 20.4608 107.059 20.4608H104.143C103.407 20.4608 102.811 21.1421 102.811 21.9826Z" fill="#231815"/>
<path d="M121.401 21.9826V41.9793C121.401 42.8198 121.998 43.5011 122.733 43.5011H125.649C126.385 43.5011 126.981 42.8198 126.981 41.9793V21.9826C126.981 21.1421 126.385 20.4608 125.649 20.4608H122.733C121.998 20.4608 121.401 21.1421 121.401 21.9826Z" fill="#231815"/>
<path d="M185.361 21.9826V41.9793C185.361 42.8163 185.961 43.5011 186.693 43.5011H188.278C189.316 42.3141 189.902 41.6445 190.941 40.4575V23.5044C189.902 22.3174 189.316 21.6478 188.278 20.4608H186.693C185.961 20.4608 185.361 21.1456 185.361 21.9826Z" fill="#1A8C16"/>
<path d="M184.642 17.4172H163.143C162.41 17.4172 161.811 16.7324 161.811 15.8954V12.6539C161.811 11.8169 162.41 11.1321 163.143 11.1321H183.311C184.35 12.3191 184.935 12.9887 185.974 14.1757V15.8954C185.974 16.7324 185.375 17.4172 184.642 17.4172Z" fill="#1A8C16"/>
<path d="M184.642 46.6208H163.143C162.41 46.6208 161.811 47.3057 161.811 48.1427V51.3841C161.811 52.2211 162.41 52.906 163.143 52.906H183.311C184.35 51.7189 184.935 51.0493 185.974 49.8623V48.1427C185.974 47.3057 185.375 46.6208 184.642 46.6208Z" fill="#1A8C16"/>
<path d="M161.804 21.9826V41.9793C161.804 42.8198 162.4 43.5011 163.136 43.5011H166.052C166.788 43.5011 167.384 42.8198 167.384 41.9793V21.9826C167.384 21.1421 166.788 20.4608 166.052 20.4608H163.136C162.4 20.4608 161.804 21.1421 161.804 21.9826Z" fill="#1A8C16"/>
<path d="M197.593 12.6159V51.3461C197.593 52.1866 198.189 52.8679 198.924 52.8679H201.841C202.576 52.8679 203.172 52.1866 203.172 51.3461V12.6159C203.172 11.7754 202.576 11.0941 201.841 11.0941H198.924C198.189 11.0941 197.593 11.7754 197.593 12.6159Z" fill="#1A8C16"/>
<path d="M96.1528 17.4172H74.653C73.9205 17.4172 73.3213 16.7324 73.3213 15.8954V14.1757C74.36 12.9887 74.9459 12.3191 75.9846 11.1321H94.8211C95.8598 12.3191 96.4457 12.9887 97.4844 14.1757V15.8954C97.4844 16.7324 96.8852 17.4172 96.1528 17.4172Z" fill="#231815"/>
<path d="M73.3877 31.3875V51.3842C73.3877 52.2247 73.9839 52.906 74.7194 52.906H77.6357C78.3712 52.906 78.9674 52.2247 78.9674 51.3842V31.3875C78.9674 30.547 78.3712 29.8657 77.6357 29.8657H74.7194C73.9839 29.8657 73.3877 30.547 73.3877 31.3875Z" fill="#231815"/>
<path d="M96.1528 26.7459H74.653C73.9205 26.7459 73.3213 26.0611 73.3213 25.2241V23.5044C74.36 22.3174 74.9459 21.6478 75.9846 20.4608H94.8211C95.8598 21.6478 96.4457 22.3174 97.4844 23.5044V25.2241C97.4844 26.0611 96.8852 26.7459 96.1528 26.7459Z" fill="#231815"/>
<path d="M155.139 20.4227H133.639C132.907 20.4227 132.308 21.1075 132.308 21.9445V23.6642C133.346 24.8512 133.932 25.5208 134.971 26.7078H153.807C154.846 25.5208 155.432 24.8512 156.471 23.6642V21.9445C156.471 21.1075 155.871 20.4227 155.139 20.4227Z" fill="#231815"/>
<path d="M155.139 17.3791H133.639C132.907 17.3791 132.308 16.6943 132.308 15.8573V14.1376C133.346 12.9506 133.932 12.281 134.971 11.094H153.807C154.846 12.281 155.432 12.9506 156.471 14.1376V15.8573C156.471 16.6943 155.871 17.3791 155.139 17.3791Z" fill="#231815"/>
<path d="M155.485 52.845L155.452 52.8678H151.424L141.33 32.8864C140.784 31.8135 141.11 30.4515 142.042 29.8275H146.13L156.204 49.7709C156.75 50.8438 156.431 52.221 155.485 52.845Z" fill="#231815"/>
<path d="M132.301 31.3494V51.3461C132.301 52.1866 132.897 52.8679 133.632 52.8679H136.549C137.284 52.8679 137.88 52.1866 137.88 51.3461V31.3494C137.88 30.509 137.284 29.8276 136.549 29.8276H133.632C132.897 29.8276 132.301 30.509 132.301 31.3494Z" fill="#231815"/>
<path d="M215.41 21.9598V41.9565C215.41 42.7935 214.811 43.4783 214.079 43.4783H212.494C211.455 42.2913 210.869 41.6217 209.831 40.4347V23.4816C210.869 22.2946 211.455 21.625 212.494 20.438H214.079C214.811 20.438 215.41 21.1228 215.41 21.9598Z" fill="#1A8C16"/>
<path d="M230.471 46.5599H217.141C216.409 46.5599 215.81 47.2448 215.81 48.0818V49.8014C216.848 50.9884 217.434 51.658 218.473 52.845H229.14C230.178 51.658 230.764 50.9884 231.803 49.8014V48.0818C231.803 47.2448 231.204 46.5599 230.471 46.5599Z" fill="#1A8C16"/>
<path d="M234.466 51.3232V39.6661C234.466 38.8291 235.066 38.1443 235.798 38.1443H238.308C239.041 38.1443 239.64 38.8291 239.64 39.6661V49.8014C238.601 50.9884 238.015 51.658 236.977 52.845H235.798C235.066 52.845 234.466 52.1602 234.466 51.3232Z" fill="#1A8C16"/>
<path d="M227.961 35.1007H238.308C239.041 35.1007 239.64 34.4158 239.64 33.5788V31.8592C238.601 30.6722 238.015 30.0026 236.976 28.8156H227.961C227.229 28.8156 226.629 29.5004 226.629 30.3374V33.5788C226.629 34.4158 227.229 35.1007 227.961 35.1007Z" fill="#1A8C16"/>
<path d="M238.315 17.3944H217.148C216.416 17.3944 215.816 16.7095 215.816 15.8725V14.1529C216.855 12.9659 217.441 12.2963 218.48 11.1093H236.983C238.022 12.2963 238.608 12.9659 239.647 14.1529V15.8725C239.647 16.7095 239.047 17.3944 238.315 17.3944Z" fill="#1A8C16"/>
<path d="M244.967 22.0283V42.0249C244.967 42.8654 245.563 43.5468 246.298 43.5468H249.215C249.95 43.5468 250.546 42.8654 250.546 42.0249V22.0283C250.546 21.1878 249.95 20.5065 249.215 20.5065H246.298C245.563 20.5065 244.967 21.1878 244.967 22.0283Z" fill="#B1AABF"/>
<path d="M254.535 35.1616H267.805C268.537 35.1616 269.137 34.4767 269.137 33.6397V31.9201C268.098 30.7331 267.512 30.0635 266.473 28.8765H254.535C253.802 28.8765 253.203 29.5613 253.203 30.3983V33.6397C253.203 34.4767 253.802 35.1616 254.535 35.1616Z" fill="#B1AABF"/>
<path d="M267.805 17.4172H246.305C245.573 17.4172 244.974 16.7324 244.974 15.8954V12.6539C244.974 11.8169 245.573 11.1321 246.305 11.1321H266.473C267.512 12.3191 268.098 12.9887 269.137 14.1757V15.8954C269.137 16.7324 268.537 17.4172 267.805 17.4172Z" fill="#B1AABF"/>
<path d="M267.805 46.6208H246.305C245.573 46.6208 244.974 47.3057 244.974 48.1427V51.3841C244.974 52.2211 245.573 52.906 246.305 52.906H266.473C267.512 51.7189 268.098 51.0493 269.137 49.8623V48.1427C269.137 47.3057 268.537 46.6208 267.805 46.6208Z" fill="#B1AABF"/>
<path d="M51.9016 16.2606H46.6083V21.7772H50.6832C50.6832 21.7772 55.9033 21.7772 55.9433 34.0278C55.9765 46.2785 50.7564 46.2785 50.7564 46.2785H43.4455V21.7696H37.1201V52.4038H52.0481C52.0481 52.4038 62.7015 52.4038 62.6282 34.3322C62.5483 16.2606 51.9016 16.2606 51.9016 16.2606Z" fill="#1A8C16"/>
<path d="M50.5703 9.82324H46.6152V14.4191H50.5703V9.82324Z" fill="#1A8C16"/>
<path d="M44.5044 7.06885H41.8677V9.82334H44.5044V7.06885Z" fill="#1A8C16"/>
<path d="M48.1999 5.22742H46.6152V7.06881H48.1999V5.22742Z" fill="#1A8C16"/>
<path d="M44.5044 14.4192H39.231V19.9358H44.5044V14.4192Z" fill="#1A8C16"/>
<path d="M28.0115 25.4524H21.686V52.2592H28.0115V25.4524Z" fill="#231815" stroke="#231815" stroke-width="0.4" stroke-miterlimit="10"/>
<path d="M28.6837 15.2638C28.7703 16.0628 29.3163 16.7248 30.0087 16.8541C30.6946 16.9759 31.3138 16.5802 31.6267 15.9562H37.1132V19.9358H30.0487C29.7757 19.3879 29.263 19.0151 28.6771 19.0151C28.2776 19.0151 27.9114 19.1901 27.6317 19.4716C27.2589 19.8445 27.0458 20.4228 27.0991 21.0619C27.159 21.7011 27.5185 22.2566 28.0112 22.5229C28.1378 22.5914 28.2709 22.637 28.4107 22.6675C29.1032 22.7968 29.7291 22.4011 30.042 21.7696H37.1065V22.9946C37.1065 24.3491 36.1611 25.4448 34.9958 25.4448H16.5389C15.3737 25.4448 14.4282 24.3491 14.4282 22.9946V22.8577C14.4282 16.1693 19.0957 10.744 24.8552 10.744H34.9892C36.1544 10.744 37.0999 11.8397 37.0999 13.1941V14.1148H31.6134C31.3404 13.567 30.8277 13.1941 30.2418 13.1941C29.303 13.1941 28.5572 14.1453 28.6704 15.2638H28.6837Z" fill="#231815"/>
<path d="M37.1132 14.1148V15.9562H31.6267C31.3138 16.5801 30.6946 16.9758 30.0088 16.8541C29.3229 16.7323 28.7703 16.0703 28.6837 15.2638C28.5706 14.1452 29.3163 13.1941 30.2551 13.1941C30.8411 13.1941 31.3471 13.5669 31.6267 14.1148H37.1132Z" fill="white"/>
<path d="M37.113 19.9358V21.7772H30.0485C29.7355 22.4087 29.1097 22.7968 28.4172 22.6751C28.2774 22.6446 28.1442 22.599 28.0177 22.5305C27.525 22.2642 27.1654 21.7087 27.1055 21.0695C27.0456 20.438 27.2653 19.8597 27.6382 19.4793C27.9178 19.1901 28.284 19.0227 28.6835 19.0227C29.2695 19.0227 29.7821 19.3955 30.0551 19.9434H37.1196L37.113 19.9358Z" fill="white"/>
<path d="M21.6392 31.5016C19.8814 31.3875 18.6164 33.5409 17.1249 34.3322L12.0779 34.2942L12.0312 41.8348C12.0446 41.9489 12.1111 41.9413 12.1844 41.9717C13.0233 42.3217 16.9052 41.6217 17.7774 42.0022C18.2701 42.2152 19.1091 43.1511 19.7749 43.5392C20.4407 43.9273 21.1665 44.1479 21.9056 44.2392C21.9255 44.2392 21.9522 44.2392 21.9722 44.2392C23.1041 44.3762 24.7154 44.3001 25.8939 44.2925C27.4253 44.2925 29.6825 44.8936 30.0953 42.725C30.2485 41.9185 30.2951 35.5573 30.1619 34.7127C29.7491 32.118 27.6584 32.7952 25.9605 32.7571C25.4278 32.7419 22.5847 32.7571 22.3517 32.6734C21.8456 32.468 21.6392 31.494 21.6392 31.494" fill="white"/>
<path d="M21.6392 31.5016C19.8814 31.3875 18.6164 33.5409 17.1249 34.3322L12.0779 34.2942L12.0312 41.8348C12.0446 41.9489 12.1111 41.9413 12.1844 41.9717C13.0233 42.3217 16.9052 41.6217 17.7774 42.0022C18.2701 42.2152 19.1091 43.1511 19.7749 43.5392C20.4407 43.9273 21.1665 44.1479 21.9056 44.2392C21.9255 44.2392 21.9522 44.2392 21.9722 44.2392C23.1041 44.3762 24.7154 44.3001 25.8939 44.2925C27.4253 44.2925 29.6825 44.8936 30.0953 42.725C30.2485 41.9185 30.2951 35.5573 30.1619 34.7127C29.7491 32.118 27.6584 32.7952 25.9605 32.7571C25.4278 32.7419 22.5847 32.7571 22.3517 32.6734C21.8456 32.468 21.6392 31.494 21.6392 31.494" stroke="#18121D" stroke-width="3.19" stroke-linecap="round" stroke-linejoin="round"/>
<path d="M279.85 12.8594C280.422 12.2963 281.008 11.4897 281.594 10.4092C281.687 10.2418 281.807 10.1505 281.967 10.1353C282.127 10.1201 282.34 10.1962 282.593 10.3788L284.005 12.205C284.204 12.4333 284.231 12.6463 284.058 12.8594C283.885 13.0724 283.698 13.0724 283.499 12.8441L282.273 11.1702C282.194 11.1245 282.127 11.1093 282.074 11.1245C282.007 11.1397 281.954 11.1854 281.914 11.2767C281.501 12.0832 280.982 12.8137 280.369 13.4985C280.169 13.7268 279.97 13.7268 279.797 13.5137C279.623 13.3159 279.637 13.0876 279.85 12.8594ZM281.727 17.2574H280.169C279.903 17.2574 279.77 17.1205 279.783 16.8313C279.783 16.5422 279.916 16.4052 280.169 16.4052H281.727V14.7616H280.582C280.316 14.7616 280.183 14.6247 280.196 14.3355C280.196 14.0464 280.329 13.9094 280.582 13.9094H283.499C283.738 13.9094 283.858 14.0464 283.871 14.3355C283.871 14.6247 283.752 14.7769 283.499 14.7616H282.473V16.4052H283.752C283.991 16.4052 284.111 16.5422 284.124 16.8313C284.124 17.1205 284.005 17.2726 283.752 17.2574H282.473V22.1729C282.806 22.0511 283.152 21.9142 283.485 21.762C283.712 21.6555 283.885 21.7316 283.991 21.9903C284.084 22.249 284.031 22.4468 283.805 22.5533C282.726 23.0708 281.541 23.4208 280.276 23.6034C280.023 23.6643 279.876 23.5425 279.836 23.2534C279.783 22.9642 279.89 22.7968 280.156 22.7512C280.675 22.6599 281.208 22.5381 281.727 22.4012V17.2574ZM280.023 18.6423C279.93 18.3531 279.996 18.1553 280.249 18.064C280.489 17.9727 280.649 18.0792 280.729 18.3836C280.928 19.251 281.102 20.1641 281.248 21.1228C281.261 21.4576 281.155 21.6402 280.915 21.6555C280.662 21.6859 280.516 21.5489 280.502 21.2294C280.369 20.3011 280.209 19.4488 280.023 18.6423ZM283.246 18.3836C283.272 18.0792 283.405 17.9422 283.658 17.9727C283.911 18.0031 284.018 18.1705 283.991 18.4901C283.858 19.2662 283.685 20.0728 283.485 20.8946C283.392 21.1989 283.219 21.3054 282.979 21.2141C282.753 21.1228 282.673 20.925 282.766 20.6206C282.966 19.8445 283.126 19.0988 283.246 18.3836ZM284.431 11.9615C284.417 11.2158 284.71 10.7897 285.323 10.7136C285.909 10.6832 286.402 10.5919 286.801 10.4397C287.067 10.3788 287.227 10.4853 287.28 10.7745C287.334 11.0636 287.214 11.2462 286.934 11.3071C286.575 11.4136 286.135 11.4897 285.643 11.505C285.323 11.505 285.163 11.718 285.176 12.1289V13.6659H286.668C286.908 13.6659 287.027 13.8029 287.041 14.092C287.041 14.3964 286.921 14.5486 286.668 14.5334H285.176V16.9378H286.668C286.908 16.9378 287.027 17.0748 287.041 17.3639C287.041 17.6683 286.921 17.8205 286.668 17.8053H285.176V20.2858C285.696 20.1337 286.202 19.951 286.668 19.738C286.894 19.6315 287.067 19.7075 287.174 19.9663C287.267 20.225 287.187 20.4228 286.961 20.5445C286.442 20.7728 285.856 20.9707 285.176 21.1685V23.649C285.176 23.9686 285.057 24.1208 284.804 24.1208C284.551 24.1208 284.417 23.9686 284.431 23.649V21.3968C284.244 21.4424 284.071 21.4881 283.925 21.5337C283.658 21.5946 283.512 21.4728 283.485 21.1685C283.432 20.8793 283.525 20.7119 283.778 20.6663C283.978 20.6054 284.204 20.5445 284.431 20.4989V11.9615ZM289.658 21.5489C290.283 22.3251 291.042 22.9338 291.921 23.3751C292.174 23.4969 292.241 23.6947 292.148 23.9686C292.041 24.2273 291.855 24.3034 291.602 24.1665C290.643 23.6643 289.831 23.0099 289.151 22.1729C288.459 22.949 287.633 23.5882 286.675 24.1056C286.422 24.2426 286.235 24.1817 286.129 23.923C286.022 23.6643 286.089 23.4512 286.342 23.3142C287.261 22.8425 288.046 22.249 288.685 21.5489C288.02 20.5902 287.5 19.4488 287.127 18.1249C287.047 17.8357 287.127 17.6379 287.38 17.5466C287.607 17.4553 287.78 17.5618 287.873 17.8661C288.179 19.0379 288.619 20.0576 289.191 20.9098C289.844 19.9815 290.297 18.8858 290.536 17.6074C290.59 17.3183 290.483 17.1661 290.203 17.1509H287.5C287.221 17.1509 287.074 16.9987 287.087 16.7096C287.087 16.4204 287.221 16.2835 287.5 16.2835H290.47C291.122 16.3139 291.389 16.6943 291.282 17.44C291.029 19.0379 290.483 20.4076 289.658 21.5489ZM288.366 12.6463C288.366 13.9703 288.086 15.0203 287.514 15.7965C287.287 16.0247 287.074 16.0247 286.901 15.7965C286.728 15.5682 286.741 15.3247 286.954 15.0964C287.38 14.4725 287.593 13.5442 287.607 12.3267V11.3223C287.593 10.6984 287.86 10.394 288.406 10.394H289.871C290.417 10.394 290.696 10.7136 290.71 11.3528V14.6247C290.71 14.8529 290.816 14.9747 291.016 14.9747H291.096C291.282 14.9747 291.389 14.8682 291.402 14.6399V13.5442C291.402 13.2246 291.535 13.0724 291.788 13.0724C292.028 13.0724 292.148 13.2246 292.161 13.5442V14.8073C292.148 15.4921 291.841 15.8421 291.256 15.8421H290.789C290.217 15.8421 289.937 15.5073 289.95 14.8529V11.6876C289.937 11.3984 289.804 11.2462 289.564 11.2615H288.739C288.486 11.2615 288.352 11.4136 288.366 11.7028V12.6463Z" fill="black"/>
<path d="M281.421 26.9513H280.263C280.01 26.9513 279.876 26.8144 279.89 26.5252C279.89 26.2361 280.01 26.0839 280.263 26.0839H283.965C284.204 26.0839 284.324 26.2361 284.337 26.5252C284.337 26.8144 284.218 26.9666 283.965 26.9513H282.194C282.087 28.1079 281.914 29.1884 281.661 30.1928H282.899C283.525 30.1928 283.831 30.5428 283.831 31.2276V37.7106C283.831 38.4258 283.525 38.7759 282.899 38.7759H281.754C281.128 38.7759 280.822 38.4258 280.835 37.7106V32.6277C280.715 32.9016 280.609 33.1604 280.489 33.3886C280.329 33.6473 280.143 33.7082 279.943 33.5712C279.717 33.4191 279.677 33.206 279.823 32.9321C280.795 30.9994 281.328 29.0058 281.421 26.9513ZM281.594 37.3758C281.594 37.741 281.727 37.9236 282.007 37.9236H282.58C282.899 37.9236 283.059 37.741 283.072 37.3758V31.532C283.072 31.2124 282.913 31.0602 282.58 31.0602H282.007C281.727 31.0602 281.581 31.2124 281.594 31.532V37.3758ZM284.75 34.4387C284.75 34.1191 284.883 33.9669 285.163 33.9821C285.416 33.9973 285.536 34.1647 285.523 34.4843C285.469 35.7322 285.23 37.1323 284.79 38.6845C284.71 39.0041 284.551 39.1259 284.298 39.0346C284.045 38.9433 283.965 38.7454 284.058 38.4258C284.471 36.9649 284.697 35.6409 284.75 34.4387ZM291.295 25.9165C291.562 25.9165 291.695 26.0535 291.708 26.3426C291.708 26.6318 291.575 26.7839 291.295 26.7687H288.672V28.047H291.202C291.442 28.047 291.562 28.1992 291.575 28.4884C291.575 28.7775 291.455 28.9297 291.202 28.9145H288.672V30.1928H291.202C291.442 30.1928 291.562 30.3298 291.575 30.6189C291.575 30.9233 291.455 31.0755 291.202 31.0602H288.672V32.4451H290.723C291.482 32.4451 291.855 32.8256 291.841 33.6017C291.841 35.717 291.802 37.0562 291.722 37.6497C291.628 38.2584 291.482 38.715 291.282 39.0193C291.149 39.1715 290.976 39.2933 290.763 39.3846C290.59 39.4607 290.337 39.4911 290.004 39.4759C289.671 39.4759 289.165 39.3389 288.512 39.0802C288.233 39.0193 288.113 38.8367 288.153 38.5476C288.206 38.2584 288.379 38.1367 288.659 38.1823C289.578 38.5628 290.204 38.6389 290.536 38.3954C290.643 38.3041 290.723 38.1823 290.789 38.0454C290.963 37.5127 291.042 36.1735 291.056 34.0582C291.056 33.556 290.869 33.2973 290.496 33.3125H285.516C284.943 33.3125 284.677 32.993 284.69 32.369V26.9513C284.677 26.2665 284.97 25.9317 285.596 25.9165H291.295ZM287.926 31.0602H285.449V32.0038C285.436 32.2929 285.556 32.4451 285.822 32.4451H287.926V31.0602ZM285.443 28.047H287.92V26.7687H285.869C285.563 26.7687 285.429 26.9361 285.443 27.2861V28.047ZM285.443 30.1928H287.92V28.9145H285.443V30.1928ZM286.095 34.6365C286.042 34.3169 286.135 34.1343 286.388 34.0887C286.641 34.043 286.788 34.1647 286.828 34.4843C286.934 35.5953 287.001 36.7823 287.027 38.0149C287.014 38.3345 286.881 38.5019 286.641 38.4867C286.388 38.4867 286.268 38.3193 286.282 37.9997C286.282 36.8127 286.215 35.6866 286.095 34.6365ZM287.567 34.4843C287.487 34.1952 287.567 34.0126 287.82 33.9365C288.046 33.8604 288.206 33.9669 288.299 34.2713C288.446 35.2148 288.579 36.204 288.699 37.254C288.712 37.5736 288.592 37.741 288.352 37.7562C288.086 37.7867 287.953 37.6345 287.953 37.3149C287.873 36.2953 287.74 35.3518 287.567 34.4843ZM289.085 34.3626C288.992 34.0734 289.045 33.8756 289.271 33.7691C289.498 33.6626 289.671 33.7539 289.777 34.043C290.017 34.8191 290.23 35.6257 290.403 36.4931C290.457 36.7975 290.363 36.9801 290.11 37.041C289.857 37.1019 289.697 36.9801 289.658 36.6605C289.484 35.8387 289.298 35.0778 289.085 34.3626Z" fill="black"/>
<path d="M291.349 40.9521C291.615 40.9521 291.748 41.0891 291.762 41.3783C291.762 41.6826 291.628 41.8348 291.349 41.8196H281.734C281.401 41.8196 281.228 42.0022 281.241 42.3674V52.6397C281.241 53.0506 281.428 53.2636 281.787 53.2636H291.455C291.708 53.2636 291.841 53.4006 291.855 53.6898C291.855 53.9789 291.722 54.1311 291.455 54.1159H281.588C280.829 54.1159 280.469 53.6898 280.482 52.8375V42.0174C280.482 41.3022 280.789 40.9521 281.414 40.9521H291.349ZM283.831 46.3089H291.036C291.275 46.3089 291.395 46.4459 291.409 46.7351C291.409 47.0242 291.289 47.1764 291.036 47.1612H288.04V52.3049C288.04 52.6093 287.92 52.7614 287.667 52.7614C287.414 52.7614 287.28 52.6093 287.294 52.3049V47.1612H283.831V47.9069C283.831 49.5048 283.432 50.9353 282.646 52.1984C282.447 52.4571 282.233 52.4723 282.034 52.2592C281.834 52.0614 281.834 51.8179 282.047 51.5592C282.726 50.4635 283.059 49.2461 283.072 47.9069V44.4828C283.046 43.6762 283.352 43.2805 283.978 43.2653C286.162 43.2044 288.159 43.037 289.984 42.7631C290.25 42.7327 290.41 42.8544 290.463 43.1436C290.49 43.4327 290.37 43.6001 290.104 43.6458C288.253 43.8893 286.322 44.0567 284.298 44.1327C283.991 44.1327 283.831 44.361 283.831 44.8023V46.3089Z" fill="black"/>
</g>
<defs>
<clipPath id="clip0_1019_786">
<rect width="304" height="64" fill="white"/>
</clipPath>
</defs>
</svg>
