<svg width="304" height="64" viewBox="0 0 304 64" fill="none" xmlns="http://www.w3.org/2000/svg">
<g clip-path="url(#clip0_995_16312)">
<path d="M0.705811 0.806568L0.705811 63.201L303.301 63.201V0.806568L0.705811 0.806568Z" fill="#231815" stroke="white" stroke-width="1.08365" stroke-miterlimit="10"/>
<path d="M126.042 46.6208H104.543C103.81 46.6208 103.211 47.3057 103.211 48.1427V49.8623C104.25 51.0493 104.836 51.7189 105.874 52.906H124.711C125.749 51.7189 126.335 51.0493 127.374 49.8623V48.1427C127.374 47.3057 126.775 46.6208 126.042 46.6208Z" fill="white"/>
<path d="M126.042 17.4172H104.543C103.81 17.4172 103.211 16.7324 103.211 15.8954V14.1757C104.25 12.9887 104.836 12.3191 105.874 11.1321H124.711C125.749 12.3191 126.335 12.9887 127.374 14.1757V15.8954C127.374 16.7324 126.775 17.4172 126.042 17.4172Z" fill="white"/>
<path d="M103.211 21.9826V41.9793C103.211 42.8198 103.807 43.5011 104.543 43.5011H107.459C108.194 43.5011 108.791 42.8198 108.791 41.9793V21.9826C108.791 21.1421 108.194 20.4608 107.459 20.4608H104.543C103.807 20.4608 103.211 21.1421 103.211 21.9826Z" fill="white"/>
<path d="M121.794 21.9826V41.9793C121.794 42.8198 122.391 43.5011 123.126 43.5011H126.042C126.778 43.5011 127.374 42.8198 127.374 41.9793V21.9826C127.374 21.1421 126.778 20.4608 126.042 20.4608H123.126C122.391 20.4608 121.794 21.1421 121.794 21.9826Z" fill="white"/>
<path d="M185.761 21.9826V41.9793C185.761 42.8163 186.36 43.5011 187.093 43.5011H188.677C189.716 42.3141 190.302 41.6445 191.341 40.4575V23.5044C190.302 22.3174 189.716 21.6478 188.677 20.4608H187.093C186.36 20.4608 185.761 21.1456 185.761 21.9826Z" fill="#1A8C16"/>
<path d="M185.035 17.4172H163.536C162.803 17.4172 162.204 16.7324 162.204 15.8954V12.6539C162.204 11.8169 162.803 11.1321 163.536 11.1321H183.704C184.742 12.3191 185.328 12.9887 186.367 14.1757V15.8954C186.367 16.7324 185.768 17.4172 185.035 17.4172Z" fill="#1A8C16"/>
<path d="M185.035 46.6208H163.536C162.803 46.6208 162.204 47.3057 162.204 48.1427V51.3841C162.204 52.2211 162.803 52.906 163.536 52.906H183.704C184.742 51.7189 185.328 51.0493 186.367 49.8623V48.1427C186.367 47.3057 185.768 46.6208 185.035 46.6208Z" fill="#1A8C16"/>
<path d="M162.204 21.9826V41.9793C162.204 42.8198 162.8 43.5011 163.536 43.5011H166.452C167.187 43.5011 167.784 42.8198 167.784 41.9793V21.9826C167.784 21.1421 167.187 20.4608 166.452 20.4608H163.536C162.8 20.4608 162.204 21.1421 162.204 21.9826Z" fill="#1A8C16"/>
<path d="M197.992 12.6159V51.3461C197.992 52.1866 198.589 52.8679 199.324 52.8679H202.241C202.976 52.8679 203.572 52.1866 203.572 51.3461V12.6159C203.572 11.7754 202.976 11.0941 202.241 11.0941H199.324C198.589 11.0941 197.992 11.7754 197.992 12.6159Z" fill="#1A8C16"/>
<path d="M96.5526 17.4172H75.0529C74.3204 17.4172 73.7212 16.7324 73.7212 15.8954V14.1757C74.7599 12.9887 75.3458 12.3191 76.3845 11.1321H95.221C96.2597 12.3191 96.8456 12.9887 97.8843 14.1757V15.8954C97.8843 16.7324 97.2851 17.4172 96.5526 17.4172Z" fill="white"/>
<path d="M73.7878 31.3875V51.3842C73.7878 52.2247 74.384 52.906 75.1194 52.906H78.0358C78.7713 52.906 79.3675 52.2247 79.3675 51.3842V31.3875C79.3675 30.5471 78.7713 29.8657 78.0358 29.8657H75.1194C74.384 29.8657 73.7878 30.5471 73.7878 31.3875Z" fill="white"/>
<path d="M96.5526 26.7459H75.0529C74.3204 26.7459 73.7212 26.0611 73.7212 25.2241V23.5044C74.7599 22.3174 75.3458 21.6478 76.3845 20.4608H95.221C96.2597 21.6478 96.8456 22.3174 97.8843 23.5044V25.2241C97.8843 26.0611 97.2851 26.7459 96.5526 26.7459Z" fill="white"/>
<path d="M155.532 20.4227H134.032C133.3 20.4227 132.701 21.1075 132.701 21.9445V23.6642C133.74 24.8512 134.325 25.5208 135.364 26.7078H154.201C155.239 25.5208 155.825 24.8512 156.864 23.6642V21.9445C156.864 21.1075 156.265 20.4227 155.532 20.4227Z" fill="white"/>
<path d="M155.532 17.3791H134.032C133.3 17.3791 132.701 16.6943 132.701 15.8573V14.1376C133.74 12.9506 134.325 12.281 135.364 11.094H154.201C155.239 12.281 155.825 12.9506 156.864 14.1376V15.8573C156.864 16.6943 156.265 17.3791 155.532 17.3791Z" fill="white"/>
<path d="M155.885 52.8451L155.852 52.8679H151.824L141.729 32.8865C141.184 31.8136 141.51 30.4516 142.442 29.8276H146.53L156.604 49.771C157.15 50.8439 156.831 52.2212 155.885 52.8451Z" fill="white"/>
<path d="M132.701 31.3494V51.3461C132.701 52.1866 133.297 52.8679 134.032 52.8679H136.949C137.684 52.8679 138.28 52.1866 138.28 51.3461V31.3494C138.28 30.509 137.684 29.8276 136.949 29.8276H134.032C133.297 29.8276 132.701 30.509 132.701 31.3494Z" fill="white"/>
<path d="M215.804 21.9598V41.9565C215.804 42.7935 215.204 43.4783 214.472 43.4783H212.887C211.849 42.2913 211.263 41.6217 210.224 40.4347V23.4816C211.263 22.2946 211.849 21.625 212.887 20.438H214.472C215.204 20.438 215.804 21.1228 215.804 21.9598Z" fill="#1A8C16"/>
<path d="M230.871 46.5599H217.541C216.809 46.5599 216.21 47.2448 216.21 48.0818V49.8014C217.248 50.9884 217.834 51.658 218.873 52.845H229.54C230.578 51.658 231.164 50.9884 232.203 49.8014V48.0818C232.203 47.2448 231.604 46.5599 230.871 46.5599Z" fill="#1A8C16"/>
<path d="M234.866 51.3232V39.6661C234.866 38.8291 235.466 38.1443 236.198 38.1443H238.708C239.441 38.1443 240.04 38.8291 240.04 39.6661V49.8014C239.001 50.9884 238.415 51.658 237.377 52.845H236.198C235.466 52.845 234.866 52.1602 234.866 51.3232Z" fill="#1A8C16"/>
<path d="M228.361 35.1007H238.708C239.441 35.1007 240.04 34.4158 240.04 33.5788V31.8592C239.001 30.6722 238.415 30.0026 237.377 28.8156H228.361C227.629 28.8156 227.03 29.5004 227.03 30.3374V33.5788C227.03 34.4158 227.629 35.1007 228.361 35.1007Z" fill="#1A8C16"/>
<path d="M238.708 17.3944H217.541C216.809 17.3944 216.21 16.7095 216.21 15.8725V14.1529C217.248 12.9659 217.834 12.2963 218.873 11.1093H237.377C238.415 12.2963 239.001 12.9659 240.04 14.1529V15.8725C240.04 16.7095 239.441 17.3944 238.708 17.3944Z" fill="#1A8C16"/>
<path d="M245.367 22.0207V42.0174C245.367 42.8578 245.963 43.5392 246.698 43.5392H249.615C250.35 43.5392 250.946 42.8578 250.946 42.0174V22.0207C250.946 21.1802 250.35 20.4989 249.615 20.4989H246.698C245.963 20.4989 245.367 21.1802 245.367 22.0207Z" fill="#B1AABF"/>
<path d="M254.935 35.1616H268.205C268.937 35.1616 269.536 34.4767 269.536 33.6397V31.9201C268.498 30.7331 267.912 30.0635 266.873 28.8765H254.935C254.202 28.8765 253.603 29.5613 253.603 30.3983V33.6397C253.603 34.4767 254.202 35.1616 254.935 35.1616Z" fill="#B1AABF"/>
<path d="M268.205 17.4172H246.705C245.973 17.4172 245.373 16.7324 245.373 15.8954V12.6539C245.373 11.8169 245.973 11.1321 246.705 11.1321H266.873C267.912 12.3191 268.498 12.9887 269.536 14.1757V15.8954C269.536 16.7324 268.937 17.4172 268.205 17.4172Z" fill="#B1AABF"/>
<path d="M268.205 46.6208H246.705C245.973 46.6208 245.373 47.3057 245.373 48.1427V51.3841C245.373 52.2211 245.973 52.906 246.705 52.906H266.873C267.912 51.7189 268.498 51.0493 269.536 49.8623V48.1427C269.536 47.3057 268.937 46.6208 268.205 46.6208Z" fill="#B1AABF"/>
<path d="M51.8752 17.5085H46.5818V23.0251H50.6567C50.6567 23.0251 55.8769 23.0251 55.9168 35.2758C55.9501 47.5264 50.73 47.5264 50.73 47.5264H43.4191V23.0175H37.0937V53.6517H52.0217C52.0217 53.6517 62.675 53.6517 62.6018 35.5801C62.5219 17.5085 51.8752 17.5085 51.8752 17.5085Z" fill="#1A8C16"/>
<path d="M50.5369 11.0712H46.5818V15.6671H50.5369V11.0712Z" fill="#1A8C16"/>
<path d="M44.4778 8.31677H41.8411V11.0713H44.4778V8.31677Z" fill="#1A8C16"/>
<path d="M48.1665 6.47534H46.5818V8.31674H48.1665V6.47534Z" fill="#1A8C16"/>
<path d="M44.4778 15.6671H39.2043V21.1837H44.4778V15.6671Z" fill="#1A8C16"/>
<path d="M27.985 26.7003H21.6596V53.5071H27.985V26.7003Z" fill="white" stroke="white" stroke-width="0.205431" stroke-miterlimit="10"/>
<path d="M28.6575 16.5117C28.7441 17.3107 29.29 17.9727 29.9825 18.102C30.6683 18.2238 31.2875 17.8281 31.6005 17.2042H37.087V21.1837H30.0225C29.7495 20.6359 29.2368 20.263 28.6508 20.263C28.2513 20.263 27.8851 20.438 27.6055 20.7196C27.2326 21.0924 27.0195 21.6707 27.0728 22.3099C27.1327 22.949 27.4923 23.5045 27.985 23.7708C28.1115 23.8393 28.2447 23.8849 28.3845 23.9154C29.077 24.0447 29.7029 23.6491 30.0158 23.0175H37.0803V24.2426C37.0803 25.597 36.1348 26.6927 34.9696 26.6927H16.5127C15.3475 26.6927 14.402 25.597 14.402 24.2426V24.1056C14.402 17.4172 19.0695 11.9919 24.8289 11.9919H34.9629C36.1282 11.9919 37.0736 13.0877 37.0736 14.4421V15.3628H31.5872C31.3142 14.8149 30.8015 14.4421 30.2155 14.4421C29.2767 14.4421 28.531 15.3932 28.6442 16.5117H28.6575Z" fill="white"/>
<path d="M37.0803 15.3627V17.2041H31.5938C31.2809 17.8281 30.6617 18.2237 29.9759 18.102C29.2901 17.9802 28.7374 17.3183 28.6509 16.5117C28.5377 15.3932 29.2834 14.442 30.2222 14.442C30.8082 14.442 31.3142 14.8149 31.5938 15.3627H37.0803Z" fill="#231815"/>
<path d="M37.0803 21.1837V23.0251H30.0158C29.7029 23.6567 29.077 24.0447 28.3845 23.923C28.2447 23.8926 28.1115 23.8469 27.985 23.7784C27.4923 23.5121 27.1328 22.9566 27.0728 22.3175C27.0129 21.6859 27.2326 21.1076 27.6055 20.7272C27.8852 20.438 28.2514 20.2706 28.6509 20.2706C29.2368 20.2706 29.7495 20.6435 30.0225 21.1913H37.087L37.0803 21.1837Z" fill="#231815"/>
<path d="M21.613 32.7494C19.8552 32.6353 18.5901 34.7887 17.0986 35.58L12.0516 35.542L12.005 43.0826C12.0183 43.1967 12.0849 43.1891 12.1581 43.2195C12.9971 43.5695 16.8789 42.8695 17.7512 43.25C18.2439 43.463 19.0828 44.3989 19.7487 44.787C20.4145 45.1751 21.1403 45.3957 21.8793 45.487C21.8993 45.487 21.9259 45.487 21.9459 45.487C23.0778 45.624 24.6891 45.5479 25.8677 45.5403C27.3991 45.5403 29.6563 46.1414 30.0691 43.9728C30.2222 43.1663 30.2688 36.8051 30.1357 35.9605C29.7229 33.3658 27.6321 34.043 25.9343 34.0049C25.4016 33.9897 22.5585 34.0049 22.3254 33.9212C21.8194 33.7158 21.613 32.7418 21.613 32.7418" fill="#231815"/>
<path d="M21.613 32.7494C19.8552 32.6353 18.5901 34.7887 17.0986 35.58L12.0516 35.542L12.005 43.0826C12.0183 43.1967 12.0849 43.1891 12.1581 43.2195C12.9971 43.5695 16.8789 42.8695 17.7512 43.25C18.2439 43.463 19.0828 44.3989 19.7487 44.787C20.4145 45.1751 21.1403 45.3957 21.8793 45.487C21.8993 45.487 21.9259 45.487 21.9459 45.487C23.0778 45.624 24.6891 45.5479 25.8677 45.5403C27.3991 45.5403 29.6563 46.1414 30.0691 43.9728C30.2222 43.1663 30.2688 36.8051 30.1357 35.9605C29.7229 33.3658 27.6321 34.043 25.9343 34.0049C25.4016 33.9897 22.5585 34.0049 22.3254 33.9212C21.8194 33.7158 21.613 32.7418 21.613 32.7418" stroke="white" stroke-width="1.63831" stroke-linecap="round" stroke-linejoin="round"/>
<path d="M280.25 12.7375C280.822 12.1745 281.408 11.3679 281.994 10.2874C282.087 10.12 282.207 10.0287 282.367 10.0135C282.527 9.99827 282.74 10.0744 282.993 10.257L284.404 12.0832C284.604 12.3114 284.631 12.5245 284.458 12.7375C284.285 12.9506 284.098 12.9506 283.898 12.7223L282.673 11.0483C282.593 11.0027 282.527 10.9875 282.474 11.0027C282.407 11.0179 282.354 11.0635 282.314 11.1549C281.901 11.9614 281.382 12.6919 280.769 13.3767C280.569 13.605 280.37 13.605 280.196 13.3919C280.023 13.1941 280.037 12.9658 280.25 12.7375ZM282.127 17.1356H280.569C280.303 17.1356 280.17 16.9986 280.183 16.7095C280.183 16.4203 280.316 16.2834 280.569 16.2834H282.127V14.6398H280.982C280.716 14.6398 280.583 14.5028 280.596 14.2137C280.596 13.9246 280.729 13.7876 280.982 13.7876H283.898C284.138 13.7876 284.258 13.9246 284.271 14.2137C284.271 14.5028 284.151 14.655 283.898 14.6398H282.873V16.2834H284.151C284.391 16.2834 284.511 16.4203 284.524 16.7095C284.524 16.9986 284.404 17.1508 284.151 17.1356H282.873V22.0511C283.206 21.9293 283.552 21.7924 283.885 21.6402C284.112 21.5336 284.285 21.6097 284.391 21.8684C284.484 22.1271 284.431 22.325 284.205 22.4315C283.126 22.9489 281.941 23.2989 280.676 23.4816C280.423 23.5424 280.276 23.4207 280.236 23.1315C280.183 22.8424 280.29 22.675 280.556 22.6293C281.075 22.538 281.608 22.4163 282.127 22.2793V17.1356ZM280.423 18.5204C280.33 18.2313 280.396 18.0335 280.649 17.9422C280.889 17.8508 281.049 17.9574 281.129 18.2617C281.328 19.1292 281.501 20.0423 281.648 21.001C281.661 21.3358 281.555 21.5184 281.315 21.5336C281.062 21.5641 280.916 21.4271 280.902 21.1075C280.769 20.1792 280.609 19.327 280.423 18.5204ZM283.645 18.2617C283.672 17.9574 283.805 17.8204 284.058 17.8508C284.311 17.8813 284.418 18.0487 284.391 18.3683C284.258 19.1444 284.085 19.951 283.885 20.7727C283.792 21.0771 283.619 21.1836 283.379 21.0923C283.153 21.001 283.073 20.8032 283.166 20.4988C283.366 19.7227 283.526 18.977 283.645 18.2617ZM284.831 11.8397C284.817 11.094 285.11 10.6679 285.723 10.5918C286.309 10.5613 286.801 10.47 287.201 10.3179C287.467 10.257 287.627 10.3635 287.68 10.6527C287.734 10.9418 287.614 11.1244 287.334 11.1853C286.975 11.2918 286.535 11.3679 286.042 11.3831C285.723 11.3831 285.563 11.5962 285.576 12.0071V13.5441H287.068C287.308 13.5441 287.427 13.6811 287.441 13.9702C287.441 14.2746 287.321 14.4268 287.068 14.4115H285.576V16.816H287.068C287.308 16.816 287.427 16.953 287.441 17.2421C287.441 17.5465 287.321 17.6987 287.068 17.6834H285.576V20.164C286.096 20.0118 286.602 19.8292 287.068 19.6162C287.294 19.5096 287.467 19.5857 287.574 19.8444C287.667 20.1031 287.587 20.301 287.361 20.4227C286.841 20.651 286.255 20.8488 285.576 21.0467V23.5272C285.576 23.8468 285.456 23.999 285.203 23.999C284.95 23.999 284.817 23.8468 284.831 23.5272V21.2749C284.644 21.3206 284.471 21.3662 284.325 21.4119C284.058 21.4728 283.912 21.351 283.885 21.0467C283.832 20.7575 283.925 20.5901 284.178 20.5445C284.378 20.4836 284.604 20.4227 284.831 20.3771V11.8397ZM290.051 21.4271C290.677 22.2032 291.436 22.812 292.315 23.2533C292.568 23.375 292.634 23.5729 292.541 23.8468C292.434 24.1055 292.248 24.1816 291.995 24.0446C291.036 23.5424 290.224 22.8881 289.545 22.0511C288.852 22.8272 288.027 23.4663 287.068 23.9838C286.815 24.1207 286.628 24.0599 286.522 23.8011C286.415 23.5424 286.482 23.3294 286.735 23.1924C287.654 22.7207 288.439 22.1271 289.079 21.4271C288.413 20.4684 287.893 19.327 287.521 18.003C287.441 17.7139 287.521 17.516 287.774 17.4247C288 17.3334 288.173 17.44 288.266 17.7443C288.573 18.9161 289.012 19.9357 289.585 20.788C290.237 19.8596 290.69 18.7639 290.93 17.4856C290.983 17.1965 290.876 17.0443 290.597 17.0291H287.893C287.614 17.0291 287.467 16.8769 287.481 16.5877C287.481 16.2986 287.614 16.1616 287.893 16.1616H290.863C291.516 16.1921 291.782 16.5725 291.675 17.3182C291.422 18.9161 290.876 20.2858 290.051 21.4271ZM288.759 12.5245C288.759 13.8485 288.479 14.8985 287.907 15.6746C287.68 15.9029 287.467 15.9029 287.294 15.6746C287.121 15.4464 287.134 15.2029 287.347 14.9746C287.774 14.3507 287.987 13.4224 288 12.2049V11.2005C287.987 10.5766 288.253 10.2722 288.799 10.2722H290.264C290.81 10.2722 291.089 10.5918 291.103 11.2309V14.5028C291.103 14.7311 291.209 14.8529 291.409 14.8529H291.489C291.675 14.8529 291.782 14.7463 291.795 14.5181V13.4224C291.795 13.1028 291.928 12.9506 292.181 12.9506C292.421 12.9506 292.541 13.1028 292.554 13.4224V14.6855C292.541 15.3703 292.235 15.7203 291.649 15.7203H291.183C290.61 15.7203 290.33 15.3855 290.344 14.7311V11.5657C290.33 11.2766 290.197 11.1244 289.958 11.1396H289.132C288.879 11.1396 288.746 11.2918 288.759 11.581V12.5245Z" fill="white"/>
<path d="M281.821 26.8221H280.663C280.41 26.8221 280.276 26.6851 280.29 26.396C280.29 26.1068 280.41 25.9546 280.663 25.9546H284.365C284.604 25.9546 284.724 26.1068 284.737 26.396C284.737 26.6851 284.618 26.8373 284.365 26.8221H282.593C282.487 27.9786 282.314 29.0591 282.061 30.0635H283.299C283.925 30.0635 284.231 30.4136 284.231 31.0984V37.5813C284.231 38.2966 283.925 38.6466 283.299 38.6466H282.154C281.528 38.6466 281.222 38.2966 281.235 37.5813V32.4984C281.115 32.7724 281.009 33.0311 280.889 33.2594C280.729 33.5181 280.543 33.5789 280.343 33.442C280.117 33.2898 280.077 33.0767 280.223 32.8028C281.195 30.8701 281.728 28.8765 281.821 26.8221ZM281.994 37.2541C281.994 37.6194 282.127 37.802 282.407 37.802H282.98C283.299 37.802 283.459 37.6194 283.472 37.2541V31.4103C283.472 31.0908 283.313 30.9386 282.98 30.9386H282.407C282.127 30.9386 281.981 31.0908 281.994 31.4103V37.2541ZM285.15 34.3094C285.15 33.9898 285.283 33.8376 285.563 33.8529C285.816 33.8681 285.936 34.0355 285.923 34.3551C285.869 35.603 285.63 37.003 285.19 38.5553C285.11 38.8749 284.95 38.9966 284.697 38.9053C284.444 38.814 284.365 38.6161 284.458 38.2966C284.871 36.8356 285.097 35.5116 285.15 34.3094ZM291.695 25.7872C291.962 25.7872 292.095 25.9242 292.108 26.2133C292.108 26.5025 291.975 26.6547 291.695 26.6394H289.072V27.9178H291.602C291.842 27.9178 291.962 28.07 291.975 28.3591C291.975 28.6482 291.855 28.8004 291.602 28.7852H289.072V30.0635H291.602C291.842 30.0635 291.962 30.2005 291.975 30.4896C291.975 30.794 291.855 30.9462 291.602 30.931H289.072V32.3158H291.123C291.882 32.3158 292.255 32.6963 292.241 33.4724C292.241 35.5877 292.201 36.9269 292.122 37.5204C292.028 38.1292 291.882 38.5857 291.682 38.8901C291.549 39.0423 291.376 39.164 291.163 39.2553C290.99 39.3314 290.737 39.3618 290.404 39.3466C290.071 39.3466 289.565 39.2097 288.912 38.9509C288.633 38.8901 288.513 38.7075 288.553 38.4183C288.606 38.1292 288.779 38.0074 289.059 38.0531C289.978 38.4335 290.603 38.5096 290.936 38.2661C291.043 38.1748 291.123 38.0531 291.189 37.9161C291.362 37.3835 291.442 36.0443 291.456 33.929C291.456 33.4268 291.269 33.168 290.896 33.1833H285.916C285.343 33.1833 285.077 32.8637 285.09 32.2397V26.8221C285.077 26.1372 285.37 25.8024 285.996 25.7872H291.695ZM288.32 30.931H285.843V31.8745C285.829 32.1636 285.949 32.3158 286.216 32.3158H288.32V30.931ZM285.843 27.9178H288.32V26.6394H286.269C285.963 26.6394 285.829 26.8068 285.843 27.1569V27.9178ZM285.843 30.0635H288.32V28.7852H285.843V30.0635ZM286.495 34.5072C286.442 34.1877 286.535 34.005 286.788 33.9594C287.041 33.9137 287.188 34.0355 287.228 34.3551C287.334 35.466 287.401 36.653 287.427 37.8857C287.414 38.2053 287.281 38.3727 287.041 38.3574C286.788 38.3574 286.668 38.19 286.682 37.8705C286.682 36.6834 286.615 35.5573 286.495 34.5072ZM287.96 34.3551C287.88 34.0659 287.96 33.8833 288.213 33.8072C288.439 33.7311 288.599 33.8376 288.692 34.142C288.839 35.0855 288.972 36.0747 289.092 37.1248C289.105 37.4443 288.985 37.6117 288.746 37.627C288.479 37.6574 288.346 37.5052 288.346 37.1856C288.266 36.166 288.133 35.2225 287.96 34.3551ZM289.478 34.2409C289.385 33.9518 289.438 33.7539 289.665 33.6474C289.891 33.5409 290.064 33.6322 290.171 33.9213C290.41 34.6975 290.623 35.504 290.797 36.3715C290.85 36.6758 290.757 36.8584 290.504 36.9193C290.251 36.9802 290.091 36.8584 290.051 36.5389C289.878 35.7171 289.691 34.9562 289.478 34.2409Z" fill="white"/>
<path d="M291.749 40.8226C292.015 40.8226 292.148 40.9596 292.161 41.2487C292.161 41.5531 292.028 41.7053 291.749 41.6901H282.134C281.801 41.6901 281.628 41.8727 281.641 42.2379V52.5102C281.641 52.9211 281.828 53.1341 282.187 53.1341H291.855C292.108 53.1341 292.241 53.2711 292.255 53.5602C292.255 53.8494 292.121 54.0016 291.855 53.9863H281.988C281.228 53.9863 280.869 53.5602 280.882 52.708V41.8879C280.882 41.1726 281.189 40.8226 281.814 40.8226H291.749ZM284.231 46.1794H291.436C291.675 46.1794 291.795 46.3164 291.809 46.6055C291.809 46.8947 291.689 47.0469 291.436 47.0316H288.439V52.1754C288.439 52.4797 288.32 52.6319 288.067 52.6319C287.814 52.6319 287.68 52.4797 287.694 52.1754V47.0316H284.231V47.7773C284.231 49.3752 283.832 50.8057 283.046 52.0689C282.846 52.3276 282.633 52.3428 282.434 52.1297C282.234 51.9319 282.234 51.6884 282.447 51.4297C283.126 50.334 283.459 49.1165 283.472 47.7773V44.3532C283.446 43.5467 283.752 43.151 284.378 43.1358C286.562 43.0749 288.559 42.9075 290.384 42.6336C290.65 42.6032 290.81 42.7249 290.863 43.014C290.89 43.3032 290.77 43.4706 290.504 43.5162C288.652 43.7597 286.722 43.9271 284.697 44.0032C284.391 44.0032 284.231 44.2315 284.231 44.6728V46.1794Z" fill="white"/>
</g>
<defs>
<clipPath id="clip0_995_16312">
<rect width="304" height="64" fill="white"/>
</clipPath>
</defs>
</svg>
