<svg width="260" height="290" viewBox="0 0 260 290" fill="none" xmlns="http://www.w3.org/2000/svg">
<g clip-path="url(#clip0_1019_843)">
<g filter="url(#filter0_d_1019_843)">
<path d="M195.425 46.6519H170.161V69.7278H189.634C189.634 69.7278 214.546 69.7278 214.734 121.008C214.911 172.287 189.974 172.287 189.974 172.287H155.056V69.7278H124.845V197.927H196.13C196.13 197.927 247.009 197.927 246.644 122.29C246.267 46.6519 195.425 46.6519 195.425 46.6519Z" fill="#1A8C16"/>
<path d="M189.043 19.7299H170.161V38.9598H189.043V19.7299Z" fill="#1A8C16"/>
<path d="M160.091 8.19189H147.503V19.7298H160.091V8.19189Z" fill="#1A8C16"/>
<path d="M177.714 0.5H170.161V8.19197H177.714V0.5Z" fill="#1A8C16"/>
<path d="M160.091 38.9597H134.915V62.0356H160.091V38.9597Z" fill="#1A8C16"/>
<path d="M81.3673 85.1116H51.1567V197.286H81.3673V85.1116Z" fill="#231815" stroke="#231815" stroke-width="1.42474" stroke-miterlimit="10"/>
<path d="M84.5647 42.4853C84.9675 45.8442 87.5984 48.6133 90.8838 49.1261C94.1566 49.6261 97.1021 47.9851 98.6001 45.3698H124.795V62.0358H91.0726C89.7761 59.741 87.334 58.1898 84.527 58.1898C82.6136 58.1898 80.8765 58.9077 79.5422 60.1128C77.7673 61.6768 76.7351 64.0998 77.0121 66.7535C77.3016 69.4329 79.0135 71.7661 81.3674 72.8686C81.9591 73.1635 82.601 73.3558 83.2682 73.4711C86.5662 74.0096 89.5621 72.3558 91.06 69.7277H124.795V74.8557C124.795 80.5221 120.276 85.1117 114.725 85.1117H26.6107C21.0469 85.1117 16.5405 80.5221 16.5405 74.8557V74.2788C16.5405 46.28 38.8208 23.5759 66.3251 23.5759H114.725C120.276 23.5759 124.795 28.1655 124.795 33.8319V37.6779H98.6001C97.2909 35.3831 94.8615 33.8319 92.067 33.8319C87.5858 33.8319 84.0109 37.8189 84.5647 42.4853Z" fill="#231815"/>
<path d="M124.795 37.6779V45.3699H98.5999C97.102 47.9851 94.1564 49.6261 90.8836 49.1261C87.5982 48.6133 84.9674 45.8442 84.5645 42.4854C84.0107 37.8189 87.5856 33.8319 92.0668 33.8319C94.8613 33.8319 97.2908 35.3831 98.5999 37.6779H124.795Z" fill="white"/>
<path d="M124.795 62.0358V69.7278H91.0598C89.5619 72.3559 86.566 74.0096 83.268 73.4712C82.6009 73.3558 81.9589 73.1635 81.3673 72.8687C79.0134 71.7661 77.3014 69.4329 77.0119 66.7535C76.735 64.0998 77.7672 61.6768 79.5421 60.1128C80.8764 58.9077 82.6135 58.1898 84.5268 58.1898C87.3339 58.1898 89.7759 59.741 91.0724 62.0358H124.795Z" fill="white"/>
<path d="M50.9301 110.431C42.5341 109.944 36.5045 118.969 29.3673 122.29L5.26174 122.136L5.03516 153.686C5.08551 154.147 5.4002 154.134 5.75266 154.262C9.75556 155.724 28.2847 152.788 32.4513 154.378C34.7926 155.275 38.8081 159.173 42.0054 160.801C45.2027 162.429 48.6517 163.352 52.1889 163.736C52.2896 163.736 52.4029 163.736 52.5036 163.736C57.9037 164.3 65.6074 163.98 71.2215 163.954C78.535 163.929 89.3101 166.467 91.2864 157.416C92.0165 154.057 92.2305 127.405 91.5885 123.905C89.5997 113.046 79.6428 115.892 71.5362 115.739C69.0061 115.687 55.4113 115.764 54.3162 115.367C51.8994 114.508 50.9301 110.444 50.9301 110.444" fill="white"/>
<path d="M50.9301 110.431C42.5341 109.944 36.5045 118.969 29.3673 122.29L5.26174 122.136L5.03516 153.686C5.08551 154.147 5.4002 154.134 5.75266 154.262C9.75556 155.724 28.2847 152.788 32.4513 154.378C34.7926 155.275 38.8081 159.173 42.0054 160.801C45.2027 162.429 48.6517 163.352 52.1889 163.736C52.2896 163.736 52.4029 163.736 52.5036 163.736C57.9037 164.3 65.6074 163.98 71.2215 163.954C78.535 163.929 89.3101 166.467 91.2864 157.416C92.0165 154.057 92.2305 127.405 91.5885 123.905C89.5997 113.046 79.6428 115.892 71.5362 115.739C69.0061 115.687 55.4113 115.764 54.3162 115.367C51.8994 114.508 50.9301 110.444 50.9301 110.444" stroke="#18121D" stroke-width="11.398" stroke-linecap="round" stroke-linejoin="round"/>
<path d="M4.65771 222.029C4.65771 217.503 5.87873 214.042 8.30816 211.645C10.7376 209.247 14.7531 208.055 20.3295 208.055H35.0571V215.106H20.3295C18.0259 215.106 16.314 215.657 15.1937 216.773C14.0859 217.888 13.5195 219.631 13.5195 222.029V228.246H32.2752V235.297H13.5195V252.925H4.65771V222.029ZM43.1385 249.566C40.0545 246.81 38.5188 242.733 38.5188 237.349V223.631C38.5188 218.247 40.0545 214.17 43.1385 211.414C46.2225 208.658 50.6785 207.286 56.5067 207.286C62.3348 207.286 66.7909 208.658 69.8749 211.414C72.9588 214.17 74.4946 218.247 74.4946 223.631V237.349C74.4946 242.733 72.9588 246.81 69.8749 249.566C66.7909 252.322 62.3348 253.694 56.5067 253.694C50.6785 253.694 46.2225 252.322 43.1385 249.566ZM63.2789 244.246C64.8523 242.643 65.6454 240.348 65.6454 237.349V223.631C65.6454 220.644 64.8649 218.349 63.2789 216.734C61.6928 215.119 59.4522 214.324 56.5067 214.324C53.5611 214.324 51.3205 215.119 49.7344 216.734C48.1484 218.349 47.368 220.631 47.368 223.631V237.349C47.368 240.336 48.1484 242.63 49.7344 244.246C51.3205 245.861 53.5611 246.656 56.5067 246.656C59.4522 246.656 61.6928 245.861 63.2789 244.246ZM117.507 252.925H108.129L105.234 242.989C104.642 240.938 104.063 239.348 103.472 238.22C102.88 237.092 102.087 236.22 101.08 235.618C100.073 235.015 98.726 234.72 97.0518 234.72H90.695V252.925H81.8206V208.055H99.6323C105.007 208.055 108.972 209.132 111.528 211.298C114.083 213.465 115.367 216.824 115.367 221.401C115.367 224.349 114.599 226.721 113.063 228.516C111.528 230.31 109.426 231.464 106.732 231.977C108.872 232.708 110.483 233.964 111.578 235.759C112.673 237.554 113.68 239.989 114.599 243.066L117.494 252.938L117.507 252.925ZM104.63 226.105C105.863 225.054 106.48 223.49 106.48 221.401C106.48 219.311 105.863 217.734 104.63 216.683C103.396 215.632 101.81 215.119 99.8715 215.119H90.6824V227.682H99.8715C101.797 227.682 103.383 227.157 104.63 226.118V226.105ZM124.745 208.055H141.109C146.056 208.055 149.971 208.786 152.853 210.234C155.723 211.683 157.8 214.029 159.084 217.247C160.368 220.477 160.998 224.888 160.998 230.49C160.998 236.092 160.356 240.502 159.084 243.733C157.8 246.963 155.723 249.297 152.853 250.745C149.983 252.194 146.069 252.925 141.109 252.925H124.745V208.055ZM141.109 245.874C143.878 245.874 146.056 245.387 147.655 244.4C149.253 243.412 150.386 241.81 151.078 239.592C151.771 237.374 152.123 234.336 152.123 230.49C152.123 226.644 151.771 223.606 151.078 221.388C150.386 219.17 149.241 217.567 147.655 216.58C146.056 215.593 143.878 215.106 141.109 215.106H133.619V245.874H141.109ZM169.494 208.055H178.369V252.925H169.494V208.055ZM191.926 249.566C188.754 246.81 187.168 242.733 187.168 237.349V223.631C187.168 218.247 188.754 214.17 191.926 211.414C195.098 208.658 199.68 207.286 205.672 207.286C209.989 207.286 213.526 207.991 216.27 209.401C219.015 210.811 221.192 212.901 222.778 215.683L216.044 220.362C214.747 218.221 213.363 216.683 211.89 215.747C210.417 214.811 208.34 214.337 205.659 214.337C202.298 214.337 199.856 215.119 198.32 216.67C196.785 218.234 196.017 220.554 196.017 223.631V237.349C196.017 240.425 196.785 242.746 198.32 244.31C199.856 245.874 202.298 246.643 205.659 246.643C208.592 246.643 210.833 246.143 212.368 245.143C213.904 244.143 214.659 242.682 214.659 240.759V238.772C214.659 236.118 213.463 234.797 211.072 234.797H203.897V227.746H213.589C216.95 227.746 219.417 228.541 221.016 230.118C222.615 231.695 223.408 234.156 223.408 237.49V241.4C223.408 245.246 221.809 248.258 218.624 250.438C215.44 252.617 211.109 253.707 205.659 253.707C199.655 253.707 195.073 252.335 191.913 249.579L191.926 249.566ZM233.125 249.335C230.696 246.938 229.475 243.476 229.475 238.951V222.029C229.475 217.503 230.696 214.042 233.125 211.645C235.555 209.247 239.57 208.055 245.147 208.055H259.874V215.106H245.147C242.843 215.106 241.131 215.657 240.023 216.773C238.916 217.888 238.349 219.631 238.349 222.029V226.964H257.105V234.015H238.349V238.951C238.349 241.297 238.903 243.041 240.023 244.182C241.131 245.31 242.843 245.887 245.147 245.887H260V252.938H245.147C239.57 252.938 235.555 251.745 233.125 249.348V249.335Z" fill="url(#paint0_linear_1019_843)"/>
<path d="M52.6167 271.745V265.604C52.6167 265.245 52.881 265.027 53.3216 265.027H57.7147C58.105 265.027 58.3693 265.219 58.3693 265.514C58.3693 265.809 58.105 266.001 57.7147 266.001H54.0265V268.283H57.3875C57.7651 268.283 58.0168 268.463 58.0168 268.757C58.0168 269.052 57.7525 269.232 57.3875 269.232H54.0265V271.757C54.0265 272.116 53.7622 272.334 53.3216 272.334C52.881 272.334 52.6167 272.116 52.6167 271.757V271.745Z" fill="black"/>
<path d="M61.1265 269.603C61.1265 267.911 62.3726 266.873 64.2608 266.873C66.149 266.873 67.3952 267.911 67.3952 269.603C67.3952 271.296 66.149 272.334 64.2608 272.334C62.3726 272.334 61.1265 271.296 61.1265 269.603ZM66.0105 269.603C66.0105 268.437 65.3182 267.77 64.2608 267.77C63.2034 267.77 62.5111 268.437 62.5111 269.603C62.5111 270.77 63.2034 271.45 64.2608 271.45C65.3182 271.45 66.0105 270.783 66.0105 269.603Z" fill="black"/>
<path d="M70.7435 271.77V267.424C70.7435 267.091 71.0079 266.873 71.3855 266.873C71.7632 266.873 72.0275 267.091 72.0275 267.424V267.873H72.0653C72.2415 267.283 72.8583 266.886 73.5129 266.886C73.752 266.886 73.9282 266.937 74.0415 267.014C74.1674 267.091 74.2178 267.219 74.2178 267.398C74.2178 267.578 74.1548 267.693 74.0164 267.783C73.8779 267.873 73.6765 267.924 73.3996 267.924C72.4681 267.924 72.0904 268.424 72.0904 269.078V271.77C72.0904 272.116 71.8135 272.347 71.4107 272.347C71.0079 272.347 70.731 272.129 70.731 271.77H70.7435Z" fill="black"/>
<path d="M77.1376 273.27C77.0495 273.155 77.0117 273.039 77.0117 272.911C77.0117 272.655 77.2509 272.475 77.5908 272.475C77.7922 272.475 77.9307 272.526 78.1069 272.68C78.6482 273.129 79.1139 273.321 79.7559 273.334C80.8636 273.334 81.5307 272.847 81.5307 272.103V271.27H81.5056C81.1405 271.847 80.3601 272.219 79.416 272.219C77.7544 272.219 76.6719 271.18 76.6719 269.552C76.6719 267.924 77.7418 266.873 79.4538 266.873C80.3853 266.873 81.1154 267.245 81.5182 267.847H81.5433V267.424C81.5433 267.078 81.8329 266.873 82.2231 266.873C82.6133 266.873 82.9028 267.078 82.9028 267.424V272.091C82.9028 273.398 81.707 274.231 79.7433 274.219C78.5474 274.219 77.5908 273.834 77.1376 273.27ZM81.5433 269.578C81.5433 268.501 80.8384 267.783 79.7811 267.783C78.7237 267.783 78.0565 268.475 78.0565 269.565C78.0565 270.655 78.7363 271.347 79.7811 271.347C80.8258 271.347 81.5433 270.655 81.5433 269.578Z" fill="black"/>
<path d="M86.2388 269.629C86.2388 267.962 87.4346 266.873 89.2976 266.873C91.0599 266.873 92.2683 267.886 92.2683 269.321C92.2683 269.668 92.0165 269.873 91.6011 269.873H87.6108V269.898C87.6108 270.86 88.2906 271.462 89.3731 271.462C90.1158 271.462 90.5815 271.257 91.085 270.706C91.2235 270.565 91.362 270.514 91.5634 270.514C91.8907 270.514 92.1298 270.68 92.1298 270.95C92.1298 271.039 92.0921 271.129 92.0291 271.244C91.6011 271.937 90.6319 272.334 89.4109 272.334C87.422 272.334 86.2514 271.321 86.2514 269.629H86.2388ZM90.9214 269.129C90.8836 268.309 90.2417 267.757 89.2976 267.757C88.3535 267.757 87.6864 268.309 87.6108 269.129H90.9088H90.9214Z" fill="black"/>
<path d="M103.207 271.744V269.283L100.337 265.809C100.236 265.681 100.198 265.565 100.198 265.437C100.198 265.142 100.5 264.924 100.891 264.924C101.18 264.924 101.344 265.014 101.52 265.245L103.899 268.193H103.949L106.328 265.245C106.492 265.014 106.668 264.924 106.945 264.924C107.335 264.924 107.638 265.142 107.638 265.424C107.638 265.552 107.6 265.668 107.487 265.796L104.604 269.27V271.732C104.604 272.091 104.34 272.308 103.899 272.308C103.458 272.308 103.194 272.091 103.194 271.732L103.207 271.744Z" fill="black"/>
<path d="M109.387 269.603C109.387 267.911 110.633 266.873 112.522 266.873C114.41 266.873 115.656 267.911 115.656 269.603C115.656 271.296 114.41 272.334 112.522 272.334C110.633 272.334 109.387 271.296 109.387 269.603ZM114.284 269.603C114.284 268.437 113.592 267.77 112.534 267.77C111.477 267.77 110.784 268.437 110.784 269.603C110.784 270.77 111.477 271.45 112.534 271.45C113.592 271.45 114.284 270.783 114.284 269.603Z" fill="black"/>
<path d="M118.979 270.385V267.45C118.979 267.091 119.256 266.873 119.659 266.873C120.062 266.873 120.339 267.091 120.339 267.45V270.168C120.339 270.962 120.817 271.398 121.749 271.398C122.68 271.398 123.322 270.86 123.322 270.039V267.45C123.322 267.091 123.599 266.873 124.002 266.873C124.405 266.873 124.682 267.091 124.682 267.45V271.783C124.682 272.116 124.43 272.334 124.04 272.334C123.65 272.334 123.385 272.116 123.385 271.783V271.347H123.347C122.982 271.975 122.315 272.334 121.296 272.334C119.861 272.334 118.979 271.591 118.979 270.385Z" fill="black"/>
<path d="M128.32 271.77V267.424C128.32 267.091 128.584 266.873 128.962 266.873C129.339 266.873 129.604 267.091 129.604 267.424V267.873H129.641C129.818 267.283 130.434 266.886 131.089 266.886C131.328 266.886 131.504 266.937 131.618 267.014C131.744 267.091 131.794 267.219 131.794 267.398C131.794 267.578 131.731 267.693 131.593 267.783C131.454 267.873 131.253 267.924 130.976 267.924C130.044 267.924 129.667 268.424 129.667 269.078V271.77C129.667 272.116 129.39 272.347 128.987 272.347C128.584 272.347 128.307 272.129 128.307 271.77H128.32Z" fill="black"/>
<path d="M139.9 271.668V265.604C139.9 265.245 140.165 265.027 140.605 265.027H143.098C145.791 265.027 147.39 266.347 147.39 268.629C147.39 270.911 145.804 272.257 143.098 272.257H140.605C140.165 272.257 139.9 272.039 139.9 271.68V271.668ZM142.959 271.27C144.885 271.27 145.943 270.334 145.943 268.629C145.943 266.924 144.873 265.988 142.959 265.988H141.298V271.27H142.959Z" fill="black"/>
<path d="M150.801 265.552C150.801 265.206 151.153 264.937 151.581 264.937C152.009 264.937 152.374 265.206 152.374 265.552C152.374 265.899 152.022 266.168 151.581 266.168C151.141 266.168 150.801 265.886 150.801 265.552ZM150.901 271.77V267.463C150.901 267.117 151.166 266.886 151.581 266.886C151.997 266.886 152.261 267.117 152.261 267.463V271.77C152.261 272.116 151.997 272.347 151.581 272.347C151.166 272.347 150.901 272.116 150.901 271.77Z" fill="black"/>
<path d="M156.114 273.27C156.026 273.155 155.988 273.039 155.988 272.911C155.988 272.655 156.227 272.475 156.567 272.475C156.768 272.475 156.907 272.526 157.083 272.68C157.624 273.129 158.09 273.321 158.732 273.334C159.84 273.334 160.507 272.847 160.507 272.103V271.27H160.482C160.117 271.847 159.336 272.219 158.392 272.219C156.73 272.219 155.648 271.18 155.648 269.552C155.648 267.924 156.718 266.873 158.43 266.873C159.361 266.873 160.091 267.245 160.494 267.847H160.519V267.424C160.519 267.078 160.809 266.873 161.199 266.873C161.589 266.873 161.879 267.078 161.879 267.424V272.091C161.879 273.398 160.683 274.231 158.719 274.219C157.524 274.219 156.567 273.834 156.114 273.27ZM160.519 269.578C160.519 268.501 159.814 267.783 158.757 267.783C157.7 267.783 157.033 268.475 157.033 269.565C157.033 270.655 157.712 271.347 158.757 271.347C159.802 271.347 160.519 270.655 160.519 269.578Z" fill="black"/>
<path d="M165.453 265.552C165.453 265.206 165.806 264.937 166.234 264.937C166.662 264.937 167.027 265.206 167.027 265.552C167.027 265.899 166.674 266.168 166.234 266.168C165.793 266.168 165.453 265.886 165.453 265.552ZM165.554 271.77V267.463C165.554 267.117 165.818 266.886 166.234 266.886C166.649 266.886 166.913 267.117 166.913 267.463V271.77C166.913 272.116 166.649 272.347 166.234 272.347C165.818 272.347 165.554 272.116 165.554 271.77Z" fill="black"/>
<path d="M170.992 267.834H170.514C170.161 267.834 169.947 267.681 169.947 267.411C169.947 267.142 170.161 266.975 170.514 266.975H170.992V266.193C170.992 265.847 171.256 265.617 171.672 265.617C172.087 265.617 172.352 265.847 172.352 266.193V266.975H173.119C173.472 266.975 173.686 267.142 173.686 267.411C173.686 267.681 173.472 267.834 173.119 267.834H172.352V270.745C172.352 271.168 172.528 271.36 173.019 271.386H173.119C173.51 271.424 173.698 271.539 173.698 271.796C173.698 272.116 173.384 272.283 172.717 272.283H172.654C171.546 272.283 170.979 271.847 170.979 270.975V267.822L170.992 267.834Z" fill="black"/>
<path d="M176.644 270.744C176.644 269.821 177.538 269.257 179.099 269.193L180.911 269.103V268.693C180.911 268.104 180.42 267.757 179.59 267.757C178.935 267.757 178.507 267.937 178.129 268.424C177.991 268.578 177.815 268.655 177.576 268.655C177.236 268.655 176.996 268.475 176.996 268.206C176.996 268.091 177.034 267.975 177.11 267.86C177.45 267.27 178.457 266.886 179.64 266.886C181.239 266.886 182.271 267.565 182.271 268.616V271.796C182.271 272.142 182.006 272.347 181.616 272.347C181.226 272.347 180.987 272.155 180.974 271.834V271.385H180.949C180.571 271.975 179.728 272.347 178.859 272.347C177.563 272.347 176.657 271.706 176.657 270.757L176.644 270.744ZM180.911 270.27V269.86L179.275 269.937C178.469 269.988 178.004 270.27 178.004 270.719C178.004 271.167 178.482 271.475 179.212 271.475C180.156 271.475 180.911 270.95 180.911 270.27Z" fill="black"/>
<path d="M185.934 271.77V265.501C185.934 265.142 186.211 264.924 186.613 264.924C187.016 264.924 187.293 265.142 187.293 265.501V271.77C187.293 272.129 187.016 272.347 186.613 272.347C186.211 272.347 185.934 272.129 185.934 271.77Z" fill="black"/>
<path d="M195.815 270.911C195.764 270.796 195.739 270.68 195.739 270.565C195.739 270.244 195.991 270.027 196.369 270.027C196.683 270.027 196.897 270.142 197.036 270.411C197.313 271.091 198.144 271.398 199.188 271.398C200.334 271.398 201.165 270.924 201.165 270.283C201.165 269.719 200.686 269.373 199.478 269.155L198.483 268.988C196.671 268.68 195.853 268.014 195.853 266.975C195.853 265.745 197.212 264.886 199.151 264.886C200.711 264.886 201.945 265.475 202.297 266.437C202.335 266.501 202.348 266.591 202.348 266.693C202.348 266.988 202.096 267.181 201.731 267.181C201.391 267.181 201.19 267.052 201.039 266.796C200.737 266.129 200.044 265.847 199.138 265.847C198.081 265.847 197.288 266.257 197.288 266.924C197.288 267.45 197.753 267.796 198.937 268.001L199.918 268.168C201.819 268.488 202.6 269.091 202.6 270.142C202.6 271.501 201.253 272.36 199.138 272.36C197.376 272.36 196.18 271.757 195.827 270.911H195.815Z" fill="black"/>
<path d="M205.697 269.603C205.697 267.911 206.943 266.873 208.831 266.873C210.719 266.873 211.965 267.911 211.965 269.603C211.965 271.296 210.719 272.334 208.831 272.334C206.943 272.334 205.697 271.296 205.697 269.603ZM210.581 269.603C210.581 268.437 209.888 267.77 208.831 267.77C207.774 267.77 207.081 268.437 207.081 269.603C207.081 270.77 207.774 271.45 208.831 271.45C209.888 271.45 210.581 270.783 210.581 269.603Z" fill="black"/>
<path d="M215.364 271.77V265.501C215.364 265.142 215.641 264.924 216.044 264.924C216.446 264.924 216.723 265.142 216.723 265.501V271.77C216.723 272.129 216.446 272.347 216.044 272.347C215.641 272.347 215.364 272.129 215.364 271.77Z" fill="black"/>
<path d="M220.373 270.385V267.45C220.373 267.091 220.65 266.873 221.053 266.873C221.456 266.873 221.733 267.091 221.733 267.45V270.168C221.733 270.962 222.211 271.398 223.142 271.398C224.074 271.398 224.716 270.86 224.716 270.039V267.45C224.716 267.091 224.993 266.873 225.396 266.873C225.798 266.873 226.075 267.091 226.075 267.45V271.783C226.075 272.116 225.824 272.334 225.433 272.334C225.043 272.334 224.779 272.116 224.779 271.783V271.347H224.741C224.376 271.975 223.709 272.334 222.689 272.334C221.254 272.334 220.373 271.591 220.373 270.385Z" fill="black"/>
<path d="M230.103 267.834H229.625C229.273 267.834 229.059 267.681 229.059 267.411C229.059 267.142 229.273 266.975 229.625 266.975H230.103V266.193C230.103 265.847 230.368 265.617 230.783 265.617C231.198 265.617 231.463 265.847 231.463 266.193V266.975H232.231C232.583 266.975 232.797 267.142 232.797 267.411C232.797 267.681 232.583 267.834 232.231 267.834H231.463V270.745C231.463 271.168 231.652 271.36 232.13 271.386H232.231C232.621 271.424 232.81 271.539 232.81 271.796C232.81 272.116 232.495 272.283 231.828 272.283H231.765C230.657 272.283 230.091 271.847 230.091 270.975V267.822L230.103 267.834Z" fill="black"/>
<path d="M236.07 265.552C236.07 265.206 236.423 264.937 236.851 264.937C237.279 264.937 237.644 265.206 237.644 265.552C237.644 265.899 237.291 266.168 236.851 266.168C236.41 266.168 236.07 265.886 236.07 265.552ZM236.184 271.77V267.463C236.184 267.116 236.448 266.886 236.863 266.886C237.279 266.886 237.543 267.116 237.543 267.463V271.77C237.543 272.116 237.279 272.347 236.863 272.347C236.448 272.347 236.184 272.116 236.184 271.77Z" fill="black"/>
<path d="M240.929 269.603C240.929 267.911 242.175 266.873 244.064 266.873C245.952 266.873 247.198 267.911 247.198 269.603C247.198 271.296 245.952 272.334 244.064 272.334C242.175 272.334 240.929 271.296 240.929 269.603ZM245.813 269.603C245.813 268.437 245.121 267.77 244.064 267.77C243.006 267.77 242.314 268.437 242.314 269.603C242.314 270.77 243.006 271.45 244.064 271.45C245.121 271.45 245.813 270.783 245.813 269.603Z" fill="black"/>
<path d="M250.546 271.77V267.424C250.546 267.091 250.798 266.873 251.188 266.873C251.578 266.873 251.843 267.091 251.843 267.424V267.834H251.881C252.233 267.232 252.925 266.873 253.945 266.873C255.405 266.873 256.236 267.616 256.236 268.821V271.757C256.236 272.116 255.959 272.334 255.556 272.334C255.153 272.334 254.876 272.116 254.876 271.757V269.039C254.876 268.245 254.411 267.809 253.467 267.809C252.523 267.809 251.893 268.347 251.893 269.168V271.757C251.893 272.116 251.616 272.334 251.213 272.334C250.811 272.334 250.534 272.116 250.534 271.757L250.546 271.77Z" fill="black"/>
<path d="M52.6166 287.128V280.988C52.6166 280.629 52.8809 280.411 53.3215 280.411H56.0153C57.7776 280.411 58.9986 281.372 58.9986 282.782C58.9986 284.193 57.7524 285.167 55.9649 285.167H54.0138V287.141C54.0138 287.5 53.7495 287.718 53.3089 287.718C52.8683 287.718 52.604 287.5 52.604 287.141L52.6166 287.128ZM55.6377 284.218C56.8587 284.218 57.5636 283.693 57.5636 282.782C57.5636 281.872 56.8713 281.347 55.6502 281.347H54.0264V284.218H55.6377Z" fill="black"/>
<path d="M61.7935 284.987C61.7935 283.295 63.0396 282.257 64.9278 282.257C66.816 282.257 68.0622 283.295 68.0622 284.987C68.0622 286.68 66.816 287.718 64.9278 287.718C63.0396 287.718 61.7935 286.68 61.7935 284.987ZM66.6775 284.987C66.6775 283.821 65.9852 283.154 64.9278 283.154C63.8704 283.154 63.1781 283.821 63.1781 284.987C63.1781 286.154 63.8704 286.834 64.9278 286.834C65.9852 286.834 66.6775 286.167 66.6775 284.987Z" fill="black"/>
<path d="M72.5305 287.18L71.02 283.039C70.9696 282.923 70.957 282.821 70.957 282.731C70.957 282.449 71.2214 282.27 71.6116 282.27C71.9515 282.27 72.1529 282.411 72.241 282.718L73.4242 286.513H73.4494L74.7082 282.757C74.7963 282.436 75.0732 282.27 75.4886 282.27C75.904 282.27 76.1558 282.436 76.2565 282.757L77.5153 286.513H77.5404L78.7237 282.718C78.8118 282.411 79.0006 282.27 79.3405 282.27C79.7307 282.27 79.995 282.449 79.995 282.731C79.995 282.821 79.9825 282.911 79.9321 283.039L78.4216 287.18C78.2831 287.551 78.0188 287.731 77.5656 287.731C77.0999 287.731 76.8355 287.577 76.7096 287.18L75.476 283.68H75.4509L74.2298 287.18C74.104 287.551 73.827 287.731 73.3613 287.731C72.8955 287.731 72.669 287.564 72.5305 287.18Z" fill="black"/>
<path d="M82.9028 285.013C82.9028 283.347 84.0987 282.257 85.9617 282.257C87.7239 282.257 88.9324 283.27 88.9324 284.705C88.9324 285.052 88.6806 285.257 88.2652 285.257H84.2749V285.282C84.2749 286.244 84.9546 286.846 86.0372 286.846C86.7799 286.846 87.2456 286.641 87.7491 286.09C87.8876 285.949 88.026 285.898 88.2274 285.898C88.5547 285.898 88.7939 286.064 88.7939 286.334C88.7939 286.423 88.7561 286.513 88.6932 286.628C88.2652 287.321 87.296 287.718 86.0749 287.718C84.0861 287.718 82.9154 286.705 82.9154 285.013H82.9028ZM87.5855 284.513C87.5477 283.693 86.9057 283.141 85.9617 283.141C85.0176 283.141 84.3504 283.693 84.2749 284.513H87.5729H87.5855Z" fill="black"/>
<path d="M92.2934 287.154V282.808C92.2934 282.475 92.5577 282.257 92.9353 282.257C93.313 282.257 93.5773 282.475 93.5773 282.808V283.257H93.6151C93.7913 282.667 94.4081 282.27 95.0626 282.27C95.3018 282.27 95.478 282.321 95.5913 282.398C95.7172 282.475 95.7676 282.603 95.7676 282.782C95.7676 282.962 95.7046 283.077 95.5662 283.167C95.4277 283.257 95.2263 283.308 94.9494 283.308C94.0179 283.308 93.6402 283.808 93.6402 284.462V287.154C93.6402 287.5 93.3633 287.731 92.9605 287.731C92.5577 287.731 92.2808 287.513 92.2808 287.154H92.2934Z" fill="black"/>
<path d="M103.874 285.09V280.898C103.874 280.539 104.138 280.321 104.579 280.321C105.02 280.321 105.284 280.539 105.284 280.898V284.988C105.284 286.013 106.102 286.744 107.55 286.744C108.997 286.744 109.815 286.013 109.815 284.988V280.898C109.815 280.539 110.08 280.321 110.52 280.321C110.961 280.321 111.213 280.539 111.213 280.898V285.09C111.213 286.641 109.815 287.744 107.55 287.744C105.284 287.744 103.887 286.641 103.887 285.09H103.874Z" fill="black"/>
<path d="M115.014 288.923V282.821C115.014 282.475 115.278 282.27 115.669 282.27C116.059 282.27 116.323 282.475 116.323 282.821V283.27H116.348C116.739 282.667 117.494 282.282 118.451 282.282C120.125 282.282 121.232 283.334 121.232 285C121.232 286.667 120.137 287.718 118.476 287.718C117.532 287.718 116.776 287.346 116.399 286.757H116.361V288.91C116.361 289.269 116.084 289.487 115.681 289.487C115.278 289.487 115.001 289.269 115.001 288.91L115.014 288.923ZM119.848 284.987C119.848 283.885 119.181 283.18 118.098 283.18C117.016 283.18 116.361 283.898 116.361 284.987C116.361 286.077 117.053 286.795 118.098 286.795C119.143 286.795 119.848 286.09 119.848 284.987Z" fill="black"/>
<path d="M132.171 287.128V284.667L129.301 281.193C129.2 281.065 129.163 280.949 129.163 280.821C129.163 280.526 129.465 280.308 129.855 280.308C130.144 280.308 130.308 280.398 130.484 280.629L132.863 283.577H132.914L135.293 280.629C135.456 280.398 135.633 280.308 135.91 280.308C136.3 280.308 136.602 280.526 136.602 280.808C136.602 280.936 136.564 281.052 136.451 281.18L133.568 284.654V287.116C133.568 287.475 133.304 287.693 132.863 287.693C132.423 287.693 132.158 287.475 132.158 287.116L132.171 287.128Z" fill="black"/>
<path d="M138.352 284.987C138.352 283.295 139.598 282.257 141.486 282.257C143.375 282.257 144.621 283.295 144.621 284.987C144.621 286.68 143.375 287.718 141.486 287.718C139.598 287.718 138.352 286.68 138.352 284.987ZM143.236 284.987C143.236 283.821 142.544 283.154 141.486 283.154C140.429 283.154 139.737 283.821 139.737 284.987C139.737 286.154 140.429 286.834 141.486 286.834C142.544 286.834 143.236 286.167 143.236 284.987Z" fill="black"/>
<path d="M147.944 285.77V282.834C147.944 282.475 148.221 282.257 148.624 282.257C149.026 282.257 149.303 282.475 149.303 282.834V285.552C149.303 286.346 149.782 286.782 150.713 286.782C151.645 286.782 152.287 286.244 152.287 285.423V282.834C152.287 282.475 152.564 282.257 152.966 282.257C153.369 282.257 153.646 282.475 153.646 282.834V287.167C153.646 287.5 153.394 287.718 153.004 287.718C152.614 287.718 152.35 287.5 152.35 287.167V286.731H152.312C151.947 287.359 151.28 287.718 150.26 287.718C148.825 287.718 147.944 286.975 147.944 285.77Z" fill="black"/>
<path d="M157.271 287.154V282.808C157.271 282.475 157.536 282.257 157.913 282.257C158.291 282.257 158.555 282.475 158.555 282.808V283.257H158.593C158.769 282.667 159.386 282.27 160.041 282.27C160.28 282.27 160.456 282.321 160.569 282.398C160.695 282.475 160.746 282.603 160.746 282.782C160.746 282.962 160.683 283.077 160.544 283.167C160.406 283.257 160.204 283.308 159.927 283.308C158.996 283.308 158.618 283.808 158.618 284.462V287.154C158.618 287.5 158.341 287.731 157.939 287.731C157.536 287.731 157.259 287.513 157.259 287.154H157.271Z" fill="black"/>
<path d="M168.853 287.128V280.898C168.853 280.539 169.117 280.321 169.557 280.321C169.998 280.321 170.262 280.539 170.262 280.898V287.128C170.262 287.487 169.998 287.705 169.557 287.705C169.117 287.705 168.853 287.487 168.853 287.128Z" fill="black"/>
<path d="M173.773 284.988C173.773 283.321 174.881 282.27 176.543 282.27C177.487 282.27 178.242 282.654 178.62 283.231H178.645V280.872C178.645 280.513 178.922 280.295 179.325 280.295C179.727 280.295 180.004 280.513 180.004 280.872V287.18C180.004 287.526 179.727 287.718 179.337 287.718C178.947 287.718 178.645 287.513 178.645 287.18V286.693H178.632C178.292 287.308 177.6 287.718 176.568 287.718C174.894 287.718 173.786 286.654 173.786 285L173.773 284.988ZM178.645 284.988C178.645 283.898 177.953 283.18 176.908 283.18C175.863 283.18 175.158 283.885 175.158 284.988C175.158 286.09 175.825 286.795 176.908 286.795C177.99 286.795 178.645 286.09 178.645 284.988Z" fill="black"/>
<path d="M183.391 285.013C183.391 283.346 184.586 282.257 186.449 282.257C188.212 282.257 189.42 283.269 189.42 284.705C189.42 285.051 189.168 285.257 188.753 285.257H184.763V285.282C184.763 286.244 185.442 286.846 186.525 286.846C187.268 286.846 187.733 286.641 188.237 286.09C188.375 285.949 188.514 285.898 188.715 285.898C189.043 285.898 189.282 286.064 189.282 286.333C189.282 286.423 189.244 286.513 189.181 286.628C188.753 287.321 187.784 287.718 186.563 287.718C184.574 287.718 183.403 286.705 183.403 285.013H183.391ZM188.061 284.513C188.035 283.693 187.381 283.141 186.437 283.141C185.493 283.141 184.826 283.693 184.75 284.513H188.048H188.061Z" fill="black"/>
<path d="M192.504 286.128C192.504 285.205 193.398 284.641 194.959 284.577L196.772 284.488V284.077C196.772 283.488 196.281 283.141 195.45 283.141C194.795 283.141 194.367 283.321 193.99 283.808C193.851 283.962 193.675 284.039 193.436 284.039C193.096 284.039 192.857 283.859 192.857 283.59C192.857 283.475 192.895 283.359 192.97 283.244C193.31 282.654 194.317 282.27 195.5 282.27C197.099 282.27 198.131 282.949 198.131 284V287.18C198.131 287.526 197.867 287.731 197.477 287.731C197.086 287.731 196.847 287.539 196.835 287.218V286.769H196.809C196.432 287.359 195.588 287.731 194.72 287.731C193.423 287.731 192.517 287.09 192.517 286.141L192.504 286.128ZM196.772 285.654V285.244L195.135 285.321C194.33 285.372 193.864 285.654 193.864 286.103C193.864 286.552 194.342 286.859 195.072 286.859C196.016 286.859 196.772 286.334 196.772 285.654Z" fill="black"/>
<path d="M201.781 287.154V280.885C201.781 280.526 202.058 280.308 202.461 280.308C202.864 280.308 203.141 280.526 203.141 280.885V287.154C203.141 287.513 202.864 287.731 202.461 287.731C202.058 287.731 201.781 287.513 201.781 287.154Z" fill="black"/>
<path d="M206.704 286.654C206.666 286.577 206.653 286.5 206.653 286.423C206.653 286.154 206.905 285.987 207.232 285.987C207.459 285.987 207.648 286.077 207.824 286.269C208.164 286.692 208.554 286.885 209.347 286.885C210.14 286.885 210.644 286.616 210.644 286.18C210.644 285.833 210.379 285.654 209.674 285.513L208.63 285.321C207.346 285.077 206.716 284.577 206.716 283.834C206.716 282.885 207.748 282.257 209.322 282.257C210.518 282.257 211.5 282.744 211.688 283.359C211.688 283.423 211.714 283.475 211.714 283.513C211.714 283.757 211.525 283.911 211.185 283.911C210.971 283.911 210.77 283.846 210.644 283.68C210.354 283.282 209.951 283.064 209.284 283.064C208.554 283.064 208.051 283.346 208.051 283.757C208.051 284.09 208.365 284.321 209.07 284.449L210.09 284.641C211.474 284.898 212.016 285.295 212.016 286.077C212.016 287.051 210.921 287.705 209.284 287.705C207.988 287.705 207.031 287.282 206.716 286.628L206.704 286.654Z" fill="black"/>
<path d="M39.3876 265.77C39.8911 265.77 40.1429 266.001 40.1681 266.488C40.1681 267.001 39.9163 267.257 39.3876 267.232H21.2109C20.5815 267.232 20.2543 267.54 20.2794 268.155V285.462C20.2794 286.154 20.6319 286.513 21.3116 286.513H39.589C40.0674 286.513 40.3191 286.744 40.3443 287.231C40.3443 287.718 40.0925 287.975 39.589 287.949H20.934C19.499 287.949 18.8192 287.231 18.8444 285.795V267.565C18.8444 266.36 19.4235 265.77 20.6067 265.77H39.3876ZM25.1886 274.796H38.8086C39.2618 274.796 39.4883 275.026 39.5135 275.514C39.5135 276.001 39.2869 276.257 38.8086 276.231H33.1441V284.898C33.1441 285.411 32.9175 285.667 32.4392 285.667C31.9609 285.667 31.7091 285.411 31.7343 284.898V276.231H25.1886V277.488C25.1886 280.18 24.4334 282.59 22.948 284.718C22.5704 285.154 22.1676 285.18 21.79 284.821C21.4123 284.488 21.4123 284.077 21.8151 283.641C23.0991 281.795 23.7285 279.744 23.7536 277.488V271.719C23.7033 270.36 24.2823 269.693 25.4656 269.668C29.5944 269.565 33.3707 269.283 36.8197 268.822C37.3232 268.77 37.6253 268.975 37.726 269.463C37.7764 269.95 37.5498 270.232 37.0463 270.309C33.5469 270.719 29.8965 271.001 26.0698 271.129C25.4908 271.129 25.1886 271.514 25.1886 272.257V274.796Z" fill="black"/>
<path d="M5.8031 267.565C6.23108 267.181 6.68424 266.642 7.12481 265.911C7.20034 265.796 7.28845 265.732 7.40174 265.732C7.52762 265.732 7.67867 265.77 7.88008 265.899L8.95004 267.129C9.10109 267.283 9.12627 267.424 8.9878 267.565C8.86192 267.706 8.71087 267.706 8.55982 267.565L7.62832 266.437C7.62832 266.437 7.51503 266.399 7.47727 266.411C7.42692 266.411 7.38916 266.45 7.35139 266.514C7.0367 267.052 6.64648 267.552 6.18073 268.014C6.02968 268.168 5.87863 268.168 5.75275 268.014C5.62687 267.886 5.62687 267.732 5.79051 267.578L5.8031 267.565ZM7.22551 270.527H6.04227C5.84086 270.527 5.74016 270.437 5.75275 270.245C5.75275 270.052 5.85345 269.963 6.04227 269.963H7.22551V268.86H6.35696C6.15556 268.86 6.05485 268.77 6.06744 268.578C6.06744 268.386 6.16814 268.296 6.35696 268.296H8.55982C8.73605 268.296 8.83675 268.386 8.83675 268.578C8.83675 268.77 8.74863 268.873 8.55982 268.86H7.77938V269.963H8.74863C8.92486 269.963 9.02556 270.052 9.02556 270.245C9.02556 270.437 8.93745 270.539 8.74863 270.527H7.77938V273.834C8.03113 273.757 8.29547 273.655 8.54723 273.552C8.72346 273.475 8.84934 273.526 8.92486 273.706C9.00039 273.885 8.95004 274.014 8.7864 274.091C7.96819 274.437 7.07446 274.68 6.11779 274.796C5.92898 274.834 5.81569 274.757 5.79051 274.565C5.75275 274.373 5.82827 274.257 6.02968 274.232C6.4199 274.167 6.82271 274.091 7.21293 274.001V270.539L7.22551 270.527ZM5.92898 271.462C5.85345 271.27 5.9038 271.129 6.10521 271.078C6.28143 271.014 6.40731 271.078 6.47025 271.296C6.6213 271.885 6.74718 272.501 6.86047 273.142C6.86047 273.373 6.78494 273.488 6.60872 273.501C6.4199 273.526 6.30661 273.424 6.29402 273.219C6.19332 272.591 6.06744 272.014 5.92898 271.475V271.462ZM8.371 271.283C8.39618 271.078 8.49688 270.988 8.68569 271.001C8.87451 271.027 8.96262 271.129 8.93745 271.347C8.83675 271.873 8.71087 272.411 8.55982 272.962C8.48429 273.167 8.35841 273.244 8.18218 273.18C8.00596 273.116 7.9556 272.988 8.01854 272.783C8.1696 272.257 8.29547 271.757 8.38359 271.27L8.371 271.283ZM9.26473 266.95C9.26473 266.45 9.47872 266.155 9.94447 266.104C10.385 266.078 10.7627 266.027 11.0648 265.924C11.2662 265.886 11.3921 265.95 11.4298 266.155C11.4676 266.36 11.3795 266.475 11.1655 266.514C10.8886 266.591 10.5613 266.642 10.1836 266.642C9.94447 266.642 9.81859 266.783 9.83118 267.065V268.104H10.9641C11.1403 268.104 11.241 268.193 11.241 268.386C11.241 268.591 11.1529 268.693 10.9641 268.681H9.83118V270.296H10.9641C11.1403 270.296 11.241 270.386 11.241 270.578C11.241 270.783 11.1529 270.886 10.9641 270.873H9.83118V272.539C10.2214 272.437 10.6116 272.309 10.9641 272.168C11.1403 272.091 11.2662 272.142 11.3417 272.321C11.4172 272.501 11.3417 272.629 11.1781 272.706C10.7878 272.86 10.3473 272.988 9.83118 273.129V274.796C9.83118 275.014 9.74307 275.116 9.55425 275.116C9.36543 275.116 9.26473 275.014 9.27732 274.796V273.283C9.13885 273.309 9.00039 273.347 8.89969 273.373C8.69828 273.411 8.58499 273.334 8.5724 273.129C8.53464 272.937 8.59758 272.821 8.79898 272.796C8.95004 272.757 9.12627 272.719 9.28991 272.68V266.924L9.26473 266.95ZM13.2047 273.411C13.683 273.937 14.2495 274.347 14.9166 274.642C15.1054 274.719 15.1558 274.86 15.0929 275.039C15.0173 275.219 14.8663 275.27 14.6775 275.167C13.9474 274.834 13.3432 274.385 12.8271 273.821C12.2984 274.347 11.6816 274.77 10.9515 275.129C10.7627 275.219 10.6242 275.18 10.5361 275.001C10.4606 274.821 10.5109 274.68 10.6997 274.591C11.3921 274.27 11.9837 273.873 12.4746 273.398C11.9711 272.757 11.5809 271.988 11.2914 271.091C11.2284 270.898 11.2914 270.757 11.4802 270.706C11.6564 270.642 11.7823 270.706 11.8578 270.924C12.0844 271.719 12.4243 272.398 12.8522 272.975C13.3432 272.347 13.683 271.616 13.8718 270.745C13.9096 270.552 13.8341 270.45 13.6201 270.437H11.5809C11.3669 270.437 11.2536 270.334 11.2662 270.142C11.2662 269.95 11.3669 269.86 11.5809 269.86H13.8215C14.3124 269.886 14.5138 270.142 14.4383 270.642C14.2495 271.719 13.8341 272.642 13.2047 273.411ZM12.2354 267.411C12.2354 268.309 12.0214 269.014 11.5935 269.539C11.4172 269.693 11.2662 269.693 11.1277 269.539C11.0018 269.386 11.0018 269.219 11.1655 269.065C11.4928 268.642 11.6438 268.014 11.6564 267.193V266.514C11.6564 266.091 11.8452 265.886 12.2606 265.886H13.3683C13.7837 265.886 13.9977 266.104 13.9977 266.527V268.732C13.9977 268.886 14.0733 268.963 14.2243 268.963H14.2872C14.4257 268.963 14.5138 268.886 14.5138 268.732V267.988C14.5138 267.77 14.6145 267.668 14.8033 267.668C14.9922 267.668 15.0803 267.77 15.0803 267.988V268.834C15.0803 269.296 14.8411 269.527 14.4005 269.527H14.0481C13.6201 269.527 13.4061 269.296 13.4187 268.86V266.732C13.4187 266.54 13.3054 266.437 13.1292 266.45H12.4998C12.311 266.45 12.2103 266.552 12.2229 266.745V267.386L12.2354 267.411Z" fill="black"/>
<path d="M6.98647 280.026H6.10533C5.91651 280.026 5.81581 279.936 5.8284 279.744C5.8284 279.552 5.91651 279.449 6.10533 279.449H8.89981C9.07604 279.449 9.17674 279.552 9.17674 279.744C9.17674 279.936 9.08862 280.039 8.89981 280.026H7.56551C7.48998 280.808 7.35151 281.539 7.1627 282.206H8.09419C8.57253 282.206 8.79911 282.436 8.79911 282.898V287.269C8.79911 287.757 8.57253 287.987 8.09419 287.987H7.22564C6.7473 287.987 6.52072 287.757 6.53331 287.269V283.846C6.4452 284.026 6.35708 284.205 6.26897 284.359C6.14309 284.539 6.00462 284.577 5.85357 284.487C5.67734 284.385 5.65217 284.244 5.76546 284.052C6.49555 282.744 6.89836 281.411 6.97388 280.026H6.98647ZM7.12493 287.051C7.12493 287.295 7.22564 287.423 7.43963 287.423H7.86761C8.10678 287.423 8.23266 287.295 8.24524 287.051V283.116C8.24524 282.898 8.11937 282.795 7.86761 282.795H7.43963C7.22564 282.795 7.11235 282.898 7.12493 283.116V287.051ZM9.50402 285.077C9.50402 284.859 9.60472 284.757 9.81871 284.77C10.0075 284.77 10.0956 284.898 10.0956 285.103C10.0579 285.949 9.86906 286.885 9.54178 287.936C9.47884 288.154 9.36555 288.231 9.16415 288.167C8.97533 288.103 8.91239 287.975 8.98792 287.757C9.30262 286.769 9.46626 285.885 9.51661 285.077H9.50402ZM14.451 279.334C14.6524 279.334 14.7531 279.424 14.7657 279.616C14.7657 279.808 14.665 279.911 14.451 279.898H12.4621V280.757H14.3755C14.5517 280.757 14.6524 280.859 14.6524 281.052C14.6524 281.244 14.5643 281.347 14.3755 281.334H12.4621V282.193H14.3755C14.5517 282.193 14.6524 282.282 14.6524 282.475C14.6524 282.68 14.5643 282.782 14.3755 282.77H12.4621V283.705H14.0104C14.5895 283.705 14.8664 283.962 14.8538 284.487C14.8538 285.911 14.8286 286.821 14.7657 287.218C14.6902 287.628 14.5895 287.936 14.4384 288.141C14.3377 288.244 14.2118 288.321 14.0482 288.385C13.9223 288.436 13.7209 288.462 13.4692 288.449C13.2174 288.449 12.8398 288.359 12.3363 288.18C12.1223 288.141 12.0342 288.013 12.0593 287.821C12.0971 287.628 12.2356 287.539 12.437 287.577C13.1293 287.833 13.6076 287.885 13.8594 287.718C13.9349 287.654 13.9978 287.577 14.0482 287.487C14.1741 287.128 14.237 286.231 14.2496 284.808C14.2496 284.475 14.1111 284.295 13.8216 284.308H10.0579C9.6299 284.308 9.42849 284.09 9.42849 283.667V280.013C9.42849 279.552 9.64248 279.321 10.1082 279.321H14.4132L14.451 279.334ZM11.8957 282.795H10.0201V283.436C10.0201 283.629 10.0956 283.731 10.297 283.731H11.8831V282.795H11.8957ZM10.0327 280.77H11.9083V279.911H10.36C10.1334 279.911 10.0327 280.026 10.0327 280.257V280.77ZM10.0327 282.218H11.9083V281.359H10.0327V282.218ZM10.5236 285.205C10.4859 284.987 10.5488 284.872 10.7502 284.834C10.939 284.808 11.0523 284.885 11.0775 285.103C11.153 285.846 11.2034 286.654 11.2285 287.475C11.2285 287.692 11.1153 287.808 10.939 287.795C10.7502 287.795 10.6621 287.68 10.6621 287.462C10.6621 286.667 10.6117 285.898 10.5236 285.193V285.205ZM11.6313 285.103C11.5684 284.911 11.6314 284.782 11.8202 284.731C11.9964 284.68 12.1097 284.757 12.1852 284.962C12.2985 285.603 12.3992 286.269 12.4873 286.975C12.4873 287.193 12.4118 287.308 12.223 287.308C12.0216 287.334 11.9209 287.231 11.9209 287.013C11.8579 286.321 11.7572 285.693 11.6313 285.103ZM12.7768 285.026C12.7013 284.834 12.7517 284.693 12.9153 284.629C13.0915 284.552 13.2174 284.629 13.2929 284.808C13.4692 285.334 13.6328 285.872 13.7713 286.462C13.809 286.667 13.7461 286.795 13.5447 286.834C13.3559 286.872 13.23 286.795 13.2048 286.577C13.0789 286.026 12.9279 285.513 12.7768 285.026Z" fill="black"/>
</g>
</g>
<defs>
<filter id="filter0_d_1019_843" x="-3.69406" y="0.5" width="266.725" height="295.047" filterUnits="userSpaceOnUse" color-interpolation-filters="sRGB">
<feFlood flood-opacity="0" result="BackgroundImageFix"/>
<feColorMatrix in="SourceAlpha" type="matrix" values="0 0 0 0 0 0 0 0 0 0 0 0 0 0 0 0 0 0 127 0" result="hardAlpha"/>
<feOffset dy="3.03"/>
<feGaussianBlur stdDeviation="1.515"/>
<feComposite in2="hardAlpha" operator="out"/>
<feColorMatrix type="matrix" values="0 0 0 0 0 0 0 0 0 0 0 0 0 0 0 0 0 0 0.25 0"/>
<feBlend mode="normal" in2="BackgroundImageFix" result="effect1_dropShadow_1019_843"/>
<feBlend mode="normal" in="SourceGraphic" in2="effect1_dropShadow_1019_843" result="shape"/>
</filter>
<linearGradient id="paint0_linear_1019_843" x1="4.65771" y1="230.49" x2="260" y2="230.49" gradientUnits="userSpaceOnUse">
<stop/>
<stop offset="1" stop-color="#22AC38"/>
</linearGradient>
<clipPath id="clip0_1019_843">
<rect width="260" height="289" fill="white" transform="translate(0 0.5)"/>
</clipPath>
</defs>
</svg>
