<svg width="265" height="290" viewBox="0 0 265 290" fill="none" xmlns="http://www.w3.org/2000/svg">
<path d="M198.374 46.4775H172.606V69.5872H192.464C192.464 69.5872 217.884 69.5872 218.077 120.955C218.258 172.323 192.826 172.323 192.826 172.323H157.2V69.5872H126.387V198H199.11C199.11 198 251.006 198 250.632 122.232C250.245 46.4646 198.387 46.4646 198.387 46.4646L198.374 46.4775Z" fill="#1A8C16"/>
<path d="M191.871 19.5098H172.606V38.7743H191.871V19.5098Z" fill="#1A8C16"/>
<path d="M162.335 7.9613H149.497V19.5226H162.335V7.9613Z" fill="#1A8C16"/>
<path d="M180.31 0.258057H172.606V7.96128H180.31V0.258057Z" fill="#1A8C16"/>
<path d="M162.323 38.7742H136.645V61.8839H162.323V38.7742Z" fill="#1A8C16"/>
<path d="M82.0258 85.0066H51.2129V197.368H82.0258V85.0066Z" fill="white" stroke="white" stroke-miterlimit="10"/>
<path d="M85.2903 42.3097C85.7032 45.6775 88.3871 48.4517 91.7419 48.9678C95.0839 49.471 98.0903 47.8194 99.6129 45.2001H126.335V61.8968H91.9355C90.6064 59.6001 88.1161 58.0388 85.2516 58.0388C83.3032 58.0388 81.5226 58.7613 80.1677 59.9613C78.3613 61.5226 77.3032 63.9613 77.5871 66.6194C77.8839 69.3033 79.6258 71.6388 82.0258 72.7484C82.6322 73.0452 83.2903 73.2388 83.9613 73.3549C87.329 73.8968 90.3871 72.2323 91.9097 69.6001H126.323V74.7355C126.323 80.413 121.716 85.0065 116.052 85.0065H26.1677C20.4903 85.0065 15.8968 80.413 15.8968 74.7355V74.1549C15.8968 46.1162 38.6193 23.3678 66.6838 23.3678H116.052C121.716 23.3678 126.323 27.9613 126.323 33.6388V37.4968H99.6C98.271 35.2001 95.7806 33.6388 92.929 33.6388C88.3613 33.6388 84.7097 37.6388 85.2774 42.3097H85.2903Z" fill="white"/>
<path d="M126.335 37.4969V45.2001H99.6129C98.0903 47.8194 95.0838 49.4582 91.7419 48.9678C88.3871 48.4517 85.7032 45.6775 85.2903 42.3098C84.7225 37.6388 88.3741 33.6388 92.9419 33.6388C95.7935 33.6388 98.2709 35.1872 99.6129 37.4969H126.335Z" fill="#231815"/>
<path d="M126.335 61.8969V69.6001H91.9225C90.4 72.2324 87.3419 73.884 83.9742 73.355C83.2903 73.2388 82.6451 73.0453 82.0387 72.7485C79.6387 71.6388 77.8967 69.3033 77.6 66.6195C77.3161 63.9614 78.3742 61.5356 80.1806 59.9614C81.5354 58.7485 83.3161 58.0388 85.2645 58.0388C88.129 58.0388 90.6193 59.5872 91.9483 61.8969H126.348H126.335Z" fill="#231815"/>
<path d="M50.9806 110.374C42.4258 109.897 36.271 118.916 28.9807 122.245L4.3871 122.09L4.15485 153.69C4.20646 154.155 4.52904 154.142 4.89033 154.271C8.96775 155.742 27.871 152.787 32.1161 154.387C34.5032 155.277 38.6065 159.187 41.8581 160.813C45.1097 162.439 48.6452 163.368 52.2452 163.755C52.3484 163.755 52.4645 163.755 52.5677 163.755C58.0774 164.323 65.9355 164 71.6645 163.974C79.1226 163.948 90.1161 166.49 92.1419 157.419C92.8903 154.052 93.1097 127.368 92.4516 123.845C90.4258 112.968 80.2581 115.819 72 115.665C69.4194 115.613 55.5484 115.69 54.4387 115.303C51.9613 114.439 50.9806 110.374 50.9806 110.374Z" fill="#231815" stroke="white" stroke-width="7.96" stroke-linecap="round" stroke-linejoin="round"/>
<path d="M3.76773 222.155C3.76773 217.613 5.00644 214.155 7.49676 211.755C9.97418 209.355 14.0645 208.155 19.7548 208.155H34.7742V215.213H19.7548C17.3935 215.213 15.6516 215.768 14.5161 216.877C13.3806 217.987 12.8129 219.742 12.8129 222.142V228.374H31.9484V235.432H12.8129V253.084H3.75482V222.142L3.76773 222.155ZM43.0322 249.729C39.8839 246.968 38.3097 242.89 38.3097 237.497V223.755C38.3097 218.361 39.8839 214.284 43.0322 211.523C46.1806 208.761 50.7226 207.381 56.671 207.381C62.6193 207.381 67.1742 208.761 70.3097 211.523C73.4451 214.284 75.0322 218.361 75.0322 223.755V237.497C75.0322 242.89 73.458 246.968 70.3097 249.729C67.1613 252.49 62.6193 253.871 56.671 253.871C50.7226 253.871 46.1677 252.49 43.0322 249.729ZM63.5742 244.4C65.1742 242.8 65.9871 240.49 65.9871 237.497V223.755C65.9871 220.761 65.1871 218.452 63.5742 216.852C61.9613 215.252 59.6645 214.439 56.671 214.439C53.6774 214.439 51.3677 215.239 49.7677 216.852C48.1677 218.464 47.3548 220.761 47.3548 223.755V237.497C47.3548 240.49 48.1548 242.8 49.7677 244.4C51.3806 246 53.6774 246.813 56.671 246.813C59.6645 246.813 61.9742 246.013 63.5742 244.4ZM118.89 253.097H109.329L106.374 243.148C105.781 241.097 105.174 239.497 104.581 238.361C103.974 237.226 103.161 236.361 102.142 235.755C101.123 235.148 99.7419 234.852 98.0387 234.852H91.5484V253.084H82.4903V208.142H100.658C106.142 208.142 110.181 209.226 112.787 211.381C115.394 213.535 116.71 216.916 116.71 221.497C116.71 224.452 115.923 226.826 114.361 228.619C112.8 230.413 110.645 231.574 107.91 232.09C110.09 232.813 111.742 234.077 112.852 235.884C113.961 237.677 114.994 240.116 115.935 243.2L118.89 253.084V253.097ZM105.768 226.232C107.032 225.187 107.665 223.613 107.665 221.51C107.665 219.406 107.032 217.845 105.768 216.787C104.503 215.742 102.89 215.213 100.916 215.213H91.5484V227.794H100.916C102.89 227.794 104.503 227.264 105.768 226.219V226.232ZM126.271 208.155H142.968C148.013 208.155 152.013 208.877 154.942 210.335C157.871 211.794 159.987 214.129 161.303 217.368C162.606 220.606 163.264 225.019 163.264 230.632C163.264 236.245 162.606 240.658 161.303 243.897C160 247.123 157.871 249.471 154.942 250.929C152.013 252.387 148.013 253.11 142.968 253.11H126.271V208.168V208.155ZM142.968 246.039C145.794 246.039 148.013 245.548 149.652 244.568C151.277 243.587 152.439 241.974 153.148 239.755C153.858 237.535 154.206 234.49 154.206 230.632C154.206 226.774 153.858 223.742 153.148 221.51C152.439 219.277 151.277 217.677 149.652 216.697C148.026 215.716 145.794 215.226 142.968 215.226H135.329V246.039H142.968ZM171.923 208.155H180.981V253.097H171.923V208.155ZM194.813 249.729C191.574 246.968 189.961 242.89 189.961 237.497V223.755C189.961 218.361 191.574 214.284 194.813 211.523C198.039 208.761 202.723 207.381 208.839 207.381C213.252 207.381 216.852 208.09 219.652 209.497C222.452 210.916 224.671 213.006 226.297 215.794L219.432 220.477C218.103 218.335 216.697 216.8 215.2 215.858C213.703 214.916 211.587 214.452 208.839 214.452C205.419 214.452 202.916 215.239 201.355 216.8C199.794 218.361 199.006 220.684 199.006 223.768V237.51C199.006 240.594 199.794 242.916 201.355 244.477C202.916 246.039 205.406 246.826 208.839 246.826C211.832 246.826 214.116 246.323 215.677 245.316C217.239 244.31 218.026 242.839 218.026 240.916V238.929C218.026 236.271 216.813 234.942 214.361 234.942H207.045V227.884H216.929C220.348 227.884 222.877 228.671 224.503 230.258C226.129 231.845 226.942 234.297 226.942 237.639V241.561C226.942 245.419 225.316 248.426 222.064 250.619C218.813 252.813 214.4 253.897 208.839 253.897C202.723 253.897 198.039 252.516 194.813 249.755V249.729ZM236.839 249.51C234.361 247.11 233.11 243.652 233.11 239.11V222.155C233.11 217.613 234.348 214.155 236.839 211.755C239.316 209.355 243.406 208.155 249.097 208.155H264.116V215.213H249.097C246.748 215.213 244.994 215.768 243.871 216.877C242.735 217.987 242.168 219.742 242.168 222.142V227.084H261.303V234.142H242.168V239.084C242.168 241.445 242.735 243.187 243.871 244.323C245.006 245.458 246.748 246.026 249.097 246.026H264.245V253.084H249.097C243.406 253.084 239.316 251.884 236.839 249.484V249.51Z" fill="url(#paint0_linear_993_952)"/>
<path d="M52.7097 271.948V265.794C52.7097 265.432 52.9807 265.213 53.4323 265.213H57.9226C58.3226 265.213 58.5936 265.406 58.5936 265.703C58.5936 266 58.3226 266.194 57.9226 266.194H54.1548V268.477H57.5871C57.9742 268.477 58.2323 268.658 58.2323 268.955C58.2323 269.252 57.9742 269.432 57.5871 269.432H54.1548V271.961C54.1548 272.323 53.8839 272.542 53.4323 272.542C52.9807 272.542 52.7097 272.323 52.7097 271.961V271.948Z" fill="white"/>
<path d="M61.3677 269.807C61.3677 268.116 62.6452 267.071 64.5677 267.071C66.4903 267.071 67.7677 268.103 67.7677 269.807C67.7677 271.51 66.5032 272.542 64.5677 272.542C62.6322 272.542 61.3677 271.51 61.3677 269.807ZM66.3613 269.807C66.3613 268.632 65.6516 267.961 64.5677 267.961C63.4839 267.961 62.7871 268.632 62.7871 269.807C62.7871 270.981 63.4968 271.652 64.5677 271.652C65.6387 271.652 66.3613 270.981 66.3613 269.807Z" fill="white"/>
<path d="M71.1871 271.974V267.626C71.1871 267.29 71.458 267.084 71.8451 267.084C72.2322 267.084 72.5032 267.303 72.5032 267.626V268.078H72.5419C72.7226 267.484 73.3419 267.084 74.0258 267.084C74.271 267.084 74.4516 267.123 74.5677 267.213C74.6968 267.29 74.7484 267.419 74.7484 267.6C74.7484 267.781 74.6839 267.897 74.5419 267.987C74.4 268.078 74.1935 268.129 73.9097 268.129C72.9677 268.129 72.5806 268.632 72.5806 269.29V271.987C72.5806 272.336 72.2968 272.555 71.8839 272.555C71.471 272.555 71.1871 272.336 71.1871 271.987V271.974Z" fill="white"/>
<path d="M77.7161 273.484C77.6258 273.368 77.5871 273.252 77.5871 273.123C77.5871 272.877 77.8194 272.697 78.1807 272.697C78.3871 272.697 78.529 272.748 78.7097 272.903C79.2645 273.355 79.729 273.548 80.4 273.561C81.5226 273.561 82.2194 273.071 82.2194 272.336V271.497H82.1936C81.8194 272.065 81.0194 272.439 80.0645 272.439C78.3613 272.439 77.2645 271.407 77.2645 269.768C77.2645 268.129 78.3484 267.084 80.0903 267.084C81.0452 267.084 81.7936 267.458 82.1936 268.052H82.2194V267.626C82.2194 267.277 82.5161 267.071 82.9161 267.071C83.3161 267.071 83.6129 267.277 83.6129 267.626V272.297C83.6129 273.6 82.3871 274.439 80.3871 274.426C79.1613 274.426 78.1936 274.039 77.729 273.471L77.7161 273.484ZM82.2194 269.768C82.2194 268.684 81.4968 267.974 80.4258 267.974C79.3548 267.974 78.671 268.671 78.671 269.768C78.671 270.865 79.3677 271.548 80.4258 271.548C81.4839 271.548 82.2194 270.852 82.2194 269.768Z" fill="white"/>
<path d="M87.0064 269.832C87.0064 268.155 88.2193 267.071 90.129 267.071C91.9226 267.071 93.1613 268.09 93.1613 269.523C93.1613 269.871 92.9032 270.077 92.4774 270.077H88.4V270.103C88.4 271.071 89.0967 271.665 90.1935 271.665C90.9548 271.665 91.4193 271.458 91.9355 270.916C92.0774 270.787 92.2193 270.723 92.4258 270.723C92.7613 270.723 93.0064 270.89 93.0064 271.161C93.0064 271.252 92.9677 271.342 92.9161 271.458C92.4774 272.155 91.4967 272.542 90.2451 272.542C88.2193 272.542 87.0193 271.536 87.0193 269.832H87.0064ZM91.7806 269.316C91.7419 268.49 91.0839 267.936 90.129 267.936C89.1742 267.936 88.4774 268.49 88.4129 269.316H91.7806Z" fill="white"/>
<path d="M104.31 271.949V269.484L101.381 266.013C101.277 265.884 101.239 265.768 101.239 265.652C101.239 265.355 101.548 265.136 101.948 265.136C102.245 265.136 102.413 265.226 102.594 265.445L105.019 268.4H105.058L107.484 265.445C107.652 265.226 107.832 265.136 108.116 265.136C108.516 265.136 108.826 265.355 108.826 265.639C108.826 265.768 108.787 265.884 108.684 266.013L105.755 269.484V271.949C105.755 272.31 105.484 272.529 105.032 272.529C104.581 272.529 104.31 272.31 104.31 271.949Z" fill="white"/>
<path d="M110.619 269.807C110.619 268.116 111.897 267.071 113.819 267.071C115.742 267.071 117.019 268.103 117.019 269.807C117.019 271.51 115.755 272.542 113.819 272.542C111.884 272.542 110.619 271.51 110.619 269.807ZM115.6 269.807C115.6 268.632 114.89 267.961 113.806 267.961C112.723 267.961 112.026 268.632 112.026 269.807C112.026 270.981 112.735 271.652 113.806 271.652C114.877 271.652 115.6 270.981 115.6 269.807Z" fill="white"/>
<path d="M120.4 270.581V267.652C120.4 267.29 120.684 267.071 121.097 267.071C121.51 267.071 121.794 267.29 121.794 267.652V270.374C121.794 271.174 122.284 271.613 123.239 271.613C124.194 271.613 124.839 271.071 124.839 270.245V267.652C124.839 267.29 125.123 267.071 125.535 267.071C125.948 267.071 126.232 267.29 126.232 267.652V271.987C126.232 272.323 125.974 272.542 125.574 272.542C125.174 272.542 124.903 272.323 124.903 272V271.561H124.864C124.49 272.194 123.806 272.555 122.774 272.555C121.303 272.555 120.413 271.807 120.413 270.594L120.4 270.581Z" fill="white"/>
<path d="M129.923 271.974V267.626C129.923 267.29 130.194 267.084 130.581 267.084C130.968 267.084 131.239 267.303 131.239 267.626V268.078H131.277C131.458 267.484 132.077 267.084 132.761 267.084C133.006 267.084 133.187 267.123 133.303 267.213C133.432 267.29 133.484 267.419 133.484 267.6C133.484 267.781 133.419 267.897 133.277 267.987C133.135 268.078 132.929 268.129 132.645 268.129C131.703 268.129 131.316 268.632 131.316 269.29V271.987C131.316 272.336 131.032 272.555 130.619 272.555C130.206 272.555 129.923 272.336 129.923 271.987V271.974Z" fill="white"/>
<path d="M141.729 271.858V265.781C141.729 265.419 142 265.2 142.452 265.2H144.993C147.742 265.2 149.368 266.529 149.368 268.813C149.368 271.097 147.742 272.439 144.993 272.439H142.452C142 272.439 141.729 272.219 141.729 271.858ZM144.864 271.471C146.826 271.471 147.91 270.529 147.91 268.826C147.91 267.123 146.826 266.181 144.864 266.181H143.174V271.484H144.864V271.471Z" fill="white"/>
<path d="M152.851 265.755C152.851 265.407 153.213 265.136 153.652 265.136C154.09 265.136 154.464 265.407 154.464 265.755C154.464 266.103 154.103 266.374 153.652 266.374C153.2 266.374 152.851 266.09 152.851 265.755ZM152.968 271.974V267.652C152.968 267.303 153.239 267.071 153.664 267.071C154.09 267.071 154.361 267.29 154.361 267.652V271.974C154.361 272.323 154.09 272.542 153.664 272.542C153.239 272.542 152.968 272.323 152.968 271.974Z" fill="white"/>
<path d="M158.284 273.484C158.193 273.368 158.155 273.252 158.155 273.123C158.155 272.877 158.387 272.697 158.748 272.697C158.955 272.697 159.097 272.748 159.277 272.903C159.832 273.355 160.297 273.548 160.968 273.561C162.09 273.561 162.787 273.071 162.787 272.336V271.497H162.761C162.387 272.065 161.587 272.439 160.632 272.439C158.929 272.439 157.832 271.407 157.832 269.768C157.832 268.129 158.916 267.084 160.658 267.084C161.613 267.084 162.361 267.458 162.761 268.052H162.787V267.626C162.787 267.277 163.084 267.071 163.484 267.071C163.884 267.071 164.181 267.277 164.181 267.626V272.297C164.181 273.6 162.955 274.439 160.955 274.426C159.729 274.426 158.761 274.039 158.297 273.471L158.284 273.484ZM162.774 269.768C162.774 268.684 162.052 267.974 160.981 267.974C159.91 267.974 159.226 268.671 159.226 269.768C159.226 270.865 159.923 271.548 160.981 271.548C162.039 271.548 162.774 270.852 162.774 269.768Z" fill="white"/>
<path d="M167.806 265.755C167.806 265.407 168.168 265.136 168.606 265.136C169.045 265.136 169.419 265.407 169.419 265.755C169.419 266.103 169.058 266.374 168.606 266.374C168.155 266.374 167.806 266.09 167.806 265.755ZM167.91 271.974V267.652C167.91 267.303 168.181 267.071 168.606 267.071C169.032 267.071 169.303 267.29 169.303 267.652V271.974C169.303 272.323 169.032 272.542 168.606 272.542C168.181 272.542 167.91 272.323 167.91 271.974Z" fill="white"/>
<path d="M173.458 268.026H172.968C172.606 268.026 172.387 267.871 172.387 267.6C172.387 267.329 172.606 267.174 172.968 267.174H173.458V266.387C173.458 266.039 173.729 265.807 174.155 265.807C174.581 265.807 174.852 266.039 174.852 266.387V267.174H175.639C176 267.174 176.219 267.342 176.219 267.6C176.219 267.858 176 268.026 175.639 268.026H174.852V270.942C174.852 271.368 175.032 271.548 175.535 271.587H175.639C176.039 271.626 176.232 271.742 176.232 272C176.232 272.323 175.91 272.49 175.239 272.49H175.174C174.039 272.49 173.458 272.052 173.458 271.187V268.026Z" fill="white"/>
<path d="M179.226 270.942C179.226 270.013 180.142 269.458 181.729 269.381L183.574 269.29V268.89C183.574 268.31 183.071 267.948 182.219 267.948C181.548 267.948 181.11 268.129 180.723 268.619C180.581 268.774 180.4 268.852 180.155 268.852C179.806 268.852 179.561 268.671 179.561 268.4C179.561 268.284 179.6 268.168 179.677 268.052C180.026 267.458 181.045 267.071 182.258 267.071C183.897 267.071 184.942 267.742 184.942 268.813V272C184.942 272.336 184.671 272.542 184.271 272.542C183.871 272.542 183.626 272.348 183.613 272.026V271.574H183.587C183.2 272.155 182.335 272.529 181.458 272.529C180.142 272.529 179.213 271.884 179.213 270.942H179.226ZM183.587 270.465V270.052L181.923 270.129C181.097 270.168 180.632 270.465 180.632 270.916C180.632 271.368 181.123 271.677 181.858 271.677C182.826 271.677 183.587 271.161 183.587 270.465Z" fill="white"/>
<path d="M188.697 271.974V265.69C188.697 265.329 188.981 265.123 189.394 265.123C189.806 265.123 190.09 265.342 190.09 265.69V271.974C190.09 272.336 189.806 272.542 189.394 272.542C188.981 272.542 188.697 272.323 188.697 271.974Z" fill="white"/>
<path d="M198.774 271.123C198.735 271.007 198.697 270.89 198.697 270.774C198.697 270.452 198.955 270.232 199.342 270.232C199.664 270.232 199.884 270.349 200.026 270.619C200.31 271.29 201.148 271.613 202.219 271.613C203.393 271.613 204.232 271.136 204.232 270.49C204.232 269.923 203.742 269.574 202.503 269.368L201.497 269.2C199.652 268.89 198.813 268.219 198.813 267.174C198.813 265.936 200.206 265.084 202.168 265.084C203.768 265.084 205.019 265.665 205.381 266.645C205.419 266.71 205.432 266.8 205.432 266.903C205.432 267.2 205.174 267.381 204.8 267.381C204.452 267.381 204.245 267.252 204.09 266.994C203.781 266.323 203.071 266.039 202.155 266.039C201.071 266.039 200.271 266.452 200.271 267.11C200.271 267.639 200.748 267.987 201.948 268.194L202.955 268.361C204.89 268.684 205.69 269.29 205.69 270.349C205.69 271.716 204.323 272.568 202.155 272.568C200.361 272.568 199.135 271.961 198.774 271.123Z" fill="white"/>
<path d="M208.865 269.807C208.865 268.116 210.142 267.071 212.065 267.071C213.987 267.071 215.265 268.103 215.265 269.807C215.265 271.51 214 272.542 212.065 272.542C210.129 272.542 208.865 271.51 208.865 269.807ZM213.845 269.807C213.845 268.632 213.135 267.961 212.052 267.961C210.968 267.961 210.271 268.632 210.271 269.807C210.271 270.981 210.981 271.652 212.052 271.652C213.123 271.652 213.845 270.981 213.845 269.807Z" fill="white"/>
<path d="M218.723 271.974V265.69C218.723 265.329 219.007 265.123 219.419 265.123C219.832 265.123 220.116 265.342 220.116 265.69V271.974C220.116 272.336 219.832 272.542 219.419 272.542C219.007 272.542 218.723 272.323 218.723 271.974Z" fill="white"/>
<path d="M223.832 270.581V267.652C223.832 267.29 224.116 267.071 224.529 267.071C224.942 267.071 225.226 267.29 225.226 267.652V270.374C225.226 271.174 225.716 271.613 226.671 271.613C227.626 271.613 228.271 271.071 228.271 270.245V267.652C228.271 267.29 228.555 267.071 228.968 267.071C229.381 267.071 229.664 267.29 229.664 267.652V271.987C229.664 272.323 229.406 272.542 229.006 272.542C228.606 272.542 228.335 272.323 228.335 272V271.561H228.297C227.923 272.194 227.239 272.555 226.206 272.555C224.735 272.555 223.845 271.807 223.845 270.594L223.832 270.581Z" fill="white"/>
<path d="M233.768 268.026H233.277C232.916 268.026 232.697 267.871 232.697 267.6C232.697 267.329 232.916 267.174 233.277 267.174H233.768V266.387C233.768 266.039 234.039 265.807 234.465 265.807C234.89 265.807 235.161 266.039 235.161 266.387V267.174H235.948C236.31 267.174 236.529 267.342 236.529 267.6C236.529 267.858 236.31 268.026 235.948 268.026H235.161V270.942C235.161 271.368 235.342 271.548 235.845 271.587H235.948C236.348 271.626 236.542 271.742 236.542 272C236.542 272.323 236.219 272.49 235.548 272.49H235.484C234.348 272.49 233.768 272.052 233.768 271.187V268.026Z" fill="white"/>
<path d="M239.845 265.755C239.845 265.407 240.207 265.136 240.645 265.136C241.084 265.136 241.458 265.407 241.458 265.755C241.458 266.103 241.097 266.374 240.645 266.374C240.194 266.374 239.845 266.09 239.845 265.755ZM239.961 271.974V267.652C239.961 267.303 240.232 267.071 240.658 267.071C241.084 267.071 241.355 267.29 241.355 267.652V271.974C241.355 272.323 241.084 272.542 240.658 272.542C240.232 272.542 239.961 272.323 239.961 271.974Z" fill="white"/>
<path d="M244.8 269.807C244.8 268.116 246.077 267.071 248 267.071C249.923 267.071 251.2 268.103 251.2 269.807C251.2 271.51 249.935 272.542 248 272.542C246.064 272.542 244.8 271.51 244.8 269.807ZM249.781 269.807C249.781 268.632 249.071 267.961 247.987 267.961C246.903 267.961 246.206 268.632 246.206 269.807C246.206 270.981 246.916 271.652 247.987 271.652C249.058 271.652 249.781 270.981 249.781 269.807Z" fill="white"/>
<path d="M254.606 271.974V267.626C254.606 267.29 254.864 267.084 255.264 267.084C255.664 267.084 255.935 267.303 255.935 267.639V268.052H255.974C256.335 267.445 257.045 267.084 258.077 267.084C259.561 267.084 260.413 267.832 260.413 269.032V271.974C260.413 272.336 260.129 272.542 259.716 272.542C259.303 272.542 259.019 272.323 259.019 271.974V269.252C259.019 268.465 258.542 268.026 257.587 268.026C256.632 268.026 255.987 268.568 255.987 269.381V271.974C255.987 272.336 255.703 272.542 255.29 272.542C254.877 272.542 254.593 272.323 254.593 271.974H254.606Z" fill="white"/>
<path d="M52.7097 287.355V281.2C52.7097 280.839 52.9807 280.62 53.4323 280.62H56.1806C57.9742 280.62 59.2258 281.587 59.2258 282.994C59.2258 284.4 57.9484 285.381 56.1419 285.381H54.1548V287.355C54.1548 287.716 53.8839 287.936 53.4323 287.936C52.9807 287.936 52.7097 287.716 52.7097 287.355ZM55.7807 284.439C57.0323 284.439 57.7419 283.91 57.7419 282.994C57.7419 282.078 57.0323 281.561 55.7807 281.561H54.129V284.439H55.7807Z" fill="white"/>
<path d="M62.0645 285.213C62.0645 283.523 63.3419 282.478 65.2645 282.478C67.1871 282.478 68.4645 283.51 68.4645 285.213C68.4645 286.916 67.2 287.949 65.2645 287.949C63.329 287.949 62.0645 286.916 62.0645 285.213ZM67.0451 285.213C67.0451 284.039 66.3355 283.368 65.2516 283.368C64.1677 283.368 63.4709 284.039 63.4709 285.213C63.4709 286.387 64.1806 287.058 65.2516 287.058C66.3225 287.058 67.0451 286.387 67.0451 285.213Z" fill="white"/>
<path d="M73.0193 287.407L71.4838 283.265C71.4322 283.149 71.4193 283.045 71.4193 282.955C71.4193 282.671 71.6903 282.49 72.0903 282.49C72.4387 282.49 72.6451 282.632 72.7354 282.942L73.9483 286.736H73.9741L75.2516 282.981C75.3419 282.658 75.6258 282.49 76.0516 282.49C76.4774 282.49 76.7354 282.658 76.8387 282.981L78.129 286.736H78.1548L79.3677 282.942C79.458 282.632 79.6516 282.49 80 282.49C80.4 282.49 80.6709 282.671 80.6709 282.955C80.6709 283.045 80.658 283.136 80.6064 283.265L79.0709 287.407C78.9419 287.781 78.658 287.949 78.1935 287.949C77.7161 287.949 77.4451 287.794 77.3161 287.407L76.0516 283.91H76.0258L74.7741 287.407C74.6451 287.781 74.3612 287.949 73.8838 287.949C73.4064 287.949 73.1742 287.781 73.0322 287.407H73.0193Z" fill="white"/>
<path d="M83.6 285.239C83.6 283.561 84.8129 282.478 86.7226 282.478C88.5161 282.478 89.7548 283.497 89.7548 284.929C89.7548 285.278 89.4968 285.484 89.071 285.484H84.9936V285.51C84.9936 286.478 85.6903 287.071 86.7871 287.071C87.5484 287.071 88.0129 286.865 88.529 286.323C88.671 286.194 88.8129 286.129 89.0194 286.129C89.3549 286.129 89.6 286.297 89.6 286.568C89.6 286.658 89.5613 286.749 89.5097 286.865C89.071 287.561 88.0903 287.949 86.8387 287.949C84.8129 287.949 83.6129 286.942 83.6129 285.239H83.6ZM88.3742 284.736C88.3355 283.91 87.6774 283.355 86.7226 283.355C85.7678 283.355 85.071 283.91 85.0065 284.736H88.3742Z" fill="white"/>
<path d="M93.1742 287.381V283.032C93.1742 282.697 93.4451 282.49 93.8322 282.49C94.2193 282.49 94.4903 282.71 94.4903 283.032V283.484H94.529C94.7097 282.89 95.329 282.49 96.0129 282.49C96.2581 282.49 96.4387 282.529 96.5548 282.619C96.6839 282.697 96.7355 282.826 96.7355 283.007C96.7355 283.187 96.6709 283.303 96.529 283.394C96.3871 283.484 96.1806 283.536 95.8967 283.536C94.9548 283.536 94.5677 284.039 94.5677 284.697V287.394C94.5677 287.742 94.2839 287.961 93.8709 287.961C93.458 287.961 93.1742 287.742 93.1742 287.394V287.381Z" fill="white"/>
<path d="M104.994 285.316V281.123C104.994 280.761 105.264 280.542 105.716 280.542C106.168 280.542 106.439 280.761 106.439 281.123V285.226C106.439 286.258 107.277 286.981 108.748 286.981C110.219 286.981 111.058 286.258 111.058 285.226V281.123C111.058 280.761 111.329 280.542 111.781 280.542C112.232 280.542 112.49 280.761 112.49 281.123V285.316C112.49 286.877 111.071 287.974 108.748 287.974C106.426 287.974 105.006 286.865 105.006 285.316H104.994Z" fill="white"/>
<path d="M116.361 289.149V283.045C116.361 282.697 116.632 282.49 117.032 282.49C117.432 282.49 117.703 282.697 117.703 283.045V283.497H117.729C118.129 282.89 118.903 282.503 119.871 282.503C121.587 282.503 122.71 283.561 122.71 285.226C122.71 286.89 121.587 287.949 119.897 287.949C118.929 287.949 118.155 287.574 117.781 286.994H117.742V289.161C117.742 289.523 117.458 289.742 117.045 289.742C116.632 289.742 116.348 289.523 116.348 289.161L116.361 289.149ZM121.29 285.213C121.29 284.103 120.606 283.407 119.51 283.407C118.413 283.407 117.742 284.129 117.742 285.213C117.742 286.297 118.452 287.02 119.51 287.02C120.568 287.02 121.29 286.323 121.29 285.213Z" fill="white"/>
<path d="M133.858 287.355V284.89L130.929 281.419C130.826 281.29 130.787 281.174 130.787 281.058C130.787 280.761 131.097 280.542 131.497 280.542C131.794 280.542 131.961 280.632 132.142 280.852L134.568 283.807H134.606L137.032 280.852C137.2 280.632 137.381 280.542 137.665 280.542C138.065 280.542 138.374 280.761 138.374 281.045C138.374 281.174 138.335 281.29 138.232 281.419L135.303 284.89V287.355C135.303 287.716 135.032 287.936 134.581 287.936C134.129 287.936 133.858 287.716 133.858 287.355Z" fill="white"/>
<path d="M140.155 285.213C140.155 283.523 141.432 282.478 143.355 282.478C145.277 282.478 146.555 283.51 146.555 285.213C146.555 286.916 145.29 287.949 143.355 287.949C141.419 287.949 140.155 286.916 140.155 285.213ZM145.148 285.213C145.148 284.039 144.439 283.368 143.355 283.368C142.271 283.368 141.574 284.039 141.574 285.213C141.574 286.387 142.284 287.058 143.355 287.058C144.426 287.058 145.148 286.387 145.148 285.213Z" fill="white"/>
<path d="M149.936 286V283.071C149.936 282.71 150.219 282.49 150.632 282.49C151.045 282.49 151.329 282.71 151.329 283.071V285.794C151.329 286.594 151.819 287.032 152.774 287.032C153.729 287.032 154.374 286.49 154.374 285.665V283.071C154.374 282.71 154.658 282.49 155.071 282.49C155.484 282.49 155.768 282.71 155.768 283.071V287.407C155.768 287.742 155.51 287.961 155.11 287.961C154.71 287.961 154.439 287.742 154.439 287.42V286.981H154.4C154.026 287.613 153.342 287.974 152.31 287.974C150.839 287.974 149.948 287.226 149.948 286.013L149.936 286Z" fill="white"/>
<path d="M159.458 287.381V283.032C159.458 282.697 159.729 282.49 160.116 282.49C160.503 282.49 160.774 282.71 160.774 283.032V283.484H160.813C160.993 282.89 161.613 282.49 162.297 282.49C162.542 282.49 162.722 282.529 162.839 282.619C162.968 282.697 163.019 282.826 163.019 283.007C163.019 283.187 162.955 283.303 162.813 283.394C162.671 283.484 162.464 283.536 162.181 283.536C161.239 283.536 160.852 284.039 160.852 284.697V287.394C160.852 287.742 160.568 287.961 160.155 287.961C159.742 287.961 159.458 287.742 159.458 287.394V287.381Z" fill="white"/>
<path d="M171.277 287.355V281.123C171.277 280.761 171.548 280.542 172 280.542C172.452 280.542 172.723 280.761 172.723 281.123V287.355C172.723 287.716 172.452 287.936 172 287.936C171.548 287.936 171.277 287.716 171.277 287.355Z" fill="white"/>
<path d="M176.297 285.213C176.297 283.548 177.419 282.49 179.11 282.49C180.077 282.49 180.852 282.877 181.226 283.458H181.252V281.097C181.252 280.736 181.536 280.529 181.948 280.529C182.361 280.529 182.645 280.748 182.645 281.097V287.406C182.645 287.742 182.361 287.948 181.961 287.948C181.561 287.948 181.252 287.742 181.252 287.406V286.916H181.239C180.89 287.536 180.181 287.948 179.136 287.948C177.432 287.948 176.31 286.89 176.31 285.226L176.297 285.213ZM181.265 285.213C181.265 284.116 180.555 283.406 179.484 283.406C178.413 283.406 177.703 284.103 177.703 285.213C177.703 286.323 178.387 287.019 179.484 287.019C180.581 287.019 181.265 286.31 181.265 285.213Z" fill="white"/>
<path d="M186.103 285.239C186.103 283.561 187.316 282.478 189.226 282.478C191.019 282.478 192.258 283.497 192.258 284.929C192.258 285.278 192 285.484 191.574 285.484H187.497V285.51C187.497 286.478 188.194 287.071 189.29 287.071C190.052 287.071 190.516 286.865 191.032 286.323C191.174 286.194 191.316 286.129 191.523 286.129C191.858 286.129 192.103 286.297 192.103 286.568C192.103 286.658 192.065 286.749 192.013 286.865C191.574 287.561 190.594 287.949 189.342 287.949C187.316 287.949 186.116 286.942 186.116 285.239H186.103ZM190.877 284.736C190.852 283.91 190.181 283.355 189.226 283.355C188.271 283.355 187.574 283.91 187.51 284.736H190.877Z" fill="white"/>
<path d="M195.394 286.361C195.394 285.432 196.31 284.878 197.897 284.8L199.742 284.71V284.31C199.742 283.729 199.239 283.368 198.387 283.368C197.716 283.368 197.277 283.549 196.89 284.039C196.748 284.194 196.568 284.271 196.323 284.271C195.974 284.271 195.729 284.09 195.729 283.82C195.729 283.703 195.768 283.587 195.845 283.471C196.194 282.878 197.213 282.49 198.426 282.49C200.065 282.49 201.11 283.161 201.11 284.232V287.42C201.11 287.755 200.839 287.961 200.439 287.961C200.039 287.961 199.794 287.768 199.781 287.445V286.994H199.755C199.368 287.574 198.503 287.949 197.626 287.949C196.31 287.949 195.381 287.303 195.381 286.361H195.394ZM199.755 285.884V285.471L198.09 285.549C197.265 285.587 196.8 285.884 196.8 286.336C196.8 286.787 197.29 287.097 198.026 287.097C198.994 287.097 199.755 286.581 199.755 285.884Z" fill="white"/>
<path d="M204.865 287.381V281.097C204.865 280.736 205.148 280.529 205.561 280.529C205.974 280.529 206.258 280.748 206.258 281.097V287.381C206.258 287.742 205.974 287.948 205.561 287.948C205.148 287.948 204.865 287.729 204.865 287.381Z" fill="white"/>
<path d="M209.884 286.878C209.845 286.8 209.832 286.723 209.832 286.658C209.832 286.387 210.077 286.232 210.426 286.232C210.658 286.232 210.852 286.323 211.032 286.516C211.381 286.942 211.781 287.136 212.581 287.136C213.381 287.136 213.897 286.865 213.897 286.439C213.897 286.09 213.639 285.91 212.916 285.768L211.858 285.574C210.555 285.329 209.91 284.826 209.91 284.078C209.91 283.123 210.968 282.49 212.568 282.49C213.781 282.49 214.787 282.981 214.981 283.6C214.981 283.665 215.006 283.716 215.006 283.755C215.006 284 214.813 284.155 214.465 284.155C214.245 284.155 214.039 284.09 213.91 283.923C213.613 283.523 213.2 283.316 212.516 283.316C211.768 283.316 211.265 283.6 211.265 284.013C211.265 284.349 211.587 284.581 212.297 284.71L213.342 284.903C214.761 285.161 215.303 285.561 215.303 286.336C215.303 287.316 214.181 287.961 212.516 287.961C211.187 287.961 210.219 287.536 209.897 286.89L209.884 286.878Z" fill="white"/>
<path d="M39.2 265.961C39.7161 265.961 39.9742 266.194 40 266.684C40 267.2 39.742 267.458 39.2 267.432H20.6581C20.0129 267.432 19.6774 267.742 19.7032 268.361V285.703C19.7032 286.4 20.0645 286.761 20.7613 286.761H39.4065C39.8968 286.761 40.1549 286.994 40.1807 287.484C40.1807 287.974 39.9226 288.232 39.4065 288.207H20.3742C18.9032 288.207 18.2194 287.484 18.2452 286.052V267.794C18.2452 266.581 18.8387 266 20.0387 266H39.2V265.961ZM24.7226 275.007H38.6194C39.0839 275.007 39.3161 275.239 39.342 275.729C39.342 276.219 39.1097 276.478 38.6194 276.452H32.8387V285.136C32.8387 285.652 32.6065 285.91 32.1161 285.91C31.6258 285.91 31.3678 285.652 31.3936 285.136V276.452H24.7097V277.716C24.7097 280.413 23.9355 282.826 22.4258 284.955C22.0387 285.394 21.6258 285.419 21.2387 285.058C20.8516 284.723 20.8516 284.31 21.2645 283.871C22.5807 282.026 23.2129 279.961 23.2387 277.703V271.923C23.1871 270.555 23.7807 269.897 24.9807 269.871C29.1871 269.768 33.0452 269.484 36.5678 269.019C37.0839 268.968 37.3936 269.174 37.4968 269.665C37.5484 270.155 37.3161 270.439 36.8 270.516C33.2258 270.929 29.5097 271.213 25.6 271.342C25.0065 271.342 24.6968 271.729 24.6968 272.478V275.019L24.7226 275.007Z" fill="white"/>
<path d="M4.94191 267.755C5.38062 267.381 5.83223 266.826 6.28384 266.103C6.36126 265.987 6.45158 265.923 6.56771 265.923C6.69674 265.923 6.85158 265.961 7.04513 266.09L8.129 267.316C8.28384 267.471 8.30965 267.613 8.16771 267.755C8.03868 267.897 7.88384 267.897 7.7419 267.755L6.79997 266.62C6.79997 266.62 6.68384 266.581 6.64513 266.594C6.59352 266.594 6.55481 266.632 6.5161 266.697C6.19352 267.239 5.79352 267.729 5.329 268.194C5.17416 268.349 5.01933 268.349 4.89029 268.194C4.76126 268.065 4.76126 267.91 4.929 267.755H4.94191ZM6.38707 270.723H5.18707C4.98061 270.723 4.87739 270.632 4.89029 270.439C4.89029 270.245 4.99352 270.155 5.18707 270.155H6.38707V269.045H5.50965C5.3032 269.045 5.19997 268.955 5.21287 268.761C5.21287 268.568 5.3161 268.478 5.50965 268.478H7.75481C7.93545 268.478 8.02578 268.568 8.03868 268.761C8.03868 268.955 7.94835 269.058 7.75481 269.045H6.96771V270.155H7.94836C8.129 270.155 8.21933 270.245 8.23223 270.439C8.23223 270.632 8.1419 270.736 7.94836 270.723H6.96771V274.039C7.22578 273.961 7.49674 273.858 7.75481 273.768C7.93545 273.69 8.06449 273.742 8.14191 273.923C8.21933 274.103 8.16771 274.232 7.99997 274.297C7.17416 274.645 6.25803 274.878 5.27739 275.007C5.08384 275.045 4.96771 274.968 4.94191 274.774C4.9032 274.581 4.98061 274.465 5.18707 274.439C5.58707 274.374 5.99997 274.297 6.39997 274.207V270.736L6.38707 270.723ZM5.07094 271.652C4.99352 271.458 5.04513 271.329 5.25158 271.265C5.43223 271.2 5.56126 271.265 5.62578 271.484C5.78062 272.065 5.90965 272.684 6.02578 273.329C6.02578 273.549 5.94836 273.678 5.76771 273.69C5.57416 273.716 5.45804 273.613 5.44513 273.407C5.34191 272.774 5.21287 272.207 5.07094 271.665V271.652ZM7.56126 271.484C7.58707 271.278 7.69029 271.187 7.88384 271.2C8.07739 271.226 8.15481 271.329 8.14191 271.549C8.03868 272.078 7.90964 272.62 7.75481 273.174C7.67739 273.381 7.54836 273.458 7.36771 273.394C7.18706 273.329 7.13546 273.2 7.19997 272.994C7.35481 272.465 7.47094 271.961 7.57416 271.484H7.56126ZM8.47739 267.149C8.47739 266.645 8.69674 266.361 9.16126 266.31C9.61287 266.284 9.99997 266.232 10.2967 266.129C10.5032 266.09 10.6193 266.155 10.6709 266.349C10.7226 266.542 10.6193 266.671 10.4 266.71C10.129 266.787 9.78062 266.839 9.40642 266.839C9.16126 266.839 9.03223 266.981 9.04513 267.265V268.297H10.1935C10.3742 268.297 10.4645 268.387 10.4774 268.581C10.4774 268.787 10.3871 268.89 10.1935 268.878H9.04513V270.503H10.1935C10.3742 270.503 10.4645 270.594 10.4774 270.787C10.4774 270.994 10.3871 271.097 10.1935 271.084H9.04513V272.761C9.44513 272.658 9.83222 272.542 10.1935 272.387C10.3742 272.31 10.5032 272.361 10.5806 272.542C10.658 272.723 10.5806 272.852 10.4129 272.929C10.0129 273.084 9.56126 273.213 9.03223 273.355V275.032C9.03223 275.252 8.9419 275.355 8.74836 275.355C8.55481 275.355 8.45158 275.252 8.46449 275.032V273.51C8.32255 273.536 8.19352 273.574 8.07739 273.6C7.87094 273.639 7.75481 273.561 7.7419 273.355C7.7032 273.161 7.76771 273.045 7.96126 273.02C8.1161 272.981 8.28384 272.942 8.46449 272.903V267.149H8.47739ZM12.5032 273.613C12.9806 274.142 13.5742 274.542 14.2451 274.839C14.4387 274.916 14.4903 275.058 14.4258 275.239C14.3484 275.42 14.2064 275.458 14 275.368C13.2645 275.032 12.6322 274.594 12.1161 274.026C11.5871 274.555 10.9419 274.981 10.2064 275.329C10.0129 275.42 9.87094 275.381 9.78062 275.2C9.7032 275.02 9.75481 274.878 9.94836 274.787C10.658 274.465 11.2645 274.065 11.7548 273.6C11.2387 272.955 10.8387 272.181 10.5548 271.29C10.4903 271.097 10.5548 270.968 10.7484 270.903C10.929 270.839 11.058 270.903 11.1225 271.123C11.3548 271.91 11.7032 272.607 12.1419 273.174C12.6451 272.542 12.9935 271.807 13.1742 270.942C13.2129 270.749 13.1355 270.645 12.9161 270.632H10.8258C10.6064 270.632 10.5032 270.529 10.5032 270.336C10.5032 270.142 10.6064 270.052 10.8258 270.052H13.1096C13.6129 270.078 13.8193 270.323 13.729 270.826C13.5355 271.91 13.1096 272.826 12.4774 273.6L12.5032 273.613ZM11.4967 267.613C11.4967 268.503 11.2774 269.213 10.8387 269.742C10.658 269.897 10.5032 269.897 10.3613 269.742C10.2322 269.587 10.2322 269.42 10.4 269.265C10.7226 268.839 10.8903 268.22 10.9032 267.394V266.723C10.9032 266.297 11.0967 266.09 11.5225 266.09H12.6451C13.0709 266.09 13.2774 266.31 13.2903 266.736V268.942C13.2903 269.097 13.3677 269.174 13.5225 269.174H13.5871C13.729 269.174 13.8064 269.097 13.8193 268.942V268.207C13.8193 267.987 13.9225 267.884 14.1161 267.884C14.3096 267.884 14.3871 267.987 14.4 268.207V269.058C14.4 269.523 14.1548 269.755 13.7032 269.755H13.3419C12.9032 269.755 12.6838 269.536 12.6967 269.084V266.942C12.6967 266.749 12.5806 266.645 12.4 266.658H11.7677C11.5742 266.658 11.4709 266.761 11.4838 266.955V267.587L11.4967 267.613Z" fill="white"/>
<path d="M6.15481 280.245H5.26449C5.07094 280.245 4.96772 280.155 4.98062 279.961C4.98062 279.768 5.07094 279.665 5.26449 279.665H8.1161C8.29675 279.665 8.38707 279.768 8.39997 279.961C8.39997 280.155 8.30965 280.258 8.1161 280.245H6.74836C6.67094 281.019 6.52901 281.755 6.33546 282.426H7.2903C7.76772 282.426 8.01288 282.658 8.01288 283.123V287.497C8.01288 287.974 7.78062 288.219 7.2903 288.219H6.41288C5.93546 288.219 5.6903 287.987 5.7032 287.497V284.065C5.61288 284.245 5.52255 284.426 5.43223 284.581C5.3032 284.761 5.16127 284.8 5.00643 284.71C4.82578 284.607 4.79998 284.465 4.9161 284.284C5.66449 282.981 6.07739 281.639 6.14191 280.245H6.15481ZM6.28384 287.278C6.28384 287.523 6.38707 287.652 6.60642 287.652H7.04513C7.29029 287.652 7.41933 287.523 7.41933 287.278V283.329C7.41933 283.11 7.29029 283.007 7.04513 283.007H6.60642C6.38707 283.007 6.28384 283.11 6.28384 283.329V287.278ZM8.72255 285.303C8.72255 285.084 8.82578 284.981 9.04513 284.994C9.23868 284.994 9.32901 285.123 9.3161 285.329C9.27739 286.168 9.09675 287.11 8.74836 288.168C8.68384 288.387 8.56772 288.465 8.37417 288.4C8.18062 288.336 8.1161 288.207 8.19352 287.987C8.5161 287.007 8.68384 286.103 8.72255 285.303ZM13.7548 279.548C13.9613 279.548 14.0645 279.639 14.0774 279.832C14.0774 280.026 13.9742 280.129 13.7548 280.116H11.729V280.981H13.6774C13.858 280.981 13.9484 281.084 13.9613 281.277C13.9613 281.471 13.8709 281.574 13.6774 281.561H11.729V282.426H13.6774C13.858 282.426 13.9484 282.516 13.9613 282.71C13.9613 282.916 13.8709 283.019 13.6774 283.007H11.729V283.936H13.3161C13.8968 283.936 14.1935 284.194 14.1806 284.71C14.1806 286.142 14.1548 287.045 14.0903 287.445C14.0129 287.858 13.9096 288.168 13.7548 288.374C13.6516 288.477 13.5226 288.555 13.3548 288.619C13.2258 288.671 13.0322 288.697 12.7742 288.684C12.5161 288.684 12.129 288.594 11.6258 288.413C11.4064 288.374 11.3161 288.245 11.3548 288.052C11.3935 287.858 11.5355 287.781 11.7419 287.807C12.4516 288.065 12.929 288.116 13.1871 287.948C13.2645 287.884 13.329 287.807 13.3806 287.716C13.5096 287.355 13.5742 286.452 13.5871 285.032C13.5871 284.697 13.4451 284.516 13.1613 284.529H9.3161C8.87739 284.529 8.67094 284.31 8.68384 283.897V280.245C8.68384 279.781 8.9032 279.561 9.38062 279.548H13.7806H13.7548ZM11.1613 283.019H9.25159V283.652C9.25159 283.845 9.329 283.948 9.53546 283.948H11.1613V283.019ZM9.25159 280.981H11.1613V280.116H9.57417C9.34191 280.116 9.23869 280.232 9.25159 280.465V280.981ZM9.25159 282.439H11.1613V281.574H9.25159V282.439ZM9.75481 285.432C9.7161 285.213 9.78062 285.097 9.97417 285.058C10.1677 285.032 10.2838 285.11 10.3097 285.329C10.3871 286.077 10.4387 286.877 10.4645 287.716C10.4645 287.936 10.3484 288.039 10.1677 288.039C9.97417 288.039 9.88385 287.923 9.89675 287.716C9.89675 286.916 9.84514 286.155 9.75481 285.445V285.432ZM10.8903 285.329C10.8258 285.136 10.8903 285.007 11.0838 284.955C11.2645 284.903 11.3806 284.981 11.458 285.174C11.5742 285.807 11.6774 286.477 11.7677 287.187C11.7677 287.407 11.6903 287.51 11.4967 287.523C11.2903 287.548 11.1871 287.445 11.1871 287.226C11.1226 286.542 11.0193 285.897 10.8903 285.316V285.329ZM12.0516 285.252C11.9742 285.058 12.0258 284.929 12.1935 284.852C12.3742 284.774 12.5032 284.852 12.5806 285.032C12.7613 285.561 12.929 286.103 13.058 286.684C13.0967 286.89 13.0322 287.007 12.8387 287.058C12.6451 287.097 12.5161 287.019 12.4903 286.8C12.3613 286.245 12.2193 285.729 12.0516 285.252Z" fill="white"/>
<defs>
<linearGradient id="paint0_linear_993_952" x1="3.76773" y1="230.632" x2="264.258" y2="230.632" gradientUnits="userSpaceOnUse">
<stop stop-color="white"/>
<stop offset="1" stop-color="#22AC38"/>
</linearGradient>
</defs>
</svg>
