<svg width="286" height="286" viewBox="0 0 286 286" fill="none" xmlns="http://www.w3.org/2000/svg">
<g clip-path="url(#clip0_694_135)">
<path d="M218.969 0H67.0312C30.0109 0 0 30.0109 0 67.0312V218.969C0 255.989 30.0109 286 67.0312 286H218.969C255.989 286 286 255.989 286 218.969V67.0312C286 30.0109 255.989 0 218.969 0Z" fill="url(#paint0_radial_694_135)"/>
<path d="M218.969 0H67.0312C30.0109 0 0 30.0109 0 67.0312V218.969C0 255.989 30.0109 286 67.0312 286H218.969C255.989 286 286 255.989 286 218.969V67.0312C286 30.0109 255.989 0 218.969 0Z" fill="url(#paint1_radial_694_135)"/>
<path d="M143.01 31.2812C112.669 31.2812 108.861 31.4142 96.9451 31.956C85.0515 32.5012 76.9329 34.3837 69.8298 37.1465C62.4809 39.9998 56.2482 43.8172 50.0388 50.0288C43.8239 56.2392 40.0065 62.472 37.1443 69.8175C34.3736 76.9228 32.4889 85.0448 31.9538 96.9328C31.4209 108.85 31.2812 112.659 31.2812 143.001C31.2812 173.343 31.4153 177.139 31.956 189.055C32.5035 200.949 34.3859 209.067 37.1465 216.17C40.002 223.519 43.8194 229.752 50.031 235.961C56.2392 242.176 62.472 246.002 69.8153 248.856C76.9239 251.619 85.0437 253.501 96.935 254.046C108.852 254.588 112.657 254.721 142.997 254.721C173.341 254.721 177.137 254.588 189.053 254.046C200.946 253.501 209.074 251.619 216.182 248.856C223.528 246.002 229.752 242.176 235.959 235.961C242.174 229.752 245.99 223.519 248.854 216.174C251.6 209.067 253.485 200.946 254.044 189.057C254.579 177.141 254.719 173.343 254.719 143.001C254.719 112.659 254.579 108.852 254.044 96.935C253.485 85.0414 251.6 76.9239 248.854 69.8209C245.99 62.472 242.174 56.2392 235.959 50.0288C229.745 43.815 223.53 39.9975 216.176 37.1476C209.054 34.3837 200.931 32.5001 189.037 31.956C177.12 31.4142 173.326 31.2812 142.975 31.2812H143.01ZM132.988 51.4141C135.963 51.4096 139.282 51.4141 143.01 51.4141C172.84 51.4141 176.375 51.5213 188.154 52.0565C199.047 52.5547 204.959 54.3746 208.897 55.9041C214.111 57.9284 217.828 60.3494 221.736 64.2606C225.646 68.1708 228.066 71.8944 230.096 77.1083C231.625 81.0408 233.448 86.9529 233.944 97.8455C234.479 109.623 234.595 113.16 234.595 142.975C234.595 172.791 234.479 176.329 233.944 188.105C233.445 198.998 231.625 204.91 230.096 208.844C228.072 214.058 225.646 217.77 221.736 221.678C217.826 225.588 214.113 228.008 208.897 230.033C204.964 231.57 199.047 233.385 188.154 233.883C176.377 234.418 172.84 234.535 143.01 234.535C113.179 234.535 109.643 234.418 97.8667 233.883C86.9742 233.38 81.062 231.561 77.1206 230.031C71.9078 228.006 68.1831 225.586 64.2729 221.676C60.3628 217.766 57.9429 214.051 55.913 208.835C54.3836 204.901 52.5614 198.989 52.0654 188.096C51.5303 176.319 51.423 172.782 51.423 142.947C51.423 113.113 51.5303 109.595 52.0654 97.8176C52.5637 86.925 54.3836 81.0128 55.913 77.0748C57.9385 71.8608 60.3628 68.1373 64.274 64.2271C68.1853 60.317 71.9078 57.896 77.1217 55.8672C81.0598 54.3311 86.9742 52.5156 97.8667 52.0151C108.173 51.5493 112.167 51.4096 132.988 51.3862V51.4141ZM202.646 69.9639C195.244 69.9639 189.239 75.9632 189.239 83.3657C189.239 90.767 195.244 96.7719 202.646 96.7719C210.047 96.7719 216.052 90.767 216.052 83.3657C216.052 75.9643 210.047 69.9594 202.646 69.9594V69.9639ZM143.01 85.628C111.327 85.628 85.638 111.317 85.638 143.001C85.638 174.686 111.327 200.362 143.01 200.362C174.695 200.362 200.374 174.686 200.374 143.001C200.374 111.318 174.692 85.628 143.008 85.628H143.01ZM143.01 105.761C163.576 105.761 180.25 122.433 180.25 143.001C180.25 163.567 163.576 180.241 143.01 180.241C122.444 180.241 105.771 163.567 105.771 143.001C105.771 122.433 122.443 105.761 143.01 105.761Z" fill="white"/>
</g>
<defs>
<radialGradient id="paint0_radial_694_135" cx="0" cy="0" r="1" gradientUnits="userSpaceOnUse" gradientTransform="translate(75.9687 308.028) rotate(-90) scale(283.447 263.628)">
<stop stop-color="#FFDD55"/>
<stop offset="0.1" stop-color="#FFDD55"/>
<stop offset="0.5" stop-color="#FF543E"/>
<stop offset="1" stop-color="#C837AB"/>
</radialGradient>
<radialGradient id="paint1_radial_694_135" cx="0" cy="0" r="1" gradientUnits="userSpaceOnUse" gradientTransform="translate(-47.9061 20.6021) rotate(78.681) scale(126.702 522.272)">
<stop stop-color="#3771C8"/>
<stop offset="0.128" stop-color="#3771C8"/>
<stop offset="1" stop-color="#6600FF" stop-opacity="0"/>
</radialGradient>
<clipPath id="clip0_694_135">
<rect width="286" height="286" fill="white"/>
</clipPath>
</defs>
</svg>
