<svg width="39" height="39" viewBox="0 0 39 39" fill="none" xmlns="http://www.w3.org/2000/svg">
<g clip-path="url(#clip0_444_273)">
<path d="M4.875 4.875H9.75V9.75H4.875V4.875Z" fill="black"/>
<path d="M14.625 0V14.625H0V0H14.625ZM12.1875 2.4375H2.4375V12.1875H12.1875V2.4375ZM9.75 29.25H4.875V34.125H9.75V29.25Z" fill="black"/>
<path d="M14.625 24.375V39H0V24.375H14.625ZM2.4375 26.8125V36.5625H12.1875V26.8125H2.4375ZM29.25 4.875H34.125V9.75H29.25V4.875Z" fill="black"/>
<path d="M24.375 0V14.625H39V0H24.375ZM36.5625 2.4375V12.1875H26.8125V2.4375H36.5625ZM19.5 2.4375V0H21.9375V4.875H19.5V9.75H17.0625V2.4375H19.5ZM19.5 14.625V9.75H21.9375V14.625H19.5ZM14.625 19.5V17.0625H17.0625V14.625H19.5V19.5H21.9375V17.0625H34.125V19.5H24.375V21.9375H17.0625V19.5H14.625ZM14.625 19.5V21.9375H4.875V19.5H2.4375V21.9375H0V17.0625H7.3125V19.5H14.625ZM39 21.9375H36.5625V17.0625H39V21.9375ZM36.5625 21.9375H34.125V26.8125H39V24.375H36.5625V21.9375ZM26.8125 21.9375H31.6875V24.375H29.25V26.8125H26.8125V21.9375ZM31.6875 29.25V26.8125H29.25V29.25H26.8125V31.6875H21.9375V34.125H29.25V29.25H31.6875ZM31.6875 29.25H39V31.6875H34.125V34.125H31.6875V29.25ZM21.9375 26.8125V29.25H24.375V24.375H17.0625V26.8125H21.9375Z" fill="black"/>
<path d="M17.0625 29.25H19.5V36.5625H29.25V39H17.0625V29.25ZM39 34.125V39H31.6875V36.5625H36.5625V34.125H39Z" fill="black"/>
</g>
<defs>
<clipPath id="clip0_444_273">
<rect width="39" height="39" fill="white"/>
</clipPath>
</defs>
</svg>
