<svg width="56" height="24" viewBox="0 0 56 24" fill="none" xmlns="http://www.w3.org/2000/svg">
<rect x="1" y="1" width="54" height="22" rx="11" fill="white"/>
<rect x="1" y="1" width="54" height="22" rx="11" stroke="#006837" stroke-width="2"/>
<g clip-path="url(#clip0_840_254)">
<rect x="4" y="4" width="16" height="16" rx="8" fill="#B2F2B7"/>
<path d="M12 7V8.11086M12 15.8891V17M8.11111 11.9989H7M17 11.9989H15.8889M15.8889 8.11086L14.7778 9.22173M8.11111 8.11086L9.22222 9.22173M9.22222 14.776L8.11111 15.8869M15.8889 15.8869L14.7778 14.776M14.2222 11.9989C14.2222 12.5881 13.9881 13.1532 13.5713 13.5699C13.1546 13.9865 12.5894 14.2206 12 14.2206C11.4106 14.2206 10.8454 13.9865 10.4287 13.5699C10.0119 13.1532 9.77778 12.5881 9.77778 11.9989C9.77778 11.4097 10.0119 10.8445 10.4287 10.4279C10.8454 10.0112 11.4106 9.77716 12 9.77716C12.5894 9.77716 13.1546 10.0112 13.5713 10.4279C13.9881 10.8445 14.2222 11.4097 14.2222 11.9989Z" stroke="#006837" stroke-width="1.5" stroke-linecap="round" stroke-linejoin="round"/>
</g>
<defs>
<clipPath id="clip0_840_254">
<rect x="4" y="4" width="16" height="16" rx="8" fill="white"/>
</clipPath>
</defs>
</svg>
