<svg width="64" height="40" viewBox="0 0 64 40" fill="none" xmlns="http://www.w3.org/2000/svg">
<rect x="9" y="9" width="54" height="22" rx="11" fill="white"/>
<rect x="9" y="9" width="54" height="22" rx="11" stroke="#006837" stroke-width="2"/>
<g clip-path="url(#clip0_840_254)">
<rect x="12" y="12" width="16" height="16" rx="8" fill="#B2F2B7"/>
<path d="M20 15V16.1109M20 23.8891V25M16.1111 19.9989H15M25 19.9989H23.8889M23.8889 16.1109L22.7778 17.2217M16.1111 16.1109L17.2222 17.2217M17.2222 22.776L16.1111 23.8869M23.8889 23.8869L22.7778 22.776M22.2222 19.9989C22.2222 20.5881 21.9881 21.1532 21.5713 21.5699C21.1546 21.9865 20.5894 22.2206 20 22.2206C19.4106 22.2206 18.8454 21.9865 18.4287 21.5699C18.0119 21.1532 17.7778 20.5881 17.7778 19.9989C17.7778 19.4097 18.0119 18.8445 18.4287 18.4279C18.8454 18.0112 19.4106 17.7772 20 17.7772C20.5894 17.7772 21.1546 18.0112 21.5713 18.4279C21.9881 18.8445 22.2222 19.4097 22.2222 19.9989Z" stroke="#006837" stroke-width="1.5" stroke-linecap="round" stroke-linejoin="round"/>
</g>
<defs>
<clipPath id="clip0_840_254">
<rect x="12" y="12" width="16" height="16" rx="8" fill="white"/>
</clipPath>
</defs>
</svg>
