<svg width="172" height="172" viewBox="0 0 172 172" fill="none" xmlns="http://www.w3.org/2000/svg">
<path d="M96.2388 153.916C96.2388 156.632 95.1601 159.236 93.2399 161.156C91.3198 163.076 88.7155 164.155 86 164.155C83.2845 164.155 80.6802 163.076 78.7601 161.156C76.84 159.236 75.7612 156.632 75.7612 153.916C75.7612 151.201 76.84 148.597 78.7601 146.676C80.6802 144.756 83.2845 143.677 86 143.677C88.7155 143.677 91.3198 144.756 93.2399 146.676C95.1601 148.597 96.2388 151.201 96.2388 153.916Z" fill="#E1E8ED"/>
<path d="M132.072 74.7388C132.072 49.2924 111.437 28.6667 85.9999 28.6667C73.7808 28.6667 62.0622 33.5208 53.422 42.161C44.7818 50.8011 39.9278 62.5198 39.9278 74.7388C39.9278 100.333 34.8108 153.916 34.8108 153.916C34.8108 156.632 35.8895 159.236 37.8097 161.156C39.7298 163.076 42.3341 164.155 45.0496 164.155C47.7651 164.155 50.3693 163.076 52.2895 161.156C54.2096 159.236 55.2883 156.632 55.2883 153.916C55.3875 156.565 56.5093 159.072 58.4182 160.911C60.327 162.749 62.8743 163.777 65.5247 163.777C68.1751 163.777 70.7224 162.749 72.6312 160.911C74.5401 159.072 75.662 156.565 75.7611 153.916H96.2386C96.2965 156.594 97.4009 159.143 99.3151 161.016C101.229 162.889 103.801 163.938 106.48 163.938C109.158 163.938 111.73 162.889 113.644 161.016C115.559 159.143 116.663 156.594 116.721 153.916C116.721 156.632 117.8 159.236 119.72 161.156C121.64 163.076 124.244 164.155 126.96 164.155C129.675 164.155 132.279 163.076 134.2 161.156C136.12 159.236 137.198 156.632 137.198 153.916C137.189 153.916 132.072 100.333 132.072 74.7388Z" fill="#E1E8ED"/>
<path d="M95.5557 14.3333C95.5557 24.8874 88.6422 43 86.0001 43C83.358 43 76.4446 24.8874 76.4446 14.3333C76.4446 3.77922 83.3628 0 86.0001 0C88.6422 0 95.5557 3.77922 95.5557 14.3333ZM74.7007 157.667C74.7007 145.187 82.8755 119.444 86.0001 119.444C89.12 119.444 97.2996 145.187 97.2996 157.667C97.2996 170.146 89.1152 172 86.0001 172C82.8755 172 74.7007 170.146 74.7007 157.667Z" fill="#DD2E44"/>
<path d="M86.0001 129C104.471 129 119.445 119.374 119.445 107.5C119.445 95.6259 104.471 86 86.0001 86C67.5293 86 52.5557 95.6259 52.5557 107.5C52.5557 119.374 67.5293 129 86.0001 129Z" fill="#F4900C"/>
<path d="M119.445 107.5C119.445 114.667 52.5557 114.667 52.5557 107.5C52.5557 100.333 75.446 86 86.0001 86C96.5542 86 119.445 100.333 119.445 107.5Z" fill="#FFAC33"/>
<path d="M54.9445 95.5555C58.9025 95.5555 62.1112 92.3469 62.1112 88.3888C62.1112 84.4308 58.9025 81.2222 54.9445 81.2222C50.9865 81.2222 47.7778 84.4308 47.7778 88.3888C47.7778 92.3469 50.9865 95.5555 54.9445 95.5555Z" fill="#292F33"/>
<path d="M117.056 95.5555C121.014 95.5555 124.222 92.3469 124.222 88.3888C124.222 84.4308 121.014 81.2222 117.056 81.2222C113.098 81.2222 109.889 84.4308 109.889 88.3888C109.889 92.3469 113.098 95.5555 117.056 95.5555Z" fill="#292F33"/>
</svg>
