<svg width="172" height="172" viewBox="0 0 172 172" fill="none" xmlns="http://www.w3.org/2000/svg">
<path d="M138.782 70.6851C139.95 70.7316 141.054 71.228 141.863 72.0703C142.673 72.9126 143.125 74.0355 143.125 75.2037C143.125 76.3719 142.673 77.4947 141.863 78.337C141.054 79.1794 139.95 79.6758 138.782 79.7222H126.205V87.7847H138.782C139.39 87.7605 139.996 87.8593 140.565 88.0751C141.133 88.2909 141.652 88.6193 142.091 89.0406C142.529 89.4619 142.878 89.9675 143.116 90.5269C143.355 91.0863 143.477 91.6881 143.477 92.2962C143.477 92.9042 143.355 93.506 143.116 94.0654C142.878 94.6249 142.529 95.1304 142.091 95.5517C141.652 95.973 141.133 96.3014 140.565 96.5172C139.996 96.733 139.39 96.8318 138.782 96.8076H121.683C120.49 96.8019 119.349 96.3247 118.507 95.4801C117.665 94.6356 117.191 93.4922 117.189 92.2997V58.1076C117.189 55.6351 119.21 53.5926 121.704 53.5926H138.804C140.001 53.5954 141.149 54.0739 141.993 54.9226C142.838 55.7713 143.311 56.9209 143.308 58.1183C143.305 59.3158 142.827 60.4631 141.978 61.3078C141.129 62.1525 139.98 62.6254 138.782 62.6226H126.205V70.6851H138.782ZM111.155 92.2997C111.149 93.4947 110.67 94.6387 109.822 95.481C108.975 96.3233 107.828 96.7952 106.633 96.7932C105.925 96.8074 105.224 96.6522 104.588 96.3406C103.952 96.0289 103.4 95.5698 102.978 95.0016L85.4697 71.2298V92.2997C85.3908 93.4406 84.882 94.509 84.0459 95.2892C83.2099 96.0694 82.109 96.5034 80.9654 96.5034C79.8219 96.5034 78.7209 96.0694 77.8849 95.2892C77.0489 94.509 76.54 93.4406 76.4612 92.2997V58.1076C76.4593 56.9183 76.9289 55.7768 77.7671 54.9332C78.6054 54.0895 79.7439 53.6126 80.9332 53.6069C82.3307 53.6069 83.6207 54.3523 84.4807 55.4273L102.125 79.2923V58.1076C102.125 55.6351 104.146 53.5926 106.64 53.5926C109.112 53.5926 111.155 55.6351 111.155 58.1076V92.2997ZM70.0112 92.2997C70.0102 92.8927 69.8925 93.4796 69.6647 94.027C69.437 94.5744 69.1036 95.0716 68.6837 95.4902C68.2638 95.9088 67.7655 96.2406 67.2174 96.4666C66.6692 96.6927 66.0819 96.8085 65.489 96.8076C64.2965 96.8019 63.1547 96.3247 62.3128 95.4801C61.4709 94.6356 60.9974 93.4922 60.9955 92.2997V58.1076C60.9955 55.6351 63.0165 53.5926 65.5105 53.5926C67.9902 53.5926 70.0112 55.6351 70.0112 58.1076V92.2997ZM52.3382 96.8076H35.2385C34.0446 96.8001 32.9016 96.323 32.0567 95.4794C31.2118 94.6358 30.7329 93.4936 30.7235 92.2997V58.1076C30.7235 55.6351 32.766 53.5926 35.2385 53.5926C37.7325 53.5926 39.7535 55.6351 39.7535 58.1076V87.7847H52.3382C53.5036 87.8312 54.6058 88.3268 55.4139 89.1678C56.222 90.0088 56.6733 91.1298 56.6733 92.2962C56.6733 93.4625 56.222 94.5835 55.4139 95.4245C54.6058 96.2655 53.5036 96.7611 52.3382 96.8076ZM172 73.9173C172 35.4251 133.407 4.09961 86 4.09961C38.5925 4.09961 0 35.4251 0 73.9173C0 108.396 30.6017 137.285 71.9175 142.775C74.7197 143.362 78.5323 144.624 79.4998 147.003C80.3598 149.16 80.066 152.493 79.7722 154.743L78.5968 162.053C78.2743 164.21 76.8768 170.553 86.1147 166.675C95.3668 162.813 135.679 137.45 153.739 116.688C166.095 103.15 172 89.2826 172 73.9173Z" fill="#1A8C16"/>
</svg>
