<svg width="21" height="20" viewBox="0 0 21 20" fill="none" xmlns="http://www.w3.org/2000/svg">
<path d="M10.089 1C10.089 0.801088 10.01 0.610322 9.86933 0.46967C9.72868 0.329018 9.53791 0.25 9.339 0.25C9.14009 0.25 8.94932 0.329018 8.80867 0.46967C8.66802 0.610322 8.589 0.801088 8.589 1V2.978C8.589 3.17691 8.66802 3.36768 8.80867 3.50833C8.94932 3.64898 9.14009 3.728 9.339 3.728C9.53791 3.728 9.72868 3.64898 9.86933 3.50833C10.01 3.36768 10.089 3.17691 10.089 2.978V1ZM4.483 2.945C4.34229 2.80747 4.15318 2.73073 3.95642 2.73135C3.75966 2.73196 3.57103 2.80986 3.43118 2.94827C3.29133 3.08667 3.21147 3.27449 3.20882 3.47123C3.20617 3.66797 3.28093 3.85788 3.417 4L4.887 5.483C4.95457 5.55941 5.03702 5.62124 5.12931 5.6647C5.22159 5.70816 5.32177 5.73234 5.42372 5.73575C5.52567 5.73917 5.62724 5.72176 5.72223 5.68457C5.81722 5.64739 5.90362 5.59122 5.97616 5.5195C6.04869 5.44778 6.10584 5.36202 6.1441 5.26746C6.18235 5.1729 6.20092 5.07153 6.19866 4.96955C6.1964 4.86757 6.17336 4.76712 6.13094 4.67435C6.08853 4.58158 6.02764 4.49843 5.952 4.43L4.483 2.945ZM15.261 4C15.3929 3.85721 15.4642 3.6688 15.4599 3.47448C15.4555 3.28015 15.376 3.09509 15.2379 2.9583C15.0998 2.82151 14.914 2.74367 14.7196 2.74119C14.5253 2.73871 14.3375 2.81178 14.196 2.945L12.726 4.429C12.6527 4.49802 12.594 4.5811 12.5535 4.67328C12.5129 4.76546 12.4914 4.86486 12.4901 4.96555C12.4888 5.06624 12.5078 5.16616 12.546 5.25935C12.5841 5.35254 12.6407 5.43709 12.7122 5.50795C12.7838 5.57882 12.8688 5.63456 12.9624 5.67184C13.0559 5.70912 13.156 5.72718 13.2567 5.72494C13.3574 5.72271 13.4566 5.70022 13.5484 5.65883C13.6402 5.61743 13.7227 5.55797 13.791 5.484L15.261 4ZM10.3 8.096C9.275 7.692 8.306 8.713 8.69 9.706L12.271 18.956C12.681 20.014 14.172 20.015 14.582 18.956L15.956 15.413L19.464 14.028C20.512 13.614 20.512 12.125 19.464 11.711L10.3 8.096ZM3.46 8.163H1.5C1.30109 8.163 1.11032 8.24202 0.96967 8.38267C0.829018 8.52332 0.75 8.71409 0.75 8.913C0.75 9.11191 0.829018 9.30268 0.96967 9.44333C1.11032 9.58398 1.30109 9.663 1.5 9.663H3.46C3.65891 9.663 3.84968 9.58398 3.99033 9.44333C4.13098 9.30268 4.21 9.11191 4.21 8.913C4.21 8.71409 4.13098 8.52332 3.99033 8.38267C3.84968 8.24202 3.65891 8.163 3.46 8.163ZM5.952 13.397C6.08814 13.255 6.16303 13.0652 6.16054 12.8685C6.15805 12.6718 6.07837 12.4839 5.93868 12.3454C5.79898 12.2069 5.61046 12.1288 5.41374 12.128C5.21702 12.1272 5.02785 12.2037 4.887 12.341L3.417 13.825C3.34766 13.895 3.29279 13.978 3.25552 14.0692C3.21824 14.1604 3.1993 14.258 3.19976 14.3565C3.20022 14.4551 3.22009 14.5525 3.25822 14.6434C3.29635 14.7342 3.35201 14.8167 3.422 14.886C3.49199 14.9553 3.57496 15.0102 3.66616 15.0475C3.75736 15.0848 3.85501 15.1037 3.95354 15.1032C4.05206 15.1028 4.14953 15.0829 4.24037 15.0448C4.33122 15.0066 4.41366 14.951 4.483 14.881L5.952 13.397Z" fill="white"/>
</svg>
