<svg width="112" height="102" viewBox="0 0 112 102" fill="none" xmlns="http://www.w3.org/2000/svg">
<path d="M16.0181 40.504C14.6741 40.504 13.3061 40.24 11.9141 39.712C10.5461 39.184 9.35806 38.512 8.35006 37.696L10.7621 34.348C11.6501 35.02 12.5261 35.56 13.3901 35.968C14.2781 36.352 15.2021 36.544 16.1621 36.544C17.1701 36.544 17.9021 36.352 18.3581 35.968C18.8381 35.56 19.0781 35.044 19.0781 34.42C19.0781 33.916 18.8741 33.496 18.4661 33.16C18.0581 32.8 17.5301 32.488 16.8821 32.224C16.2341 31.936 15.5621 31.66 14.8661 31.396C14.0261 31.06 13.1861 30.652 12.3461 30.172C11.5301 29.692 10.8461 29.08 10.2941 28.336C9.74206 27.568 9.46606 26.62 9.46606 25.492C9.46606 24.292 9.77806 23.236 10.4021 22.324C11.0261 21.388 11.8901 20.656 12.9941 20.128C14.1221 19.6 15.4541 19.336 16.9901 19.336C18.4541 19.336 19.7501 19.588 20.8781 20.092C22.0301 20.596 23.0141 21.172 23.8301 21.82L21.4541 25.024C20.7341 24.496 20.0141 24.076 19.2941 23.764C18.5981 23.452 17.8781 23.296 17.1341 23.296C16.1981 23.296 15.5141 23.476 15.0821 23.836C14.6501 24.196 14.4341 24.664 14.4341 25.24C14.4341 25.72 14.6141 26.128 14.9741 26.464C15.3341 26.776 15.8261 27.052 16.4501 27.292C17.0741 27.532 17.7341 27.784 18.4301 28.048C19.1021 28.288 19.7621 28.576 20.4101 28.912C21.0821 29.224 21.6941 29.608 22.2461 30.064C22.7981 30.52 23.2301 31.084 23.5421 31.756C23.8781 32.404 24.0461 33.196 24.0461 34.132C24.0461 35.308 23.7341 36.388 23.1101 37.372C22.5101 38.332 21.6101 39.1 20.4101 39.676C19.2341 40.228 17.7701 40.504 16.0181 40.504ZM36.6503 40.504C34.8023 40.504 33.1343 40.084 31.6463 39.244C30.1583 38.404 28.9823 37.204 28.1183 35.644C27.2543 34.06 26.8223 32.152 26.8223 29.92C26.8223 27.688 27.2903 25.792 28.2263 24.232C29.1863 22.648 30.4463 21.436 32.0063 20.596C33.5903 19.756 35.2943 19.336 37.1183 19.336C38.3663 19.336 39.4703 19.552 40.4303 19.984C41.3903 20.392 42.2423 20.932 42.9863 21.604L40.4663 24.952C39.9863 24.52 39.4943 24.196 38.9903 23.98C38.4863 23.764 37.9583 23.656 37.4063 23.656C36.3743 23.656 35.4623 23.92 34.6703 24.448C33.9023 24.952 33.3023 25.672 32.8703 26.608C32.4623 27.544 32.2583 28.648 32.2583 29.92C32.2583 31.192 32.4623 32.296 32.8703 33.232C33.3023 34.168 33.8903 34.9 34.6343 35.428C35.4023 35.932 36.2663 36.184 37.2263 36.184C37.9463 36.184 38.6423 36.028 39.3143 35.716C39.9863 35.404 40.5983 35.02 41.1503 34.564L43.2383 38.056C42.2783 38.896 41.2103 39.52 40.0343 39.928C38.8823 40.312 37.7543 40.504 36.6503 40.504ZM47.0667 40V19.84H51.3867L51.7827 23.404H51.8907C52.6347 22.084 53.5107 21.076 54.5187 20.38C55.5267 19.684 56.5587 19.336 57.6147 19.336C58.1907 19.336 58.6467 19.384 58.9827 19.48C59.3427 19.552 59.6667 19.648 59.9547 19.768L59.0907 24.34C58.7067 24.244 58.3587 24.172 58.0467 24.124C57.7587 24.052 57.3867 24.016 56.9307 24.016C56.1627 24.016 55.3467 24.316 54.4827 24.916C53.6427 25.516 52.9347 26.536 52.3587 27.976V40H47.0667ZM70.6078 40.504C68.9278 40.504 67.3438 40.084 65.8558 39.244C64.3918 38.404 63.2038 37.204 62.2918 35.644C61.3798 34.06 60.9238 32.152 60.9238 29.92C60.9238 27.688 61.3798 25.792 62.2918 24.232C63.2038 22.648 64.3918 21.436 65.8558 20.596C67.3438 19.756 68.9278 19.336 70.6078 19.336C71.8798 19.336 73.0918 19.576 74.2438 20.056C75.3958 20.536 76.4278 21.232 77.3398 22.144C78.2518 23.032 78.9718 24.136 79.4998 25.456C80.0278 26.752 80.2918 28.24 80.2918 29.92C80.2918 32.152 79.8358 34.06 78.9238 35.644C78.0118 37.204 76.8118 38.404 75.3238 39.244C73.8598 40.084 72.2878 40.504 70.6078 40.504ZM70.6078 36.184C71.5198 36.184 72.2878 35.932 72.9118 35.428C73.5598 34.9 74.0398 34.168 74.3518 33.232C74.6878 32.296 74.8558 31.192 74.8558 29.92C74.8558 28.648 74.6878 27.544 74.3518 26.608C74.0398 25.672 73.5598 24.952 72.9118 24.448C72.2878 23.92 71.5198 23.656 70.6078 23.656C69.6958 23.656 68.9158 23.92 68.2678 24.448C67.6438 24.952 67.1638 25.672 66.8278 26.608C66.5158 27.544 66.3598 28.648 66.3598 29.92C66.3598 31.192 66.5158 32.296 66.8278 33.232C67.1638 34.168 67.6438 34.9 68.2678 35.428C68.9158 35.932 69.6958 36.184 70.6078 36.184ZM89.723 40.504C88.475 40.504 87.491 40.252 86.771 39.748C86.051 39.22 85.523 38.5 85.187 37.588C84.875 36.652 84.719 35.572 84.719 34.348V11.272H90.011V34.564C90.011 35.164 90.119 35.584 90.335 35.824C90.575 36.064 90.815 36.184 91.055 36.184C91.175 36.184 91.283 36.184 91.379 36.184C91.475 36.16 91.607 36.136 91.775 36.112L92.423 40.036C92.111 40.156 91.727 40.264 91.271 40.36C90.839 40.456 90.323 40.504 89.723 40.504ZM101.078 40.504C99.8305 40.504 98.8465 40.252 98.1265 39.748C97.4065 39.22 96.8785 38.5 96.5425 37.588C96.2305 36.652 96.0745 35.572 96.0745 34.348V11.272H101.366V34.564C101.366 35.164 101.474 35.584 101.69 35.824C101.93 36.064 102.17 36.184 102.41 36.184C102.53 36.184 102.638 36.184 102.734 36.184C102.83 36.16 102.962 36.136 103.13 36.112L103.778 40.036C103.466 40.156 103.082 40.264 102.626 40.36C102.194 40.456 101.678 40.504 101.078 40.504Z" fill="black"/>
<g clip-path="url(#clip0_415_273)">
<path d="M56.2292 82.9791L57.3333 84.0833C57.0404 84.3759 56.6432 84.5403 56.2292 84.5403C55.8151 84.5403 55.418 84.3759 55.125 84.0833L56.2292 82.9791ZM56.2292 66.3125L55.125 65.2083C55.418 64.9157 55.8151 64.7513 56.2292 64.7513C56.6432 64.7513 57.0404 64.9157 57.3333 65.2083L56.2292 66.3125ZM50.9583 79.9166C50.6823 79.6204 50.5321 79.2287 50.5392 78.8239C50.5464 78.4191 50.7103 78.0329 50.9966 77.7466C51.2829 77.4603 51.6691 77.2963 52.0739 77.2892C52.4787 77.282 52.8705 77.4323 53.1667 77.7083L50.9583 79.9166ZM59.2917 77.7083C59.4347 77.5548 59.6072 77.4316 59.7989 77.3462C59.9905 77.2608 60.1974 77.2149 60.4072 77.2112C60.617 77.2075 60.8254 77.2461 61.02 77.3247C61.2146 77.4033 61.3913 77.5203 61.5397 77.6686C61.688 77.817 61.805 77.9937 61.8836 78.1883C61.9622 78.3829 62.0008 78.5912 61.9971 78.801C61.9934 79.0108 61.9474 79.2177 61.862 79.4094C61.7766 79.6011 61.6535 79.7736 61.5 79.9166L59.2917 77.7083ZM53.1667 71.5833C53.0236 71.7368 52.8511 71.8599 52.6595 71.9453C52.4678 72.0307 52.2609 72.0767 52.0511 72.0804C51.8413 72.0841 51.6329 72.0455 51.4383 71.9669C51.2438 71.8883 51.067 71.7713 50.9187 71.623C50.7703 71.4746 50.6533 71.2978 50.5747 71.1033C50.4962 70.9087 50.4576 70.7003 50.4613 70.4905C50.465 70.2807 50.5109 70.0738 50.5963 69.8822C50.6817 69.6905 50.8048 69.518 50.9583 69.375L53.1667 71.5833ZM61.5 69.375C61.6535 69.518 61.7766 69.6905 61.862 69.8822C61.9474 70.0738 61.9934 70.2807 61.9971 70.4905C62.0008 70.7003 61.9622 70.9087 61.8836 71.1033C61.805 71.2978 61.688 71.4746 61.5397 71.623C61.3913 71.7713 61.2146 71.8883 61.02 71.9669C60.8254 72.0455 60.617 72.0841 60.4072 72.0804C60.1974 72.0767 59.9905 72.0307 59.7989 71.9453C59.6072 71.8599 59.4347 71.7368 59.2917 71.5833L61.5 69.375ZM38 72.5625V64.2291H41.125V72.5625H38ZM74.4583 64.2291V72.5625H71.3333V64.2291H74.4583ZM54.6667 82.9791V66.3125H57.7917V82.9791H54.6667ZM55.125 84.0833L50.9583 79.9166L53.1667 77.7083L57.3333 81.875L55.125 84.0833ZM55.125 81.875L59.2917 77.7083L61.5 79.9166L57.3333 84.0833L55.125 81.875ZM57.3333 67.4166L53.1667 71.5833L50.9583 69.375L55.125 65.2083L57.3333 67.4166ZM57.3333 65.2083L61.5 69.375L59.2917 71.5833L55.125 67.4166L57.3333 65.2083ZM74.4583 72.5625C74.4583 77.3971 72.5378 82.0338 69.1191 85.4524C65.7005 88.8711 61.0638 90.7916 56.2292 90.7916V87.6666C60.235 87.6666 64.0768 86.0753 66.9094 83.2427C69.742 80.4101 71.3333 76.5683 71.3333 72.5625H74.4583ZM56.2292 46C58.6231 46 60.9935 46.4715 63.2052 47.3876C65.4168 48.3037 67.4264 49.6464 69.1191 51.3392C70.8119 53.0319 72.1546 55.0415 73.0707 57.2531C73.9868 59.4648 74.4583 61.8352 74.4583 64.2291H71.3333C71.3333 60.2232 69.742 56.3814 66.9094 53.5489C64.0768 50.7163 60.235 49.125 56.2292 49.125V46ZM38 64.2291C38 59.3944 39.9206 54.7578 43.3392 51.3392C46.7578 47.9205 51.3945 46 56.2292 46V49.125C52.2233 49.125 48.3815 50.7163 45.5489 53.5489C42.7163 56.3814 41.125 60.2232 41.125 64.2291H38ZM41.125 72.5625C41.125 76.5683 42.7163 80.4101 45.5489 83.2427C48.3815 86.0753 52.2233 87.6666 56.2292 87.6666V90.7916C51.3945 90.7916 46.7578 88.8711 43.3392 85.4524C39.9206 82.0338 38 77.3971 38 72.5625H41.125Z" fill="black"/>
</g>
<defs>
<clipPath id="clip0_415_273">
<rect width="50.4583" height="44.7917" fill="white" transform="matrix(1 0 0 -1 31 90.7916)"/>
</clipPath>
</defs>
</svg>
