<svg width="68" height="68" viewBox="0 0 68 68" fill="none" xmlns="http://www.w3.org/2000/svg">
<path d="M68 0H0V68H68V0Z" fill="#20591E"/>
<path d="M58.9014 33.9952C58.9014 34.6752 58.887 35.3504 58.8535 36.0208C58.7912 37.3234 58.6667 38.6067 58.4896 39.8518C57.9005 43.951 56.7129 47.6958 55.0704 50.8467C53.9786 52.949 52.6904 54.7831 51.2394 56.2915C51.0143 56.531 50.7797 56.7608 50.5403 56.9811C48.4667 58.9301 46.1059 60.2135 43.5774 60.6445C42.9501 60.7546 42.3084 60.8121 41.662 60.8121H37.831C38.4774 60.8121 39.1191 60.7546 39.7465 60.6445C40.3977 60.5343 41.0346 60.3667 41.662 60.1465C43.4721 59.5096 45.1673 58.4273 46.7093 56.9811C48.4428 55.3625 49.9752 53.2794 51.2394 50.8467C52.882 47.6958 54.0696 43.951 54.6586 39.8518C54.8358 38.6067 54.9603 37.3234 55.0225 36.0208C55.056 35.3504 55.0704 34.6752 55.0704 33.9952C55.0704 33.387 55.056 32.7884 55.0321 32.1898C54.9746 30.8873 54.8597 29.6039 54.6873 28.3589C54.2036 24.82 53.2651 21.5397 51.9817 18.6712C51.7422 18.1493 51.498 17.6369 51.2394 17.1436C50.8228 16.3343 50.3727 15.5634 49.8938 14.8403H12.9296V60.8121H9.09857V11.0093H50.5403C50.7797 11.2296 51.0143 11.4594 51.2394 11.6989C52.1301 12.6279 52.9634 13.6766 53.7248 14.8403C54.2036 15.5634 54.6538 16.3343 55.0704 17.1436C55.329 17.6369 55.5732 18.1493 55.8127 18.6712C57.096 21.5397 58.0346 24.82 58.5183 28.3589C58.6907 29.6039 58.8056 30.8873 58.8631 32.1898C58.887 32.7884 58.9014 33.387 58.9014 33.9952Z" fill="black"/>
<path d="M62.7324 33.9951C62.7324 34.6751 62.718 35.3503 62.6845 36.0208C62.6701 36.3464 62.651 36.672 62.627 36.9929V37.0312C62.5552 37.9889 62.4498 38.9323 62.3205 39.8517C61.7315 43.9509 60.5439 47.6957 58.9014 50.8467C57.8096 52.9489 56.5214 54.783 55.0704 56.2915C53.8924 57.5222 52.6042 58.5374 51.2394 59.2844C49.4388 60.2757 47.509 60.812 45.4929 60.812H41.6619C42.3084 60.812 42.9501 60.7546 43.5774 60.6444C46.1059 60.2134 48.4667 58.9301 50.5403 56.981C50.7797 56.7608 51.0143 56.5309 51.2394 56.2915C52.6904 54.783 53.9786 52.9489 55.0704 50.8467C56.7129 47.6957 57.9005 43.9509 58.4896 39.8517C58.6667 38.6067 58.7912 37.3233 58.8535 36.0208C58.887 35.3503 58.9014 34.6751 58.9014 33.9951C58.9014 33.387 58.887 32.7884 58.8631 32.1898C58.8056 30.8872 58.6907 29.6039 58.5183 28.3588C58.0346 24.8199 57.096 21.5396 55.8127 18.6712C55.5732 18.1492 55.329 17.6368 55.0704 17.1436C54.6538 16.3343 54.2036 15.5633 53.7248 14.8402C52.9634 13.6765 52.1301 12.6278 51.2394 11.6988C51.0143 11.4593 50.7797 11.2295 50.5403 11.0092H9.09856L5.26758 9.09372C5.26758 8.03541 6.12476 7.17822 7.18307 7.17822H45.4929C47.509 7.17822 49.4388 7.71456 51.2394 8.70583C52.3408 9.30921 53.3896 10.085 54.3712 11.0092C54.6107 11.2295 54.8453 11.4593 55.0704 11.6988C55.9611 12.6278 56.7943 13.6765 57.5557 14.8402C58.0346 15.5633 58.4848 16.3343 58.9014 17.1436C59.16 17.6368 59.4042 18.1492 59.6436 18.6712C60.927 21.5396 61.8656 24.8199 62.3493 28.3588C62.5217 29.6039 62.6366 30.8872 62.6941 32.1898L62.7324 33.9951Z" fill="url(#paint0_linear_993_935)"/>
<path d="M9.09856 11.0092V60.8121H7.18307C6.12476 60.8121 5.26758 59.9549 5.26758 58.8966V9.09375L9.09856 11.0092Z" fill="url(#paint1_linear_993_935)"/>
<path d="M34 30.2742V32.1897H12.9296V14.8401L16.7606 18.6711V28.3587H32.0845C33.1428 28.3587 34 29.2159 34 30.2742Z" fill="url(#paint2_linear_993_935)"/>
<path d="M55.0704 33.995C55.0704 34.675 55.056 35.3502 55.0225 36.0207C54.9603 37.3232 54.8358 38.6066 54.6586 39.8516C54.0696 43.9508 52.882 47.6956 51.2394 50.8466C49.9752 53.2792 48.4428 55.3623 46.7093 56.9809C45.1673 58.4271 43.4721 59.5094 41.662 60.1463C41.0346 60.3666 40.3977 60.5342 39.7465 60.6443C39.1191 60.7545 38.4775 60.8119 37.831 60.8119H34C34.6465 60.8119 35.2882 60.7545 35.9155 60.6443C36.5667 60.5342 37.2037 60.3666 37.831 60.1463C38.4822 59.9164 39.1239 59.6291 39.7465 59.2843C40.8479 58.6809 41.8966 57.9052 42.8783 56.9809C46.8577 53.2601 49.7884 47.1114 50.8276 39.8516C51.0048 38.6066 51.1293 37.3232 51.1915 36.0207C51.2251 35.3502 51.2394 34.675 51.2394 33.995C51.2394 33.3868 51.2251 32.7883 51.2011 32.1897C51.1437 30.8871 51.0287 29.6038 50.8563 28.3587C50.3727 24.8198 49.4341 21.5395 48.1507 18.6711H16.7606L12.9296 14.8401H49.8938C50.3727 15.5632 50.8228 16.3342 51.2394 17.1435C51.498 17.6367 51.7422 18.1491 51.9817 18.6711C53.2651 21.5395 54.2037 24.8198 54.6873 28.3587C54.8597 29.6038 54.9746 30.8871 55.0321 32.1897C55.056 32.7883 55.0704 33.3868 55.0704 33.995Z" fill="url(#paint3_linear_993_935)"/>
<path d="M42.8783 56.9811C41.8966 57.9053 40.8478 58.6811 39.7464 59.2845C39.1239 59.6293 38.4822 59.9166 37.8309 60.1464C37.2036 60.3667 36.5667 60.5343 35.9154 60.6445C35.2881 60.7546 34.6464 60.8121 34 60.8121H25.3802C24.8487 60.8121 24.4225 60.3811 24.4225 59.8543C24.4225 59.0594 24.7433 58.3411 25.2653 57.8191C25.7825 57.3019 26.5008 56.9811 27.2957 56.9811H42.8783Z" fill="black"/>
<path d="M34 32.1898H12.9296V36.0208H34V32.1898Z" fill="black"/>
<path d="M34 36.0208V37.9362C34 38.9946 33.1428 39.8517 32.0845 39.8517H16.7606V58.8965C16.7606 59.9548 15.9034 60.812 14.8451 60.812H12.9296V36.0208H34Z" fill="url(#paint4_linear_993_935)"/>
<defs>
<linearGradient id="paint0_linear_993_935" x1="34" y1="7.17822" x2="34" y2="60.812" gradientUnits="userSpaceOnUse">
<stop stop-color="#84EC8C"/>
<stop offset="1" stop-color="#006837"/>
</linearGradient>
<linearGradient id="paint1_linear_993_935" x1="7.18307" y1="9.09375" x2="7.18307" y2="-5.22531e-05" gradientUnits="userSpaceOnUse">
<stop stop-color="#84EC8C"/>
<stop offset="1" stop-color="#006837"/>
</linearGradient>
<linearGradient id="paint2_linear_993_935" x1="15.8986" y1="24.9108" x2="30.2935" y2="36.0398" gradientUnits="userSpaceOnUse">
<stop stop-color="#81E989"/>
<stop offset="0.15" stop-color="#7BE385"/>
<stop offset="0.34" stop-color="#6DD57C"/>
<stop offset="0.53" stop-color="#55BD6D"/>
<stop offset="0.74" stop-color="#339B58"/>
<stop offset="0.96" stop-color="#09713C"/>
<stop offset="1" stop-color="#006837"/>
</linearGradient>
<linearGradient id="paint3_linear_993_935" x1="-1.13116e-05" y1="14.8401" x2="0.478862" y2="-0.00019266" gradientUnits="userSpaceOnUse">
<stop stop-color="#84EC8C"/>
<stop offset="1" stop-color="#006837"/>
</linearGradient>
<linearGradient id="paint4_linear_993_935" x1="12.0006" y1="36.9498" x2="25.749" y2="50.703" gradientUnits="userSpaceOnUse">
<stop stop-color="#81E989"/>
<stop offset="0.15" stop-color="#7BE385"/>
<stop offset="0.34" stop-color="#6AD27A"/>
<stop offset="0.55" stop-color="#4FB769"/>
<stop offset="0.78" stop-color="#2A9251"/>
<stop offset="1" stop-color="#006837"/>
</linearGradient>
</defs>
</svg>

