<svg width="70" height="70" viewBox="0 0 70 70" fill="none" xmlns="http://www.w3.org/2000/svg">
<g clip-path="url(#clip0_1016_570)">
<path d="M69 1H1V69H69V1Z" fill="url(#paint0_radial_1016_570)"/>
<path d="M59.9015 34.9952C59.9015 35.6752 59.8871 36.3504 59.8536 37.0208C59.7913 38.3234 59.6668 39.6067 59.4896 40.8518C58.9006 44.951 57.713 48.6958 56.0705 51.8467C54.9786 53.949 53.6905 55.7831 52.2395 57.2915C52.0144 57.531 51.7798 57.7608 51.5403 57.9811C49.4668 59.9301 47.106 61.2135 44.5775 61.6445C43.9502 61.7546 43.3085 61.8121 42.662 61.8121H38.831C39.4775 61.8121 40.1192 61.7546 40.7465 61.6445C41.3978 61.5343 42.0347 61.3667 42.662 61.1465C44.4722 60.5096 46.1674 59.4273 47.7093 57.9811C49.4429 56.3625 50.9753 54.2794 52.2395 51.8467C53.882 48.6958 55.0696 44.951 55.6586 40.8518C55.8358 39.6067 55.9603 38.3234 56.0226 37.0208C56.0561 36.3504 56.0705 35.6752 56.0705 34.9952C56.0705 34.387 56.0561 33.7884 56.0322 33.1898C55.9747 31.8873 55.8598 30.6039 55.6874 29.3589C55.2037 25.82 54.2651 22.5397 52.9817 19.6712C52.7423 19.1493 52.4981 18.6369 52.2395 18.1436C51.8229 17.3343 51.3727 16.5634 50.8938 15.8403H13.9296V61.8121H10.0986V12.0093H51.5403C51.7798 12.2296 52.0144 12.4594 52.2395 12.6989C53.1302 13.6279 53.9634 14.6766 54.7248 15.8403C55.2037 16.5634 55.6538 17.3343 56.0705 18.1436C56.3291 18.6369 56.5733 19.1493 56.8127 19.6712C58.0961 22.5397 59.0347 25.82 59.5184 29.3589C59.6907 30.6039 59.8057 31.8873 59.8631 33.1898C59.8871 33.7884 59.9015 34.387 59.9015 34.9952Z" fill="black"/>
<path d="M63.7324 34.9951C63.7324 35.6751 63.718 36.3503 63.6845 37.0208C63.6701 37.3464 63.651 37.672 63.627 37.9929V38.0312C63.5552 38.9889 63.4498 39.9323 63.3205 40.8517C62.7315 44.9509 61.5439 48.6957 59.9014 51.8467C58.8096 53.9489 57.5214 55.783 56.0704 57.2915C54.8924 58.5222 53.6042 59.5374 52.2394 60.2844C50.4388 61.2757 48.509 61.812 46.4929 61.812H42.6619C43.3084 61.812 43.9501 61.7546 44.5774 61.6444C47.1059 61.2134 49.4667 59.9301 51.5403 57.981C51.7797 57.7608 52.0143 57.5309 52.2394 57.2915C53.6904 55.783 54.9786 53.9489 56.0704 51.8467C57.7129 48.6957 58.9005 44.9509 59.4896 40.8517C59.6667 39.6067 59.7912 38.3233 59.8535 37.0208C59.887 36.3503 59.9014 35.6751 59.9014 34.9951C59.9014 34.387 59.887 33.7884 59.8631 33.1898C59.8056 31.8872 59.6907 30.6039 59.5183 29.3588C59.0346 25.8199 58.096 22.5396 56.8127 19.6712C56.5732 19.1492 56.329 18.6368 56.0704 18.1436C55.6538 17.3343 55.2036 16.5633 54.7248 15.8402C53.9634 14.6765 53.1301 13.6278 52.2394 12.6988C52.0143 12.4593 51.7797 12.2295 51.5403 12.0092H10.0986L6.26758 10.0937C6.26758 9.03541 7.12476 8.17822 8.18307 8.17822H46.4929C48.509 8.17822 50.4388 8.71456 52.2394 9.70583C53.3408 10.3092 54.3896 11.085 55.3712 12.0092C55.6107 12.2295 55.8453 12.4593 56.0704 12.6988C56.9611 13.6278 57.7943 14.6765 58.5557 15.8402C59.0346 16.5633 59.4848 17.3343 59.9014 18.1436C60.16 18.6368 60.4042 19.1492 60.6436 19.6712C61.927 22.5396 62.8656 25.8199 63.3493 29.3588C63.5217 30.6039 63.6366 31.8872 63.6941 33.1898L63.7324 34.9951Z" fill="url(#paint1_linear_1016_570)"/>
<path d="M10.0986 12.0092V61.8121H8.18307C7.12476 61.8121 6.26758 60.9549 6.26758 59.8966V10.0938L10.0986 12.0092Z" fill="url(#paint2_linear_1016_570)"/>
<path d="M35.0001 31.2742V33.1897H13.9297V15.8401L17.7607 19.6711V29.3587H33.0846C34.1429 29.3587 35.0001 30.2159 35.0001 31.2742Z" fill="url(#paint3_linear_1016_570)"/>
<path d="M56.0705 34.995C56.0705 35.675 56.0562 36.3502 56.0226 37.0207C55.9604 38.3232 55.8359 39.6066 55.6587 40.8516C55.0697 44.9508 53.8821 48.6956 52.2395 51.8466C50.9753 54.2792 49.4429 56.3623 47.7094 57.9809C46.1674 59.4271 44.4722 60.5094 42.6621 61.1463C42.0348 61.3666 41.3979 61.5342 40.7466 61.6443C40.1193 61.7545 39.4776 61.8119 38.8311 61.8119H35.0001C35.6466 61.8119 36.2883 61.7545 36.9156 61.6443C37.5669 61.5342 38.2038 61.3666 38.8311 61.1463C39.4824 60.9164 40.1241 60.6291 40.7466 60.2843C41.848 59.6809 42.8967 58.9052 43.8784 57.9809C47.8579 54.2601 50.7886 48.1114 51.8277 40.8516C52.0049 39.6066 52.1294 38.3232 52.1917 37.0207C52.2252 36.3502 52.2395 35.675 52.2395 34.995C52.2395 34.3868 52.2252 33.7883 52.2012 33.1897C52.1438 31.8871 52.0288 30.6038 51.8564 29.3587C51.3728 25.8198 50.4342 22.5395 49.1508 19.6711H17.7607L13.9297 15.8401H50.8939C51.3728 16.5632 51.8229 17.3342 52.2395 18.1435C52.4981 18.6367 52.7424 19.1491 52.9818 19.6711C54.2652 22.5395 55.2038 25.8198 55.6874 29.3587C55.8598 30.6038 55.9748 31.8871 56.0322 33.1897C56.0562 33.7883 56.0705 34.3868 56.0705 34.995Z" fill="url(#paint4_linear_1016_570)"/>
<path d="M43.8781 57.9811C42.8965 58.9053 41.8477 59.6811 40.7463 60.2845C40.1238 60.6293 39.4821 60.9166 38.8308 61.1464C38.2035 61.3667 37.5666 61.5343 36.9153 61.6445C36.288 61.7546 35.6463 61.8121 34.9998 61.8121H26.3801C25.8486 61.8121 25.4224 61.3811 25.4224 60.8543C25.4224 60.0594 25.7432 59.3411 26.2652 58.8191C26.7824 58.3019 27.5007 57.9811 28.2956 57.9811H43.8781Z" fill="black"/>
<path d="M35.0001 33.1898H13.9297V37.0208H35.0001V33.1898Z" fill="black"/>
<path d="M35.0001 37.0208V38.9362C35.0001 39.9946 34.1429 40.8517 33.0846 40.8517H17.7607V59.8965C17.7607 60.9548 16.9035 61.812 15.8452 61.812H13.9297V37.0208H35.0001Z" fill="url(#paint5_linear_1016_570)"/>
</g>
<path d="M1 1H69V69H1V1Z" stroke="black" stroke-width="2"/>
<defs>
<radialGradient id="paint0_radial_1016_570" cx="0" cy="0" r="1" gradientUnits="userSpaceOnUse" gradientTransform="translate(35 35) rotate(90) scale(34)">
<stop stop-color="#20591E"/>
<stop offset="1" stop-color="#45BF40"/>
</radialGradient>
<linearGradient id="paint1_linear_1016_570" x1="35" y1="8.17822" x2="35" y2="61.812" gradientUnits="userSpaceOnUse">
<stop stop-color="#84EC8C"/>
<stop offset="1" stop-color="#006837"/>
</linearGradient>
<linearGradient id="paint2_linear_1016_570" x1="8.18307" y1="10.0938" x2="8.18307" y2="0.999948" gradientUnits="userSpaceOnUse">
<stop stop-color="#84EC8C"/>
<stop offset="1" stop-color="#006837"/>
</linearGradient>
<linearGradient id="paint3_linear_1016_570" x1="16.8987" y1="25.9108" x2="31.2936" y2="37.0398" gradientUnits="userSpaceOnUse">
<stop stop-color="#81E989"/>
<stop offset="0.15" stop-color="#7BE385"/>
<stop offset="0.34" stop-color="#6DD57C"/>
<stop offset="0.53" stop-color="#55BD6D"/>
<stop offset="0.74" stop-color="#339B58"/>
<stop offset="0.96" stop-color="#09713C"/>
<stop offset="1" stop-color="#006837"/>
</linearGradient>
<linearGradient id="paint4_linear_1016_570" x1="1.00011" y1="15.8401" x2="1.47898" y2="0.999807" gradientUnits="userSpaceOnUse">
<stop stop-color="#84EC8C"/>
<stop offset="1" stop-color="#006837"/>
</linearGradient>
<linearGradient id="paint5_linear_1016_570" x1="13.0007" y1="37.9498" x2="26.7491" y2="51.703" gradientUnits="userSpaceOnUse">
<stop stop-color="#81E989"/>
<stop offset="0.15" stop-color="#7BE385"/>
<stop offset="0.34" stop-color="#6AD27A"/>
<stop offset="0.55" stop-color="#4FB769"/>
<stop offset="0.78" stop-color="#2A9251"/>
<stop offset="1" stop-color="#006837"/>
</linearGradient>
<clipPath id="clip0_1016_570">
<path d="M1 1H69V69H1V1Z" fill="white"/>
</clipPath>
</defs>
</svg>
