<svg width="81" height="116" viewBox="0 0 81 116" fill="none" xmlns="http://www.w3.org/2000/svg">
<path d="M12.38 115.65C10.98 115.65 9.78 114.81 8.81 113.07C7.84 111.33 7.38 109.23 7.38 106.65C7.38 104.07 7.85 101.97 8.81 100.23C9.78 98.49 10.94 97.65 12.38 97.65C13.82 97.65 14.98 98.49 15.95 100.23C16.92 101.97 17.38 104.07 17.38 106.65C17.38 109.23 16.91 111.33 15.95 113.07C14.98 114.81 13.78 115.65 12.38 115.65ZM34.12 115.65C32.72 115.65 31.52 114.81 30.55 113.07C29.58 111.33 29.12 109.23 29.12 106.65C29.12 104.07 29.59 101.97 30.55 100.23C31.52 98.49 32.68 97.65 34.12 97.65C35.56 97.65 36.72 98.49 37.69 100.23C38.66 101.97 39.12 104.13 39.12 106.65C39.12 109.17 38.65 111.33 37.69 113.07C36.72 114.81 35.52 115.65 34.12 115.65ZM11.04 21.37L16.42 51.82C16.61 52.91 17.56 53.7 18.67 53.7H28.74C29.02 53.7 29.25 53.51 29.46 53.14C29.67 52.77 29.85 52.27 29.99 51.64L36.06 22.05C36.25 21.18 36.25 20.37 36.11 19.68C35.97 18.99 35.72 18.68 35.35 18.68H13.29C11.87 18.68 10.8 19.96 11.04 21.36V21.37ZM10.27 10.58C10.46 11.67 11.41 12.46 12.52 12.46H38.11C39.11 12.46 39.87 13.58 40.38 15.76C40.89 17.94 40.91 20.25 40.45 22.55L33.82 55.01C33.5 56.51 33.06 57.69 32.52 58.56C31.99 59.43 31.38 59.87 30.76 59.87H19.63C18.55 59.87 17.61 60.63 17.39 61.7L14.93 73.77C14.7 74.7 14.68 75.76 14.91 76.88C15.14 78 15.47 78.56 15.91 78.56H35.29C36.55 78.56 37.57 79.58 37.57 80.84V82.51C37.57 83.77 36.55 84.79 35.29 84.79H12.38C11.04 84.79 10.02 83.23 9.34 80.18C8.67 77.13 8.66999 74.01 9.28999 70.96L12.68 54.69C12.74 54.41 12.74 54.11 12.69 53.83L4.59 8.11C4.4 7.02 3.45 6.23 2.34 6.23C1.08 6.23 0.0599976 5.21 0.0599976 3.95V2.28C0.0599976 1.02 1.08 0 2.34 0H6.47C7.58 0 8.52 0.79 8.72 1.88L10.26 10.57L10.27 10.58ZM37.59 113.72V35.8C37.59 34.54 38.61 33.52 39.87 33.52H49.47C50.73 33.52 51.75 32.5 51.75 31.24V16.8C51.75 15.54 52.77 14.52 54.03 14.52H63.63C64.89 14.52 65.91 15.54 65.91 16.8V31.24C65.91 32.5 66.93 33.52 68.19 33.52H77.79C79.05 33.52 80.07 34.54 80.07 35.8V113.72C80.07 114.98 79.05 116 77.79 116H39.87C38.61 116 37.59 114.98 37.59 113.72ZM56.4 33.52H61.27C62.53 33.52 63.55 32.5 63.55 31.24V23.09C63.55 21.83 62.53 20.81 61.27 20.81H56.4C55.14 20.81 54.12 21.83 54.12 23.09V31.24C54.12 32.5 55.14 33.52 56.4 33.52ZM72.3 81.11H65.83C64.57 81.11 63.55 82.13 63.55 83.39V88.36C63.55 89.62 62.53 90.64 61.27 90.64H56.4C55.14 90.64 54.12 89.62 54.12 88.36V83.39C54.12 82.13 53.1 81.11 51.84 81.11H45.66C44.4 81.11 43.38 82.13 43.38 83.39V107.36C43.38 108.62 44.4 109.64 45.66 109.64H72.3C73.56 109.64 74.58 108.62 74.58 107.36V83.39C74.58 82.13 73.56 81.11 72.3 81.11ZM58.76 84.29H58.92C60.18 84.29 61.2 83.27 61.2 82.01V73.86C61.2 72.6 60.18 71.58 58.92 71.58H58.76C57.5 71.58 56.48 72.6 56.48 73.86V82.01C56.48 83.27 57.5 84.29 58.76 84.29ZM45.66 74.76H51.84C53.1 74.76 54.12 73.74 54.12 72.48V67.51C54.12 66.25 55.14 65.23 56.4 65.23H61.27C62.53 65.23 63.55 66.25 63.55 67.51V72.48C63.55 73.74 64.57 74.76 65.83 74.76H72.3C73.56 74.76 74.58 73.74 74.58 72.48V42.16C74.58 40.9 73.56 39.88 72.3 39.88H45.66C44.4 39.88 43.38 40.9 43.38 42.16V72.48C43.38 73.74 44.4 74.76 45.66 74.76Z" fill="#B1AABF"/>
</svg>
