<svg width="82" height="116" viewBox="0 0 82 116" fill="none" xmlns="http://www.w3.org/2000/svg">
<path d="M26.68 57.97H20.9M35.35 30.51H20.9M37.33 112.94C37.63 112.98 37.93 113 38.24 113V112.94H37.33Z" stroke="#B1AABF" stroke-width="4" stroke-linecap="round" stroke-linejoin="round"/>
<path d="M37.33 112.94H9.35001C7.82001 112.94 6.37 111.52 5.28 108.91C4.18 106.37 3.57001 102.88 3.57001 99.21V85.48H26.68C26.68 94.34 28.84 111.78 37.33 112.94Z" stroke="#B1AABF" stroke-width="6" stroke-linecap="round" stroke-linejoin="round"/>
<path d="M55.57 16.7801V30.5101C55.57 34.1201 54.96 37.6101 53.87 40.2201C52.8 42.8201 51.32 44.2401 49.79 44.2401H46.9V3.06006H49.79C51.32 3.06006 52.77 4.48006 53.87 7.08006C54.96 9.62006 55.57 13.1101 55.57 16.7801Z" stroke="#B1AABF" stroke-width="6" stroke-linecap="round" stroke-linejoin="round"/>
<path d="M46.9 3V92.4C46.9 97.85 45.98 103.11 44.36 106.96C42.74 110.81 40.55 113 38.24 113V112.94H37.33C28.84 111.78 26.68 94.34 26.68 85.48H9.34998V16.72C9.34998 13.11 9.95996 9.62 11.05 7.02C12.12 4.42 13.6 3 15.13 3H46.9Z" stroke="#B1AABF" stroke-width="6" stroke-linecap="round" stroke-linejoin="round"/>
<path fill-rule="evenodd" clip-rule="evenodd" d="M75.33 101.77C75.33 104.75 74.73 107.61 73.64 109.69C72.55 111.82 71.11 113 69.59 113C68.07 113 66.6 111.82 65.54 109.69C64.45 107.56 63.85 104.75 63.85 101.77C63.85 98.7899 64.45 95.9299 65.54 93.8499C66.63 91.7199 68.07 90.5399 69.59 90.5399C71.11 90.5399 72.58 91.7199 73.64 93.8499C74.73 95.9799 75.33 98.7899 75.33 101.77ZM80.44 52.1399C80.04 51.3499 79.49 50.8999 78.92 50.8999C78.35 50.8999 77.8 51.3499 77.4 52.1399L71.75 63.1999V27.3799C71.75 26.2599 71.52 25.1899 71.12 24.3999C70.72 23.6099 70.17 23.1599 69.6 23.1599C69.03 23.1599 68.48 23.6099 68.08 24.3999C67.68 25.1899 67.45 26.2499 67.45 27.3799V63.1999L61.8 52.1399C61.4 51.4099 60.85 51.0199 60.31 51.0199C59.77 51.0199 59.22 51.4699 58.82 52.2599C58.42 53.0499 58.19 54.0599 58.19 55.1799C58.19 56.2999 58.39 57.3099 58.76 58.0999L68.09 76.3499L69.61 79.3299L71.13 76.3499L80.46 58.0999C80.66 57.7099 80.81 57.2599 80.92 56.7499C81.03 56.2399 81.09 55.6799 81.09 55.1199C81.09 54.5599 81.03 53.9999 80.92 53.4899C80.81 52.9799 80.66 52.5399 80.46 52.1399H80.44Z" fill="#B1AABF"/>
</svg>
