<svg width="81" height="116" viewBox="0 0 81 116" fill="none" xmlns="http://www.w3.org/2000/svg">
<path d="M71.1801 0C73.5401 0 75.8 1.53 77.47 4.25C79.14 6.97 80.0701 10.66 80.0701 14.5V101.5C80.0701 105.35 79.13 109.03 77.47 111.75C75.8 114.47 73.5401 116 71.1801 116H8.96005C6.60005 116 4.34007 114.47 2.67007 111.75C1.00007 109.03 0.0700684 105.34 0.0700684 101.5V14.5C0.0700684 10.65 1.01007 6.97 2.67007 4.25C4.34007 1.53 6.60005 0 8.96005 0H71.1801ZM69.1501 37.32H11.0001C9.88006 37.32 8.96005 38.43 8.96005 39.79V104.65C8.96005 106.01 9.87006 107.12 11.0001 107.12H69.1501C70.2701 107.12 71.1901 106.01 71.1901 104.65V39.79C71.1901 38.43 70.2801 37.32 69.1501 37.32ZM69.3301 8.5H10.8101C9.79006 8.5 8.96005 9.15 8.96005 9.96V29.94C8.96005 30.75 9.79006 31.4 10.8101 31.4H69.3301C70.3501 31.4 71.1801 30.75 71.1801 29.94V9.96C71.1801 9.15 70.3501 8.5 69.3301 8.5ZM17.8501 14.23C19.0301 14.23 20.1601 14.83 20.9901 15.91C21.8201 16.98 22.2901 18.44 22.2901 19.96C22.2901 21.48 21.8201 22.94 20.9901 24.01C20.1601 25.08 19.0301 25.69 17.8501 25.69C16.6701 25.69 15.5401 25.09 14.7101 24.01C13.8801 22.94 13.4101 21.48 13.4101 19.96C13.4101 18.44 13.8801 16.98 14.7101 15.91C15.5401 14.84 16.6701 14.23 17.8501 14.23ZM31.1801 14.23C32.3601 14.23 33.4901 14.83 34.3201 15.91C35.1501 16.98 35.6201 18.44 35.6201 19.96C35.6201 21.48 35.1501 22.94 34.3201 24.01C33.4901 25.08 32.3601 25.69 31.1801 25.69C30.0001 25.69 28.8701 25.09 28.0401 24.01C27.2101 22.94 26.7401 21.48 26.7401 19.96C26.7401 18.44 27.2101 16.98 28.0401 15.91C28.8701 14.84 30.0001 14.23 31.1801 14.23ZM44.5201 14.23C45.7001 14.23 46.8301 14.83 47.6601 15.91C48.4901 16.98 48.9601 18.44 48.9601 19.96C48.9601 21.48 48.4901 22.94 47.6601 24.01C46.8301 25.08 45.7001 25.69 44.5201 25.69C43.34 25.69 42.2101 25.09 41.3801 24.01C40.5501 22.94 40.08 21.48 40.08 19.96C40.08 18.44 40.5501 16.98 41.3801 15.91C42.2101 14.84 43.34 14.23 44.5201 14.23Z" fill="#B1AABF"/>
</svg>
