<svg width="110" height="116" viewBox="0 0 110 116" fill="none" xmlns="http://www.w3.org/2000/svg">
<path d="M86.1111 0C88.4686 0 90.7295 1.52767 92.3965 4.24695C94.0635 6.96623 95 10.6544 95 14.5V101.5C95 105.346 94.0635 109.034 92.3965 111.753C90.7295 114.472 88.4686 116 86.1111 116H23.8889C21.5314 116 19.2705 114.472 17.6035 111.753C15.9365 109.034 15 105.346 15 101.5V14.5C15 10.6544 15.9365 6.96623 17.6035 4.24695C19.2705 1.52767 21.5314 0 23.8889 0H86.1111ZM86.1111 58H23.8889V101.5H86.1111V58ZM86.1111 14.5H23.8889V43.5H86.1111V14.5ZM32.7778 21.75C33.9565 21.75 35.087 22.5138 35.9205 23.8735C36.754 25.2331 37.2222 27.0772 37.2222 29C37.2222 30.9228 36.754 32.7669 35.9205 34.1265C35.087 35.4862 33.9565 36.25 32.7778 36.25C31.599 36.25 30.4686 35.4862 29.6351 34.1265C28.8016 32.7669 28.3333 30.9228 28.3333 29C28.3333 27.0772 28.8016 25.2331 29.6351 23.8735C30.4686 22.5138 31.599 21.75 32.7778 21.75ZM46.1111 21.75C47.2899 21.75 48.4203 22.5138 49.2538 23.8735C50.0873 25.2331 50.5556 27.0772 50.5556 29C50.5556 30.9228 50.0873 32.7669 49.2538 34.1265C48.4203 35.4862 47.2899 36.25 46.1111 36.25C44.9324 36.25 43.8019 35.4862 42.9684 34.1265C42.1349 32.7669 41.6667 30.9228 41.6667 29C41.6667 27.0772 42.1349 25.2331 42.9684 23.8735C43.8019 22.5138 44.9324 21.75 46.1111 21.75ZM59.4444 21.75C60.6232 21.75 61.7536 22.5138 62.5871 23.8735C63.4206 25.2331 63.8889 27.0772 63.8889 29C63.8889 30.9228 63.4206 32.7669 62.5871 34.1265C61.7536 35.4862 60.6232 36.25 59.4444 36.25C58.2657 36.25 57.1352 35.4862 56.3018 34.1265C55.4683 32.7669 55 30.9228 55 29C55 27.0772 55.4683 25.2331 56.3018 23.8735C57.1352 22.5138 58.2657 21.75 59.4444 21.75Z" fill="#B1AABF"/>
</svg>
