<svg width="80" height="116" viewBox="0 0 80 116" fill="none" xmlns="http://www.w3.org/2000/svg">
<path d="M12.3059 116C11.3326 116 10.4983 115.128 9.82619 113.321C9.15412 111.514 8.82967 109.334 8.82967 106.655C8.82967 104.039 9.15412 101.796 9.82619 99.9892C10.4983 98.1825 11.3094 97.3104 12.3059 97.3104C13.3024 97.3104 14.1136 98.1825 14.7856 99.9892C15.4577 101.796 15.7822 103.976 15.7822 106.655C15.7822 109.272 15.4577 111.514 14.7856 113.321C14.1136 115.128 13.2793 116 12.3059 116ZM34.0441 116C33.0707 116 32.2364 115.128 31.5643 113.321C30.8923 111.514 30.5678 109.334 30.5678 106.655C30.5678 103.976 30.8923 101.796 31.5643 99.9892C32.2364 98.1825 33.0475 97.3104 34.0441 97.3104C35.0406 97.3104 35.8517 98.1825 36.5238 99.9892C37.1959 101.796 37.5203 104.039 37.5203 106.655C37.5203 109.272 37.1959 111.514 36.5238 113.321C35.8517 115.128 35.0174 116 34.0441 116ZM8.99189 18.6896L15.1796 53.7014H30.5678C30.8459 53.7014 31.0777 53.5145 31.2862 53.1407C31.4948 52.7669 31.6802 52.2685 31.8193 51.6455L37.8911 22.0537C38.0765 21.1815 38.0765 20.3716 37.9375 19.6863C37.7984 19.0011 37.5435 18.6896 37.1727 18.6896H8.99189ZM7.85632 12.4597H38.0302C39.0267 12.4597 39.7915 13.5811 40.3013 15.7615C40.8111 17.942 40.8343 20.247 40.3708 22.5521L33.7428 55.0096C33.4183 56.5048 32.978 57.6885 32.445 58.5607C31.912 59.4328 31.3094 59.8689 30.6837 59.8689H14.1367L11.3094 73.7615C11.0776 74.696 11.0545 75.7551 11.2862 76.8764C11.518 77.9978 11.8424 78.5585 12.2827 78.5585H37.4971V84.7884H12.3059C10.9618 84.7884 9.94207 83.2309 9.26999 80.1783C8.59792 77.1256 8.59792 74.0107 9.22365 70.9581L12.6999 54.2621L4.19467 6.22986H0V0H5.6547L7.85632 12.4597Z" fill="#B1AABF"/>
<path d="M37.5203 116V33.5167H51.6802V14.5156H65.8401V33.5167H80V116H37.5203ZM54.044 33.5167H63.4762V20.8078H54.044V33.5167ZM77.6362 81.1128H63.4762V90.6445H54.044V81.1128H39.8841V109.646H77.6362V81.1128ZM56.4079 84.29H61.1356V71.5811H56.4079V84.29ZM39.8841 74.7584H54.044V65.2267H63.4762V74.7584H77.6362V39.8712H39.8841V74.7584Z" fill="#B1AABF"/>
</svg>
