<svg width="80" height="116" viewBox="0 0 80 116" fill="none" xmlns="http://www.w3.org/2000/svg">
<g clip-path="url(#clip0_1368_5534)">
<path d="M22.5835 100.835C19.7101 100.734 16.7864 100.835 13.913 101.287C11.443 101.638 9.02331 102.19 6.65406 102.894C6.09956 103.094 5.44423 103.195 4.88973 103.496C4.53686 103.647 4.28481 103.848 3.93194 103.496C3.52867 102.994 3.78072 102.04 3.88153 101.437C4.03276 100.232 4.18399 99.0771 4.38563 97.8719C5.19218 92.5991 6.25079 87.4268 6.95652 82.1541C7.25898 79.8442 7.51103 77.484 7.81348 75.1238C7.96471 73.9186 8.11594 72.7134 8.31758 71.5082C8.56963 70.0519 8.62004 68.9974 9.9811 68.1437C12.2999 66.6372 15.1229 65.9844 17.7946 65.3316C20.6679 64.6286 23.5413 64.026 26.5659 64.1766C28.6326 64.277 30.6994 64.8294 32.5142 65.7835C33.4216 66.2355 34.2785 66.7879 35.0851 67.4407C35.8916 68.0433 36.8998 68.6961 37.5047 69.4493C38.0592 70.1524 38.2609 70.755 38.3113 71.458C37.908 80.4467 37.9584 102.743 38.0592 104.35C38.0592 104.5 38.0592 104.601 38.0592 104.752C38.0592 104.902 37.908 105.053 37.656 105.053C37.3031 105.053 36.9502 104.852 36.6478 104.701C36.0429 104.4 35.4379 104.099 34.833 103.797C30.9011 101.939 26.8179 100.985 22.4827 100.835H22.5835ZM76.0177 103.496C75.7152 103.898 75.4128 103.697 75.0599 103.496C74.5054 103.245 73.9005 103.094 73.2955 102.894C70.9263 102.14 68.5066 101.638 66.0366 101.287C63.1632 100.885 60.2899 100.734 57.3661 100.835C53.0309 100.985 48.8973 101.939 45.0158 103.797C44.4109 104.099 43.8059 104.4 43.201 104.701C42.8986 104.852 42.5457 105.053 42.1928 105.053C41.9408 105.053 41.84 104.902 41.7896 104.752C41.7896 104.601 41.7896 104.5 41.7896 104.35C41.84 102.793 41.9408 80.4467 41.5375 71.458C41.5879 70.755 41.7896 70.1524 42.3441 69.4493C42.9994 68.6961 43.9572 68.0433 44.7637 67.4407C45.5703 66.8381 46.4272 66.2857 47.3346 65.8338C49.1998 64.8796 51.2161 64.3273 53.2829 64.2268C56.2571 64.1264 59.1305 64.729 62.0542 65.3818C64.7259 66.0346 67.5489 66.6874 69.8677 68.1939C71.2288 69.0978 71.2792 70.1022 71.5312 71.5584C71.7328 72.7636 71.8841 73.9688 72.0353 75.174C72.3378 77.484 72.5898 79.8442 72.8923 82.1541C73.598 87.4268 74.707 92.5991 75.4632 97.8719C75.6144 99.0268 75.816 100.232 75.9673 101.437C76.0177 102.04 76.3201 102.944 75.9169 103.496H76.0177Z" fill="black"/>
<path d="M79.5463 108.618C79.5463 107.714 80 105.304 80 104.802C80 98.6753 76.0681 78.5385 75.4631 73.6173V73.316C75.2111 71.4078 75.1103 69.0978 74.4045 67.29C73.6988 65.432 71.38 64.8294 69.666 64.1766C62.7095 61.5653 54.896 59.3056 47.5362 61.6658C44.6629 62.5697 42.092 64.1766 39.9748 66.7376C37.908 64.1766 35.2867 62.5697 32.4134 61.6658C25.0536 59.3558 17.2401 61.5653 10.2836 64.1766C8.62004 64.8294 6.25079 65.4822 5.54505 67.29C4.83932 69.0978 4.7385 71.4078 4.53686 73.316V73.6173C3.93195 78.5385 0.0504096 98.6753 0 104.802C0 105.304 0.403277 107.714 0.453686 108.618C0.504096 109.874 0.352867 111.179 0.453686 112.435C0.352867 112.887 0.453686 113.288 0.705734 113.59C0.856963 113.941 1.15942 114.142 1.46188 114.242C2.1172 114.996 3.37744 114.493 4.13359 114.242C11.2917 111.932 19.206 112.033 26.5658 112.987C27.8765 113.138 29.1871 113.389 30.4978 113.64C31.8589 113.891 33.1191 114.393 34.4297 114.845C35.4883 115.247 36.5974 115.548 37.7568 115.749C38.5633 115.95 39.3699 116 39.7227 116C39.874 116 39.9748 116 40.0756 116C40.1764 116 40.3277 116 40.4285 116C40.7814 116 41.5879 115.95 42.3945 115.749C43.5035 115.548 44.6125 115.247 45.7215 114.845C47.0321 114.393 48.2924 113.891 49.6534 113.64C50.9641 113.389 52.2747 113.188 53.5854 112.987C60.9956 112.033 68.8595 111.932 76.0176 114.242C76.8242 114.493 78.034 114.996 78.6894 114.242C78.9918 114.142 79.2439 113.941 79.4455 113.59C79.6975 113.238 79.8488 112.836 79.6975 112.435C79.6975 111.179 79.5967 109.874 79.6975 108.618H79.5463ZM22.5835 100.383C19.7101 100.282 16.7864 100.383 13.913 100.835C11.443 101.186 9.02332 101.739 6.65406 102.442C6.09956 102.642 5.44423 102.743 4.88973 103.044C4.53686 103.195 4.2344 103.396 3.93195 103.044C3.52867 102.542 3.78072 101.588 3.88154 100.985C4.03277 99.7801 4.184 98.6251 4.38563 97.4199C5.19219 92.1472 6.25079 86.9749 6.95652 81.7021C7.25898 79.3922 7.51103 77.032 7.81348 74.7221C7.96471 73.5169 8.11594 72.3117 8.31758 71.1065C8.56963 69.6502 8.62004 68.5956 9.9811 67.742C12.2999 66.2355 15.1229 65.5827 17.7946 64.9299C20.6679 64.2268 23.5413 63.6242 26.5658 63.7749C28.6326 63.8753 30.6994 64.4277 32.5142 65.3818C33.4216 65.8337 34.2785 66.3861 35.0851 67.0389C35.8916 67.6415 36.8998 68.2944 37.5047 69.0476C38.0592 69.7506 38.2609 70.3532 38.3113 71.0563C37.908 80.045 37.9584 102.341 38.0592 103.948C38.0592 104.099 38.0592 104.199 38.0592 104.35C38.0592 104.5 37.908 104.651 37.656 104.651C37.3031 104.651 36.9502 104.45 36.6478 104.3C36.0428 103.998 35.4379 103.697 34.833 103.396C30.9011 101.538 26.8179 100.584 22.4827 100.433L22.5835 100.383ZM76.0176 103.044C75.7152 103.446 75.4127 103.245 75.0599 103.044C74.5054 102.793 73.9004 102.642 73.2955 102.442C70.9263 101.688 68.5066 101.186 66.0366 100.835C63.1632 100.433 60.2899 100.282 57.3661 100.383C53.0309 100.533 48.9477 101.487 45.0158 103.345C44.4108 103.647 43.8059 103.948 43.201 104.249C42.8986 104.4 42.5457 104.601 42.1928 104.601C41.9408 104.601 41.84 104.45 41.7895 104.3C41.7895 104.149 41.7895 104.048 41.7895 103.898C41.84 102.341 41.9408 79.9948 41.5375 71.006C41.5879 70.303 41.7895 69.7004 42.344 68.9974C42.9994 68.2441 43.9572 67.5913 44.7637 66.9887C45.5703 66.3861 46.4272 65.8337 47.3346 65.3818C49.1998 64.4277 51.2161 63.8753 53.2829 63.7749C56.2571 63.6744 59.1304 64.277 62.0542 64.9299C64.7259 65.5827 67.5488 66.2355 69.8677 67.742C71.2287 68.6459 71.2791 69.6502 71.5312 71.1065C71.7328 72.3117 71.8841 73.5169 72.0353 74.7221C72.3377 77.032 72.5898 79.3922 72.8923 81.7021C73.598 86.9749 74.707 92.1472 75.4631 97.4199C75.6144 98.5749 75.816 99.7801 75.9672 100.985C76.0176 101.588 76.3201 102.492 75.9168 103.044H76.0176Z" fill="#B1AABF"/>
<path d="M66.9943 57.7991C66.9943 57.7991 66.9943 57.7991 67.0447 57.7488C72.1865 51.6224 75.3119 43.7385 75.3119 35.1515C75.3119 26.5644 72.1865 18.6805 67.0447 12.5541C67.0447 12.5541 67.0447 12.5541 66.9943 12.5038C66.8935 12.4034 66.8431 12.303 66.7423 12.2025C66.7423 12.2025 66.6919 12.1523 66.6415 12.1021L66.339 11.7506C66.339 11.7506 66.087 11.4995 65.9861 11.3489C65.7341 11.0978 65.482 10.7965 65.23 10.5454L64.8771 10.1437C64.8771 10.1437 64.6251 9.89259 64.5243 9.79216L64.4234 9.69173C64.3226 9.59129 64.2722 9.54108 64.1714 9.49086C64.1714 9.49086 64.121 9.49086 64.0706 9.39043C57.7694 3.56532 49.351 0.0501709 40.126 0.0501709C30.9011 0.0501709 22.4323 3.61554 16.1815 9.39043C16.1815 9.39043 16.1311 9.39043 16.0807 9.49086C15.9798 9.54108 15.9294 9.64151 15.8286 9.74194C15.8286 9.74194 15.7278 9.84238 15.6774 9.84238C15.5766 9.94281 15.4253 10.0935 15.3245 10.1939L14.9716 10.5956C14.7196 10.8467 14.4675 11.148 14.2155 11.3991C14.2155 11.3991 13.9635 11.6502 13.8626 11.8008C13.8626 11.8008 13.661 12.0519 13.5602 12.2025C13.5602 12.2025 13.5098 12.2528 13.4594 12.303C13.3585 12.4034 13.3081 12.5038 13.2073 12.6043C13.2073 12.6043 13.2073 12.6043 13.1569 12.6545C8.01512 18.7809 4.88972 26.6147 4.88972 35.2519C4.88972 43.8891 8.01512 51.7229 13.1569 57.8493C13.1569 57.8493 13.1569 57.8493 13.2073 57.8995L13.4594 58.2008C13.4594 58.2008 13.5098 58.251 13.5602 58.3012L13.8626 58.6527C13.9635 58.8034 14.1147 58.9038 14.2155 59.0545C14.4675 59.3056 14.7196 59.6069 14.9716 59.8579C14.9716 59.8579 15.2237 60.109 15.3245 60.2095C15.5766 60.5108 15.8286 60.7618 16.1311 60.9627C22.4323 66.7878 30.8507 70.303 40.126 70.303C49.4014 70.303 57.8198 66.7376 64.0706 60.9627C64.3226 60.7116 64.6251 60.4605 64.8771 60.2095C64.8771 60.2095 65.1292 59.9584 65.23 59.8077C65.482 59.5566 65.7341 59.2553 65.9861 59.0043C65.9861 59.0043 66.2382 58.7532 66.339 58.6025C66.4398 58.5021 66.5407 58.3514 66.6415 58.251C66.6415 58.251 66.6919 58.2008 66.7423 58.1506C66.8431 58.0501 66.8935 57.9497 66.9943 57.8493V57.7991ZM67.2968 46.651C66.1878 49.2121 64.7763 51.5722 63.012 53.7315C61.046 52.0242 58.8784 50.5679 56.61 49.3627C57.5173 45.6969 58.0718 41.6294 58.2231 37.4112H69.5148C69.2628 40.625 68.5066 43.7385 67.2464 46.7012L67.2968 46.651ZM69.5148 32.9419H58.2231C58.0718 28.6735 57.5173 24.6562 56.61 20.9904C58.9288 19.7852 61.046 18.2787 63.012 16.6216C66.7927 21.2917 69.0611 27.0164 69.5148 32.9921V32.9419ZM51.5186 7.98437C54.644 9.28999 57.4669 11.0978 59.9874 13.4077C58.5255 14.6632 56.9628 15.7177 55.2993 16.6718C54.0391 13.1567 52.4764 10.0935 50.6616 7.63285C50.9641 7.73328 51.2665 7.88393 51.5186 7.98437ZM44.4108 62.9211C43.7051 63.4735 42.949 63.9255 42.2432 64.2268V49.664C45.3686 49.8649 48.4436 50.5679 51.3674 51.7229C50.712 53.6311 49.9559 55.4389 49.0989 57.0458C47.7379 59.6069 46.1248 61.6155 44.4613 62.9211H44.4108ZM49.0485 13.2571C49.9055 14.864 50.6616 16.6718 51.317 18.58C48.3932 19.735 45.3182 20.438 42.1928 20.6389V6.07614C42.8986 6.37744 43.6547 6.77917 44.3604 7.38177C46.0239 8.6874 47.6371 10.7463 48.9981 13.2571H49.0485ZM42.1928 45.245V37.3108H53.787C53.6862 40.7757 53.2325 44.1402 52.5268 47.354V47.4545C49.1998 46.1991 45.7215 45.4458 42.1928 45.245ZM42.1928 32.9419V25.0077C45.8223 24.8069 49.2502 24.0034 52.5268 22.7982V22.8986C53.2829 26.1125 53.6862 29.4268 53.8374 32.9419H42.2432H42.1928ZM37.8072 37.361V45.2952C34.1777 45.496 30.7498 46.2995 27.4732 47.5047V47.4043C26.7171 44.1904 26.3138 40.8761 26.1626 37.361H37.7568H37.8072ZM26.1626 32.9419C26.3138 29.477 26.7171 26.1125 27.4228 22.8986V22.7982C30.6994 24.0034 34.1273 24.8069 37.7568 25.0077V32.9419H26.1626ZM37.8072 49.664V64.2268C37.1015 63.9255 36.3453 63.5237 35.6396 62.9211C33.9761 61.6155 32.363 59.5566 31.0019 57.0458C30.1449 55.4389 29.3888 53.6311 28.7335 51.7229C31.6572 50.5679 34.7322 49.9151 37.8576 49.664H37.8072ZM37.8072 20.6389C34.6818 20.438 31.6068 19.735 28.6831 18.58C29.3384 16.6718 30.0945 14.864 30.9515 13.2571C32.3125 10.6961 33.9256 8.6874 35.5892 7.38177C36.2949 6.82939 37.051 6.37744 37.7568 6.07614V20.6389H37.8072ZM28.4814 7.98437C28.7839 7.88393 29.0359 7.73328 29.3384 7.63285C27.4732 10.0935 25.9105 13.1567 24.6503 16.6718C22.9868 15.7177 21.4241 14.6129 19.9622 13.4077C22.4827 11.0978 25.3056 9.28999 28.431 7.98437H28.4814ZM12.7032 23.6519C13.8122 21.0909 15.2237 18.7307 16.988 16.5714C18.954 18.2787 21.1216 19.735 23.39 20.9402C22.4827 24.606 21.9282 28.6735 21.7769 32.8917H10.4852C10.7372 29.6779 11.4934 26.5644 12.7536 23.6017L12.7032 23.6519ZM10.4852 37.361H21.7769C21.9282 41.6294 22.4827 45.6467 23.39 49.3125C21.0712 50.5177 18.954 52.0242 16.988 53.6813C13.2073 49.0112 10.8885 43.2865 10.4852 37.3108V37.361ZM28.4814 62.3185C25.356 61.0129 22.5331 59.2051 20.0126 56.8952C21.4745 55.6398 23.0372 54.5852 24.7007 53.6311C25.9609 57.1463 27.5236 60.2095 29.3888 62.6701C29.0863 62.5696 28.7839 62.419 28.5318 62.3185H28.4814ZM51.5186 62.3185C51.2161 62.419 50.9641 62.5696 50.6616 62.6701C52.5268 60.2095 54.0895 57.1463 55.2993 53.6311C56.9628 54.5852 58.5255 55.69 59.9874 56.8952C57.5173 59.1549 54.644 61.0129 51.5186 62.3185Z" fill="#B1AABF"/>
<path d="M33.1191 71.2573C27.1708 68.4954 19.1052 68.2945 13.1065 71.2071C11.5438 71.9603 12.9049 74.2703 14.4676 73.5672C19.5589 71.2573 26.5659 71.6088 31.5564 73.969C33.3711 74.8226 34.9338 72.1612 33.1191 71.3075V71.2573ZM32.9175 78.5889C26.5659 75.827 18.3995 74.7724 11.9975 78.0365C10.586 78.7395 11.8463 80.698 13.2073 80.0954C19.1052 77.4841 26.1122 78.9906 31.8589 81.0997C33.3207 81.6521 34.3793 79.1915 32.9175 78.5387V78.5889ZM32.5646 85.9205C31.9093 85.3681 30.9515 85.117 30.1449 84.8157C24.247 82.6564 16.4335 82.6062 10.7372 85.4685C9.477 86.1213 10.5356 87.9291 11.7454 87.5776C14.8204 86.7239 17.7442 86.2218 20.92 86.1716C23.4405 86.1716 25.7089 86.4226 28.1285 87.1257C28.8343 87.3265 29.54 87.427 30.2458 87.7283C30.7498 87.9793 31.3548 88.2304 31.9093 88.3309C33.1191 88.4815 33.3711 86.7239 32.6654 86.0711L32.5142 85.9205H32.5646ZM31.9597 93.001C25.1544 89.7871 17.4921 90.3897 10.586 92.8001C9.17455 93.3023 9.82987 95.4616 11.2917 95.0097C14.518 94.0053 17.2401 93.2521 20.6679 93.2019C23.995 93.2019 27.574 94.2564 30.5986 95.4114C32.2117 96.0642 33.5728 93.7542 31.9093 92.9508L31.9597 93.001ZM48.4436 73.8685C53.3838 71.5084 60.3907 71.1568 65.5325 73.4668C67.0952 74.1698 68.5066 71.8599 66.8935 71.1066C60.8948 68.2443 52.8797 68.3949 46.8809 71.1568C45.0662 72.0105 46.6289 74.672 48.4436 73.8183V73.8685ZM48.1412 81.1499C53.8374 79.0408 60.8948 77.4841 66.7927 80.1456C68.1538 80.7482 69.414 78.7897 68.0025 78.0867C61.6005 74.7724 53.4342 75.827 47.0826 78.6391C45.6207 79.2919 46.6793 81.7525 48.1412 81.2001V81.1499ZM48.0403 88.3309C48.5948 88.2807 49.1998 87.9793 49.7038 87.7283C50.4096 87.427 51.1153 87.3265 51.8211 87.1257C54.2407 86.4226 56.5091 86.1716 59.0296 86.1716C62.2558 86.1716 65.1292 86.6737 68.2546 87.5776C69.4644 87.9291 70.523 86.1213 69.2628 85.4685C63.6169 82.6062 55.753 82.6564 49.8551 84.8157C49.0485 85.117 48.0907 85.3681 47.4354 85.9205L47.2842 86.0711C46.5785 86.7239 46.8809 88.4815 48.0403 88.3309ZM69.414 92.8001C62.5079 90.3897 54.8456 89.7871 48.0403 93.001C46.3768 93.7542 47.7379 96.1144 49.351 95.4616C52.3756 94.2564 55.9546 93.2019 59.2817 93.2521C62.7095 93.2521 65.4316 94.0555 68.6579 95.0599C70.1197 95.5118 70.7751 93.3525 69.3636 92.8503L69.414 92.8001Z" fill="#B1AABF"/>
</g>
<defs>
<clipPath id="clip0_1368_5534">
<rect width="80" height="116" fill="white"/>
</clipPath>
</defs>
</svg>
