<svg width="80" height="116" viewBox="0 0 80 116" fill="none" xmlns="http://www.w3.org/2000/svg">
<g clip-path="url(#clip0_1368_5546)">
<path d="M37.1667 116C27.9222 116 25.6111 97.6568 25.6111 88.4852H2.5V102.213C2.5 105.882 3.10667 109.373 4.20444 111.917C5.30222 114.521 6.74667 115.941 8.27778 115.941H37.1667V116ZM37.1667 116C39.4778 116 41.6733 113.811 43.2911 109.964C44.9089 106.118 45.8333 100.852 45.8333 95.4083V47.2426M45.8333 47.2426H48.7222C50.2533 47.2426 51.7267 45.8225 52.7956 43.2189C53.8933 40.6154 54.5 37.1243 54.5 33.5148V19.787C54.5 16.1183 53.8933 12.6272 52.7956 10.0828C51.6978 7.47929 50.2533 6.05917 48.7222 6.05917H45.8333M45.8333 47.2426V6H14.0556C12.5244 6 11.0511 7.42012 9.98222 10.0237C8.88444 12.6272 8.27778 16.1183 8.27778 19.7278V88.4852M34.2778 33.5148H19.8333M25.6111 60.9704H19.8333" stroke="#B1AABF" stroke-width="4" stroke-linecap="round" stroke-linejoin="round"/>
<path fill-rule="evenodd" clip-rule="evenodd" d="M74.2591 104.771C74.2591 107.746 73.6563 110.61 72.5655 112.687C71.4747 114.821 70.0395 116 68.5181 116C66.9968 116 65.5328 114.821 64.4708 112.687C63.38 110.554 62.7772 107.746 62.7772 104.771C62.7772 101.795 63.38 98.9313 64.4708 96.8538C65.5615 94.7202 66.9968 93.5411 68.5181 93.5411C70.0395 93.5411 71.5034 94.7202 72.5655 96.8538C73.6563 98.9874 74.2591 101.795 74.2591 104.771ZM79.3685 55.1365C78.9666 54.3504 78.4213 53.9012 77.8472 53.9012C77.2731 53.9012 76.7277 54.3504 76.3258 55.1365L70.671 66.1975V30.3756C70.671 29.2526 70.4413 28.1858 70.0395 27.3998C69.6376 26.6137 69.0922 26.1646 68.5181 26.1646C67.944 26.1646 67.3986 26.6137 66.9968 27.3998C66.5949 28.1858 66.3653 29.2526 66.3653 30.3756V66.1975L60.7105 55.1365C60.3086 54.4066 59.7632 54.0135 59.2178 54.0135C58.6724 54.0135 58.127 54.4627 57.7252 55.2488C57.3233 56.0348 57.0937 57.0455 57.0937 58.1684C57.0937 59.2352 57.2946 60.302 57.6678 61.0881L66.9968 79.3359L68.5181 82.3117L70.0395 79.3359L79.3685 61.0881C79.5694 60.695 79.713 60.2459 79.8278 59.7405C79.9426 59.2352 80 58.6738 80 58.1123C80 57.5508 79.9426 56.9893 79.8278 56.484C79.713 55.9787 79.5694 55.5295 79.3685 55.1365Z" fill="#B1AABF"/>
</g>
<defs>
<clipPath id="clip0_1368_5546">
<rect width="80" height="116" fill="white"/>
</clipPath>
</defs>
</svg>
