<svg width="80" height="117" viewBox="0 0 80 117" fill="none" xmlns="http://www.w3.org/2000/svg">
<path d="M69.36 93.6301L69.41 93.5801C62.51 91.1701 54.84 90.5601 48.04 93.7801C46.38 94.5301 47.74 96.8901 49.35 96.2401C52.37 95.0301 55.95 93.9801 59.28 94.0301C62.71 94.0301 65.43 94.8301 68.66 95.8401C70.12 96.2901 70.77 94.1301 69.36 93.6301ZM69.26 86.2401C63.62 83.3801 55.75 83.4301 49.85 85.5901C49.05 85.8901 48.09 86.1401 47.43 86.7001L47.28 86.8501C46.58 87.5001 46.88 89.2601 48.04 89.1101C48.59 89.0601 49.2 88.7501 49.7 88.5001C50.41 88.2001 51.11 88.1001 51.82 87.9001C54.24 87.2001 56.51 86.9501 59.03 86.9501C62.25 86.9501 65.13 87.4501 68.25 88.3501C69.46 88.7001 70.52 86.9001 69.26 86.2401ZM66.89 71.8801C60.89 69.0201 52.88 69.1701 46.88 71.9301C45.06 72.7901 46.63 75.4501 48.44 74.5901V74.6401C53.38 72.2801 60.39 71.9301 65.53 74.2401C67.09 74.9501 68.51 72.6401 66.89 71.8801ZM68 78.8601C61.6 75.5501 53.43 76.6001 47.08 79.4101C45.62 80.0701 46.68 82.5301 48.14 81.9801V81.9301C53.84 79.8201 60.89 78.2601 66.79 80.9201C68.15 81.5201 69.41 79.5701 68 78.8601ZM69.36 93.6301L69.41 93.5801C62.51 91.1701 54.84 90.5601 48.04 93.7801C46.38 94.5301 47.74 96.8901 49.35 96.2401C52.37 95.0301 55.95 93.9801 59.28 94.0301C62.71 94.0301 65.43 94.8301 68.66 95.8401C70.12 96.2901 70.77 94.1301 69.36 93.6301ZM66.89 71.8801C60.89 69.0201 52.88 69.1701 46.88 71.9301C45.06 72.7901 46.63 75.4501 48.44 74.5901V74.6401C53.38 72.2801 60.39 71.9301 65.53 74.2401C67.09 74.9501 68.51 72.6401 66.89 71.8801ZM69.26 86.2401C63.62 83.3801 55.75 83.4301 49.85 85.5901C49.05 85.8901 48.09 86.1401 47.43 86.7001L47.28 86.8501C46.58 87.5001 46.88 89.2601 48.04 89.1101C48.59 89.0601 49.2 88.7501 49.7 88.5001C50.41 88.2001 51.11 88.1001 51.82 87.9001C54.24 87.2001 56.51 86.9501 59.03 86.9501C62.25 86.9501 65.13 87.4501 68.25 88.3501C69.46 88.7001 70.52 86.9001 69.26 86.2401ZM68 78.8601C61.6 75.5501 53.43 76.6001 47.08 79.4101C45.62 80.0701 46.68 82.5301 48.14 81.9801V81.9301C53.84 79.8201 60.89 78.2601 66.79 80.9201C68.15 81.5201 69.41 79.5701 68 78.8601ZM69.36 93.6301L69.41 93.5801C62.51 91.1701 54.84 90.5601 48.04 93.7801C46.38 94.5301 47.74 96.8901 49.35 96.2401C52.37 95.0301 55.95 93.9801 59.28 94.0301C62.71 94.0301 65.43 94.8301 68.66 95.8401C70.12 96.2901 70.77 94.1301 69.36 93.6301ZM66.89 71.8801C60.89 69.0201 52.88 69.1701 46.88 71.9301C45.06 72.7901 46.63 75.4501 48.44 74.5901V74.6401C53.38 72.2801 60.39 71.9301 65.53 74.2401C67.09 74.9501 68.51 72.6401 66.89 71.8801ZM69.26 86.2401C63.62 83.3801 55.75 83.4301 49.85 85.5901C49.05 85.8901 48.09 86.1401 47.43 86.7001L47.28 86.8501C46.58 87.5001 46.88 89.2601 48.04 89.1101C48.59 89.0601 49.2 88.7501 49.7 88.5001C50.41 88.2001 51.11 88.1001 51.82 87.9001C54.24 87.2001 56.51 86.9501 59.03 86.9501C62.25 86.9501 65.13 87.4501 68.25 88.3501C69.46 88.7001 70.52 86.9001 69.26 86.2401ZM68 78.8601C61.6 75.5501 53.43 76.6001 47.08 79.4101C45.62 80.0701 46.68 82.5301 48.14 81.9801V81.9301C53.84 79.8201 60.89 78.2601 66.79 80.9201C68.15 81.5201 69.41 79.5701 68 78.8601ZM31.91 93.7301L31.96 93.7801C25.15 90.5601 17.49 91.1701 10.58 93.5801C9.16997 94.0801 9.82997 96.2401 11.29 95.7901C14.52 94.7801 17.24 94.0301 20.67 93.9801C23.99 93.9801 27.57 95.0301 30.6 96.1901C32.21 96.8401 33.57 94.5301 31.91 93.7301ZM33.12 72.0801V72.0301C27.17 69.2701 19.1 69.0701 13.11 71.9801C11.54 72.7401 12.9 75.0501 14.47 74.3401C19.56 72.0301 26.56 72.3801 31.55 74.7401C33.37 75.6001 34.93 72.9401 33.12 72.0801ZM32.92 79.3101V79.3601C26.56 76.6001 18.4 75.5501 12 78.8101C10.58 79.5201 11.84 81.4701 13.21 80.8701C19.1 78.2601 26.11 79.7701 31.86 81.8801C33.32 82.4301 34.38 79.9701 32.92 79.3101ZM32.66 86.8501L32.51 86.7001H32.56C31.91 86.1401 30.95 85.8901 30.14 85.5901C24.25 83.4301 16.43 83.3801 10.74 86.2401C9.47997 86.9001 10.53 88.7001 11.74 88.3501C14.82 87.5001 17.74 87.0001 20.92 86.9501C23.44 86.9501 25.71 87.2001 28.13 87.9001C28.83 88.1001 29.54 88.2001 30.24 88.5001C30.75 88.7501 31.35 89.0101 31.91 89.1101C33.12 89.2601 33.37 87.5001 32.66 86.8501ZM69.36 93.6301L69.41 93.5801C62.51 91.1701 54.84 90.5601 48.04 93.7801C46.38 94.5301 47.74 96.8901 49.35 96.2401C52.37 95.0301 55.95 93.9801 59.28 94.0301C62.71 94.0301 65.43 94.8301 68.66 95.8401C70.12 96.2901 70.77 94.1301 69.36 93.6301ZM66.89 71.8801C60.89 69.0201 52.88 69.1701 46.88 71.9301C45.06 72.7901 46.63 75.4501 48.44 74.5901V74.6401C53.38 72.2801 60.39 71.9301 65.53 74.2401C67.09 74.9501 68.51 72.6401 66.89 71.8801ZM69.26 86.2401C63.62 83.3801 55.75 83.4301 49.85 85.5901C49.05 85.8901 48.09 86.1401 47.43 86.7001L47.28 86.8501C46.58 87.5001 46.88 89.2601 48.04 89.1101C48.59 89.0601 49.2 88.7501 49.7 88.5001C50.41 88.2001 51.11 88.1001 51.82 87.9001C54.24 87.2001 56.51 86.9501 59.03 86.9501C62.25 86.9501 65.13 87.4501 68.25 88.3501C69.46 88.7001 70.52 86.9001 69.26 86.2401ZM68 78.8601C61.6 75.5501 53.43 76.6001 47.08 79.4101C45.62 80.0701 46.68 82.5301 48.14 81.9801V81.9301C53.84 79.8201 60.89 78.2601 66.79 80.9201C68.15 81.5201 69.41 79.5701 68 78.8601ZM33.12 72.0801V72.0301C27.17 69.2701 19.1 69.0701 13.11 71.9801C11.54 72.7401 12.9 75.0501 14.47 74.3401C19.56 72.0301 26.56 72.3801 31.55 74.7401C33.37 75.6001 34.93 72.9401 33.12 72.0801ZM32.92 79.3101V79.3601C26.56 76.6001 18.4 75.5501 12 78.8101C10.58 79.5201 11.84 81.4701 13.21 80.8701C19.1 78.2601 26.11 79.7701 31.86 81.8801C33.32 82.4301 34.38 79.9701 32.92 79.3101ZM31.91 93.7301L31.96 93.7801C25.15 90.5601 17.49 91.1701 10.58 93.5801C9.16997 94.0801 9.82997 96.2401 11.29 95.7901C14.52 94.7801 17.24 94.0301 20.67 93.9801C23.99 93.9801 27.57 95.0301 30.6 96.1901C32.21 96.8401 33.57 94.5301 31.91 93.7301ZM32.66 86.8501L32.51 86.7001H32.56C31.91 86.1401 30.95 85.8901 30.14 85.5901C24.25 83.4301 16.43 83.3801 10.74 86.2401C9.47997 86.9001 10.53 88.7001 11.74 88.3501C14.82 87.5001 17.74 87.0001 20.92 86.9501C23.44 86.9501 25.71 87.2001 28.13 87.9001C28.83 88.1001 29.54 88.2001 30.24 88.5001C30.75 88.7501 31.35 89.0101 31.91 89.1101C33.12 89.2601 33.37 87.5001 32.66 86.8501ZM69.36 93.6301L69.41 93.5801C62.51 91.1701 54.84 90.5601 48.04 93.7801C46.38 94.5301 47.74 96.8901 49.35 96.2401C52.37 95.0301 55.95 93.9801 59.28 94.0301C62.71 94.0301 65.43 94.8301 68.66 95.8401C70.12 96.2901 70.77 94.1301 69.36 93.6301ZM66.89 71.8801C60.89 69.0201 52.88 69.1701 46.88 71.9301C45.06 72.7901 46.63 75.4501 48.44 74.5901V74.6401C53.38 72.2801 60.39 71.9301 65.53 74.2401C67.09 74.9501 68.51 72.6401 66.89 71.8801ZM69.26 86.2401C63.62 83.3801 55.75 83.4301 49.85 85.5901C49.05 85.8901 48.09 86.1401 47.43 86.7001L47.28 86.8501C46.58 87.5001 46.88 89.2601 48.04 89.1101C48.59 89.0601 49.2 88.7501 49.7 88.5001C50.41 88.2001 51.11 88.1001 51.82 87.9001C54.24 87.2001 56.51 86.9501 59.03 86.9501C62.25 86.9501 65.13 87.4501 68.25 88.3501C69.46 88.7001 70.52 86.9001 69.26 86.2401ZM68 78.8601C61.6 75.5501 53.43 76.6001 47.08 79.4101C45.62 80.0701 46.68 82.5301 48.14 81.9801V81.9301C53.84 79.8201 60.89 78.2601 66.79 80.9201C68.15 81.5201 69.41 79.5701 68 78.8601ZM33.12 72.0801V72.0301C27.17 69.2701 19.1 69.0701 13.11 71.9801C11.54 72.7401 12.9 75.0501 14.47 74.3401C19.56 72.0301 26.56 72.3801 31.55 74.7401C33.37 75.6001 34.93 72.9401 33.12 72.0801ZM32.92 79.3101V79.3601C26.56 76.6001 18.4 75.5501 12 78.8101C10.58 79.5201 11.84 81.4701 13.21 80.8701C19.1 78.2601 26.11 79.7701 31.86 81.8801C33.32 82.4301 34.38 79.9701 32.92 79.3101ZM31.91 93.7301L31.96 93.7801C25.15 90.5601 17.49 91.1701 10.58 93.5801C9.16997 94.0801 9.82997 96.2401 11.29 95.7901C14.52 94.7801 17.24 94.0301 20.67 93.9801C23.99 93.9801 27.57 95.0301 30.6 96.1901C32.21 96.8401 33.57 94.5301 31.91 93.7301ZM32.66 86.8501L32.51 86.7001H32.56C31.91 86.1401 30.95 85.8901 30.14 85.5901C24.25 83.4301 16.43 83.3801 10.74 86.2401C9.47997 86.9001 10.53 88.7001 11.74 88.3501C14.82 87.5001 17.74 87.0001 20.92 86.9501C23.44 86.9501 25.71 87.2001 28.13 87.9001C28.83 88.1001 29.54 88.2001 30.24 88.5001C30.75 88.7501 31.35 89.0101 31.91 89.1101C33.12 89.2601 33.37 87.5001 32.66 86.8501ZM69.36 93.6301L69.41 93.5801C62.51 91.1701 54.84 90.5601 48.04 93.7801C46.38 94.5301 47.74 96.8901 49.35 96.2401C52.37 95.0301 55.95 93.9801 59.28 94.0301C62.71 94.0301 65.43 94.8301 68.66 95.8401C70.12 96.2901 70.77 94.1301 69.36 93.6301ZM66.89 71.8801C60.89 69.0201 52.88 69.1701 46.88 71.9301C45.06 72.7901 46.63 75.4501 48.44 74.5901V74.6401C53.38 72.2801 60.39 71.9301 65.53 74.2401C67.09 74.9501 68.51 72.6401 66.89 71.8801ZM69.26 86.2401C63.62 83.3801 55.75 83.4301 49.85 85.5901C49.05 85.8901 48.09 86.1401 47.43 86.7001L47.28 86.8501C46.58 87.5001 46.88 89.2601 48.04 89.1101C48.59 89.0601 49.2 88.7501 49.7 88.5001C50.41 88.2001 51.11 88.1001 51.82 87.9001C54.24 87.2001 56.51 86.9501 59.03 86.9501C62.25 86.9501 65.13 87.4501 68.25 88.3501C69.46 88.7001 70.52 86.9001 69.26 86.2401ZM68 78.8601C61.6 75.5501 53.43 76.6001 47.08 79.4101C45.62 80.0701 46.68 82.5301 48.14 81.9801V81.9301C53.84 79.8201 60.89 78.2601 66.79 80.9201C68.15 81.5201 69.41 79.5701 68 78.8601ZM33.12 72.0801V72.0301C27.17 69.2701 19.1 69.0701 13.11 71.9801C11.54 72.7401 12.9 75.0501 14.47 74.3401C19.56 72.0301 26.56 72.3801 31.55 74.7401C33.37 75.6001 34.93 72.9401 33.12 72.0801ZM32.92 79.3101V79.3601C26.56 76.6001 18.4 75.5501 12 78.8101C10.58 79.5201 11.84 81.4701 13.21 80.8701C19.1 78.2601 26.11 79.7701 31.86 81.8801C33.32 82.4301 34.38 79.9701 32.92 79.3101ZM31.91 93.7301L31.96 93.7801C25.15 90.5601 17.49 91.1701 10.58 93.5801C9.16997 94.0801 9.82997 96.2401 11.29 95.7901C14.52 94.7801 17.24 94.0301 20.67 93.9801C23.99 93.9801 27.57 95.0301 30.6 96.1901C32.21 96.8401 33.57 94.5301 31.91 93.7301ZM32.66 86.8501L32.51 86.7001H32.56C31.91 86.1401 30.95 85.8901 30.14 85.5901C24.25 83.4301 16.43 83.3801 10.74 86.2401C9.47997 86.9001 10.53 88.7001 11.74 88.3501C14.82 87.5001 17.74 87.0001 20.92 86.9501C23.44 86.9501 25.71 87.2001 28.13 87.9001C28.83 88.1001 29.54 88.2001 30.24 88.5001C30.75 88.7501 31.35 89.0101 31.91 89.1101C33.12 89.2601 33.37 87.5001 32.66 86.8501ZM69.36 93.6301L69.41 93.5801C62.51 91.1701 54.84 90.5601 48.04 93.7801C46.38 94.5301 47.74 96.8901 49.35 96.2401C52.37 95.0301 55.95 93.9801 59.28 94.0301C62.71 94.0301 65.43 94.8301 68.66 95.8401C70.12 96.2901 70.77 94.1301 69.36 93.6301ZM66.89 71.8801C60.89 69.0201 52.88 69.1701 46.88 71.9301C45.06 72.7901 46.63 75.4501 48.44 74.5901V74.6401C53.38 72.2801 60.39 71.9301 65.53 74.2401C67.09 74.9501 68.51 72.6401 66.89 71.8801ZM69.26 86.2401C63.62 83.3801 55.75 83.4301 49.85 85.5901C49.05 85.8901 48.09 86.1401 47.43 86.7001L47.28 86.8501C46.58 87.5001 46.88 89.2601 48.04 89.1101C48.59 89.0601 49.2 88.7501 49.7 88.5001C50.41 88.2001 51.11 88.1001 51.82 87.9001C54.24 87.2001 56.51 86.9501 59.03 86.9501C62.25 86.9501 65.13 87.4501 68.25 88.3501C69.46 88.7001 70.52 86.9001 69.26 86.2401ZM68 78.8601C61.6 75.5501 53.43 76.6001 47.08 79.4101C45.62 80.0701 46.68 82.5301 48.14 81.9801V81.9301C53.84 79.8201 60.89 78.2601 66.79 80.9201C68.15 81.5201 69.41 79.5701 68 78.8601ZM33.12 72.0801V72.0301C27.17 69.2701 19.1 69.0701 13.11 71.9801C11.54 72.7401 12.9 75.0501 14.47 74.3401C19.56 72.0301 26.56 72.3801 31.55 74.7401C33.37 75.6001 34.93 72.9401 33.12 72.0801ZM32.92 79.3101V79.3601C26.56 76.6001 18.4 75.5501 12 78.8101C10.58 79.5201 11.84 81.4701 13.21 80.8701C19.1 78.2601 26.11 79.7701 31.86 81.8801C33.32 82.4301 34.38 79.9701 32.92 79.3101ZM31.91 93.7301L31.96 93.7801C25.15 90.5601 17.49 91.1701 10.58 93.5801C9.16997 94.0801 9.82997 96.2401 11.29 95.7901C14.52 94.7801 17.24 94.0301 20.67 93.9801C23.99 93.9801 27.57 95.0301 30.6 96.1901C32.21 96.8401 33.57 94.5301 31.91 93.7301ZM32.66 86.8501L32.51 86.7001H32.56C31.91 86.1401 30.95 85.8901 30.14 85.5901C24.25 83.4301 16.43 83.3801 10.74 86.2401C9.47997 86.9001 10.53 88.7001 11.74 88.3501C14.82 87.5001 17.74 87.0001 20.92 86.9501C23.44 86.9501 25.71 87.2001 28.13 87.9001C28.83 88.1001 29.54 88.2001 30.24 88.5001C30.75 88.7501 31.35 89.0101 31.91 89.1101C33.12 89.2601 33.37 87.5001 32.66 86.8501ZM69.36 93.6301L69.41 93.5801C62.51 91.1701 54.84 90.5601 48.04 93.7801C46.38 94.5301 47.74 96.8901 49.35 96.2401C52.37 95.0301 55.95 93.9801 59.28 94.0301C62.71 94.0301 65.43 94.8301 68.66 95.8401C70.12 96.2901 70.77 94.1301 69.36 93.6301ZM66.89 71.8801C60.89 69.0201 52.88 69.1701 46.88 71.9301C45.06 72.7901 46.63 75.4501 48.44 74.5901V74.6401C53.38 72.2801 60.39 71.9301 65.53 74.2401C67.09 74.9501 68.51 72.6401 66.89 71.8801ZM69.26 86.2401C63.62 83.3801 55.75 83.4301 49.85 85.5901C49.05 85.8901 48.09 86.1401 47.43 86.7001L47.28 86.8501C46.58 87.5001 46.88 89.2601 48.04 89.1101C48.59 89.0601 49.2 88.7501 49.7 88.5001C50.41 88.2001 51.11 88.1001 51.82 87.9001C54.24 87.2001 56.51 86.9501 59.03 86.9501C62.25 86.9501 65.13 87.4501 68.25 88.3501C69.46 88.7001 70.52 86.9001 69.26 86.2401ZM68 78.8601C61.6 75.5501 53.43 76.6001 47.08 79.4101C45.62 80.0701 46.68 82.5301 48.14 81.9801V81.9301C53.84 79.8201 60.89 78.2601 66.79 80.9201C68.15 81.5201 69.41 79.5701 68 78.8601ZM33.12 72.0801V72.0301C27.17 69.2701 19.1 69.0701 13.11 71.9801C11.54 72.7401 12.9 75.0501 14.47 74.3401C19.56 72.0301 26.56 72.3801 31.55 74.7401C33.37 75.6001 34.93 72.9401 33.12 72.0801ZM32.92 79.3101V79.3601C26.56 76.6001 18.4 75.5501 12 78.8101C10.58 79.5201 11.84 81.4701 13.21 80.8701C19.1 78.2601 26.11 79.7701 31.86 81.8801C33.32 82.4301 34.38 79.9701 32.92 79.3101ZM31.91 93.7301L31.96 93.7801C25.15 90.5601 17.49 91.1701 10.58 93.5801C9.16997 94.0801 9.82997 96.2401 11.29 95.7901C14.52 94.7801 17.24 94.0301 20.67 93.9801C23.99 93.9801 27.57 95.0301 30.6 96.1901C32.21 96.8401 33.57 94.5301 31.91 93.7301ZM32.66 86.8501L32.51 86.7001H32.56C31.91 86.1401 30.95 85.8901 30.14 85.5901C24.25 83.4301 16.43 83.3801 10.74 86.2401C9.47997 86.9001 10.53 88.7001 11.74 88.3501C14.82 87.5001 17.74 87.0001 20.92 86.9501C23.44 86.9501 25.71 87.2001 28.13 87.9001C28.83 88.1001 29.54 88.2001 30.24 88.5001C30.75 88.7501 31.35 89.0101 31.91 89.1101C33.12 89.2601 33.37 87.5001 32.66 86.8501ZM75.97 101.76C75.81 100.56 75.61 99.3501 75.46 98.2001C74.71 92.9201 73.6 87.7501 72.89 82.4801C72.59 80.1701 72.34 77.8101 72.03 75.5001C71.88 74.2901 71.73 73.0901 71.53 71.8801C71.28 70.4301 71.23 69.4201 69.87 68.5201C67.55 67.0101 64.72 66.3601 62.05 65.7101C61.25 65.5301 60.46 65.3501 59.66 65.2001C57.55 64.7701 55.44 64.4801 53.28 64.5501C51.21 64.6501 49.2 65.2001 47.33 66.1601C46.43 66.6101 45.57 67.1601 44.76 67.7601C43.96 68.3701 43 69.0201 42.34 69.7701C41.99 70.2201 41.78 70.6301 41.66 71.0501C41.6 71.2901 41.56 71.5301 41.54 71.7801C41.54 71.8901 41.54 72.0001 41.54 72.1201C41.58 71.7401 41.66 71.3901 41.83 71.0401C41.95 70.7801 42.11 70.5101 42.33 70.2301C42.99 69.4701 43.95 68.8201 44.75 68.2201C45.56 67.6101 46.42 67.0601 47.32 66.6101C49.19 65.6601 51.2 65.1001 53.27 65.0001C55.25 64.9301 57.19 65.1801 59.12 65.5401C60.09 65.7201 61.06 65.9401 62.04 66.1601C64.71 66.8101 67.54 67.4601 69.86 68.9701C71.22 69.8701 71.27 70.8801 71.52 72.3301C71.72 73.5401 71.87 74.7401 72.02 75.9501C72.33 78.2601 72.58 80.6201 72.88 82.9301C73.59 88.2001 74.7 93.3701 75.45 98.6501C75.6 99.8001 75.8 101.01 75.96 102.21C75.98 102.51 76.07 102.9 76.1 103.27C76.16 102.77 76 102.19 75.96 101.76H75.97ZM69.36 93.6301L69.41 93.5801C62.51 91.1701 54.84 90.5601 48.04 93.7801C46.38 94.5301 47.74 96.8901 49.35 96.2401C52.37 95.0301 55.95 93.9801 59.28 94.0301C62.71 94.0301 65.43 94.8301 68.66 95.8401C70.12 96.2901 70.77 94.1301 69.36 93.6301ZM66.89 71.8801C60.89 69.0201 52.88 69.1701 46.88 71.9301C45.06 72.7901 46.63 75.4501 48.44 74.5901V74.6401C53.38 72.2801 60.39 71.9301 65.53 74.2401C67.09 74.9501 68.51 72.6401 66.89 71.8801ZM69.26 86.2401C63.62 83.3801 55.75 83.4301 49.85 85.5901C49.05 85.8901 48.09 86.1401 47.43 86.7001L47.28 86.8501C46.58 87.5001 46.88 89.2601 48.04 89.1101C48.59 89.0601 49.2 88.7501 49.7 88.5001C50.41 88.2001 51.11 88.1001 51.82 87.9001C54.24 87.2001 56.51 86.9501 59.03 86.9501C62.25 86.9501 65.13 87.4501 68.25 88.3501C69.46 88.7001 70.52 86.9001 69.26 86.2401ZM68 78.8601C61.6 75.5501 53.43 76.6001 47.08 79.4101C45.62 80.0701 46.68 82.5301 48.14 81.9801V81.9301C53.84 79.8201 60.89 78.2601 66.79 80.9201C68.15 81.5201 69.41 79.5701 68 78.8601ZM38.03 103.69C38.04 104.43 38.05 104.93 38.06 105.13V104.72C38.05 104.56 38.04 104.21 38.03 103.69ZM38.17 71.0301C38.05 70.6401 37.84 70.2501 37.5 69.8201C36.9 69.0701 35.89 68.4201 35.08 67.8101C34.28 67.1601 33.42 66.6101 32.51 66.1601C30.7 65.2001 28.63 64.6501 26.56 64.5501C24.46 64.4501 22.43 64.7001 20.42 65.1201C19.54 65.2901 18.67 65.4901 17.79 65.7101C15.12 66.3601 12.3 67.0101 9.97997 68.5201C8.61997 69.3701 8.56997 70.4301 8.31997 71.8801C8.10997 73.0901 7.95997 74.2901 7.80997 75.5001C7.50997 77.8101 7.25997 80.1701 6.94997 82.4801C6.24997 87.7501 5.18997 92.9201 4.37997 98.2001C4.17997 99.4001 4.02997 100.56 3.87997 101.76C3.80997 102.17 3.66997 102.76 3.71997 103.25C3.74997 102.88 3.82997 102.51 3.87997 102.21C4.02997 101.01 4.17997 99.8501 4.37997 98.6501C5.18997 93.3701 6.24997 88.2001 6.94997 82.9301C7.25997 80.6201 7.50997 78.2601 7.80997 75.9001C7.95997 74.6901 8.10997 73.4901 8.31997 72.2801C8.56997 70.8301 8.61997 69.7701 9.97997 68.9201C12.3 67.4101 15.12 66.7601 17.79 66.1101C18.82 65.8601 19.84 65.6201 20.87 65.4301H20.88C22.74 65.0701 24.62 64.8501 26.56 64.9501C28.63 65.0501 30.7 65.6101 32.51 66.5601C33.42 67.0101 34.28 67.5601 35.08 68.2201C35.89 68.8201 36.9 69.4701 37.5 70.2301C37.72 70.5001 37.88 70.7601 38 71.0201C38.18 71.3801 38.27 71.7401 38.3 72.1301C38.3 72.0301 38.31 71.9301 38.31 71.8301C38.29 71.5501 38.25 71.2901 38.17 71.0301ZM33.12 72.0801V72.0301C27.17 69.2701 19.1 69.0701 13.11 71.9801C11.54 72.7401 12.9 75.0501 14.47 74.3401C19.56 72.0301 26.56 72.3801 31.55 74.7401C33.37 75.6001 34.93 72.9401 33.12 72.0801ZM32.92 79.3101V79.3601C26.56 76.6001 18.4 75.5501 12 78.8101C10.58 79.5201 11.84 81.4701 13.21 80.8701C19.1 78.2601 26.11 79.7701 31.86 81.8801C33.32 82.4301 34.38 79.9701 32.92 79.3101ZM31.91 93.7301L31.96 93.7801C25.15 90.5601 17.49 91.1701 10.58 93.5801C9.16997 94.0801 9.82997 96.2401 11.29 95.7901C14.52 94.7801 17.24 94.0301 20.67 93.9801C23.99 93.9801 27.57 95.0301 30.6 96.1901C32.21 96.8401 33.57 94.5301 31.91 93.7301ZM32.66 86.8501L32.51 86.7001H32.56C31.91 86.1401 30.95 85.8901 30.14 85.5901C24.25 83.4301 16.43 83.3801 10.74 86.2401C9.47997 86.9001 10.53 88.7001 11.74 88.3501C14.82 87.5001 17.74 87.0001 20.92 86.9501C23.44 86.9501 25.71 87.2001 28.13 87.9001C28.83 88.1001 29.54 88.2001 30.24 88.5001C30.75 88.7501 31.35 89.0101 31.91 89.1101C33.12 89.2601 33.37 87.5001 32.66 86.8501ZM32.66 86.8501L32.51 86.7001H32.56C31.91 86.1401 30.95 85.8901 30.14 85.5901C24.25 83.4301 16.43 83.3801 10.74 86.2401C9.47997 86.9001 10.53 88.7001 11.74 88.3501C14.82 87.5001 17.74 87.0001 20.92 86.9501C23.44 86.9501 25.71 87.2001 28.13 87.9001C28.83 88.1001 29.54 88.2001 30.24 88.5001C30.75 88.7501 31.35 89.0101 31.91 89.1101C33.12 89.2601 33.37 87.5001 32.66 86.8501ZM31.91 93.7301L31.96 93.7801C25.15 90.5601 17.49 91.1701 10.58 93.5801C9.16997 94.0801 9.82997 96.2401 11.29 95.7901C14.52 94.7801 17.24 94.0301 20.67 93.9801C23.99 93.9801 27.57 95.0301 30.6 96.1901C32.21 96.8401 33.57 94.5301 31.91 93.7301ZM32.92 79.3101V79.3601C26.56 76.6001 18.4 75.5501 12 78.8101C10.58 79.5201 11.84 81.4701 13.21 80.8701C19.1 78.2601 26.11 79.7701 31.86 81.8801C33.32 82.4301 34.38 79.9701 32.92 79.3101ZM33.12 72.0801V72.0301C27.17 69.2701 19.1 69.0701 13.11 71.9801C11.54 72.7401 12.9 75.0501 14.47 74.3401C19.56 72.0301 26.56 72.3801 31.55 74.7401C33.37 75.6001 34.93 72.9401 33.12 72.0801ZM68 78.8601C61.6 75.5501 53.43 76.6001 47.08 79.4101C45.62 80.0701 46.68 82.5301 48.14 81.9801V81.9301C53.84 79.8201 60.89 78.2601 66.79 80.9201C68.15 81.5201 69.41 79.5701 68 78.8601ZM69.26 86.2401C63.62 83.3801 55.75 83.4301 49.85 85.5901C49.05 85.8901 48.09 86.1401 47.43 86.7001L47.28 86.8501C46.58 87.5001 46.88 89.2601 48.04 89.1101C48.59 89.0601 49.2 88.7501 49.7 88.5001C50.41 88.2001 51.11 88.1001 51.82 87.9001C54.24 87.2001 56.51 86.9501 59.03 86.9501C62.25 86.9501 65.13 87.4501 68.25 88.3501C69.46 88.7001 70.52 86.9001 69.26 86.2401ZM66.89 71.8801C60.89 69.0201 52.88 69.1701 46.88 71.9301C45.06 72.7901 46.63 75.4501 48.44 74.5901V74.6401C53.38 72.2801 60.39 71.9301 65.53 74.2401C67.09 74.9501 68.51 72.6401 66.89 71.8801ZM69.36 93.6301L69.41 93.5801C62.51 91.1701 54.84 90.5601 48.04 93.7801C46.38 94.5301 47.74 96.8901 49.35 96.2401C52.37 95.0301 55.95 93.9801 59.28 94.0301C62.71 94.0301 65.43 94.8301 68.66 95.8401C70.12 96.2901 70.77 94.1301 69.36 93.6301ZM32.66 86.8501L32.51 86.7001H32.56C31.91 86.1401 30.95 85.8901 30.14 85.5901C24.25 83.4301 16.43 83.3801 10.74 86.2401C9.47997 86.9001 10.53 88.7001 11.74 88.3501C14.82 87.5001 17.74 87.0001 20.92 86.9501C23.44 86.9501 25.71 87.2001 28.13 87.9001C28.83 88.1001 29.54 88.2001 30.24 88.5001C30.75 88.7501 31.35 89.0101 31.91 89.1101C33.12 89.2601 33.37 87.5001 32.66 86.8501ZM31.91 93.7301L31.96 93.7801C25.15 90.5601 17.49 91.1701 10.58 93.5801C9.16997 94.0801 9.82997 96.2401 11.29 95.7901C14.52 94.7801 17.24 94.0301 20.67 93.9801C23.99 93.9801 27.57 95.0301 30.6 96.1901C32.21 96.8401 33.57 94.5301 31.91 93.7301ZM32.92 79.3101V79.3601C26.56 76.6001 18.4 75.5501 12 78.8101C10.58 79.5201 11.84 81.4701 13.21 80.8701C19.1 78.2601 26.11 79.7701 31.86 81.8801C33.32 82.4301 34.38 79.9701 32.92 79.3101ZM33.12 72.0801V72.0301C27.17 69.2701 19.1 69.0701 13.11 71.9801C11.54 72.7401 12.9 75.0501 14.47 74.3401C19.56 72.0301 26.56 72.3801 31.55 74.7401C33.37 75.6001 34.93 72.9401 33.12 72.0801ZM68 78.8601C61.6 75.5501 53.43 76.6001 47.08 79.4101C45.62 80.0701 46.68 82.5301 48.14 81.9801V81.9301C53.84 79.8201 60.89 78.2601 66.79 80.9201C68.15 81.5201 69.41 79.5701 68 78.8601ZM69.26 86.2401C63.62 83.3801 55.75 83.4301 49.85 85.5901C49.05 85.8901 48.09 86.1401 47.43 86.7001L47.28 86.8501C46.58 87.5001 46.88 89.2601 48.04 89.1101C48.59 89.0601 49.2 88.7501 49.7 88.5001C50.41 88.2001 51.11 88.1001 51.82 87.9001C54.24 87.2001 56.51 86.9501 59.03 86.9501C62.25 86.9501 65.13 87.4501 68.25 88.3501C69.46 88.7001 70.52 86.9001 69.26 86.2401ZM66.89 71.8801C60.89 69.0201 52.88 69.1701 46.88 71.9301C45.06 72.7901 46.63 75.4501 48.44 74.5901V74.6401C53.38 72.2801 60.39 71.9301 65.53 74.2401C67.09 74.9501 68.51 72.6401 66.89 71.8801ZM69.36 93.6301L69.41 93.5801C62.51 91.1701 54.84 90.5601 48.04 93.7801C46.38 94.5301 47.74 96.8901 49.35 96.2401C52.37 95.0301 55.95 93.9801 59.28 94.0301C62.71 94.0301 65.43 94.8301 68.66 95.8401C70.12 96.2901 70.77 94.1301 69.36 93.6301ZM32.66 86.8501L32.51 86.7001H32.56C31.91 86.1401 30.95 85.8901 30.14 85.5901C24.25 83.4301 16.43 83.3801 10.74 86.2401C9.47997 86.9001 10.53 88.7001 11.74 88.3501C14.82 87.5001 17.74 87.0001 20.92 86.9501C23.44 86.9501 25.71 87.2001 28.13 87.9001C28.83 88.1001 29.54 88.2001 30.24 88.5001C30.75 88.7501 31.35 89.0101 31.91 89.1101C33.12 89.2601 33.37 87.5001 32.66 86.8501ZM31.91 93.7301L31.96 93.7801C25.15 90.5601 17.49 91.1701 10.58 93.5801C9.16997 94.0801 9.82997 96.2401 11.29 95.7901C14.52 94.7801 17.24 94.0301 20.67 93.9801C23.99 93.9801 27.57 95.0301 30.6 96.1901C32.21 96.8401 33.57 94.5301 31.91 93.7301ZM32.92 79.3101V79.3601C26.56 76.6001 18.4 75.5501 12 78.8101C10.58 79.5201 11.84 81.4701 13.21 80.8701C19.1 78.2601 26.11 79.7701 31.86 81.8801C33.32 82.4301 34.38 79.9701 32.92 79.3101ZM33.12 72.0801V72.0301C27.17 69.2701 19.1 69.0701 13.11 71.9801C11.54 72.7401 12.9 75.0501 14.47 74.3401C19.56 72.0301 26.56 72.3801 31.55 74.7401C33.37 75.6001 34.93 72.9401 33.12 72.0801ZM68 78.8601C61.6 75.5501 53.43 76.6001 47.08 79.4101C45.62 80.0701 46.68 82.5301 48.14 81.9801V81.9301C53.84 79.8201 60.89 78.2601 66.79 80.9201C68.15 81.5201 69.41 79.5701 68 78.8601ZM69.26 86.2401C63.62 83.3801 55.75 83.4301 49.85 85.5901C49.05 85.8901 48.09 86.1401 47.43 86.7001L47.28 86.8501C46.58 87.5001 46.88 89.2601 48.04 89.1101C48.59 89.0601 49.2 88.7501 49.7 88.5001C50.41 88.2001 51.11 88.1001 51.82 87.9001C54.24 87.2001 56.51 86.9501 59.03 86.9501C62.25 86.9501 65.13 87.4501 68.25 88.3501C69.46 88.7001 70.52 86.9001 69.26 86.2401ZM66.89 71.8801C60.89 69.0201 52.88 69.1701 46.88 71.9301C45.06 72.7901 46.63 75.4501 48.44 74.5901V74.6401C53.38 72.2801 60.39 71.9301 65.53 74.2401C67.09 74.9501 68.51 72.6401 66.89 71.8801ZM69.36 93.6301L69.41 93.5801C62.51 91.1701 54.84 90.5601 48.04 93.7801C46.38 94.5301 47.74 96.8901 49.35 96.2401C52.37 95.0301 55.95 93.9801 59.28 94.0301C62.71 94.0301 65.43 94.8301 68.66 95.8401C70.12 96.2901 70.77 94.1301 69.36 93.6301ZM32.66 86.8501L32.51 86.7001H32.56C31.91 86.1401 30.95 85.8901 30.14 85.5901C24.25 83.4301 16.43 83.3801 10.74 86.2401C9.47997 86.9001 10.53 88.7001 11.74 88.3501C14.82 87.5001 17.74 87.0001 20.92 86.9501C23.44 86.9501 25.71 87.2001 28.13 87.9001C28.83 88.1001 29.54 88.2001 30.24 88.5001C30.75 88.7501 31.35 89.0101 31.91 89.1101C33.12 89.2601 33.37 87.5001 32.66 86.8501ZM31.91 93.7301L31.96 93.7801C25.15 90.5601 17.49 91.1701 10.58 93.5801C9.16997 94.0801 9.82997 96.2401 11.29 95.7901C14.52 94.7801 17.24 94.0301 20.67 93.9801C23.99 93.9801 27.57 95.0301 30.6 96.1901C32.21 96.8401 33.57 94.5301 31.91 93.7301ZM32.92 79.3101V79.3601C26.56 76.6001 18.4 75.5501 12 78.8101C10.58 79.5201 11.84 81.4701 13.21 80.8701C19.1 78.2601 26.11 79.7701 31.86 81.8801C33.32 82.4301 34.38 79.9701 32.92 79.3101ZM33.12 72.0801V72.0301C27.17 69.2701 19.1 69.0701 13.11 71.9801C11.54 72.7401 12.9 75.0501 14.47 74.3401C19.56 72.0301 26.56 72.3801 31.55 74.7401C33.37 75.6001 34.93 72.9401 33.12 72.0801ZM68 78.8601C61.6 75.5501 53.43 76.6001 47.08 79.4101C45.62 80.0701 46.68 82.5301 48.14 81.9801V81.9301C53.84 79.8201 60.89 78.2601 66.79 80.9201C68.15 81.5201 69.41 79.5701 68 78.8601ZM69.26 86.2401C63.62 83.3801 55.75 83.4301 49.85 85.5901C49.05 85.8901 48.09 86.1401 47.43 86.7001L47.28 86.8501C46.58 87.5001 46.88 89.2601 48.04 89.1101C48.59 89.0601 49.2 88.7501 49.7 88.5001C50.41 88.2001 51.11 88.1001 51.82 87.9001C54.24 87.2001 56.51 86.9501 59.03 86.9501C62.25 86.9501 65.13 87.4501 68.25 88.3501C69.46 88.7001 70.52 86.9001 69.26 86.2401ZM66.89 71.8801C60.89 69.0201 52.88 69.1701 46.88 71.9301C45.06 72.7901 46.63 75.4501 48.44 74.5901V74.6401C53.38 72.2801 60.39 71.9301 65.53 74.2401C67.09 74.9501 68.51 72.6401 66.89 71.8801ZM69.36 93.6301L69.41 93.5801C62.51 91.1701 54.84 90.5601 48.04 93.7801C46.38 94.5301 47.74 96.8901 49.35 96.2401C52.37 95.0301 55.95 93.9801 59.28 94.0301C62.71 94.0301 65.43 94.8301 68.66 95.8401C70.12 96.2901 70.77 94.1301 69.36 93.6301ZM32.66 86.8501L32.51 86.7001H32.56C31.91 86.1401 30.95 85.8901 30.14 85.5901C24.25 83.4301 16.43 83.3801 10.74 86.2401C9.47997 86.9001 10.53 88.7001 11.74 88.3501C14.82 87.5001 17.74 87.0001 20.92 86.9501C23.44 86.9501 25.71 87.2001 28.13 87.9001C28.83 88.1001 29.54 88.2001 30.24 88.5001C30.75 88.7501 31.35 89.0101 31.91 89.1101C33.12 89.2601 33.37 87.5001 32.66 86.8501ZM31.91 93.7301L31.96 93.7801C25.15 90.5601 17.49 91.1701 10.58 93.5801C9.16997 94.0801 9.82997 96.2401 11.29 95.7901C14.52 94.7801 17.24 94.0301 20.67 93.9801C23.99 93.9801 27.57 95.0301 30.6 96.1901C32.21 96.8401 33.57 94.5301 31.91 93.7301ZM32.92 79.3101V79.3601C26.56 76.6001 18.4 75.5501 12 78.8101C10.58 79.5201 11.84 81.4701 13.21 80.8701C19.1 78.2601 26.11 79.7701 31.86 81.8801C33.32 82.4301 34.38 79.9701 32.92 79.3101ZM33.12 72.0801V72.0301C27.17 69.2701 19.1 69.0701 13.11 71.9801C11.54 72.7401 12.9 75.0501 14.47 74.3401C19.56 72.0301 26.56 72.3801 31.55 74.7401C33.37 75.6001 34.93 72.9401 33.12 72.0801ZM68 78.8601C61.6 75.5501 53.43 76.6001 47.08 79.4101C45.62 80.0701 46.68 82.5301 48.14 81.9801V81.9301C53.84 79.8201 60.89 78.2601 66.79 80.9201C68.15 81.5201 69.41 79.5701 68 78.8601ZM69.26 86.2401C63.62 83.3801 55.75 83.4301 49.85 85.5901C49.05 85.8901 48.09 86.1401 47.43 86.7001L47.28 86.8501C46.58 87.5001 46.88 89.2601 48.04 89.1101C48.59 89.0601 49.2 88.7501 49.7 88.5001C50.41 88.2001 51.11 88.1001 51.82 87.9001C54.24 87.2001 56.51 86.9501 59.03 86.9501C62.25 86.9501 65.13 87.4501 68.25 88.3501C69.46 88.7001 70.52 86.9001 69.26 86.2401ZM66.89 71.8801C60.89 69.0201 52.88 69.1701 46.88 71.9301C45.06 72.7901 46.63 75.4501 48.44 74.5901V74.6401C53.38 72.2801 60.39 71.9301 65.53 74.2401C67.09 74.9501 68.51 72.6401 66.89 71.8801ZM69.36 93.6301L69.41 93.5801C62.51 91.1701 54.84 90.5601 48.04 93.7801C46.38 94.5301 47.74 96.8901 49.35 96.2401C52.37 95.0301 55.95 93.9801 59.28 94.0301C62.71 94.0301 65.43 94.8301 68.66 95.8401C70.12 96.2901 70.77 94.1301 69.36 93.6301ZM32.66 86.8501L32.51 86.7001H32.56C31.91 86.1401 30.95 85.8901 30.14 85.5901C24.25 83.4301 16.43 83.3801 10.74 86.2401C9.47997 86.9001 10.53 88.7001 11.74 88.3501C14.82 87.5001 17.74 87.0001 20.92 86.9501C23.44 86.9501 25.71 87.2001 28.13 87.9001C28.83 88.1001 29.54 88.2001 30.24 88.5001C30.75 88.7501 31.35 89.0101 31.91 89.1101C33.12 89.2601 33.37 87.5001 32.66 86.8501ZM31.91 93.7301L31.96 93.7801C25.15 90.5601 17.49 91.1701 10.58 93.5801C9.16997 94.0801 9.82997 96.2401 11.29 95.7901C14.52 94.7801 17.24 94.0301 20.67 93.9801C23.99 93.9801 27.57 95.0301 30.6 96.1901C32.21 96.8401 33.57 94.5301 31.91 93.7301ZM32.92 79.3101V79.3601C26.56 76.6001 18.4 75.5501 12 78.8101C10.58 79.5201 11.84 81.4701 13.21 80.8701C19.1 78.2601 26.11 79.7701 31.86 81.8801C33.32 82.4301 34.38 79.9701 32.92 79.3101ZM33.12 72.0801V72.0301C27.17 69.2701 19.1 69.0701 13.11 71.9801C11.54 72.7401 12.9 75.0501 14.47 74.3401C19.56 72.0301 26.56 72.3801 31.55 74.7401C33.37 75.6001 34.93 72.9401 33.12 72.0801ZM68 78.8601C61.6 75.5501 53.43 76.6001 47.08 79.4101C45.62 80.0701 46.68 82.5301 48.14 81.9801V81.9301C53.84 79.8201 60.89 78.2601 66.79 80.9201C68.15 81.5201 69.41 79.5701 68 78.8601ZM69.26 86.2401C63.62 83.3801 55.75 83.4301 49.85 85.5901C49.05 85.8901 48.09 86.1401 47.43 86.7001L47.28 86.8501C46.58 87.5001 46.88 89.2601 48.04 89.1101C48.59 89.0601 49.2 88.7501 49.7 88.5001C50.41 88.2001 51.11 88.1001 51.82 87.9001C54.24 87.2001 56.51 86.9501 59.03 86.9501C62.25 86.9501 65.13 87.4501 68.25 88.3501C69.46 88.7001 70.52 86.9001 69.26 86.2401ZM66.89 71.8801C60.89 69.0201 52.88 69.1701 46.88 71.9301C45.06 72.7901 46.63 75.4501 48.44 74.5901V74.6401C53.38 72.2801 60.39 71.9301 65.53 74.2401C67.09 74.9501 68.51 72.6401 66.89 71.8801ZM69.36 93.6301L69.41 93.5801C62.51 91.1701 54.84 90.5601 48.04 93.7801C46.38 94.5301 47.74 96.8901 49.35 96.2401C52.37 95.0301 55.95 93.9801 59.28 94.0301C62.71 94.0301 65.43 94.8301 68.66 95.8401C70.12 96.2901 70.77 94.1301 69.36 93.6301ZM68 78.8601C61.6 75.5501 53.43 76.6001 47.08 79.4101C45.62 80.0701 46.68 82.5301 48.14 81.9801V81.9301C53.84 79.8201 60.89 78.2601 66.79 80.9201C68.15 81.5201 69.41 79.5701 68 78.8601ZM69.26 86.2401C63.62 83.3801 55.75 83.4301 49.85 85.5901C49.05 85.8901 48.09 86.1401 47.43 86.7001L47.28 86.8501C46.58 87.5001 46.88 89.2601 48.04 89.1101C48.59 89.0601 49.2 88.7501 49.7 88.5001C50.41 88.2001 51.11 88.1001 51.82 87.9001C54.24 87.2001 56.51 86.9501 59.03 86.9501C62.25 86.9501 65.13 87.4501 68.25 88.3501C69.46 88.7001 70.52 86.9001 69.26 86.2401ZM66.89 71.8801C60.89 69.0201 52.88 69.1701 46.88 71.9301C45.06 72.7901 46.63 75.4501 48.44 74.5901V74.6401C53.38 72.2801 60.39 71.9301 65.53 74.2401C67.09 74.9501 68.51 72.6401 66.89 71.8801ZM69.36 93.6301L69.41 93.5801C62.51 91.1701 54.84 90.5601 48.04 93.7801C46.38 94.5301 47.74 96.8901 49.35 96.2401C52.37 95.0301 55.95 93.9801 59.28 94.0301C62.71 94.0301 65.43 94.8301 68.66 95.8401C70.12 96.2901 70.77 94.1301 69.36 93.6301ZM68 78.8601C61.6 75.5501 53.43 76.6001 47.08 79.4101C45.62 80.0701 46.68 82.5301 48.14 81.9801V81.9301C53.84 79.8201 60.89 78.2601 66.79 80.9201C68.15 81.5201 69.41 79.5701 68 78.8601ZM69.26 86.2401C63.62 83.3801 55.75 83.4301 49.85 85.5901C49.05 85.8901 48.09 86.1401 47.43 86.7001L47.28 86.8501C46.58 87.5001 46.88 89.2601 48.04 89.1101C48.59 89.0601 49.2 88.7501 49.7 88.5001C50.41 88.2001 51.11 88.1001 51.82 87.9001C54.24 87.2001 56.51 86.9501 59.03 86.9501C62.25 86.9501 65.13 87.4501 68.25 88.3501C69.46 88.7001 70.52 86.9001 69.26 86.2401ZM66.89 71.8801C60.89 69.0201 52.88 69.1701 46.88 71.9301C45.06 72.7901 46.63 75.4501 48.44 74.5901V74.6401C53.38 72.2801 60.39 71.9301 65.53 74.2401C67.09 74.9501 68.51 72.6401 66.89 71.8801ZM69.36 93.6301L69.41 93.5801C62.51 91.1701 54.84 90.5601 48.04 93.7801C46.38 94.5301 47.74 96.8901 49.35 96.2401C52.37 95.0301 55.95 93.9801 59.28 94.0301C62.71 94.0301 65.43 94.8301 68.66 95.8401C70.12 96.2901 70.77 94.1301 69.36 93.6301Z" fill="#B1AABF"/>
<path d="M79.7 109.39H79.54C79.54 108.49 80 106.08 80 105.58C80 99.4501 76.07 79.3101 75.46 74.3901V74.0901C75.21 72.1801 75.11 69.8701 74.4 68.0701C73.7 66.2101 71.38 65.6101 69.66 64.9501C67.49 64.1401 65.24 63.3501 62.94 62.7401C63.32 62.4201 63.7 62.0801 64.07 61.7401C64.32 61.4901 64.62 61.2401 64.88 60.9901C64.88 60.9901 65.13 60.7301 65.23 60.5801C65.48 60.3301 65.73 60.0301 65.98 59.7801C65.98 59.7801 66.24 59.5301 66.34 59.3801C66.44 59.2801 66.54 59.1301 66.64 59.0301C66.64 59.0301 66.69 58.9801 66.74 58.9301C66.84 58.8301 66.89 58.7301 66.99 58.6301V58.5701L67.04 58.5201C72.18 52.4001 75.31 44.5101 75.31 35.9301C75.31 27.3501 72.18 19.4601 67.04 13.3301L66.99 13.2801C66.89 13.1801 66.84 13.0801 66.74 12.9801C66.74 12.9801 66.69 12.9301 66.64 12.8801L66.34 12.5301C66.34 12.5301 66.09 12.2801 65.98 12.1201C65.73 11.8701 65.48 11.5701 65.23 11.3201L64.88 10.9201C64.88 10.9201 64.62 10.6701 64.52 10.5701L64.42 10.4701C64.32 10.3701 64.27 10.3201 64.17 10.2701C64.17 10.2701 64.12 10.2701 64.07 10.1701C57.77 4.34008 49.35 0.830078 40.12 0.830078C30.89 0.830078 22.43 4.39008 16.18 10.1701C16.18 10.1701 16.13 10.1701 16.08 10.2701C15.98 10.3201 15.93 10.4201 15.83 10.5201C15.83 10.5201 15.73 10.6201 15.68 10.6201C15.57 10.7201 15.42 10.8701 15.32 10.9701L14.97 11.3701C14.72 11.6201 14.47 11.9201 14.21 12.1701C14.21 12.1701 13.96 12.4301 13.86 12.5801C13.86 12.5801 13.66 12.8301 13.56 12.9801L13.46 13.0801C13.36 13.1801 13.31 13.2801 13.21 13.3801L13.16 13.4301C8.01 19.5601 4.89 27.3901 4.89 36.0301C4.89 44.6701 8.01 52.5001 13.16 58.6301L13.21 58.6801L13.46 58.9801L13.56 59.0801L13.86 59.4301C13.96 59.5801 14.11 59.6801 14.21 59.8301C14.47 60.0801 14.72 60.3801 14.97 60.6301C14.97 60.6301 15.22 60.8801 15.32 60.9901C15.57 61.2901 15.83 61.5401 16.13 61.7401C16.49 62.0701 16.85 62.3901 17.22 62.6901C14.85 63.3101 12.52 64.1101 10.28 64.9501C8.62 65.6101 6.25 66.2601 5.54 68.0701C4.84 69.8701 4.74 72.1801 4.54 74.0901V74.3901C3.93 79.3101 0.05 99.4501 0 105.58C0 106.08 0.4 108.49 0.45 109.39C0.5 110.65 0.35 111.95 0.45 113.21C0.35 113.66 0.45 114.06 0.7 114.37C0.86 114.72 1.16 114.92 1.46 115.02C2.12 115.77 3.38 115.27 4.13 115.02C11.29 112.71 19.2 112.81 26.56 113.76C27.87 113.91 29.19 114.16 30.5 114.42C31.86 114.67 33.12 115.17 34.43 115.62C35.49 116.02 36.6 116.32 37.76 116.52C38.56 116.73 39.37 116.78 39.72 116.78H40.43C40.78 116.78 41.59 116.73 42.39 116.52C43.5 116.32 44.61 116.02 45.72 115.62C47.03 115.17 48.29 114.67 49.65 114.42C50.96 114.16 52.27 113.96 53.58 113.76C60.99 112.81 68.86 112.71 76.02 115.02C76.82 115.27 78.03 115.77 78.69 115.02C78.99 114.92 79.24 114.72 79.44 114.37C79.7 114.01 79.85 113.61 79.7 113.21C79.7 111.95 79.6 110.65 79.7 109.39ZM27.47 48.2801V48.1801C26.72 44.9701 26.31 41.6501 26.16 38.1401H37.81V46.0701C34.18 46.2701 30.75 47.0801 27.47 48.2801ZM37.81 50.4401V65.0001C37.1 64.7001 36.34 64.3001 35.64 63.7001C33.97 62.3901 32.36 60.3301 31 57.8201C30.14 56.2101 29.39 54.4101 28.73 52.5001C31.64 51.3501 34.7 50.7001 37.81 50.4401ZM28.11 61.5801C27.15 61.4901 26.18 61.4501 25.22 61.4801C23.36 60.4201 21.62 59.1501 20.01 57.6701C21.47 56.4201 23.04 55.3601 24.7 54.4101C25.66 57.0801 26.79 59.4901 28.11 61.5801ZM26.16 33.7201C26.31 30.2501 26.72 26.8901 27.42 23.6701V23.5701C30.7 24.7801 34.13 25.5801 37.76 25.7801V33.7201H26.16ZM35.59 8.16008C36.29 7.61008 37.05 7.15008 37.76 6.85008V21.4101C34.65 21.2001 31.59 20.5001 28.68 19.3601C29.34 17.4501 30.09 15.6401 30.95 14.0301C32.31 11.4701 33.92 9.46008 35.59 8.16008ZM28.43 8.76008H28.48C28.78 8.66008 29.03 8.51008 29.34 8.41008C27.47 10.8701 25.91 13.9301 24.65 17.4501C22.99 16.4901 21.42 15.3901 19.96 14.1801C22.48 11.8701 25.3 10.0701 28.43 8.76008ZM12.7 24.4301C13.81 21.8701 15.22 19.5101 16.99 17.3501C18.95 19.0501 21.12 20.5101 23.39 21.7201C22.48 25.3801 21.93 29.4501 21.78 33.6701H10.48C10.74 30.4501 11.49 27.3401 12.75 24.3801L12.7 24.4301ZM16.99 54.4601C13.22 49.8001 10.9 44.0901 10.48 38.1401H21.78C21.93 42.4101 22.48 46.4201 23.39 50.0901C21.07 51.2901 18.95 52.8001 16.99 54.4601ZM38.3 72.1301C38.28 72.7201 38.25 73.3401 38.24 74.0101C38.24 74.2301 38.24 74.4601 38.22 74.6901C38.21 75.0201 38.2 75.3701 38.19 75.7201C38.18 75.9601 38.17 76.2101 38.17 76.4601C38.17 76.9101 38.15 77.3801 38.14 77.8601C38.13 78.0901 38.13 78.3401 38.13 78.5801C38.12 78.9901 38.11 79.4101 38.11 79.8401C38.09 80.4201 38.09 81.0201 38.08 81.6201C38.07 81.8801 38.07 82.1401 38.07 82.4101C38.06 82.6701 38.06 82.9301 38.06 83.2001C37.97 90.4001 37.98 98.3001 38.01 102.26C38.02 102.61 38.02 102.92 38.02 103.2C38.03 103.38 38.03 103.54 38.03 103.69C38.04 104.21 38.05 104.56 38.06 104.72V105.13C38.06 105.28 37.91 105.43 37.65 105.43C37.3 105.43 36.95 105.23 36.65 105.08C36.04 104.77 35.44 104.47 34.83 104.17C30.9 102.31 26.82 101.36 22.48 101.21L22.58 101.16C19.71 101.06 16.78 101.16 13.91 101.61C11.44 101.96 9.02 102.51 6.65 103.22C6.1 103.42 5.44 103.52 4.89 103.82C4.54 103.97 4.23 104.17 3.93 103.82C3.81 103.67 3.75 103.49 3.72 103.28V103.25C3.67 102.76 3.81 102.17 3.88 101.76C4.03 100.56 4.18 99.4001 4.38 98.2001C5.19 92.9201 6.25 87.7501 6.95 82.4801C7.26 80.1701 7.51 77.8101 7.81 75.5001C7.96 74.2901 8.11 73.0901 8.32 71.8801C8.57 70.4301 8.62 69.3701 9.98 68.5201C12.3 67.0101 15.12 66.3601 17.79 65.7101C18.67 65.4901 19.54 65.2901 20.42 65.1201C22.43 64.7001 24.46 64.4501 26.56 64.5501C28.63 64.6501 30.7 65.2001 32.51 66.1601C33.42 66.6101 34.28 67.1601 35.08 67.8101C35.89 68.4201 36.9 69.0701 37.5 69.8201C37.84 70.2501 38.05 70.6401 38.17 71.0301C38.25 71.2901 38.29 71.5501 38.31 71.8301C38.31 71.9301 38.3 72.0301 38.3 72.1301ZM67.3 47.4301C66.19 49.9901 64.77 52.3501 63.01 54.5101C61.04 52.8001 58.88 51.3401 56.61 50.1401C57.52 46.4701 58.07 42.4101 58.22 38.1901H69.51C69.26 41.4001 68.51 44.5101 67.24 47.4801L67.3 47.4301ZM59.99 57.6701C58.41 59.1101 56.67 60.3901 54.8 61.4601C53.85 61.4301 52.9 61.4601 51.96 61.5501C53.27 59.4701 54.38 57.0701 55.3 54.4101C56.96 55.3601 58.52 56.4701 59.99 57.6701ZM69.51 33.7201H58.22C58.07 29.4501 57.52 25.4301 56.61 21.7701C58.93 20.5601 61.04 19.0501 63.01 17.4001C66.78 22.0601 69.05 27.7601 69.51 33.7201ZM51.52 8.76008C54.64 10.0701 57.47 11.8701 59.99 14.1801C58.52 15.4401 56.96 16.4901 55.3 17.4501C54.04 13.9301 52.47 10.8701 50.66 8.41008C50.96 8.51008 51.26 8.66008 51.52 8.76008ZM42.19 6.85008C42.9 7.15008 43.65 7.56008 44.36 8.16008C46.02 9.46008 47.64 11.5201 49 14.0301H49.05C49.9 15.6401 50.66 17.4501 51.32 19.3601C48.39 20.5101 45.32 21.2101 42.19 21.4101V6.85008ZM42.19 25.7801C45.82 25.5801 49.25 24.7801 52.53 23.5701V23.6701C53.28 26.8901 53.68 30.2001 53.84 33.7201H42.19V25.7801ZM42.19 38.0901H53.79C53.68 41.5501 53.23 44.9201 52.53 48.1301V48.2301C49.2 46.9701 45.72 46.2201 42.19 46.0201V38.0901ZM51.37 52.5001C50.71 54.4101 49.95 56.2101 49.1 57.8201C47.74 60.3801 46.12 62.3901 44.46 63.7001H44.41C43.7 64.2501 42.95 64.7001 42.24 65.0001V50.4401C45.37 50.6401 48.44 51.3401 51.37 52.5001ZM76.11 103.27V103.29C76.09 103.49 76.03 103.67 75.92 103.82H76.02C75.71 104.22 75.41 104.02 75.06 103.82C74.5 103.57 73.9 103.42 73.29 103.22C70.92 102.46 68.51 101.96 66.04 101.61C63.16 101.21 60.29 101.06 57.36 101.16C53.03 101.31 48.95 102.26 45.01 104.12C44.41 104.42 43.8 104.72 43.2 105.02C42.9 105.18 42.54 105.38 42.19 105.38C41.94 105.38 41.84 105.23 41.79 105.08V104.67C41.79 104.53 41.79 104.23 41.79 103.79C41.8 103.43 41.8 103 41.8 102.52C41.81 102.01 41.81 101.44 41.81 100.8C41.84 96.6701 41.84 89.9401 41.78 83.6601C41.76 81.8501 41.74 80.0701 41.71 78.4001C41.7 78.1001 41.7 77.8101 41.69 77.5201C41.66 75.4901 41.61 73.6501 41.54 72.1401V72.1201C41.54 72.0001 41.54 71.8901 41.54 71.7801C41.56 71.5301 41.6 71.2901 41.66 71.0501C41.78 70.6301 41.99 70.2201 42.34 69.7701C43 69.0201 43.96 68.3701 44.76 67.7601C45.57 67.1601 46.43 66.6101 47.33 66.1601C49.2 65.2001 51.21 64.6501 53.28 64.5501C55.44 64.4801 57.55 64.7701 59.66 65.2001C60.46 65.3501 61.25 65.5301 62.05 65.7101C64.72 66.3601 67.55 67.0101 69.87 68.5201C71.23 69.4201 71.28 70.4301 71.53 71.8801C71.73 73.0901 71.88 74.2901 72.03 75.5001C72.34 77.8101 72.59 80.1701 72.89 82.4801C73.6 87.7501 74.71 92.9201 75.46 98.2001C75.61 99.3501 75.81 100.56 75.97 101.76C76.01 102.19 76.17 102.77 76.11 103.27Z" fill="#B1AABF"/>
<path d="M32.66 86.8501L32.51 86.7001H32.56C31.91 86.1401 30.95 85.8901 30.14 85.5901C24.25 83.4301 16.43 83.3801 10.74 86.2401C9.47997 86.9001 10.53 88.7001 11.74 88.3501C14.82 87.5001 17.74 87.0001 20.92 86.9501C23.44 86.9501 25.71 87.2001 28.13 87.9001C28.83 88.1001 29.54 88.2001 30.24 88.5001C30.75 88.7501 31.35 89.0101 31.91 89.1101C33.12 89.2601 33.37 87.5001 32.66 86.8501ZM32.92 79.3101V79.3601C26.56 76.6001 18.4 75.5501 12 78.8101C10.58 79.5201 11.84 81.4701 13.21 80.8701C19.1 78.2601 26.11 79.7701 31.86 81.8801C33.32 82.4301 34.38 79.9701 32.92 79.3101ZM33.12 72.0801V72.0301C27.17 69.2701 19.1 69.0701 13.11 71.9801C11.54 72.7401 12.9 75.0501 14.47 74.3401C19.56 72.0301 26.56 72.3801 31.55 74.7401C33.37 75.6001 34.93 72.9401 33.12 72.0801ZM31.91 93.7301L31.96 93.7801C25.15 90.5601 17.49 91.1701 10.58 93.5801C9.16997 94.0801 9.82997 96.2401 11.29 95.7901C14.52 94.7801 17.24 94.0301 20.67 93.9801C23.99 93.9801 27.57 95.0301 30.6 96.1901C32.21 96.8401 33.57 94.5301 31.91 93.7301ZM38.03 103.69C38.04 104.43 38.05 104.93 38.06 105.13V104.72C38.05 104.56 38.04 104.21 38.03 103.69ZM38.17 71.0301C38.05 70.6401 37.84 70.2501 37.5 69.8201C36.9 69.0701 35.89 68.4201 35.08 67.8101C34.28 67.1601 33.42 66.6101 32.51 66.1601C30.7 65.2001 28.63 64.6501 26.56 64.5501C24.46 64.4501 22.43 64.7001 20.42 65.1201C19.54 65.2901 18.67 65.4901 17.79 65.7101C15.12 66.3601 12.3 67.0101 9.97997 68.5201C8.61997 69.3701 8.56997 70.4301 8.31997 71.8801C8.10997 73.0901 7.95997 74.2901 7.80997 75.5001C7.50997 77.8101 7.25997 80.1701 6.94997 82.4801C6.24997 87.7501 5.18997 92.9201 4.37997 98.2001C4.17997 99.4001 4.02997 100.56 3.87997 101.76C3.80997 102.17 3.66997 102.76 3.71997 103.25C3.74997 102.88 3.82997 102.51 3.87997 102.21C4.02997 101.01 4.17997 99.8501 4.37997 98.6501C5.18997 93.3701 6.24997 88.2001 6.94997 82.9301C7.25997 80.6201 7.50997 78.2601 7.80997 75.9001C7.95997 74.6901 8.10997 73.4901 8.31997 72.2801C8.56997 70.8301 8.61997 69.7701 9.97997 68.9201C12.3 67.4101 15.12 66.7601 17.79 66.1101C18.82 65.8601 19.84 65.6201 20.87 65.4301H20.88C22.74 65.0701 24.62 64.8501 26.56 64.9501C28.63 65.0501 30.7 65.6101 32.51 66.5601C33.42 67.0101 34.28 67.5601 35.08 68.2201C35.89 68.8201 36.9 69.4701 37.5 70.2301C37.72 70.5001 37.88 70.7601 38 71.0201C38.18 71.3801 38.27 71.7401 38.3 72.1301C38.3 72.0301 38.31 71.9301 38.31 71.8301C38.29 71.5501 38.25 71.2901 38.17 71.0301Z" fill="#B1AABF"/>
<path d="M75.97 101.76C75.81 100.56 75.61 99.35 75.46 98.2C74.71 92.92 73.6 87.75 72.89 82.48C72.59 80.17 72.34 77.81 72.03 75.5C71.88 74.29 71.73 73.09 71.53 71.88C71.28 70.43 71.23 69.42 69.87 68.52C67.55 67.01 64.72 66.36 62.05 65.71C61.25 65.53 60.46 65.35 59.66 65.2C57.55 64.77 55.44 64.48 53.28 64.55C51.21 64.65 49.2 65.2 47.33 66.16C46.43 66.61 45.57 67.16 44.76 67.76C43.96 68.37 43 69.02 42.34 69.77C41.99 70.22 41.78 70.63 41.66 71.05C41.6 71.29 41.56 71.53 41.54 71.78C41.54 71.89 41.54 72 41.54 72.12C41.58 71.74 41.66 71.39 41.83 71.04C41.95 70.78 42.11 70.51 42.33 70.23C42.99 69.47 43.95 68.82 44.75 68.22C45.56 67.61 46.42 67.06 47.32 66.61C49.19 65.66 51.2 65.1 53.27 65C55.25 64.93 57.19 65.18 59.12 65.54C60.09 65.72 61.06 65.94 62.04 66.16C64.71 66.81 67.54 67.46 69.86 68.97C71.22 69.87 71.27 70.88 71.52 72.33C71.72 73.54 71.87 74.74 72.02 75.95C72.33 78.26 72.58 80.62 72.88 82.93C73.59 88.2 74.7 93.37 75.45 98.65C75.6 99.8 75.8 101.01 75.96 102.21C75.98 102.51 76.07 102.9 76.1 103.27C76.16 102.77 76 102.19 75.96 101.76H75.97ZM69.36 93.63L69.41 93.58C62.51 91.17 54.84 90.56 48.04 93.78C46.38 94.53 47.74 96.89 49.35 96.24C52.37 95.03 55.95 93.98 59.28 94.03C62.71 94.03 65.43 94.83 68.66 95.84C70.12 96.29 70.77 94.13 69.36 93.63ZM69.26 86.24C63.62 83.38 55.75 83.43 49.85 85.59C49.05 85.89 48.09 86.14 47.43 86.7L47.28 86.85C46.58 87.5 46.88 89.26 48.04 89.11C48.59 89.06 49.2 88.75 49.7 88.5C50.41 88.2 51.11 88.1 51.82 87.9C54.24 87.2 56.51 86.95 59.03 86.95C62.25 86.95 65.13 87.45 68.25 88.35C69.46 88.7 70.52 86.9 69.26 86.24ZM66.89 71.88C60.89 69.02 52.88 69.17 46.88 71.93C45.06 72.79 46.63 75.45 48.44 74.59V74.64C53.38 72.28 60.39 71.93 65.53 74.24C67.09 74.95 68.51 72.64 66.89 71.88ZM68 78.86C61.6 75.55 53.43 76.6 47.08 79.41C45.62 80.07 46.68 82.53 48.14 81.98V81.93C53.84 79.82 60.89 78.26 66.79 80.92C68.15 81.52 69.41 79.57 68 78.86Z" fill="#B1AABF"/>
</svg>
