<svg width="1280" height="32" viewBox="0 0 1280 32" fill="none" xmlns="http://www.w3.org/2000/svg">
<rect x="583.5" width="113" height="32" rx="16" fill="#0DF205"/>
<path d="M602.044 16.24H608.172V17.376H602.044V16.24ZM602.044 18.832H608.172V19.968H602.044V18.832ZM602.028 21.424H608.924V22.688H602.028V21.424ZM599.98 10.064H608.844V12.88H607.5V11.36H601.276V12.88H599.98V10.064ZM604.444 14.576H605.852V22.048H604.444V14.576ZM602.54 13.584H608.476V14.864H602.54V23.344H601.1V14.912L602.396 13.584H602.54ZM603.756 8.48L605.196 8.752C604.759 10.4267 604.14 11.9253 603.34 13.248C602.551 14.5707 601.596 15.6587 600.476 16.512C600.412 16.416 600.316 16.2987 600.188 16.16C600.06 16.0213 599.927 15.8827 599.788 15.744C599.649 15.5947 599.527 15.4773 599.42 15.392C600.497 14.6453 601.399 13.68 602.124 12.496C602.849 11.3013 603.393 9.96267 603.756 8.48ZM605.436 11.808L606.844 12.128C606.652 12.544 606.455 12.96 606.252 13.376C606.049 13.792 605.857 14.1547 605.676 14.464L604.54 14.144C604.7 13.824 604.865 13.44 605.036 12.992C605.217 12.544 605.351 12.1493 605.436 11.808ZM594.316 9.52H600.012V10.896H594.316V9.52ZM596.012 14.208H599.66V21.392H596.012V20.08H598.364V15.52H596.012V14.208ZM596.092 10.224L597.516 10.432C597.356 11.5733 597.148 12.6827 596.892 13.76C596.647 14.8267 596.337 15.8293 595.964 16.768C595.601 17.696 595.164 18.5173 594.652 19.232C594.599 19.1147 594.519 18.9653 594.412 18.784C594.316 18.592 594.215 18.4053 594.108 18.224C594.001 18.0427 593.9 17.8987 593.804 17.792C594.231 17.1947 594.588 16.496 594.876 15.696C595.175 14.896 595.42 14.032 595.612 13.104C595.815 12.1653 595.975 11.2053 596.092 10.224ZM595.404 14.208H596.636V22.656H595.404V14.208ZM619.476 9.68H620.852C620.767 10.3307 620.649 10.976 620.5 11.616C620.351 12.2453 620.132 12.8533 619.844 13.44C619.556 14.0267 619.172 14.5707 618.692 15.072C618.223 15.5627 617.631 15.9893 616.916 16.352C616.831 16.192 616.703 16.0053 616.532 15.792C616.361 15.5787 616.196 15.408 616.036 15.28C616.687 14.9813 617.22 14.624 617.636 14.208C618.052 13.7813 618.383 13.3227 618.628 12.832C618.873 12.3307 619.06 11.8133 619.188 11.28C619.316 10.7467 619.412 10.2133 619.476 9.68ZM616.612 12.16L617.332 11.12C617.876 11.2907 618.436 11.504 619.012 11.76C619.588 12.0053 620.137 12.2613 620.66 12.528C621.183 12.7947 621.62 13.0507 621.972 13.296L621.236 14.48C620.884 14.2133 620.447 13.936 619.924 13.648C619.412 13.36 618.868 13.088 618.292 12.832C617.716 12.5653 617.156 12.3413 616.612 12.16ZM623.188 9.152H624.612C624.612 9.152 624.612 9.18933 624.612 9.264C624.612 9.33867 624.612 9.424 624.612 9.52C624.612 9.60533 624.607 9.68 624.596 9.744C624.553 10.9813 624.5 11.9893 624.436 12.768C624.372 13.536 624.297 14.128 624.212 14.544C624.127 14.96 624.009 15.248 623.86 15.408C623.732 15.5787 623.588 15.7013 623.428 15.776C623.268 15.8507 623.076 15.904 622.852 15.936C622.66 15.9573 622.399 15.968 622.068 15.968C621.748 15.968 621.407 15.9627 621.044 15.952C621.033 15.7387 620.991 15.504 620.916 15.248C620.852 14.992 620.767 14.768 620.66 14.576C620.98 14.608 621.273 14.6293 621.54 14.64C621.817 14.64 622.02 14.64 622.148 14.64C622.372 14.6613 622.537 14.6027 622.644 14.464C622.74 14.368 622.82 14.144 622.884 13.792C622.948 13.44 623.007 12.912 623.06 12.208C623.113 11.4933 623.156 10.5547 623.188 9.392V9.152ZM618.388 17.712H619.796V21.424C619.796 21.6267 619.817 21.76 619.86 21.824C619.913 21.8773 620.036 21.904 620.228 21.904C620.271 21.904 620.345 21.904 620.452 21.904C620.569 21.904 620.692 21.904 620.82 21.904C620.948 21.904 621.071 21.904 621.188 21.904C621.305 21.904 621.391 21.904 621.444 21.904C621.572 21.904 621.668 21.8667 621.732 21.792C621.796 21.7067 621.844 21.5413 621.876 21.296C621.908 21.04 621.929 20.656 621.94 20.144C622.025 20.2187 622.143 20.2933 622.292 20.368C622.441 20.432 622.596 20.4907 622.756 20.544C622.916 20.5973 623.06 20.6453 623.188 20.688C623.145 21.36 623.065 21.8773 622.948 22.24C622.841 22.6133 622.676 22.8693 622.452 23.008C622.239 23.1573 621.956 23.232 621.604 23.232C621.529 23.232 621.417 23.232 621.268 23.232C621.129 23.232 620.975 23.232 620.804 23.232C620.644 23.232 620.489 23.232 620.34 23.232C620.201 23.232 620.095 23.232 620.02 23.232C619.583 23.232 619.241 23.1733 618.996 23.056C618.761 22.9493 618.601 22.7627 618.516 22.496C618.431 22.24 618.388 21.888 618.388 21.44V17.712ZM616.82 18.304L618.036 18.608C617.983 19.088 617.903 19.568 617.796 20.048C617.7 20.528 617.567 20.976 617.396 21.392C617.225 21.808 617.007 22.176 616.74 22.496L615.62 21.792C615.855 21.5147 616.052 21.1893 616.212 20.816C616.372 20.4427 616.5 20.0427 616.596 19.616C616.703 19.1787 616.777 18.7413 616.82 18.304ZM618.708 16.416L619.588 15.536C619.94 15.7067 620.297 15.9147 620.66 16.16C621.023 16.3947 621.364 16.64 621.684 16.896C622.004 17.1413 622.265 17.376 622.468 17.6L621.524 18.592C621.332 18.368 621.081 18.128 620.772 17.872C620.463 17.6053 620.127 17.344 619.764 17.088C619.412 16.832 619.06 16.608 618.708 16.416ZM622.34 18.48L623.572 17.968C623.86 18.3733 624.127 18.8053 624.372 19.264C624.617 19.7227 624.825 20.1813 624.996 20.64C625.177 21.088 625.3 21.4987 625.364 21.872L624.036 22.416C623.972 22.0533 623.855 21.6427 623.684 21.184C623.524 20.7253 623.327 20.2613 623.092 19.792C622.868 19.312 622.617 18.8747 622.34 18.48ZM616.772 9.152H623.828V10.432H616.772V9.152ZM610.98 13.36H615.588V14.528H610.98V13.36ZM611.044 9.024H615.54V10.208H611.044V9.024ZM610.98 15.52H615.588V16.688H610.98V15.52ZM610.26 11.152H616.02V12.368H610.26V11.152ZM611.636 17.712H615.604V22.464H611.636V21.248H614.308V18.928H611.636V17.712ZM610.948 17.712H612.212V23.152H610.948V17.712ZM630.988 14.72H641.132V16.08H630.988V14.72ZM631.516 11.44H640.62V12.784H631.516V11.44ZM635.116 12.08H636.636V14.56C636.636 15.0613 636.577 15.5947 636.46 16.16C636.353 16.7147 636.14 17.2747 635.82 17.84C635.5 18.3947 635.036 18.9333 634.428 19.456C633.831 19.9787 633.041 20.4587 632.06 20.896C631.996 20.7893 631.905 20.672 631.788 20.544C631.671 20.4053 631.548 20.2667 631.42 20.128C631.292 19.9893 631.169 19.8773 631.052 19.792C631.991 19.4293 632.732 19.0293 633.276 18.592C633.831 18.144 634.236 17.6853 634.492 17.216C634.759 16.736 634.929 16.272 635.004 15.824C635.079 15.3653 635.116 14.9387 635.116 14.544V12.08ZM636.94 15.648C637.26 16.6613 637.767 17.5093 638.46 18.192C639.164 18.8747 640.071 19.3653 641.18 19.664C641.063 19.7707 640.94 19.8987 640.812 20.048C640.695 20.1973 640.583 20.352 640.476 20.512C640.369 20.6613 640.279 20.8053 640.204 20.944C639.02 20.5387 638.06 19.9147 637.324 19.072C636.588 18.2293 636.033 17.1787 635.66 15.92L636.94 15.648ZM630.188 14.768V20.544H628.716V16.176H626.652V14.768H630.188ZM630.188 19.888C630.551 20.4427 631.052 20.8587 631.692 21.136C632.343 21.4027 633.111 21.552 633.996 21.584C634.455 21.6053 634.999 21.6213 635.628 21.632C636.257 21.632 636.924 21.6267 637.628 21.616C638.332 21.5947 639.015 21.5733 639.676 21.552C640.337 21.5307 640.919 21.4987 641.42 21.456C641.356 21.5733 641.292 21.728 641.228 21.92C641.164 22.1013 641.105 22.288 641.052 22.48C640.999 22.672 640.956 22.848 640.924 23.008C640.465 23.0293 639.932 23.0453 639.324 23.056C638.727 23.0667 638.103 23.072 637.452 23.072C636.812 23.0827 636.188 23.0827 635.58 23.072C634.972 23.072 634.439 23.0613 633.98 23.04C632.967 22.9973 632.097 22.832 631.372 22.544C630.657 22.2667 630.039 21.8133 629.516 21.184C629.153 21.5147 628.775 21.8453 628.38 22.176C627.996 22.5067 627.585 22.848 627.148 23.2L626.38 21.632C626.753 21.3973 627.153 21.1253 627.58 20.816C628.017 20.5067 628.428 20.1973 628.812 19.888H630.188ZM626.748 9.792L627.868 8.88C628.209 9.09333 628.556 9.344 628.908 9.632C629.271 9.92 629.601 10.2133 629.9 10.512C630.209 10.8107 630.455 11.088 630.636 11.344L629.436 12.336C629.265 12.08 629.031 11.8027 628.732 11.504C628.444 11.1947 628.124 10.8907 627.772 10.592C627.431 10.2933 627.089 10.0267 626.748 9.792ZM638.38 8.48L639.932 8.976C639.655 9.43467 639.361 9.89867 639.052 10.368C638.743 10.8373 638.455 11.232 638.188 11.552L636.956 11.12C637.116 10.8747 637.287 10.6027 637.468 10.304C637.649 9.99467 637.82 9.68 637.98 9.36C638.14 9.04 638.273 8.74667 638.38 8.48ZM632.06 9.056L633.34 8.528C633.649 8.912 633.937 9.33867 634.204 9.808C634.481 10.2773 634.673 10.688 634.78 11.04L633.42 11.648C633.324 11.2853 633.148 10.864 632.892 10.384C632.636 9.89333 632.359 9.45067 632.06 9.056ZM644.564 20.88H655.7V22.368H644.564V20.88ZM649.236 8.608H650.788V21.776H649.236V8.608ZM643.828 16.624H645.348V23.344H643.828V16.624ZM654.9 16.624H656.468V23.328H654.9V16.624ZM644.436 10.016H645.956V14.208H654.244V10H655.828V15.664H644.436V10.016Z" fill="black"/>
<path d="M674.692 20.8271V16.5001H665.577V15.5001H674.692V11.1731L682.288 16.0001L674.692 20.8271Z" fill="white"/>
</svg>
