<svg width="80" height="117" viewBox="0 0 80 117" fill="none" xmlns="http://www.w3.org/2000/svg">
<path d="M38.06 105.13V105.53C38.06 105.68 37.91 105.83 37.65 105.83C37.3 105.83 36.95 105.63 36.65 105.48C36.04 105.18 35.44 104.87 34.83 104.57C30.9 102.71 26.82 101.76 22.48 101.61C19.64 101.51 16.75 101.61 13.91 102.06C11.44 102.41 9.02002 102.97 6.65002 103.67C6.10002 103.87 5.44002 103.97 4.89002 104.27C4.54002 104.42 4.28002 104.62 3.93002 104.27C3.73002 104.02 3.69002 103.66 3.72002 103.28C3.75002 103.49 3.81002 103.67 3.93002 103.82C4.23002 104.17 4.54002 103.97 4.89002 103.82C5.44002 103.52 6.10002 103.42 6.65002 103.22C9.02002 102.51 11.44 101.96 13.91 101.61C16.78 101.16 19.71 101.06 22.58 101.16L22.48 101.21C26.82 101.36 30.9 102.31 34.83 104.17C35.44 104.47 36.04 104.77 36.65 105.08C36.95 105.23 37.3 105.43 37.65 105.43C37.91 105.43 38.06 105.28 38.06 105.13Z" fill="#B1AABF"/>
<path d="M10.74 86.2401C16.43 83.3801 24.25 83.4301 30.14 85.5901C30.95 85.8901 31.91 86.1401 32.56 86.7001H32.51L32.66 86.8501C33.37 87.5001 33.12 89.2601 31.91 89.1101C31.35 89.0101 30.75 88.7501 30.24 88.5001C29.54 88.2001 28.83 88.1001 28.13 87.9001C25.71 87.2001 23.44 86.9501 20.92 86.9501C17.74 87.0001 14.82 87.5001 11.74 88.3501C10.53 88.7001 9.48004 86.9001 10.74 86.2401Z" fill="#B1AABF"/>
<path d="M12 78.81C18.4 75.55 26.56 76.6 32.92 79.36V79.31C34.38 79.97 33.32 82.43 31.86 81.88C26.11 79.77 19.1 78.26 13.21 80.87C11.84 81.47 10.58 79.52 12 78.81Z" fill="#B1AABF"/>
<path d="M13.11 71.98C19.1 69.07 27.17 69.27 33.12 72.03V72.08C34.93 72.94 33.37 75.6 31.55 74.74C26.56 72.38 19.56 72.03 14.47 74.34C12.9 75.05 11.54 72.74 13.11 71.98Z" fill="#B1AABF"/>
<path d="M10.58 93.58C17.49 91.17 25.15 90.56 31.96 93.78L31.91 93.73C33.57 94.53 32.21 96.84 30.6 96.19C27.57 95.03 23.99 93.98 20.67 93.98C17.24 94.03 14.52 94.78 11.29 95.79C9.82999 96.24 9.16999 94.08 10.58 93.58Z" fill="#B1AABF"/>
<path d="M38.3101 72.2301C38.2901 72.7801 38.2701 73.3701 38.2401 74.0101C38.2501 73.3401 38.28 72.7201 38.3 72.1401C38.31 72.1701 38.3101 72.2001 38.3101 72.2301Z" fill="#B1AABF"/>
<path d="M41.55 72.1401C41.62 73.6501 41.67 75.4901 41.7 77.5201C41.65 75.5001 41.6 73.6901 41.54 72.2301C41.54 72.2001 41.54 72.1701 41.54 72.1401H41.55Z" fill="#B1AABF"/>
<path d="M75.92 104.27H76.02C75.71 104.67 75.41 104.47 75.06 104.27C74.5 104.02 73.9 103.87 73.29 103.67C70.92 102.92 68.51 102.41 66.03 102.06C63.16 101.66 60.29 101.51 57.36 101.61C53.03 101.76 48.9 102.71 45.01 104.57C44.41 104.87 43.8 105.18 43.2 105.48C42.9 105.63 42.54 105.83 42.19 105.83C41.94 105.83 41.84 105.68 41.79 105.53V105.08C41.84 105.23 41.94 105.38 42.19 105.38C42.54 105.38 42.9 105.18 43.2 105.02C43.8 104.72 44.41 104.42 45.01 104.12C48.95 102.26 53.03 101.31 57.36 101.16C60.29 101.06 63.16 101.21 66.04 101.61C68.51 101.96 70.92 102.46 73.29 103.22C73.9 103.42 74.5 103.57 75.06 103.82C75.41 104.02 75.71 104.22 76.02 103.82H75.92C76.03 103.67 76.09 103.49 76.11 103.3C76.14 103.66 76.11 104 75.92 104.27Z" fill="#B1AABF"/>
<path d="M68 78.86C69.41 79.57 68.15 81.52 66.79 80.92C60.89 78.26 53.84 79.82 48.14 81.93V81.98C46.68 82.53 45.62 80.07 47.08 79.41C53.43 76.6 61.6 75.55 68 78.86Z" fill="#B1AABF"/>
<path d="M46.88 71.93C52.88 69.17 60.89 69.02 66.89 71.88C68.51 72.64 67.09 74.95 65.53 74.24C60.39 71.93 53.38 72.28 48.44 74.64V74.59C46.63 75.45 45.06 72.79 46.88 71.93Z" fill="#B1AABF"/>
<path d="M69.26 86.2401C70.52 86.9001 69.46 88.7001 68.25 88.3501C65.13 87.4501 62.25 86.9501 59.03 86.9501C56.51 86.9501 54.24 87.2001 51.82 87.9001C51.11 88.1001 50.41 88.2001 49.7 88.5001C49.2 88.7501 48.59 89.0601 48.04 89.1101C46.88 89.2601 46.58 87.5001 47.28 86.8501L47.43 86.7001C48.09 86.1401 49.05 85.8901 49.85 85.5901C55.75 83.4301 63.62 83.3801 69.26 86.2401Z" fill="#B1AABF"/>
<path d="M69.4101 93.58L69.3601 93.63C70.7701 94.13 70.1201 96.29 68.6601 95.84C65.4301 94.83 62.71 94.03 59.28 94.03C55.95 93.98 52.37 95.03 49.35 96.24C47.74 96.89 46.3801 94.53 48.0401 93.78C54.8401 90.56 62.5101 91.17 69.4101 93.58Z" fill="#B1AABF"/>
<path d="M69.36 93.6299L69.41 93.5799C62.51 91.1699 54.84 90.5599 48.04 93.7799C46.38 94.5299 47.74 96.8899 49.35 96.2399C52.37 95.0299 55.95 93.9799 59.28 94.0299C62.71 94.0299 65.43 94.8299 68.66 95.8399C70.12 96.2899 70.77 94.1299 69.36 93.6299ZM69.26 86.2399C63.62 83.3799 55.75 83.4299 49.85 85.5899C49.05 85.8899 48.09 86.1399 47.43 86.6999L47.28 86.8499C46.58 87.4999 46.88 89.2599 48.04 89.1099C48.59 89.0599 49.2 88.7499 49.7 88.4999C50.41 88.1999 51.11 88.0999 51.82 87.8999C54.24 87.1999 56.51 86.9499 59.03 86.9499C62.25 86.9499 65.13 87.4499 68.25 88.3499C69.46 88.6999 70.52 86.8999 69.26 86.2399ZM66.89 71.8799C60.89 69.0199 52.88 69.1699 46.88 71.9299C45.06 72.7899 46.63 75.4499 48.44 74.5899V74.6399C53.38 72.2799 60.39 71.9299 65.53 74.2399C67.09 74.9499 68.51 72.6399 66.89 71.8799ZM68 78.8599C61.6 75.5499 53.43 76.5999 47.08 79.4099C45.62 80.0699 46.68 82.5299 48.14 81.9799V81.9299C53.84 79.8199 60.89 78.2599 66.79 80.9199C68.15 81.5199 69.41 79.5699 68 78.8599ZM69.36 93.6299L69.41 93.5799C62.51 91.1699 54.84 90.5599 48.04 93.7799C46.38 94.5299 47.74 96.8899 49.35 96.2399C52.37 95.0299 55.95 93.9799 59.28 94.0299C62.71 94.0299 65.43 94.8299 68.66 95.8399C70.12 96.2899 70.77 94.1299 69.36 93.6299ZM48.44 74.5899V74.6399C53.38 72.2799 60.39 71.9299 65.53 74.2399C67.09 74.9499 68.51 72.6399 66.89 71.8799C60.89 69.0199 52.88 69.1699 46.88 71.9299C45.06 72.7899 46.63 75.4499 48.44 74.5899ZM48.04 89.1099C48.59 89.0599 49.2 88.7499 49.7 88.4999C50.41 88.1999 51.11 88.0999 51.82 87.8999C54.24 87.1999 56.51 86.9499 59.03 86.9499C62.25 86.9499 65.13 87.4499 68.25 88.3499C69.46 88.6999 70.52 86.8999 69.26 86.2399C63.62 83.3799 55.75 83.4299 49.85 85.5899C49.05 85.8899 48.09 86.1399 47.43 86.6999L47.28 86.8499C46.58 87.4999 46.88 89.2599 48.04 89.1099ZM48.14 81.9799V81.9299C53.84 79.8199 60.89 78.2599 66.79 80.9199C68.15 81.5199 69.41 79.5699 68 78.8599C61.6 75.5499 53.43 76.5999 47.08 79.4099C45.62 80.0699 46.68 82.5299 48.14 81.9799ZM69.36 93.6299L69.41 93.5799C62.51 91.1699 54.84 90.5599 48.04 93.7799C46.38 94.5299 47.74 96.8899 49.35 96.2399C52.37 95.0299 55.95 93.9799 59.28 94.0299C62.71 94.0299 65.43 94.8299 68.66 95.8399C70.12 96.2899 70.77 94.1299 69.36 93.6299ZM48.44 74.5899V74.6399C53.38 72.2799 60.39 71.9299 65.53 74.2399C67.09 74.9499 68.51 72.6399 66.89 71.8799C60.89 69.0199 52.88 69.1699 46.88 71.9299C45.06 72.7899 46.63 75.4499 48.44 74.5899ZM49.85 85.5899C49.05 85.8899 48.09 86.1399 47.43 86.6999L47.28 86.8499C46.58 87.4999 46.88 89.2599 48.04 89.1099C48.59 89.0599 49.2 88.7499 49.7 88.4999C50.41 88.1999 51.11 88.0999 51.82 87.8999C54.24 87.1999 56.51 86.9499 59.03 86.9499C62.25 86.9499 65.13 87.4499 68.25 88.3499C69.46 88.6999 70.52 86.8999 69.26 86.2399C63.62 83.3799 55.75 83.4299 49.85 85.5899ZM47.08 79.4099C45.62 80.0699 46.68 82.5299 48.14 81.9799V81.9299C53.84 79.8199 60.89 78.2599 66.79 80.9199C68.15 81.5199 69.41 79.5699 68 78.8599C61.6 75.5499 53.43 76.5999 47.08 79.4099ZM31.91 93.7299L31.96 93.7799C25.15 90.5599 17.49 91.1699 10.58 93.5799C9.17 94.0799 9.83 96.2399 11.29 95.7899C14.52 94.7799 17.24 94.0299 20.67 93.9799C23.99 93.9799 27.57 95.0299 30.6 96.1899C32.21 96.8399 33.57 94.5299 31.91 93.7299ZM33.12 72.0799V72.0299C27.17 69.2699 19.1 69.0699 13.11 71.9799C11.54 72.7399 12.9 75.0499 14.47 74.3399C19.56 72.0299 26.56 72.3799 31.55 74.7399C33.37 75.5999 34.93 72.9399 33.12 72.0799ZM32.92 79.3099V79.3599C26.56 76.5999 18.4 75.5499 12 78.8099C10.58 79.5199 11.84 81.4699 13.21 80.8699C19.1 78.2599 26.11 79.7699 31.86 81.8799C33.32 82.4299 34.38 79.9699 32.92 79.3099ZM32.51 86.6999H32.56C31.91 86.1399 30.95 85.8899 30.14 85.5899C24.25 83.4299 16.43 83.3799 10.74 86.2399C9.48 86.8999 10.53 88.6999 11.74 88.3499C14.82 87.4999 17.74 86.9999 20.92 86.9499C23.44 86.9499 25.71 87.1999 28.13 87.8999C28.83 88.0999 29.54 88.1999 30.24 88.4999C30.75 88.7499 31.35 89.0099 31.91 89.1099C33.12 89.2599 33.37 87.4999 32.66 86.8499L32.51 86.6999ZM79.7 109.39H79.54C79.54 108.49 80 106.08 80 105.58C80 99.4499 76.07 79.3099 75.46 74.3899V74.0899C75.21 72.1799 75.11 69.8699 74.4 68.0699C73.7 66.2099 71.38 65.6099 69.66 64.9499C67.49 64.1399 65.24 63.3499 62.94 62.7399C61.9 63.6199 60.81 64.4499 59.66 65.1999C57.55 64.7699 55.44 64.4799 53.28 64.5499C51.21 64.6499 49.2 65.1999 47.33 66.1599C46.43 66.6099 45.57 67.1599 44.76 67.7599C43.96 68.3699 43 69.0199 42.34 69.7699C41.99 70.2199 41.78 70.6299 41.66 71.0499C41.15 71.0699 40.64 71.0799 40.12 71.0799C39.47 71.0799 38.82 71.0599 38.17 71.0299C38.05 70.6399 37.84 70.2499 37.5 69.8199C36.9 69.0699 35.89 68.4199 35.08 67.8099C34.28 67.1599 33.42 66.6099 32.51 66.1599C30.7 65.1999 28.63 64.6499 26.56 64.5499C24.46 64.4499 22.43 64.6999 20.42 65.1199C19.3 64.3799 18.24 63.5699 17.22 62.6899C14.85 63.3099 12.52 64.1099 10.28 64.9499C8.62 65.6099 6.25 66.2599 5.54 68.0699C4.84 69.8699 4.74 72.1799 4.54 74.0899V74.3899C3.93 79.3099 0.05 99.4499 0 105.58C0 106.08 0.4 108.49 0.45 109.39C0.5 110.65 0.35 111.95 0.45 113.21C0.35 113.66 0.45 114.06 0.7 114.37C0.86 114.72 1.16 114.92 1.46 115.02C2.12 115.77 3.38 115.27 4.13 115.02C11.29 112.71 19.2 112.81 26.56 113.76C27.87 113.91 29.19 114.16 30.5 114.42C31.86 114.67 33.12 115.17 34.43 115.62C35.49 116.02 36.6 116.32 37.76 116.52C38.56 116.73 39.37 116.78 39.72 116.78H40.43C40.78 116.78 41.59 116.73 42.39 116.52C43.5 116.32 44.61 116.02 45.72 115.62C47.03 115.17 48.29 114.67 49.65 114.42C50.96 114.16 52.27 113.96 53.58 113.76C60.99 112.81 68.86 112.71 76.02 115.02C76.82 115.27 78.03 115.77 78.69 115.02C78.99 114.92 79.24 114.72 79.44 114.37C79.7 114.01 79.85 113.61 79.7 113.21C79.7 111.95 79.6 110.65 79.7 109.39ZM38.22 74.6899C38.21 75.0199 38.2 75.3699 38.19 75.7199C38.18 75.9599 38.17 76.2099 38.17 76.4599C38.17 76.9099 38.15 77.3799 38.14 77.8599C38.13 78.0899 38.13 78.3399 38.13 78.5799C38.12 78.9899 38.11 79.4099 38.11 79.8399C38.09 80.4199 38.09 81.0199 38.08 81.6199C38.07 81.8799 38.07 82.1399 38.07 82.4099C38.06 82.6699 38.06 82.9299 38.06 83.1999C37.97 90.3999 37.98 98.2999 38.01 102.26C38.02 102.61 38.02 102.92 38.02 103.2C38.03 103.38 38.03 103.54 38.03 103.69C38.04 104.43 38.05 104.93 38.06 105.13C38.06 105.28 37.91 105.43 37.65 105.43C37.3 105.43 36.95 105.23 36.65 105.08C36.04 104.77 35.44 104.47 34.83 104.17C30.9 102.31 26.82 101.36 22.48 101.21L22.58 101.16C19.71 101.06 16.78 101.16 13.91 101.61C11.44 101.96 9.02 102.51 6.65 103.22C6.1 103.42 5.44 103.52 4.89 103.82C4.54 103.97 4.23 104.17 3.93 103.82C3.81 103.67 3.75 103.49 3.72 103.28V103.25C3.75 102.88 3.83 102.51 3.88 102.21C4.03 101.01 4.18 99.8499 4.38 98.6499C5.19 93.3699 6.25 88.1999 6.95 82.9299C7.26 80.6199 7.51 78.2599 7.81 75.8999C7.96 74.6899 8.11 73.4899 8.32 72.2799C8.57 70.8299 8.62 69.7699 9.98 68.9199C12.3 67.4099 15.12 66.7599 17.79 66.1099C18.82 65.8599 19.84 65.6199 20.87 65.4299H20.88C22.74 65.0699 24.62 64.8499 26.56 64.9499C28.63 65.0499 30.7 65.6099 32.51 66.5599C33.42 67.0099 34.28 67.5599 35.08 68.2199C35.89 68.8199 36.9 69.4699 37.5 70.2299C37.72 70.4999 37.88 70.7599 38 71.0199C38.18 71.3799 38.27 71.7399 38.3 72.1299C38.28 72.7199 38.25 73.3399 38.24 74.0099C38.24 74.2299 38.24 74.4599 38.22 74.6899ZM41.7 77.5199C41.67 75.4899 41.62 73.6499 41.55 72.1399V72.1199C41.59 71.7399 41.67 71.3899 41.84 71.0399C41.96 70.7799 42.12 70.5099 42.34 70.2299C43 69.4699 43.96 68.8199 44.76 68.2199C45.57 67.6099 46.43 67.0599 47.33 66.6099C49.2 65.6599 51.21 65.0999 53.28 64.9999C55.26 64.9299 57.2 65.1799 59.13 65.5399C60.1 65.7199 61.07 65.9399 62.05 66.1599C64.72 66.8099 67.55 67.4599 69.87 68.9699C71.23 69.8699 71.28 70.8799 71.53 72.3299C71.73 73.5399 71.88 74.7399 72.03 75.9499C72.34 78.2599 72.59 80.6199 72.89 82.9299C73.6 88.1999 74.71 93.3699 75.46 98.6499C75.61 99.7999 75.81 101.01 75.97 102.21C75.99 102.51 76.08 102.9 76.11 103.27V103.29C76.09 103.49 76.03 103.67 75.92 103.82H76.02C75.71 104.22 75.41 104.02 75.06 103.82C74.5 103.57 73.9 103.42 73.29 103.22C70.92 102.46 68.51 101.96 66.04 101.61C63.16 101.21 60.29 101.06 57.36 101.16C53.03 101.31 48.95 102.26 45.01 104.12C44.41 104.42 43.8 104.72 43.2 105.02C42.9 105.18 42.54 105.38 42.19 105.38C41.94 105.38 41.84 105.23 41.79 105.08V104.67C41.79 104.53 41.79 104.23 41.79 103.79C41.8 103.43 41.8 103 41.8 102.52C41.81 102.01 41.81 101.44 41.81 100.8C41.84 96.6699 41.84 89.9399 41.78 83.6599C41.76 81.8499 41.74 80.0699 41.71 78.3999C41.7 78.0999 41.7 77.8099 41.69 77.5199H41.7ZM68 78.8599C61.6 75.5499 53.43 76.5999 47.08 79.4099C45.62 80.0699 46.68 82.5299 48.14 81.9799V81.9299C53.84 79.8199 60.89 78.2599 66.79 80.9199C68.15 81.5199 69.41 79.5699 68 78.8599ZM69.26 86.2399C63.62 83.3799 55.75 83.4299 49.85 85.5899C49.05 85.8899 48.09 86.1399 47.43 86.6999L47.28 86.8499C46.58 87.4999 46.88 89.2599 48.04 89.1099C48.59 89.0599 49.2 88.7499 49.7 88.4999C50.41 88.1999 51.11 88.0999 51.82 87.8999C54.24 87.1999 56.51 86.9499 59.03 86.9499C62.25 86.9499 65.13 87.4499 68.25 88.3499C69.46 88.6999 70.52 86.8999 69.26 86.2399ZM66.89 71.8799C60.89 69.0199 52.88 69.1699 46.88 71.9299C45.06 72.7899 46.63 75.4499 48.44 74.5899V74.6399C53.38 72.2799 60.39 71.9299 65.53 74.2399C67.09 74.9499 68.51 72.6399 66.89 71.8799ZM69.36 93.6299L69.41 93.5799C62.51 91.1699 54.84 90.5599 48.04 93.7799C46.38 94.5299 47.74 96.8899 49.35 96.2399C52.37 95.0299 55.95 93.9799 59.28 94.0299C62.71 94.0299 65.43 94.8299 68.66 95.8399C70.12 96.2899 70.77 94.1299 69.36 93.6299ZM68 78.8599C61.6 75.5499 53.43 76.5999 47.08 79.4099C45.62 80.0699 46.68 82.5299 48.14 81.9799V81.9299C53.84 79.8199 60.89 78.2599 66.79 80.9199C68.15 81.5199 69.41 79.5699 68 78.8599ZM69.26 86.2399C63.62 83.3799 55.75 83.4299 49.85 85.5899C49.05 85.8899 48.09 86.1399 47.43 86.6999L47.28 86.8499C46.58 87.4999 46.88 89.2599 48.04 89.1099C48.59 89.0599 49.2 88.7499 49.7 88.4999C50.41 88.1999 51.11 88.0999 51.82 87.8999C54.24 87.1999 56.51 86.9499 59.03 86.9499C62.25 86.9499 65.13 87.4499 68.25 88.3499C69.46 88.6999 70.52 86.8999 69.26 86.2399ZM66.89 71.8799C60.89 69.0199 52.88 69.1699 46.88 71.9299C45.06 72.7899 46.63 75.4499 48.44 74.5899V74.6399C53.38 72.2799 60.39 71.9299 65.53 74.2399C67.09 74.9499 68.51 72.6399 66.89 71.8799ZM69.36 93.6299L69.41 93.5799C62.51 91.1699 54.84 90.5599 48.04 93.7799C46.38 94.5299 47.74 96.8899 49.35 96.2399C52.37 95.0299 55.95 93.9799 59.28 94.0299C62.71 94.0299 65.43 94.8299 68.66 95.8399C70.12 96.2899 70.77 94.1299 69.36 93.6299Z" fill="#B1AABF"/>
<path d="M29.39 63.4501C29.08 63.3501 28.78 63.1901 28.53 63.0901H28.48C27.35 62.6201 26.27 62.0901 25.22 61.4801C26.18 61.4501 27.15 61.4801 28.11 61.5801C28.51 62.2401 28.94 62.8601 29.39 63.4501Z" fill="#B1AABF"/>
<path d="M54.8 61.46C53.74 62.08 52.65 62.62 51.52 63.09C51.21 63.19 50.96 63.35 50.66 63.45C51.11 62.85 51.55 62.22 51.96 61.55C52.9 61.46 53.85 61.43 54.8 61.46Z" fill="#B1AABF"/>
<path d="M38.17 71.0301C38.05 70.6401 37.84 70.2501 37.5 69.8201C36.9 69.0701 35.89 68.4201 35.08 67.8101C34.28 67.1601 33.42 66.6101 32.51 66.1601C30.7 65.2001 28.63 64.6501 26.56 64.5501C24.46 64.4501 22.43 64.7001 20.42 65.1201C19.54 65.2901 18.67 65.4901 17.79 65.7101C15.12 66.3601 12.3 67.0101 9.97997 68.5201C8.61997 69.3701 8.56997 70.4301 8.31997 71.8801C8.10997 73.0901 7.95997 74.2901 7.80997 75.5001C7.50997 77.8101 7.25997 80.1701 6.94997 82.4801C6.24997 87.7501 5.18997 92.9201 4.37997 98.2001C4.17997 99.4001 4.02997 100.56 3.87997 101.76C3.80997 102.17 3.66997 102.76 3.71997 103.25C3.74997 102.88 3.82997 102.51 3.87997 102.21C4.02997 101.01 4.17997 99.8501 4.37997 98.6501C5.18997 93.3701 6.24997 88.2001 6.94997 82.9301C7.25997 80.6201 7.50997 78.2601 7.80997 75.9001C7.95997 74.6901 8.10997 73.4901 8.31997 72.2801C8.56997 70.8301 8.61997 69.7701 9.97997 68.9201C12.3 67.4101 15.12 66.7601 17.79 66.1101C18.82 65.8601 19.84 65.6201 20.87 65.4301H20.88C22.74 65.0701 24.62 64.8501 26.56 64.9501C28.63 65.0501 30.7 65.6101 32.51 66.5601C33.42 67.0101 34.28 67.5601 35.08 68.2201C35.89 68.8201 36.9 69.4701 37.5 70.2301C37.72 70.5001 37.88 70.7601 38 71.0201C38.18 71.3801 38.27 71.7401 38.3 72.1301C38.3 72.0301 38.31 71.9301 38.31 71.8301C38.29 71.5501 38.25 71.2901 38.17 71.0301ZM38.06 105.13V104.72C38.05 104.56 38.04 104.21 38.03 103.69C38.04 104.43 38.05 104.93 38.06 105.13ZM31.91 93.7301L31.96 93.7801C25.15 90.5601 17.49 91.1701 10.58 93.5801C9.16997 94.0801 9.82997 96.2401 11.29 95.7901C14.52 94.7801 17.24 94.0301 20.67 93.9801C23.99 93.9801 27.57 95.0301 30.6 96.1901C32.21 96.8401 33.57 94.5301 31.91 93.7301ZM33.12 72.0801V72.0301C27.17 69.2701 19.1 69.0701 13.11 71.9801C11.54 72.7401 12.9 75.0501 14.47 74.3401C19.56 72.0301 26.56 72.3801 31.55 74.7401C33.37 75.6001 34.93 72.9401 33.12 72.0801ZM32.92 79.3101V79.3601C26.56 76.6001 18.4 75.5501 12 78.8101C10.58 79.5201 11.84 81.4701 13.21 80.8701C19.1 78.2601 26.11 79.7701 31.86 81.8801C33.32 82.4301 34.38 79.9701 32.92 79.3101ZM32.51 86.7001H32.56C31.91 86.1401 30.95 85.8901 30.14 85.5901C24.25 83.4301 16.43 83.3801 10.74 86.2401C9.47997 86.9001 10.53 88.7001 11.74 88.3501C14.82 87.5001 17.74 87.0001 20.92 86.9501C23.44 86.9501 25.71 87.2001 28.13 87.9001C28.83 88.1001 29.54 88.2001 30.24 88.5001C30.75 88.7501 31.35 89.0101 31.91 89.1101C33.12 89.2601 33.37 87.5001 32.66 86.8501L32.51 86.7001Z" fill="#B1AABF"/>
<path d="M75.97 101.76C75.81 100.56 75.61 99.35 75.46 98.2C74.71 92.92 73.6 87.75 72.89 82.48C72.59 80.17 72.34 77.81 72.03 75.5C71.88 74.29 71.73 73.09 71.53 71.88C71.28 70.43 71.23 69.42 69.87 68.52C67.55 67.01 64.72 66.36 62.05 65.71C61.25 65.53 60.46 65.35 59.66 65.2C57.55 64.77 55.44 64.48 53.28 64.55C51.21 64.65 49.2 65.2 47.33 66.16C46.43 66.61 45.57 67.16 44.76 67.76C43.96 68.37 43 69.02 42.34 69.77C41.99 70.22 41.78 70.63 41.66 71.05C41.6 71.29 41.56 71.53 41.54 71.78C41.54 71.89 41.54 72 41.54 72.12C41.58 71.74 41.66 71.39 41.83 71.04C41.95 70.78 42.11 70.51 42.33 70.23C42.99 69.47 43.95 68.82 44.75 68.22C45.56 67.61 46.42 67.06 47.32 66.61C49.19 65.66 51.2 65.1 53.27 65C55.25 64.93 57.19 65.18 59.12 65.54C60.09 65.72 61.06 65.94 62.04 66.16C64.71 66.81 67.54 67.46 69.86 68.97C71.22 69.87 71.27 70.88 71.52 72.33C71.72 73.54 71.87 74.74 72.02 75.95C72.33 78.26 72.58 80.62 72.88 82.93C73.59 88.2 74.7 93.37 75.45 98.65C75.6 99.8 75.8 101.01 75.96 102.21C75.98 102.51 76.07 102.9 76.1 103.27C76.16 102.77 76 102.19 75.96 101.76H75.97ZM69.36 93.63L69.41 93.58C62.51 91.17 54.84 90.56 48.04 93.78C46.38 94.53 47.74 96.89 49.35 96.24C52.37 95.03 55.95 93.98 59.28 94.03C62.71 94.03 65.43 94.83 68.66 95.84C70.12 96.29 70.77 94.13 69.36 93.63ZM48.04 89.11C48.59 89.06 49.2 88.75 49.7 88.5C50.41 88.2 51.11 88.1 51.82 87.9C54.24 87.2 56.51 86.95 59.03 86.95C62.25 86.95 65.13 87.45 68.25 88.35C69.46 88.7 70.52 86.9 69.26 86.24C63.62 83.38 55.75 83.43 49.85 85.59C49.05 85.89 48.09 86.14 47.43 86.7L47.28 86.85C46.58 87.5 46.88 89.26 48.04 89.11ZM65.53 74.24C67.09 74.95 68.51 72.64 66.89 71.88C60.89 69.02 52.88 69.17 46.88 71.93C45.06 72.79 46.63 75.45 48.44 74.59V74.64C53.38 72.28 60.39 71.93 65.53 74.24ZM48.14 81.98V81.93C53.84 79.82 60.89 78.26 66.79 80.92C68.15 81.52 69.41 79.57 68 78.86C61.6 75.55 53.43 76.6 47.08 79.41C45.62 80.07 46.68 82.53 48.14 81.98Z" fill="#B1AABF"/>
<path d="M67.04 13.3301L66.99 13.2801C66.89 13.1801 66.84 13.0801 66.74 12.9801C66.74 12.9801 66.69 12.9301 66.64 12.8801L66.34 12.5301C66.34 12.5301 66.09 12.2801 65.98 12.1201C65.73 11.8701 65.48 11.5701 65.23 11.3201L64.88 10.9201C64.88 10.9201 64.62 10.6701 64.52 10.5701L64.42 10.4701C64.32 10.3701 64.27 10.3201 64.17 10.2701C64.17 10.2701 64.12 10.2701 64.07 10.1701C57.77 4.34008 49.35 0.830078 40.12 0.830078C30.89 0.830078 22.43 4.39008 16.18 10.1701C16.18 10.1701 16.13 10.1701 16.08 10.2701C15.98 10.3201 15.93 10.4201 15.83 10.5201C15.83 10.5201 15.73 10.6201 15.68 10.6201C15.57 10.7201 15.42 10.8701 15.32 10.9701L14.97 11.3701C14.72 11.6201 14.47 11.9201 14.21 12.1701C14.21 12.1701 13.96 12.4301 13.86 12.5801C13.86 12.5801 13.66 12.8301 13.56 12.9801L13.46 13.0801C13.36 13.1801 13.31 13.2801 13.21 13.3801L13.16 13.4301C8.01002 19.5601 4.89001 27.3901 4.89001 36.0301C4.89001 44.6701 8.01002 52.5001 13.16 58.6301L13.21 58.6801L13.46 58.9801L13.56 59.0801L13.86 59.4301C13.96 59.5801 14.11 59.6801 14.21 59.8301C14.47 60.0801 14.72 60.3801 14.97 60.6301C14.97 60.6301 15.22 60.8801 15.32 60.9901C15.57 61.2901 15.83 61.5401 16.13 61.7401C16.49 62.0701 16.85 62.3901 17.22 62.6901C19.85 62.0001 22.54 61.5401 25.22 61.4801C23.36 60.4201 21.62 59.1501 20.01 57.6701C21.47 56.4201 23.04 55.3601 24.7 54.4101C25.66 57.0801 26.79 59.4901 28.11 61.5801C29.55 61.7201 30.99 62.0001 32.41 62.4401C35.29 63.3501 37.91 64.9501 39.97 67.5101C42.09 64.9501 44.66 63.3501 47.53 62.4401C48.99 61.9701 50.47 61.6901 51.96 61.5501C53.27 59.4701 54.38 57.0701 55.3 54.4101C56.96 55.3601 58.52 56.4701 59.99 57.6701C58.41 59.1101 56.67 60.3901 54.8 61.4601C57.53 61.5301 60.27 62.0201 62.94 62.7401C63.32 62.4201 63.7 62.0801 64.07 61.7401C64.32 61.4901 64.62 61.2401 64.88 60.9901C64.88 60.9901 65.13 60.7301 65.23 60.5801C65.48 60.3301 65.73 60.0301 65.98 59.7801C65.98 59.7801 66.24 59.5301 66.34 59.3801C66.44 59.2801 66.54 59.1301 66.64 59.0301C66.64 59.0301 66.69 58.9801 66.74 58.9301C66.84 58.8301 66.89 58.7301 66.99 58.6301V58.5701L67.04 58.5201C72.18 52.4001 75.31 44.5101 75.31 35.9301C75.31 27.3501 72.18 19.4601 67.04 13.3301ZM35.59 8.16008C36.29 7.61008 37.05 7.15008 37.76 6.85008V21.4101C34.65 21.2001 31.59 20.5001 28.68 19.3601C29.34 17.4501 30.09 15.6401 30.95 14.0301C32.31 11.4701 33.92 9.46008 35.59 8.16008ZM37.76 25.7801V33.7201H26.16C26.31 30.2501 26.72 26.8901 27.42 23.6701V23.5701C30.7 24.7801 34.13 25.5801 37.76 25.7801ZM16.99 54.4601C13.22 49.8001 10.9 44.0901 10.48 38.1401H21.78C21.93 42.4101 22.48 46.4201 23.39 50.0901C21.07 51.2901 18.95 52.8001 16.99 54.4601ZM21.78 33.6701H10.48C10.74 30.4501 11.49 27.3401 12.75 24.3801L12.7 24.4301C13.81 21.8701 15.22 19.5101 16.99 17.3501C18.95 19.0501 21.12 20.5101 23.39 21.7201C22.48 25.3801 21.93 29.4501 21.78 33.6701ZM24.65 17.4501C22.99 16.4901 21.42 15.3901 19.96 14.1801C22.48 11.8701 25.3 10.0701 28.43 8.76008H28.48C28.78 8.66008 29.03 8.51008 29.34 8.41008C27.47 10.8701 25.91 13.9301 24.65 17.4501ZM37.81 65.0001C37.1 64.7001 36.34 64.3001 35.64 63.7001C33.97 62.3901 32.36 60.3301 31 57.8201C30.14 56.2101 29.39 54.4101 28.73 52.5001C31.64 51.3501 34.7 50.7001 37.81 50.4401V65.0001ZM37.81 46.0701C34.18 46.2701 30.75 47.0801 27.47 48.2801V48.1801C26.72 44.9701 26.31 41.6501 26.16 38.1401H37.81V46.0701ZM69.51 33.7201H58.22C58.07 29.4501 57.52 25.4301 56.61 21.7701C58.93 20.5601 61.04 19.0501 63.01 17.4001C66.78 22.0601 69.05 27.7601 69.51 33.7201ZM42.19 6.85008C42.9 7.15008 43.65 7.56008 44.36 8.16008C46.02 9.46008 47.64 11.5201 49 14.0301H49.05C49.9 15.6401 50.66 17.4501 51.32 19.3601C48.39 20.5101 45.32 21.2101 42.19 21.4101V6.85008ZM49.1 57.8201C47.74 60.3801 46.12 62.3901 44.46 63.7001H44.41C43.7 64.2501 42.95 64.7001 42.24 65.0001V50.4401C45.37 50.6401 48.44 51.3401 51.37 52.5001C50.71 54.4101 49.95 56.2101 49.1 57.8201ZM52.53 48.1301V48.2301C49.2 46.9701 45.72 46.2201 42.19 46.0201V38.0901H53.79C53.68 41.5501 53.23 44.9201 52.53 48.1301ZM42.19 33.7201V25.7801C45.82 25.5801 49.25 24.7801 52.53 23.5701V23.6701C53.28 26.8901 53.68 30.2001 53.84 33.7201H42.19ZM50.66 8.41008C50.96 8.51008 51.26 8.66008 51.52 8.76008C54.64 10.0701 57.47 11.8701 59.99 14.1801C58.52 15.4401 56.96 16.4901 55.3 17.4501C54.04 13.9301 52.47 10.8701 50.66 8.41008ZM67.3 47.4301C66.19 49.9901 64.77 52.3501 63.01 54.5101C61.04 52.8001 58.88 51.3401 56.61 50.1401C57.52 46.4701 58.07 42.4101 58.22 38.1901H69.51C69.26 41.4001 68.51 44.5101 67.24 47.4801L67.3 47.4301Z" fill="#B1AABF"/>
<path d="M62.94 62.74C61.9 63.62 60.81 64.45 59.66 65.2C57.55 64.77 55.44 64.48 53.28 64.55C51.21 64.65 49.2 65.2 47.33 66.16C46.43 66.61 45.57 67.16 44.76 67.76C43.96 68.37 43 69.02 42.34 69.77C41.99 70.22 41.78 70.63 41.66 71.05C41.15 71.07 40.64 71.08 40.12 71.08C39.47 71.08 38.82 71.06 38.17 71.03C38.05 70.64 37.84 70.25 37.5 69.82C36.9 69.07 35.89 68.42 35.08 67.81C34.28 67.16 33.42 66.61 32.51 66.16C30.7 65.2 28.63 64.65 26.56 64.55C24.46 64.45 22.43 64.7 20.42 65.12C19.3 64.38 18.24 63.57 17.22 62.69C19.85 62 22.54 61.54 25.22 61.48C26.27 62.09 27.35 62.62 28.48 63.09H28.53C28.78 63.19 29.08 63.35 29.39 63.45C28.94 62.86 28.51 62.24 28.11 61.58C29.55 61.72 30.99 62 32.41 62.44C35.29 63.35 37.91 64.95 39.97 67.51C42.09 64.95 44.66 63.35 47.53 62.44C48.99 61.97 50.47 61.69 51.96 61.55C51.55 62.22 51.11 62.85 50.66 63.45C50.96 63.35 51.21 63.19 51.52 63.09C52.65 62.62 53.74 62.08 54.8 61.46C57.53 61.53 60.27 62.02 62.94 62.74Z" fill="#B1AABF"/>
<path d="M38.17 71.0301C38.11 71.0201 38.06 71.0201 38 71.0201C37.88 70.7601 37.72 70.5001 37.5 70.2301C36.9 69.4701 35.89 68.8201 35.08 68.2201C34.28 67.5601 33.42 67.0101 32.51 66.5601C30.7 65.6101 28.63 65.0501 26.56 64.9501C24.62 64.8501 22.74 65.0701 20.88 65.4301H20.87C20.71 65.3301 20.57 65.2301 20.42 65.1201C22.43 64.7001 24.46 64.4501 26.56 64.5501C28.63 64.6501 30.7 65.2001 32.51 66.1601C33.42 66.6101 34.28 67.1601 35.08 67.8101C35.89 68.4201 36.9 69.0701 37.5 69.8201C37.84 70.2501 38.05 70.6401 38.17 71.0301Z" fill="#B1AABF"/>
<path d="M29.39 63.4501C29.08 63.3501 28.78 63.1901 28.53 63.0901H28.48C27.35 62.6201 26.27 62.0901 25.22 61.4801C26.18 61.4501 27.15 61.4801 28.11 61.5801C28.51 62.2401 28.94 62.8601 29.39 63.4501Z" fill="#B1AABF"/>
<path d="M59.66 65.2C59.49 65.32 59.31 65.44 59.13 65.54C57.2 65.18 55.26 64.93 53.28 65C51.21 65.1 49.2 65.66 47.33 66.61C46.43 67.06 45.57 67.61 44.76 68.22C43.96 68.82 43 69.47 42.34 70.23C42.12 70.51 41.96 70.78 41.84 71.04C41.78 71.04 41.72 71.04 41.66 71.05C41.78 70.63 41.99 70.22 42.34 69.77C43 69.02 43.96 68.37 44.76 67.76C45.57 67.16 46.43 66.61 47.33 66.16C49.2 65.2 51.21 64.65 53.28 64.55C55.44 64.48 57.55 64.77 59.66 65.2Z" fill="#B1AABF"/>
<path d="M54.8 61.46C53.74 62.08 52.65 62.62 51.52 63.09C51.21 63.19 50.96 63.35 50.66 63.45C51.11 62.85 51.55 62.22 51.96 61.55C52.9 61.46 53.85 61.43 54.8 61.46Z" fill="#B1AABF"/>
<path d="M29.39 63.4501C29.08 63.3501 28.78 63.1901 28.53 63.0901H28.48C27.35 62.6201 26.27 62.0901 25.22 61.4801C26.18 61.4501 27.15 61.4801 28.11 61.5801C28.51 62.2401 28.94 62.8601 29.39 63.4501Z" fill="#B1AABF"/>
<path d="M54.8 61.46C53.74 62.08 52.65 62.62 51.52 63.09C51.21 63.19 50.96 63.35 50.66 63.45C51.11 62.85 51.55 62.22 51.96 61.55C52.9 61.46 53.85 61.43 54.8 61.46Z" fill="#B1AABF"/>
<path d="M31.55 74.74C26.56 72.38 19.56 72.03 14.47 74.34C12.9 75.05 11.54 72.74 13.11 71.98C19.1 69.07 27.17 69.27 33.12 72.03V72.08C34.93 72.94 33.37 75.6 31.55 74.74Z" fill="#B1AABF"/>
<path d="M31.86 81.88C26.11 79.77 19.1 78.26 13.21 80.87C11.84 81.47 10.58 79.52 12 78.81C18.4 75.55 26.56 76.6 32.92 79.36V79.31C34.38 79.97 33.32 82.43 31.86 81.88Z" fill="#B1AABF"/>
<path d="M31.91 89.1101C31.35 89.0101 30.75 88.7501 30.24 88.5001C29.54 88.2001 28.83 88.1001 28.13 87.9001C25.71 87.2001 23.44 86.9501 20.92 86.9501C17.74 87.0001 14.82 87.5001 11.74 88.3501C10.53 88.7001 9.47998 86.9001 10.74 86.2401C16.43 83.3801 24.25 83.4301 30.14 85.5901C30.95 85.8901 31.91 86.1401 32.56 86.7001H32.51L32.66 86.8501C33.37 87.5001 33.12 89.2601 31.91 89.1101Z" fill="#B1AABF"/>
<path d="M30.6 96.19C27.57 95.03 23.99 93.98 20.67 93.98C17.24 94.03 14.52 94.78 11.29 95.79C9.82999 96.24 9.16999 94.08 10.58 93.58C17.49 91.17 25.15 90.56 31.96 93.78L31.91 93.73C33.57 94.53 32.21 96.84 30.6 96.19Z" fill="#B1AABF"/>
<path d="M65.53 74.24C60.39 71.93 53.38 72.28 48.44 74.64V74.59C46.63 75.45 45.06 72.79 46.88 71.93C52.88 69.17 60.89 69.02 66.89 71.88C68.51 72.64 67.09 74.95 65.53 74.24Z" fill="#B1AABF"/>
<path d="M66.79 80.92C60.89 78.26 53.84 79.82 48.14 81.93V81.98C46.68 82.53 45.62 80.07 47.08 79.41C53.43 76.6 61.6 75.55 68 78.86C69.41 79.57 68.15 81.52 66.79 80.92Z" fill="#B1AABF"/>
<path d="M68.25 88.3501C65.13 87.4501 62.25 86.9501 59.03 86.9501C56.51 86.9501 54.24 87.2001 51.82 87.9001C51.11 88.1001 50.41 88.2001 49.7 88.5001C49.2 88.7501 48.59 89.0601 48.04 89.1101C46.88 89.2601 46.58 87.5001 47.28 86.8501L47.43 86.7001C48.09 86.1401 49.05 85.8901 49.85 85.5901C55.75 83.4301 63.62 83.3801 69.26 86.2401C70.52 86.9001 69.46 88.7001 68.25 88.3501Z" fill="#B1AABF"/>
<path d="M68.66 95.84C65.43 94.83 62.71 94.03 59.28 94.03C55.95 93.98 52.37 95.03 49.35 96.24C47.74 96.89 46.38 94.53 48.04 93.78C54.84 90.56 62.51 91.17 69.41 93.58L69.36 93.63C70.77 94.13 70.12 96.29 68.66 95.84Z" fill="#B1AABF"/>
</svg>
