<svg width="38" height="16" viewBox="0 0 38 16" fill="none" xmlns="http://www.w3.org/2000/svg">
<rect x="0.599919" y="0.266667" width="36.8" height="15.4667" rx="7.73333" fill="#20591E"/>
<rect x="0.599919" y="0.266667" width="36.8" height="15.4667" rx="7.73333" stroke="#E0E4DB" stroke-width="0.533333"/>
<g clip-path="url(#clip0_1518_3531)">
<rect x="24.3333" y="2.66669" width="10.6667" height="10.6667" rx="5.33333" fill="#E0E4DB"/>
<path d="M27.2667 4H30.4667V4.8H29.6667V5.6H28.8667V4.8H27.2667V4ZM26.4667 5.6V4.8H27.2667V5.6H26.4667ZM26.4667 9.6H25.6667V5.6H26.4667V9.6ZM27.2667 10.4H26.4667V9.6H27.2667V10.4ZM28.0667 11.2H27.2667V10.4H28.0667V11.2ZM32.0667 11.2V12H28.0667V11.2H32.0667ZM32.8667 10.4V11.2H32.0667V10.4H32.8667ZM32.0667 8.8H32.8667V10.4H33.6667V7.2H32.8667V8H32.0667V8.8ZM29.6667 8.8V9.6H32.0667V8.8H29.6667ZM28.8667 8H29.6667V8.8H28.8667V8ZM28.8667 8V5.6H28.0667V8H28.8667Z" fill="#20591E"/>
</g>
<defs>
<clipPath id="clip0_1518_3531">
<rect x="24.3333" y="2.66669" width="10.6667" height="10.6667" rx="5.33333" fill="white"/>
</clipPath>
</defs>
</svg>
