<svg width="87" height="68" viewBox="0 0 87 68" fill="none" xmlns="http://www.w3.org/2000/svg">
<g clip-path="url(#clip0_1162_1407)">
<path d="M68.5519 15.896H59.6898V23.844H66.5207C66.5207 23.844 75.2592 23.844 75.3254 41.5064C75.3872 59.1687 66.6399 59.1687 66.6399 59.1687H54.3911V23.844H43.7937V67.9999H68.7992C68.7992 67.9999 86.6469 67.9999 86.5189 41.9479C86.3864 15.896 68.5519 15.896 68.5519 15.896Z" fill="#1A8C16"/>
<path d="M66.3133 6.62329H59.6899V13.2467H66.3133V6.62329Z" fill="#1A8C16"/>
<path d="M56.1573 2.64941H51.7417V6.62344H56.1573V2.64941Z" fill="#1A8C16"/>
<path d="M62.3393 0H59.6899V2.64935H62.3393V0Z" fill="#1A8C16"/>
<path d="M56.1573 13.2468H47.3262V21.1949H56.1573V13.2468Z" fill="#1A8C16"/>
<path d="M28.5422 29.1428H17.9448V67.7792H28.5422V29.1428Z" fill="black" stroke="black" stroke-width="0.441558" stroke-miterlimit="10"/>
<path d="M29.6638 14.461C29.8051 15.6179 30.728 16.5716 31.8804 16.7483C33.0285 16.9205 34.0617 16.3553 34.5872 15.4545H43.776V21.1948H31.9467C31.4919 20.4044 30.6353 19.8701 29.6506 19.8701C28.9794 19.8701 28.3701 20.1173 27.902 20.5324C27.2794 21.0711 26.9173 21.9057 27.0145 22.8197C27.116 23.7425 27.7165 24.5462 28.5423 24.9259C28.7498 25.0275 28.975 25.0937 29.209 25.1335C30.3659 25.3189 31.4168 24.7493 31.9423 23.8441H43.776V25.6103C43.776 27.562 42.1908 29.1428 40.2436 29.1428H9.33447C7.38278 29.1428 5.802 27.562 5.802 25.6103V25.4116C5.802 15.768 13.6176 7.948 23.2656 7.948H40.2436C42.1908 7.948 43.776 9.52878 43.776 11.4805V12.8051H34.5872C34.128 12.0148 33.2758 11.4805 32.2955 11.4805C30.7236 11.4805 29.4695 12.8537 29.6638 14.461Z" fill="black"/>
<path d="M43.7762 12.8051V15.4545H34.5873C34.0619 16.3553 33.0286 16.9205 31.8806 16.7483C30.7281 16.5716 29.8052 15.6179 29.6639 14.461C29.4697 12.8537 30.7237 11.4805 32.2956 11.4805C33.2759 11.4805 34.1281 12.0148 34.5873 12.8051H43.7762Z" fill="white"/>
<path d="M43.776 21.1948V23.8441H31.9422C31.4168 24.7493 30.3659 25.3189 29.209 25.1335C28.975 25.0938 28.7498 25.0275 28.5422 24.926C27.7165 24.5462 27.116 23.7426 27.0144 22.8197C26.9173 21.9057 27.2794 21.0712 27.902 20.5325C28.37 20.1174 28.9794 19.8701 29.6505 19.8701C30.6352 19.8701 31.4918 20.4044 31.9466 21.1948H43.776Z" fill="white"/>
<path d="M17.8653 37.8637C14.9201 37.6959 12.8051 40.8045 10.3014 41.9481L1.84559 41.8951L1.76611 52.7619C1.78378 52.9209 1.89417 52.9164 2.0178 52.9606C3.42196 53.464 9.9217 52.4528 11.3833 53.0003C12.2046 53.3094 13.6131 54.6518 14.7347 55.2125C15.8342 55.7601 17.0661 56.0912 18.3069 56.2237C18.3422 56.2237 18.382 56.2237 18.4173 56.2237C20.3116 56.418 23.0139 56.3076 24.9833 56.2988C27.5487 56.2899 31.3285 57.1642 32.0217 54.0468C32.2778 52.8899 32.3529 43.7099 32.1277 42.5045C31.43 38.7645 27.9373 39.7448 25.0936 39.6918C24.2061 39.6741 19.4373 39.7006 19.0531 39.5637C18.2053 39.2679 17.8653 37.8681 17.8653 37.8681" fill="white"/>
<path d="M17.8653 37.8637C14.9201 37.6959 12.8051 40.8045 10.3014 41.9481L1.84559 41.8951L1.76611 52.7619C1.78378 52.9209 1.89417 52.9164 2.0178 52.9606C3.42196 53.464 9.9217 52.4528 11.3833 53.0003C12.2046 53.3094 13.6131 54.6518 14.7347 55.2125C15.8342 55.7601 17.0661 56.0912 18.3069 56.2237C18.3422 56.2237 18.382 56.2237 18.4173 56.2237C20.3116 56.418 23.0139 56.3076 24.9833 56.2988C27.5487 56.2899 31.3285 57.1642 32.0217 54.0468C32.2778 52.8899 32.3529 43.7099 32.1277 42.5045C31.43 38.7645 27.9373 39.7448 25.0936 39.6918C24.2061 39.6741 19.4373 39.7006 19.0531 39.5637C18.2053 39.2679 17.8653 37.8681 17.8653 37.8681" stroke="black" stroke-width="3.53247" stroke-linecap="round" stroke-linejoin="round"/>
</g>
<defs>
<clipPath id="clip0_1162_1407">
<rect width="86.519" height="68" fill="white"/>
</clipPath>
</defs>
</svg>

