<svg width="32" height="34" viewBox="0 0 32 34" fill="none" xmlns="http://www.w3.org/2000/svg">
<path d="M9.7965 8.90226L9.95879 9.04406L24.4557 23.5393C24.6457 23.7291 24.7883 23.961 24.8719 24.2162C24.9554 24.4715 24.9777 24.7428 24.9367 25.0083C24.8958 25.2737 24.7928 25.5257 24.6362 25.7439C24.4797 25.9621 24.2738 26.1403 24.0355 26.2641L23.8373 26.3495L6.09625 32.8873C2.76158 34.1173 -0.485958 30.9825 0.527084 27.6529L0.6125 27.4035L7.14858 9.66247C7.23499 9.42746 7.37201 9.21432 7.54993 9.03814C7.72785 8.86195 7.94232 8.72704 8.17817 8.64293C8.41401 8.55883 8.66546 8.5276 8.91471 8.55146C9.16397 8.57531 9.40493 8.65367 9.62054 8.78097L9.7965 8.90226ZM25.2245 16.3233C26.7808 16.4053 28.9145 16.7333 30.7697 17.8471C31.1458 18.0701 31.4221 18.4288 31.5417 18.8493C31.6613 19.2699 31.6151 19.7203 31.4126 20.1078C31.21 20.4953 30.8667 20.7905 30.4531 20.9324C30.0395 21.0743 29.5873 21.0523 29.1895 20.8708L29.0118 20.7769C27.8467 20.0765 26.3571 19.8031 25.0451 19.7348C24.5045 19.7049 23.9625 19.7072 23.4222 19.7416L22.8823 19.7946C22.4367 19.8521 21.9863 19.7317 21.6288 19.4595C21.2713 19.1873 21.0354 18.7852 20.9723 18.3404C20.9092 17.8955 21.0238 17.4436 21.2915 17.0827C21.5592 16.7218 21.9582 16.4809 22.4023 16.4121C23.3379 16.2914 24.283 16.2611 25.2245 16.3216M28.6838 11.5621C29.1191 11.5631 29.5376 11.7301 29.8539 12.0291C30.1702 12.3282 30.3604 12.7367 30.3857 13.1712C30.411 13.6057 30.2695 14.0336 29.99 14.3673C29.7105 14.701 29.3142 14.9154 28.882 14.9668L28.6838 14.9788H27.4743C27.0391 14.9779 26.6205 14.8109 26.3043 14.5118C25.988 14.2128 25.7978 13.8043 25.7725 13.3697C25.7472 12.9352 25.8887 12.5074 26.1682 12.1737C26.4476 11.84 26.8439 11.6255 27.2762 11.5741L27.4743 11.5621H28.6838ZM23.2479 10.2518C23.5421 10.546 23.7187 10.9374 23.7449 11.3526C23.771 11.7677 23.6447 12.1782 23.3897 12.5068L23.2479 12.6674L21.4354 14.48C21.1279 14.7864 20.7154 14.9642 20.2816 14.9775C19.8478 14.9907 19.4252 14.8384 19.0996 14.5513C18.7741 14.2642 18.57 13.864 18.5288 13.432C18.4877 12.9999 18.6125 12.5683 18.878 12.225L19.0198 12.0644L20.8306 10.2536C20.9893 10.0947 21.1777 9.96872 21.3851 9.88275C21.5925 9.79677 21.8148 9.75252 22.0393 9.75252C22.2638 9.75252 22.4861 9.79677 22.6935 9.88275C22.9008 9.96872 23.0893 10.093 23.2479 10.2518ZM18.8285 1.25747C19.5938 3.55689 19.1838 6.07497 18.7055 7.83456C18.4192 8.93193 18.0243 9.99806 17.5267 11.0172C17.3244 11.4227 16.9693 11.7312 16.5395 11.8749C16.1097 12.0186 15.6405 11.9857 15.235 11.7834C14.8295 11.5811 14.5209 11.226 14.3773 10.7962C14.2336 10.3664 14.2665 9.89714 14.4688 9.49164C14.8663 8.67315 15.181 7.81702 15.4084 6.93597C15.7962 5.51464 15.9909 3.97201 15.692 2.70785L15.5877 2.33885C15.5133 2.1252 15.482 1.8989 15.4958 1.67307C15.5095 1.44724 15.5679 1.22638 15.6677 1.02333C15.7675 0.820268 15.9066 0.639051 16.077 0.490195C16.2473 0.341339 16.4456 0.22781 16.6602 0.156196C16.8748 0.0845833 17.1015 0.0563134 17.3271 0.0730277C17.5528 0.0897421 17.7728 0.151108 17.9746 0.253562C18.1763 0.356017 18.3556 0.49752 18.5022 0.669856C18.6488 0.842193 18.7597 1.04193 18.8285 1.25747ZM28.0791 5.42239C28.3993 5.74275 28.5793 6.17719 28.5793 6.63018C28.5793 7.08317 28.3993 7.51761 28.0791 7.83797L26.8713 9.04576C26.7137 9.20893 26.5252 9.33907 26.3168 9.4286C26.1084 9.51814 25.8842 9.56526 25.6574 9.56723C25.4305 9.56921 25.2056 9.52598 24.9956 9.44008C24.7857 9.35419 24.5949 9.22734 24.4345 9.06694C24.2741 8.90654 24.1473 8.7158 24.0614 8.50585C23.9755 8.29591 23.9323 8.07095 23.9342 7.84412C23.9362 7.61729 23.9833 7.39312 24.0729 7.1847C24.1624 6.97628 24.2925 6.78777 24.4557 6.63018L25.6635 5.42239C25.9839 5.10213 26.4183 4.92221 26.8713 4.92221C27.3243 4.92221 27.7587 5.10213 28.0791 5.42239Z" fill="black"/>
</svg>
