<svg width="294" height="294" viewBox="0 0 294 294" fill="none" xmlns="http://www.w3.org/2000/svg">
<path d="M237.221 120.822C239.216 120.901 241.104 121.75 242.487 123.189C243.871 124.629 244.643 126.548 244.643 128.545C244.643 130.542 243.871 132.461 242.487 133.901C241.104 135.341 239.216 136.189 237.221 136.269H215.723V150.05H237.221C238.26 150.009 239.296 150.177 240.268 150.546C241.239 150.915 242.127 151.477 242.876 152.197C243.625 152.917 244.222 153.781 244.629 154.737C245.036 155.693 245.246 156.722 245.246 157.761C245.246 158.801 245.036 159.829 244.629 160.786C244.222 161.742 243.625 162.606 242.876 163.326C242.127 164.046 241.239 164.608 240.268 164.977C239.296 165.345 238.26 165.514 237.221 165.473H207.993C205.954 165.463 204.003 164.647 202.564 163.204C201.125 161.76 200.315 159.806 200.312 157.768V99.3228C200.312 95.0966 203.767 91.6053 208.03 91.6053H237.258C239.305 91.6102 241.266 92.428 242.71 93.8787C244.154 95.3295 244.962 97.2944 244.957 99.3412C244.952 101.388 244.134 103.349 242.684 104.793C241.233 106.237 239.268 107.045 237.221 107.04H215.723V120.822H237.221ZM189.997 157.768C189.988 159.81 189.169 161.766 187.72 163.205C186.271 164.645 184.31 165.452 182.268 165.448C181.058 165.473 179.859 165.207 178.773 164.675C177.686 164.142 176.742 163.357 176.02 162.386L146.093 121.753V157.768C145.959 159.718 145.089 161.544 143.66 162.877C142.231 164.211 140.349 164.953 138.394 164.953C136.44 164.953 134.558 164.211 133.129 162.877C131.7 161.544 130.83 159.718 130.695 157.768V99.3228C130.692 97.29 131.495 95.3388 132.928 93.8968C134.36 92.4548 136.306 91.6396 138.339 91.6298C140.728 91.6298 142.933 92.9038 144.403 94.7413L174.562 135.534V99.3228C174.562 95.0966 178.017 91.6053 182.28 91.6053C186.506 91.6053 189.997 95.0966 189.997 99.3228V157.768ZM119.67 157.768C119.669 158.781 119.467 159.784 119.078 160.72C118.689 161.656 118.119 162.506 117.401 163.221C116.683 163.937 115.832 164.504 114.895 164.89C113.958 165.276 112.954 165.474 111.94 165.473C109.902 165.463 107.95 164.647 106.511 163.204C105.072 161.76 104.263 159.806 104.26 157.768V99.3228C104.26 95.0966 107.714 91.6053 111.977 91.6053C116.216 91.6053 119.67 95.0966 119.67 99.3228V157.768ZM89.4617 165.473H60.2332C58.1925 165.46 56.2388 164.644 54.7946 163.203C53.3504 161.761 52.5318 159.808 52.5158 157.768V99.3228C52.5158 95.0966 56.007 91.6053 60.2332 91.6053C64.4962 91.6053 67.9508 95.0966 67.9508 99.3228V150.05H89.4617C91.4538 150.13 93.3377 150.977 94.7191 152.414C96.1004 153.852 96.8718 155.768 96.8718 157.761C96.8718 159.755 96.1004 161.671 94.7191 163.109C93.3377 164.546 91.4538 165.393 89.4617 165.473ZM294 126.346C294 60.5516 228.034 7.00684 147 7.00684C65.9663 7.00684 0 60.5516 0 126.346C0 185.281 52.3075 234.661 122.929 244.044C127.718 245.049 134.236 247.205 135.889 251.272C137.359 254.959 136.857 260.655 136.355 264.502L134.346 276.997C133.794 280.684 131.406 291.525 147.196 284.898C163.011 278.295 231.917 234.943 262.787 199.454C283.906 176.314 294 152.61 294 126.346Z" fill="#666666"/>
</svg>
