<svg width="112" height="102" viewBox="0 0 112 102" fill="none" xmlns="http://www.w3.org/2000/svg">
<path d="M18.9494 40.468C17.5814 40.468 16.2494 40.216 14.9534 39.712C13.6814 39.184 12.5894 38.536 11.6774 37.768L13.2614 35.572C14.1254 36.268 15.0134 36.832 15.9254 37.264C16.8374 37.696 17.8814 37.912 19.0574 37.912C20.3534 37.912 21.3134 37.624 21.9374 37.048C22.5854 36.448 22.9094 35.716 22.9094 34.852C22.9094 34.18 22.6814 33.628 22.2254 33.196C21.7934 32.74 21.2294 32.356 20.5334 32.044C19.8614 31.708 19.1654 31.408 18.4454 31.144C17.5334 30.784 16.6334 30.388 15.7454 29.956C14.8814 29.5 14.1614 28.924 13.5854 28.228C13.0334 27.508 12.7574 26.596 12.7574 25.492C12.7574 24.436 13.0214 23.5 13.5494 22.684C14.0774 21.844 14.8454 21.184 15.8534 20.704C16.8614 20.2 18.0734 19.948 19.4894 19.948C20.6894 19.948 21.8054 20.164 22.8374 20.596C23.8934 21.028 24.7934 21.556 25.5374 22.18L23.9534 24.232C23.2814 23.752 22.5854 23.344 21.8654 23.008C21.1694 22.672 20.3894 22.504 19.5254 22.504C18.2774 22.504 17.3534 22.792 16.7534 23.368C16.1774 23.92 15.8894 24.58 15.8894 25.348C15.8894 25.948 16.0814 26.452 16.4654 26.86C16.8734 27.268 17.4014 27.616 18.0494 27.904C18.6974 28.168 19.3814 28.444 20.1014 28.732C20.8214 28.996 21.5294 29.284 22.2254 29.596C22.9454 29.908 23.5814 30.28 24.1334 30.712C24.7094 31.144 25.1654 31.684 25.5014 32.332C25.8614 32.956 26.0414 33.736 26.0414 34.672C26.0414 35.728 25.7654 36.7 25.2134 37.588C24.6854 38.476 23.8934 39.184 22.8374 39.712C21.8054 40.216 20.5094 40.468 18.9494 40.468ZM38.3812 40.468C36.6532 40.468 35.0932 40.072 33.7012 39.28C32.3332 38.464 31.2412 37.3 30.4252 35.788C29.6332 34.252 29.2372 32.404 29.2372 30.244C29.2372 28.06 29.6692 26.212 30.5332 24.7C31.3972 23.164 32.5492 21.988 33.9892 21.172C35.4292 20.356 36.9772 19.948 38.6332 19.948C39.9052 19.948 40.9972 20.176 41.9092 20.632C42.8452 21.088 43.6492 21.628 44.3212 22.252L42.6652 24.412C42.1132 23.908 41.5132 23.5 40.8652 23.188C40.2412 22.876 39.5452 22.72 38.7772 22.72C37.6012 22.72 36.5452 23.032 35.6092 23.656C34.6732 24.28 33.9412 25.156 33.4132 26.284C32.8852 27.412 32.6212 28.732 32.6212 30.244C32.6212 31.732 32.8732 33.04 33.3772 34.168C33.9052 35.296 34.6132 36.172 35.5012 36.796C36.4132 37.42 37.4692 37.732 38.6692 37.732C39.5812 37.732 40.4212 37.552 41.1892 37.192C41.9572 36.808 42.6532 36.34 43.2772 35.788L44.7172 38.02C43.8292 38.788 42.8452 39.388 41.7652 39.82C40.6852 40.252 39.5572 40.468 38.3812 40.468ZM49.0288 40V20.452H51.7288L52.0528 24.016H52.1248C52.7968 22.768 53.6128 21.784 54.5728 21.064C55.5568 20.32 56.5888 19.948 57.6688 19.948C58.1248 19.948 58.5088 19.984 58.8208 20.056C59.1568 20.104 59.4688 20.212 59.7568 20.38L59.1448 23.224C58.8088 23.128 58.5088 23.056 58.2448 23.008C57.9808 22.936 57.6448 22.9 57.2368 22.9C56.4448 22.9 55.5928 23.248 54.6808 23.944C53.7688 24.616 52.9888 25.78 52.3408 27.436V40H49.0288ZM70.0896 40.468C68.5056 40.468 67.0176 40.072 65.6256 39.28C64.2336 38.464 63.1176 37.3 62.2776 35.788C61.4616 34.252 61.0536 32.404 61.0536 30.244C61.0536 28.06 61.4616 26.212 62.2776 24.7C63.1176 23.164 64.2336 21.988 65.6256 21.172C67.0176 20.356 68.5056 19.948 70.0896 19.948C71.2896 19.948 72.4296 20.176 73.5096 20.632C74.6136 21.088 75.5856 21.76 76.4256 22.648C77.2656 23.536 77.9256 24.616 78.4056 25.888C78.8856 27.16 79.1256 28.612 79.1256 30.244C79.1256 32.404 78.7056 34.252 77.8656 35.788C77.0256 37.3 75.9216 38.464 74.5536 39.28C73.1856 40.072 71.6976 40.468 70.0896 40.468ZM70.0896 37.732C71.2176 37.732 72.2016 37.42 73.0416 36.796C73.9056 36.172 74.5776 35.296 75.0576 34.168C75.5376 33.04 75.7776 31.732 75.7776 30.244C75.7776 28.732 75.5376 27.412 75.0576 26.284C74.5776 25.156 73.9056 24.28 73.0416 23.656C72.2016 23.032 71.2176 22.72 70.0896 22.72C68.9616 22.72 67.9656 23.032 67.1016 23.656C66.2616 24.28 65.6016 25.156 65.1216 26.284C64.6656 27.412 64.4376 28.732 64.4376 30.244C64.4376 31.732 64.6656 33.04 65.1216 34.168C65.6016 35.296 66.2616 36.172 67.1016 36.796C67.9656 37.42 68.9616 37.732 70.0896 37.732ZM87.7817 40.468C86.9657 40.468 86.3057 40.3 85.8017 39.964C85.2977 39.628 84.9257 39.136 84.6857 38.488C84.4457 37.816 84.3257 37.024 84.3257 36.112V11.344H87.6377V36.328C87.6377 36.832 87.7217 37.192 87.8897 37.408C88.0817 37.624 88.2977 37.732 88.5377 37.732C88.6337 37.732 88.7297 37.732 88.8257 37.732C88.9217 37.708 89.0537 37.684 89.2217 37.66L89.6897 40.18C89.4497 40.252 89.1857 40.312 88.8977 40.36C88.6097 40.432 88.2377 40.468 87.7817 40.468ZM98.0121 40.468C97.1961 40.468 96.5361 40.3 96.0321 39.964C95.5281 39.628 95.1561 39.136 94.9161 38.488C94.6761 37.816 94.5561 37.024 94.5561 36.112V11.344H97.8681V36.328C97.8681 36.832 97.9521 37.192 98.1201 37.408C98.3121 37.624 98.5281 37.732 98.7681 37.732C98.8641 37.732 98.9601 37.732 99.0561 37.732C99.1521 37.708 99.2841 37.684 99.4521 37.66L99.9201 40.18C99.6801 40.252 99.4161 40.312 99.1281 40.36C98.8401 40.432 98.4681 40.468 98.0121 40.468Z" fill="black"/>
<g clip-path="url(#clip0_415_274)">
<path d="M56.2292 53.8125L57.3333 52.7083C57.0404 52.4157 56.6432 52.2514 56.2292 52.2514C55.8151 52.2514 55.418 52.4157 55.125 52.7083L56.2292 53.8125ZM56.2292 70.4792L55.125 71.5833C55.418 71.8759 55.8151 72.0403 56.2292 72.0403C56.6432 72.0403 57.0404 71.8759 57.3333 71.5833L56.2292 70.4792ZM50.9583 56.875C50.6823 57.1712 50.5321 57.563 50.5392 57.9678C50.5464 58.3726 50.7103 58.7588 50.9966 59.045C51.2829 59.3313 51.6691 59.4953 52.0739 59.5024C52.4787 59.5096 52.8705 59.3593 53.1667 59.0833L50.9583 56.875ZM59.2917 59.0833C59.4347 59.2368 59.6072 59.36 59.7989 59.4454C59.9905 59.5308 60.1974 59.5767 60.4072 59.5804C60.617 59.5841 60.8254 59.5455 61.02 59.4669C61.2146 59.3883 61.3913 59.2714 61.5397 59.123C61.688 58.9746 61.805 58.7979 61.8836 58.6033C61.9622 58.4088 62.0008 58.2004 61.9971 57.9906C61.9934 57.7808 61.9474 57.5739 61.862 57.3822C61.7766 57.1905 61.6535 57.018 61.5 56.875L59.2917 59.0833ZM53.1667 65.2083C53.0236 65.0548 52.8511 64.9317 52.6595 64.8463C52.4678 64.7609 52.2609 64.715 52.0511 64.7113C51.8413 64.7076 51.6329 64.7462 51.4383 64.8247C51.2438 64.9033 51.067 65.0203 50.9187 65.1687C50.7703 65.317 50.6533 65.4938 50.5747 65.6883C50.4962 65.8829 50.4576 66.0913 50.4613 66.3011C50.465 66.5109 50.5109 66.7178 50.5963 66.9095C50.6817 67.1011 50.8048 67.2736 50.9583 67.4167L53.1667 65.2083ZM61.5 67.4167C61.6535 67.2736 61.7766 67.1011 61.862 66.9095C61.9474 66.7178 61.9934 66.5109 61.9971 66.3011C62.0008 66.0913 61.9622 65.8829 61.8836 65.6883C61.805 65.4938 61.688 65.317 61.5397 65.1687C61.3913 65.0203 61.2146 64.9033 61.02 64.8247C60.8254 64.7462 60.617 64.7076 60.4072 64.7113C60.1974 64.715 59.9905 64.7609 59.7989 64.8463C59.6072 64.9317 59.4347 65.0548 59.2917 65.2083L61.5 67.4167ZM38 64.2292V72.5625H41.125V64.2292H38ZM74.4583 72.5625V64.2292H71.3333V72.5625H74.4583ZM54.6667 53.8125V70.4792H57.7917V53.8125H54.6667ZM55.125 52.7083L50.9583 56.875L53.1667 59.0833L57.3333 54.9167L55.125 52.7083ZM55.125 54.9167L59.2917 59.0833L61.5 56.875L57.3333 52.7083L55.125 54.9167ZM57.3333 69.375L53.1667 65.2083L50.9583 67.4167L55.125 71.5833L57.3333 69.375ZM57.3333 71.5833L61.5 67.4167L59.2917 65.2083L55.125 69.375L57.3333 71.5833ZM74.4583 64.2292C74.4583 59.3945 72.5378 54.7578 69.1191 51.3392C65.7005 47.9206 61.0638 46 56.2292 46V49.125C60.235 49.125 64.0768 50.7163 66.9094 53.5489C69.742 56.3815 71.3333 60.2233 71.3333 64.2292H74.4583ZM56.2292 90.7917C58.6231 90.7917 60.9935 90.3202 63.2052 89.4041C65.4168 88.488 67.4264 87.1452 69.1191 85.4525C70.8119 83.7597 72.1546 81.7502 73.0707 79.5385C73.9868 77.3268 74.4583 74.9564 74.4583 72.5625H71.3333C71.3333 76.5684 69.742 80.4102 66.9094 83.2428C64.0768 86.0753 60.235 87.6667 56.2292 87.6667V90.7917ZM38 72.5625C38 77.3972 39.9206 82.0338 43.3392 85.4525C46.7578 88.8711 51.3945 90.7917 56.2292 90.7917V87.6667C52.2233 87.6667 48.3815 86.0753 45.5489 83.2428C42.7163 80.4102 41.125 76.5684 41.125 72.5625H38ZM41.125 64.2292C41.125 60.2233 42.7163 56.3815 45.5489 53.5489C48.3815 50.7163 52.2233 49.125 56.2292 49.125V46C51.3945 46 46.7578 47.9206 43.3392 51.3392C39.9206 54.7578 38 59.3945 38 64.2292H41.125Z" fill="black"/>
</g>
<defs>
<clipPath id="clip0_415_274">
<rect width="50.4583" height="44.7917" fill="white" transform="translate(31 46)"/>
</clipPath>
</defs>
</svg>
