<svg width="295" height="66" viewBox="0 0 295 66" fill="none" xmlns="http://www.w3.org/2000/svg">
<rect width="293.127" height="64" transform="translate(1 1)" fill="white"/>
<path d="M1 1L1 65L294.127 65V1L1 1Z" fill="white" stroke="#231815" stroke-width="1.64683" stroke-miterlimit="10"/>
<path d="M79.7311 47.9774H53.7326C52.847 47.9774 52.1223 48.6789 52.1223 49.5364V51.2979C53.3784 52.5139 54.0869 53.1998 55.3429 54.4158H78.1208C79.3768 53.1998 80.0854 52.5139 81.3414 51.2979V49.5364C81.3414 48.6789 80.6168 47.9774 79.7311 47.9774Z" fill="black"/>
<path d="M79.7311 18.0614H53.7326C52.847 18.0614 52.1223 17.3599 52.1223 16.5025V14.7409C53.3784 13.5249 54.0869 12.839 55.3429 11.623H78.1208C79.3768 12.839 80.0854 13.5249 81.3414 14.7409V16.5025C81.3414 17.3599 80.6168 18.0614 79.7311 18.0614Z" fill="black"/>
<path d="M52.1223 22.7383V43.2227C52.1223 44.0837 52.8433 44.7816 53.7326 44.7816H57.2592C58.1486 44.7816 58.8695 44.0837 58.8695 43.2227V22.7383C58.8695 21.8773 58.1486 21.1794 57.2592 21.1794H53.7326C52.8433 21.1794 52.1223 21.8773 52.1223 22.7383Z" fill="black"/>
<path d="M74.6023 22.7383V43.2227C74.6023 44.0837 75.3233 44.7816 76.2126 44.7816H79.7392C80.6285 44.7816 81.3495 44.0837 81.3495 43.2227V22.7383C81.3495 21.8773 80.6285 21.1794 79.7392 21.1794H76.2126C75.3233 21.1794 74.6023 21.8773 74.6023 22.7383Z" fill="black"/>
<path d="M151.946 22.7384V43.2228C151.946 44.0802 152.67 44.7817 153.556 44.7817H155.472C156.728 43.5657 157.437 42.8798 158.693 41.6638V24.2973C157.437 23.0813 156.728 22.3954 155.472 21.1794H153.556C152.67 21.1794 151.946 21.881 151.946 22.7384Z" fill="#1A8C16"/>
<path d="M151.076 18.0614H125.077C124.192 18.0614 123.467 17.3599 123.467 16.5025V13.182C123.467 12.3246 124.192 11.623 125.077 11.623H149.465C150.722 12.839 151.43 13.5249 152.686 14.7409V16.5025C152.686 17.3599 151.961 18.0614 151.076 18.0614Z" fill="#1A8C16"/>
<path d="M151.076 47.9774H125.077C124.192 47.9774 123.467 48.6789 123.467 49.5364V52.8569C123.467 53.7143 124.192 54.4158 125.077 54.4158H149.465C150.722 53.1998 151.43 52.5139 152.686 51.2979V49.5364C152.686 48.6789 151.961 47.9774 151.076 47.9774Z" fill="#1A8C16"/>
<path d="M123.459 22.7383V43.2227C123.459 44.0837 124.18 44.7816 125.07 44.7816H128.596C129.485 44.7816 130.206 44.0837 130.206 43.2227V22.7383C130.206 21.8773 129.485 21.1794 128.596 21.1794H125.07C124.18 21.1794 123.459 21.8773 123.459 22.7383Z" fill="#1A8C16"/>
<path d="M166.736 13.1432V52.818C166.736 53.679 167.457 54.377 168.347 54.377H171.873C172.763 54.377 173.484 53.679 173.484 52.818V13.1432C173.484 12.2822 172.763 11.5842 171.873 11.5842H168.347C167.457 11.5842 166.736 12.2822 166.736 13.1432Z" fill="#1A8C16"/>
<path d="M44.0709 18.0616H18.0725C17.1868 18.0616 16.4622 17.36 16.4622 16.5026V14.741C17.7182 13.5251 18.4267 12.8391 19.6828 11.6232H42.4606C43.7167 12.8391 44.4252 13.5251 45.6812 14.741V16.5026C45.6812 17.36 44.9566 18.0616 44.0709 18.0616Z" fill="black"/>
<path d="M16.5427 32.3726V52.857C16.5427 53.7179 17.2637 54.4159 18.153 54.4159H21.6796C22.569 54.4159 23.2899 53.7179 23.2899 52.857V32.3726C23.2899 31.5116 22.569 30.8136 21.6796 30.8136H18.153C17.2637 30.8136 16.5427 31.5116 16.5427 32.3726Z" fill="black"/>
<path d="M44.0709 27.6178H18.0725C17.1868 27.6178 16.4622 26.9163 16.4622 26.0589V24.2973C17.7182 23.0813 18.4267 22.3954 19.6828 21.1794H42.4606C43.7167 22.3954 44.4252 23.0813 45.6812 24.2973V26.0589C45.6812 26.9163 44.9566 27.6178 44.0709 27.6178Z" fill="black"/>
<path d="M115.399 21.1404H89.4008C88.5152 21.1404 87.7905 21.8419 87.7905 22.6993V24.4609C89.0466 25.6769 89.7551 26.3628 91.0111 27.5788H113.789C115.045 26.3628 115.754 25.6769 117.01 24.4609V22.6993C117.01 21.8419 116.285 21.1404 115.399 21.1404Z" fill="black"/>
<path d="M115.399 18.0225H89.4008C88.5152 18.0225 87.7905 17.321 87.7905 16.4636V14.702C89.0466 13.486 89.7551 12.8001 91.0111 11.5841H113.789C115.045 12.8001 115.754 13.486 117.01 14.702V16.4636C117.01 17.321 116.285 18.0225 115.399 18.0225Z" fill="black"/>
<path d="M115.818 54.3534L115.778 54.3768H110.907L98.7007 33.908C98.0405 32.8089 98.435 31.4137 99.5623 30.7745H104.506L116.688 51.2044C117.348 52.3034 116.962 53.7142 115.818 54.3534Z" fill="black"/>
<path d="M87.7827 32.3336V52.818C87.7827 53.679 88.5037 54.377 89.393 54.377H92.9196C93.809 54.377 94.5299 53.679 94.5299 52.818V32.3336C94.5299 31.4727 93.809 30.7747 92.9196 30.7747H89.393C88.5037 30.7747 87.7827 31.4727 87.7827 32.3336Z" fill="black"/>
<path d="M188.282 22.7149V43.1993C188.282 44.0567 187.558 44.7583 186.672 44.7583H184.756C183.5 43.5423 182.791 42.8564 181.535 41.6404V24.2739C182.791 23.0579 183.5 22.372 184.756 21.156H186.672C187.558 21.156 188.282 21.8575 188.282 22.7149Z" fill="#1A8C16"/>
<path d="M206.495 47.9152H190.375C189.49 47.9152 188.765 48.6167 188.765 49.4741V51.2357C190.021 52.4517 190.73 53.1376 191.986 54.3536H204.884C206.14 53.1376 206.849 52.4517 208.105 51.2357V49.4741C208.105 48.6167 207.38 47.9152 206.495 47.9152Z" fill="#1A8C16"/>
<path d="M211.326 52.7946V40.8531C211.326 39.9957 212.051 39.2942 212.936 39.2942H215.972C216.857 39.2942 217.582 39.9957 217.582 40.8531V51.2356C216.326 52.4516 215.617 53.1375 214.361 54.3535H212.936C212.051 54.3535 211.326 53.652 211.326 52.7946Z" fill="#1A8C16"/>
<path d="M203.459 36.1764H215.972C216.857 36.1764 217.582 35.4749 217.582 34.6175V32.8559C216.326 31.6399 215.617 30.954 214.361 29.738H203.459C202.574 29.738 201.849 30.4396 201.849 31.297V34.6175C201.849 35.4749 202.574 36.1764 203.459 36.1764Z" fill="#1A8C16"/>
<path d="M215.98 18.0381H190.384C189.498 18.0381 188.773 17.3366 188.773 16.4792V14.7176C190.029 13.5016 190.738 12.8157 191.994 11.5997H214.369C215.625 12.8157 216.334 13.5016 217.59 14.7176V16.4792C217.59 17.3366 216.865 18.0381 215.98 18.0381Z" fill="#1A8C16"/>
<path d="M224.023 22.785V43.2694C224.023 44.1304 224.744 44.8284 225.633 44.8284H229.16C230.049 44.8284 230.77 44.1304 230.77 43.2694V22.785C230.77 21.9241 230.049 21.2261 229.16 21.2261H225.633C224.744 21.2261 224.023 21.9241 224.023 22.785Z" fill="#B1AABF"/>
<path d="M235.593 36.2387H251.64C252.526 36.2387 253.25 35.5372 253.25 34.6798V32.9182C251.994 31.7022 251.286 31.0163 250.03 29.8003H235.593C234.708 29.8003 233.983 30.5018 233.983 31.3592V34.6798C233.983 35.5372 234.708 36.2387 235.593 36.2387Z" fill="#B1AABF"/>
<path d="M251.64 18.0614H225.641C224.755 18.0614 224.031 17.3599 224.031 16.5025V13.182C224.031 12.3246 224.755 11.623 225.641 11.623H250.029C251.285 12.839 251.994 13.5249 253.25 14.7409V16.5025C253.25 17.3599 252.525 18.0614 251.64 18.0614Z" fill="#B1AABF"/>
<path d="M251.64 47.9774H225.641C224.755 47.9774 224.031 48.6789 224.031 49.5364V52.8569C224.031 53.7143 224.755 54.4158 225.641 54.4158H250.029C251.285 53.1998 251.994 52.5139 253.25 51.2979V49.5364C253.25 48.6789 252.525 47.9774 251.64 47.9774Z" fill="#B1AABF"/>
<path d="M266.205 13.3925C266.898 12.8157 267.606 11.9895 268.315 10.8826C268.427 10.7112 268.572 10.6176 268.766 10.602C268.959 10.5864 269.217 10.6644 269.522 10.8515L271.229 12.7222C271.471 12.956 271.503 13.1743 271.294 13.3925C271.084 13.6108 270.859 13.6108 270.617 13.3769L269.136 11.6621C269.039 11.6153 268.959 11.5998 268.894 11.6153C268.814 11.6309 268.75 11.6777 268.701 11.7712C268.202 12.5975 267.574 13.3458 266.833 14.0473C266.592 14.2811 266.35 14.2811 266.141 14.0629C265.931 13.8602 265.948 13.6264 266.205 13.3925ZM268.476 17.8978H266.592C266.27 17.8978 266.109 17.7575 266.125 17.4613C266.125 17.1652 266.286 17.0248 266.592 17.0248H268.476V15.3412H267.091C266.769 15.3412 266.608 15.2009 266.624 14.9047C266.624 14.6085 266.785 14.4682 267.091 14.4682H270.617C270.907 14.4682 271.052 14.6085 271.068 14.9047C271.068 15.2009 270.923 15.3568 270.617 15.3412H269.378V17.0248H270.923C271.213 17.0248 271.358 17.1652 271.374 17.4613C271.374 17.7575 271.229 17.9134 270.923 17.8978H269.378V22.9332C269.78 22.8085 270.199 22.6682 270.601 22.5123C270.875 22.4032 271.084 22.4811 271.213 22.7461C271.326 23.0112 271.262 23.2138 270.988 23.3229C269.683 23.853 268.25 24.2115 266.721 24.3986C266.415 24.461 266.237 24.3362 266.189 24.04C266.125 23.7439 266.254 23.5724 266.576 23.5256C267.204 23.4321 267.848 23.3074 268.476 23.167V17.8978ZM266.415 19.3165C266.302 19.0203 266.382 18.8176 266.688 18.7241C266.978 18.6305 267.171 18.7397 267.268 19.0515C267.51 19.9401 267.719 20.8754 267.896 21.8575C267.912 22.2005 267.783 22.3876 267.493 22.4032C267.188 22.4343 267.01 22.294 266.994 21.9667C266.833 21.0157 266.64 20.1427 266.415 19.3165ZM270.312 19.0515C270.344 18.7397 270.505 18.5994 270.811 18.6305C271.117 18.6617 271.245 18.8332 271.213 19.1606C271.052 19.9556 270.843 20.7819 270.601 21.6237C270.489 21.9355 270.279 22.0446 269.989 21.9511C269.716 21.8575 269.619 21.6549 269.732 21.3431C269.973 20.548 270.167 19.7842 270.312 19.0515ZM271.745 12.4728C271.729 11.7089 272.083 11.2724 272.824 11.1944C273.532 11.1633 274.128 11.0697 274.611 10.9138C274.933 10.8515 275.126 10.9606 275.191 11.2568C275.255 11.553 275.11 11.7401 274.772 11.8024C274.337 11.9115 273.806 11.9895 273.21 12.0051C272.824 12.0051 272.63 12.2233 272.646 12.6442V14.2188H274.45C274.74 14.2188 274.885 14.3591 274.901 14.6553C274.901 14.9671 274.756 15.1229 274.45 15.1074H272.646V17.5705H274.45C274.74 17.5705 274.885 17.7108 274.901 18.007C274.901 18.3188 274.756 18.4747 274.45 18.4591H272.646V21.0001C273.274 20.8442 273.886 20.6572 274.45 20.4389C274.724 20.3298 274.933 20.4077 275.062 20.6728C275.175 20.9378 275.078 21.1404 274.804 21.2651C274.176 21.499 273.468 21.7016 272.646 21.9043V24.4454C272.646 24.7727 272.502 24.9286 272.196 24.9286C271.89 24.9286 271.729 24.7727 271.745 24.4454V22.1382C271.519 22.1849 271.31 22.2317 271.133 22.2785C270.811 22.3408 270.634 22.2161 270.601 21.9043C270.537 21.6081 270.65 21.4366 270.956 21.3899C271.197 21.3275 271.471 21.2651 271.745 21.2184V12.4728ZM278.065 22.294C278.822 23.0891 279.74 23.7127 280.803 24.1648C281.109 24.2895 281.189 24.4921 281.076 24.7727C280.948 25.0378 280.722 25.1157 280.416 24.9754C279.257 24.461 278.274 23.7906 277.453 22.9332C276.616 23.7283 275.617 24.383 274.458 24.9131C274.152 25.0534 273.927 24.991 273.798 24.726C273.669 24.461 273.75 24.2427 274.055 24.1024C275.167 23.6191 276.117 23.0112 276.89 22.294C276.084 21.3119 275.456 20.1427 275.006 18.7864C274.909 18.4902 275.006 18.2876 275.312 18.194C275.585 18.1005 275.795 18.2096 275.907 18.5214C276.278 19.7218 276.809 20.7663 277.502 21.6393C278.291 20.6883 278.838 19.5659 279.128 18.2564C279.192 17.9602 279.064 17.8043 278.725 17.7887H275.456C275.118 17.7887 274.941 17.6328 274.957 17.3366C274.957 17.0404 275.118 16.9001 275.456 16.9001H279.047C279.836 16.9313 280.159 17.321 280.03 18.0849C279.724 19.7218 279.064 21.1248 278.065 22.294ZM276.503 13.1743C276.503 14.5306 276.165 15.6062 275.473 16.4013C275.199 16.6351 274.941 16.6351 274.732 16.4013C274.522 16.1674 274.539 15.918 274.796 15.6842C275.312 15.045 275.569 14.0941 275.585 12.8469V11.818C275.569 11.1788 275.891 10.8671 276.551 10.8671H278.323C278.983 10.8671 279.321 11.1944 279.337 11.8492V15.2009C279.337 15.4347 279.466 15.5594 279.708 15.5594H279.804C280.03 15.5594 280.159 15.4503 280.175 15.2165V14.094C280.175 13.7667 280.336 13.6108 280.642 13.6108C280.932 13.6108 281.076 13.7667 281.093 14.094V15.388C281.076 16.0895 280.706 16.448 279.998 16.448H279.434C278.741 16.448 278.403 16.1051 278.419 15.4347V12.1922C278.403 11.896 278.242 11.7401 277.952 11.7556H276.954C276.648 11.7556 276.487 11.9115 276.503 12.2077V13.1743Z" fill="black"/>
<path d="M268.106 27.8283H266.705C266.399 27.8283 266.238 27.688 266.254 27.3918C266.254 27.0956 266.399 26.9397 266.705 26.9397H271.181C271.471 26.9397 271.616 27.0956 271.632 27.3918C271.632 27.688 271.487 27.8439 271.181 27.8283H269.04C268.911 29.0131 268.701 30.1199 268.395 31.1488H269.893C270.65 31.1488 271.02 31.5073 271.02 32.2089V38.8499C271.02 39.5826 270.65 39.9412 269.893 39.9412H268.508C267.751 39.9412 267.381 39.5826 267.397 38.8499V33.6431C267.252 33.9237 267.123 34.1887 266.978 34.4226C266.785 34.6876 266.56 34.7499 266.318 34.6096C266.044 34.4537 265.996 34.2355 266.173 33.9549C267.349 31.975 267.993 29.9328 268.106 27.8283ZM268.315 38.507C268.315 38.8811 268.476 39.0682 268.814 39.0682H269.507C269.893 39.0682 270.086 38.8811 270.102 38.507V32.5207C270.102 32.1933 269.909 32.0374 269.507 32.0374H268.814C268.476 32.0374 268.299 32.1933 268.315 32.5207V38.507ZM272.131 35.4982C272.131 35.1708 272.292 35.0149 272.631 35.0305C272.937 35.0461 273.081 35.2176 273.065 35.545C273.001 36.8233 272.711 38.2575 272.18 39.8476C272.083 40.175 271.89 40.2997 271.584 40.2062C271.278 40.1127 271.181 39.91 271.294 39.5826C271.793 38.086 272.067 36.7298 272.131 35.4982ZM280.046 26.7682C280.368 26.7682 280.529 26.9085 280.545 27.2047C280.545 27.5009 280.384 27.6568 280.046 27.6412H276.874V28.9507H279.933C280.223 28.9507 280.368 29.1066 280.384 29.4028C280.384 29.699 280.239 29.8549 279.933 29.8393H276.874V31.1488H279.933C280.223 31.1488 280.368 31.2891 280.384 31.5853C280.384 31.8971 280.239 32.053 279.933 32.0374H276.874V33.456H279.354C280.271 33.456 280.722 33.8457 280.706 34.6408C280.706 36.8077 280.658 38.1796 280.561 38.7876C280.449 39.4111 280.271 39.8788 280.03 40.1906C279.869 40.3465 279.66 40.4712 279.402 40.5648C279.193 40.6427 278.887 40.6739 278.484 40.6583C278.081 40.6583 277.47 40.518 276.68 40.253C276.342 40.1906 276.197 40.0035 276.246 39.7073C276.31 39.4111 276.519 39.2864 276.858 39.3332C277.969 39.7229 278.726 39.8009 279.128 39.5514C279.257 39.4579 279.354 39.3332 279.434 39.1929C279.643 38.6473 279.74 37.2754 279.756 35.1085C279.756 34.594 279.531 34.329 279.08 34.3446H273.057C272.365 34.3446 272.043 34.0172 272.059 33.3781V27.8283C272.043 27.1267 272.397 26.7838 273.154 26.7682H280.046ZM275.972 32.0374H272.977V33.0039C272.961 33.3001 273.106 33.456 273.428 33.456H275.972V32.0374ZM272.969 28.9507H275.964V27.6412H273.484C273.114 27.6412 272.953 27.8127 272.969 28.1712V28.9507ZM272.969 31.1488H275.964V29.8393H272.969V31.1488ZM273.758 35.7009C273.693 35.3735 273.806 35.1864 274.112 35.1397C274.418 35.0929 274.595 35.2176 274.643 35.545C274.772 36.683 274.853 37.899 274.885 39.1617C274.869 39.4891 274.708 39.6606 274.418 39.645C274.112 39.645 273.967 39.4735 273.983 39.1461C273.983 37.9302 273.903 36.7765 273.758 35.7009ZM275.537 35.545C275.441 35.2488 275.537 35.0617 275.843 34.9838C276.117 34.9058 276.31 35.0149 276.423 35.3267C276.6 36.2933 276.761 37.3066 276.906 38.3822C276.922 38.7096 276.777 38.8811 276.487 38.8967C276.165 38.9279 276.004 38.772 276.004 38.4446C275.908 37.4001 275.747 36.4336 275.537 35.545ZM277.373 35.4203C277.26 35.1241 277.325 34.9214 277.598 34.8123C277.872 34.7032 278.081 34.7967 278.21 35.0929C278.5 35.888 278.758 36.7142 278.967 37.6028C279.032 37.9146 278.919 38.1016 278.613 38.164C278.307 38.2264 278.114 38.1016 278.065 37.7743C277.856 36.9324 277.631 36.153 277.373 35.4203Z" fill="black"/>
<path d="M280.11 42.1704C280.432 42.1704 280.593 42.3107 280.609 42.6069C280.609 42.9187 280.448 43.0746 280.11 43.059H268.484C268.081 43.059 267.872 43.2461 267.888 43.6202V54.143C267.888 54.5639 268.113 54.7822 268.548 54.7822H280.239C280.545 54.7822 280.706 54.9225 280.722 55.2187C280.722 55.5149 280.561 55.6708 280.239 55.6552H268.307C267.389 55.6552 266.954 55.2187 266.97 54.3457V43.2617C266.97 42.529 267.341 42.1704 268.097 42.1704H280.11ZM271.02 47.6579H279.732C280.022 47.6579 280.167 47.7982 280.183 48.0944C280.183 48.3906 280.038 48.5465 279.732 48.5309H276.109V53.8001C276.109 54.1118 275.964 54.2677 275.658 54.2677C275.352 54.2677 275.191 54.1118 275.207 53.8001V48.5309H271.02V49.2947C271.02 50.9316 270.537 52.397 269.587 53.6909C269.345 53.956 269.088 53.9715 268.846 53.7533C268.605 53.5506 268.605 53.3012 268.862 53.0362C269.684 51.9137 270.086 50.6666 270.102 49.2947V45.7871C270.07 44.9609 270.44 44.5556 271.197 44.54C273.838 44.4776 276.254 44.3062 278.46 44.0255C278.782 43.9944 278.975 44.1191 279.039 44.4153C279.072 44.7115 278.927 44.883 278.605 44.9297C276.366 45.1792 274.031 45.3506 271.584 45.4286C271.213 45.4286 271.02 45.6624 271.02 46.1145V47.6579Z" fill="black"/>
</svg>
