<svg width="295" height="66" viewBox="0 0 295 66" fill="none" xmlns="http://www.w3.org/2000/svg">
<path d="M1 1L1 65L294.127 65V1L1 1Z" fill="black" stroke="white" stroke-width="1.64683" stroke-miterlimit="10"/>
<path d="M53.7326 48.3677H79.7311C80.4133 48.3677 80.9512 48.9063 80.9512 49.5364V51.1326L77.9628 54.0256H55.5009L52.5126 51.1326V49.5364C52.5126 48.9063 53.0505 48.3677 53.7326 48.3677Z" fill="white" stroke="white" stroke-width="0.780488"/>
<path d="M79.7311 17.6712H53.7326C53.0505 17.6712 52.5126 17.1326 52.5126 16.5025V14.9063L55.5009 12.0133H77.9628L80.9512 14.9063V16.5025C80.9512 17.1326 80.4133 17.6712 79.7311 17.6712Z" fill="white" stroke="white" stroke-width="0.780488"/>
<path d="M52.5126 43.2227V22.7383C52.5126 22.1047 53.0468 21.5696 53.7326 21.5696H57.2592C57.9451 21.5696 58.4793 22.1047 58.4793 22.7383V43.2227C58.4793 43.8563 57.9451 44.3914 57.2592 44.3914H53.7326C53.0468 44.3914 52.5126 43.8563 52.5126 43.2227Z" fill="white" stroke="white" stroke-width="0.780488"/>
<path d="M74.9925 43.2227V22.7383C74.9925 22.1047 75.5268 21.5696 76.2126 21.5696H79.7392C80.425 21.5696 80.9593 22.1047 80.9593 22.7383V43.2227C80.9593 43.8563 80.425 44.3914 79.7392 44.3914H76.2126C75.5268 44.3914 74.9925 43.8563 74.9925 43.2227Z" fill="white" stroke="white" stroke-width="0.780488"/>
<path d="M151.946 22.7384V43.2228C151.946 44.0802 152.67 44.7817 153.556 44.7817H155.472C156.728 43.5657 157.437 42.8798 158.693 41.6638V24.2973C157.437 23.0813 156.728 22.3954 155.472 21.1794H153.556C152.67 21.1794 151.946 21.881 151.946 22.7384Z" fill="#1A8C16"/>
<path d="M151.076 18.0614H125.077C124.192 18.0614 123.467 17.3599 123.467 16.5025V13.182C123.467 12.3246 124.192 11.623 125.077 11.623H149.465C150.722 12.839 151.43 13.5249 152.686 14.7409V16.5025C152.686 17.3599 151.961 18.0614 151.076 18.0614Z" fill="#1A8C16"/>
<path d="M151.076 47.9774H125.077C124.192 47.9774 123.467 48.6789 123.467 49.5364V52.8569C123.467 53.7143 124.192 54.4158 125.077 54.4158H149.465C150.722 53.1998 151.43 52.5139 152.686 51.2979V49.5364C152.686 48.6789 151.961 47.9774 151.076 47.9774Z" fill="#1A8C16"/>
<path d="M123.459 22.7383V43.2227C123.459 44.0837 124.18 44.7816 125.07 44.7816H128.596C129.485 44.7816 130.206 44.0837 130.206 43.2227V22.7383C130.206 21.8773 129.485 21.1794 128.596 21.1794H125.07C124.18 21.1794 123.459 21.8773 123.459 22.7383Z" fill="#1A8C16"/>
<path d="M166.736 13.1432V52.818C166.736 53.679 167.457 54.377 168.347 54.377H171.873C172.763 54.377 173.484 53.679 173.484 52.818V13.1432C173.484 12.2822 172.763 11.5842 171.873 11.5842H168.347C167.457 11.5842 166.736 12.2822 166.736 13.1432Z" fill="#1A8C16"/>
<path d="M44.0709 17.6713H18.0725C17.3903 17.6713 16.8524 17.1327 16.8524 16.5026V14.9064L19.8407 12.0134H42.3027L45.291 14.9064V16.5026C45.291 17.1327 44.7531 17.6713 44.0709 17.6713Z" fill="white" stroke="white" stroke-width="0.780488"/>
<path d="M16.933 52.857V32.3726C16.933 31.7389 17.4672 31.2039 18.153 31.2039H21.6796C22.3655 31.2039 22.8997 31.7389 22.8997 32.3726V52.857C22.8997 53.4906 22.3655 54.0256 21.6796 54.0256H18.153C17.4672 54.0256 16.933 53.4906 16.933 52.857Z" fill="white" stroke="white" stroke-width="0.780488"/>
<path d="M44.0709 27.2276H18.0725C17.3903 27.2276 16.8524 26.689 16.8524 26.0589V24.4627L18.3439 23.0188L19.8407 21.5697H42.3027L43.7995 23.0188L45.291 24.4627V26.0589C45.291 26.689 44.7531 27.2276 44.0709 27.2276Z" fill="white" stroke="white" stroke-width="0.780488"/>
<path d="M89.4008 21.5306H115.399C116.081 21.5306 116.619 22.0693 116.619 22.6993V24.2955L113.631 27.1885H91.1691L88.1808 24.2955V22.6993C88.1808 22.0693 88.7187 21.5306 89.4008 21.5306Z" fill="white" stroke="white" stroke-width="0.780488"/>
<path d="M115.399 17.6323H89.4008C88.7187 17.6323 88.1808 17.0936 88.1808 16.4636V14.8673L89.6723 13.4234L91.1691 11.9744H113.631L115.128 13.4234L116.619 14.8673V16.4636C116.619 17.0936 116.081 17.6323 115.399 17.6323Z" fill="white" stroke="white" stroke-width="0.780488"/>
<path d="M115.673 53.9866H111.129L99.0359 33.7081L99.0359 33.7081L99.0353 33.707C98.5097 32.8322 98.791 31.7202 99.67 31.1648H104.284L116.353 51.4042L116.353 51.4053C116.888 52.2954 116.594 53.4405 115.673 53.9866Z" fill="white" stroke="white" stroke-width="0.780488"/>
<path d="M88.173 52.818V32.3336C88.173 31.7 88.7072 31.1649 89.393 31.1649H92.9196C93.6055 31.1649 94.1397 31.7 94.1397 32.3336V52.818C94.1397 53.4516 93.6055 53.9867 92.9196 53.9867H89.393C88.7072 53.9867 88.173 53.4516 88.173 52.818Z" fill="white" stroke="white" stroke-width="0.780488"/>
<path d="M188.282 22.7149V43.1993C188.282 44.0567 187.558 44.7583 186.672 44.7583H184.756C183.5 43.5423 182.791 42.8564 181.535 41.6404V24.2739C182.791 23.0579 183.5 22.372 184.756 21.156H186.672C187.558 21.156 188.282 21.8575 188.282 22.7149Z" fill="#1A8C16"/>
<path d="M206.495 47.9152H190.376C189.49 47.9152 188.765 48.6167 188.765 49.4741V51.2357C190.021 52.4517 190.73 53.1376 191.986 54.3536H204.885C206.141 53.1376 206.849 52.4517 208.105 51.2357V49.4741C208.105 48.6167 207.381 47.9152 206.495 47.9152Z" fill="#1A8C16"/>
<path d="M211.326 52.7946V40.8531C211.326 39.9957 212.05 39.2942 212.936 39.2942H215.972C216.857 39.2942 217.582 39.9957 217.582 40.8531V51.2356C216.326 52.4516 215.617 53.1375 214.361 54.3535H212.936C212.05 54.3535 211.326 53.652 211.326 52.7946Z" fill="#1A8C16"/>
<path d="M203.459 36.1764H215.972C216.857 36.1764 217.582 35.4749 217.582 34.6175V32.8559C216.326 31.6399 215.617 30.954 214.361 29.738H203.459C202.574 29.738 201.849 30.4396 201.849 31.297V34.6175C201.849 35.4749 202.574 36.1764 203.459 36.1764Z" fill="#1A8C16"/>
<path d="M215.98 18.0381H190.384C189.498 18.0381 188.773 17.3366 188.773 16.4792V14.7176C190.029 13.5016 190.738 12.8157 191.994 11.5997H214.369C215.625 12.8157 216.334 13.5016 217.59 14.7176V16.4792C217.59 17.3366 216.865 18.0381 215.98 18.0381Z" fill="#1A8C16"/>
<path d="M224.023 22.785V43.2694C224.023 44.1304 224.744 44.8284 225.633 44.8284H229.16C230.049 44.8284 230.77 44.1304 230.77 43.2694V22.785C230.77 21.9241 230.049 21.2261 229.16 21.2261H225.633C224.744 21.2261 224.023 21.9241 224.023 22.785Z" fill="#B1AABF"/>
<path d="M235.593 36.2387H251.64C252.526 36.2387 253.25 35.5372 253.25 34.6798V32.9182C251.994 31.7022 251.286 31.0163 250.03 29.8003H235.593C234.707 29.8003 233.983 30.5018 233.983 31.3592V34.6798C233.983 35.5372 234.707 36.2387 235.593 36.2387Z" fill="#B1AABF"/>
<path d="M251.64 18.0614H225.641C224.756 18.0614 224.031 17.3599 224.031 16.5025V13.182C224.031 12.3246 224.756 11.623 225.641 11.623H250.029C251.285 12.839 251.994 13.5249 253.25 14.7409V16.5025C253.25 17.3599 252.525 18.0614 251.64 18.0614Z" fill="#B1AABF"/>
<path d="M251.64 47.9774H225.641C224.756 47.9774 224.031 48.6789 224.031 49.5364V52.8569C224.031 53.7143 224.756 54.4158 225.641 54.4158H250.029C251.285 53.1998 251.994 52.5139 253.25 51.2979V49.5364C253.25 48.6789 252.525 47.9774 251.64 47.9774Z" fill="#B1AABF"/>
<mask id="path-27-inside-1_1164_1715" fill="white">
<path d="M266.205 13.3925C266.898 12.8157 267.606 11.9895 268.315 10.8826C268.427 10.7112 268.572 10.6176 268.766 10.602C268.959 10.5864 269.217 10.6644 269.522 10.8515L271.229 12.7222C271.471 12.956 271.503 13.1743 271.294 13.3925C271.084 13.6108 270.859 13.6108 270.617 13.3769L269.136 11.6621C269.039 11.6153 268.959 11.5998 268.894 11.6153C268.814 11.6309 268.75 11.6777 268.701 11.7712C268.202 12.5975 267.574 13.3458 266.833 14.0473C266.592 14.2811 266.35 14.2811 266.141 14.0629C265.931 13.8602 265.948 13.6264 266.205 13.3925ZM268.476 17.8978H266.592C266.27 17.8978 266.109 17.7575 266.125 17.4613C266.125 17.1652 266.286 17.0248 266.592 17.0248H268.476V15.3412H267.091C266.769 15.3412 266.608 15.2009 266.624 14.9047C266.624 14.6085 266.785 14.4682 267.091 14.4682H270.617C270.907 14.4682 271.052 14.6085 271.068 14.9047C271.068 15.2009 270.923 15.3568 270.617 15.3412H269.378V17.0248H270.923C271.213 17.0248 271.358 17.1652 271.374 17.4613C271.374 17.7575 271.229 17.9134 270.923 17.8978H269.378V22.9332C269.78 22.8085 270.199 22.6682 270.601 22.5123C270.875 22.4032 271.084 22.4811 271.213 22.7461C271.326 23.0112 271.262 23.2138 270.988 23.3229C269.683 23.853 268.25 24.2115 266.721 24.3986C266.415 24.461 266.237 24.3362 266.189 24.04C266.125 23.7439 266.254 23.5724 266.576 23.5256C267.204 23.4321 267.848 23.3074 268.476 23.167V17.8978ZM266.415 19.3165C266.302 19.0203 266.382 18.8176 266.688 18.7241C266.978 18.6305 267.171 18.7397 267.268 19.0515C267.51 19.9401 267.719 20.8754 267.896 21.8575C267.912 22.2005 267.783 22.3876 267.493 22.4032C267.188 22.4343 267.01 22.294 266.994 21.9667C266.833 21.0157 266.64 20.1427 266.415 19.3165ZM270.312 19.0515C270.344 18.7397 270.505 18.5994 270.811 18.6305C271.117 18.6617 271.245 18.8332 271.213 19.1606C271.052 19.9556 270.843 20.7819 270.601 21.6237C270.489 21.9355 270.279 22.0446 269.989 21.9511C269.716 21.8575 269.619 21.6549 269.732 21.3431C269.973 20.548 270.167 19.7842 270.312 19.0515ZM271.745 12.4728C271.729 11.7089 272.083 11.2724 272.824 11.1944C273.532 11.1633 274.128 11.0697 274.611 10.9138C274.933 10.8515 275.126 10.9606 275.191 11.2568C275.255 11.553 275.11 11.7401 274.772 11.8024C274.337 11.9115 273.806 11.9895 273.21 12.0051C272.824 12.0051 272.63 12.2233 272.646 12.6442V14.2188H274.45C274.74 14.2188 274.885 14.3591 274.901 14.6553C274.901 14.9671 274.756 15.1229 274.45 15.1074H272.646V17.5705H274.45C274.74 17.5705 274.885 17.7108 274.901 18.007C274.901 18.3188 274.756 18.4747 274.45 18.4591H272.646V21.0001C273.274 20.8442 273.886 20.6572 274.45 20.4389C274.724 20.3298 274.933 20.4077 275.062 20.6728C275.175 20.9378 275.078 21.1404 274.804 21.2651C274.176 21.499 273.468 21.7016 272.646 21.9043V24.4454C272.646 24.7727 272.502 24.9286 272.196 24.9286C271.89 24.9286 271.729 24.7727 271.745 24.4454V22.1382C271.519 22.1849 271.31 22.2317 271.133 22.2785C270.811 22.3408 270.634 22.2161 270.601 21.9043C270.537 21.6081 270.65 21.4366 270.956 21.3899C271.197 21.3275 271.471 21.2651 271.745 21.2184V12.4728ZM278.065 22.294C278.822 23.0891 279.74 23.7127 280.803 24.1648C281.109 24.2895 281.189 24.4921 281.076 24.7727C280.948 25.0378 280.722 25.1157 280.416 24.9754C279.257 24.461 278.274 23.7906 277.453 22.9332C276.616 23.7283 275.617 24.383 274.458 24.9131C274.152 25.0534 273.927 24.991 273.798 24.726C273.669 24.461 273.75 24.2427 274.055 24.1024C275.167 23.6191 276.117 23.0112 276.89 22.294C276.084 21.3119 275.456 20.1427 275.006 18.7864C274.909 18.4902 275.006 18.2876 275.312 18.194C275.585 18.1005 275.795 18.2096 275.907 18.5214C276.278 19.7218 276.809 20.7663 277.502 21.6393C278.291 20.6883 278.838 19.5659 279.128 18.2564C279.192 17.9602 279.064 17.8043 278.725 17.7887H275.456C275.118 17.7887 274.941 17.6328 274.957 17.3366C274.957 17.0404 275.118 16.9001 275.456 16.9001H279.047C279.836 16.9313 280.159 17.321 280.03 18.0849C279.724 19.7218 279.064 21.1248 278.065 22.294ZM276.503 13.1743C276.503 14.5306 276.165 15.6062 275.473 16.4013C275.199 16.6351 274.941 16.6351 274.732 16.4013C274.522 16.1674 274.539 15.918 274.796 15.6842C275.312 15.045 275.569 14.0941 275.585 12.8469V11.818C275.569 11.1788 275.891 10.8671 276.551 10.8671H278.323C278.983 10.8671 279.321 11.1944 279.337 11.8492V15.2009C279.337 15.4347 279.466 15.5594 279.708 15.5594H279.804C280.03 15.5594 280.159 15.4503 280.175 15.2165V14.094C280.175 13.7667 280.336 13.6108 280.642 13.6108C280.932 13.6108 281.076 13.7667 281.093 14.094V15.388C281.076 16.0895 280.706 16.448 279.998 16.448H279.434C278.741 16.448 278.403 16.1051 278.419 15.4347V12.1922C278.403 11.896 278.242 11.7401 277.952 11.7556H276.954C276.648 11.7556 276.487 11.9115 276.503 12.2077V13.1743Z"/>
</mask>
<path d="M266.205 13.3925C266.898 12.8157 267.606 11.9895 268.315 10.8826C268.427 10.7112 268.572 10.6176 268.766 10.602C268.959 10.5864 269.217 10.6644 269.522 10.8515L271.229 12.7222C271.471 12.956 271.503 13.1743 271.294 13.3925C271.084 13.6108 270.859 13.6108 270.617 13.3769L269.136 11.6621C269.039 11.6153 268.959 11.5998 268.894 11.6153C268.814 11.6309 268.75 11.6777 268.701 11.7712C268.202 12.5975 267.574 13.3458 266.833 14.0473C266.592 14.2811 266.35 14.2811 266.141 14.0629C265.931 13.8602 265.948 13.6264 266.205 13.3925ZM268.476 17.8978H266.592C266.27 17.8978 266.109 17.7575 266.125 17.4613C266.125 17.1652 266.286 17.0248 266.592 17.0248H268.476V15.3412H267.091C266.769 15.3412 266.608 15.2009 266.624 14.9047C266.624 14.6085 266.785 14.4682 267.091 14.4682H270.617C270.907 14.4682 271.052 14.6085 271.068 14.9047C271.068 15.2009 270.923 15.3568 270.617 15.3412H269.378V17.0248H270.923C271.213 17.0248 271.358 17.1652 271.374 17.4613C271.374 17.7575 271.229 17.9134 270.923 17.8978H269.378V22.9332C269.78 22.8085 270.199 22.6682 270.601 22.5123C270.875 22.4032 271.084 22.4811 271.213 22.7461C271.326 23.0112 271.262 23.2138 270.988 23.3229C269.683 23.853 268.25 24.2115 266.721 24.3986C266.415 24.461 266.237 24.3362 266.189 24.04C266.125 23.7439 266.254 23.5724 266.576 23.5256C267.204 23.4321 267.848 23.3074 268.476 23.167V17.8978ZM266.415 19.3165C266.302 19.0203 266.382 18.8176 266.688 18.7241C266.978 18.6305 267.171 18.7397 267.268 19.0515C267.51 19.9401 267.719 20.8754 267.896 21.8575C267.912 22.2005 267.783 22.3876 267.493 22.4032C267.188 22.4343 267.01 22.294 266.994 21.9667C266.833 21.0157 266.64 20.1427 266.415 19.3165ZM270.312 19.0515C270.344 18.7397 270.505 18.5994 270.811 18.6305C271.117 18.6617 271.245 18.8332 271.213 19.1606C271.052 19.9556 270.843 20.7819 270.601 21.6237C270.489 21.9355 270.279 22.0446 269.989 21.9511C269.716 21.8575 269.619 21.6549 269.732 21.3431C269.973 20.548 270.167 19.7842 270.312 19.0515ZM271.745 12.4728C271.729 11.7089 272.083 11.2724 272.824 11.1944C273.532 11.1633 274.128 11.0697 274.611 10.9138C274.933 10.8515 275.126 10.9606 275.191 11.2568C275.255 11.553 275.11 11.7401 274.772 11.8024C274.337 11.9115 273.806 11.9895 273.21 12.0051C272.824 12.0051 272.63 12.2233 272.646 12.6442V14.2188H274.45C274.74 14.2188 274.885 14.3591 274.901 14.6553C274.901 14.9671 274.756 15.1229 274.45 15.1074H272.646V17.5705H274.45C274.74 17.5705 274.885 17.7108 274.901 18.007C274.901 18.3188 274.756 18.4747 274.45 18.4591H272.646V21.0001C273.274 20.8442 273.886 20.6572 274.45 20.4389C274.724 20.3298 274.933 20.4077 275.062 20.6728C275.175 20.9378 275.078 21.1404 274.804 21.2651C274.176 21.499 273.468 21.7016 272.646 21.9043V24.4454C272.646 24.7727 272.502 24.9286 272.196 24.9286C271.89 24.9286 271.729 24.7727 271.745 24.4454V22.1382C271.519 22.1849 271.31 22.2317 271.133 22.2785C270.811 22.3408 270.634 22.2161 270.601 21.9043C270.537 21.6081 270.65 21.4366 270.956 21.3899C271.197 21.3275 271.471 21.2651 271.745 21.2184V12.4728ZM278.065 22.294C278.822 23.0891 279.74 23.7127 280.803 24.1648C281.109 24.2895 281.189 24.4921 281.076 24.7727C280.948 25.0378 280.722 25.1157 280.416 24.9754C279.257 24.461 278.274 23.7906 277.453 22.9332C276.616 23.7283 275.617 24.383 274.458 24.9131C274.152 25.0534 273.927 24.991 273.798 24.726C273.669 24.461 273.75 24.2427 274.055 24.1024C275.167 23.6191 276.117 23.0112 276.89 22.294C276.084 21.3119 275.456 20.1427 275.006 18.7864C274.909 18.4902 275.006 18.2876 275.312 18.194C275.585 18.1005 275.795 18.2096 275.907 18.5214C276.278 19.7218 276.809 20.7663 277.502 21.6393C278.291 20.6883 278.838 19.5659 279.128 18.2564C279.192 17.9602 279.064 17.8043 278.725 17.7887H275.456C275.118 17.7887 274.941 17.6328 274.957 17.3366C274.957 17.0404 275.118 16.9001 275.456 16.9001H279.047C279.836 16.9313 280.159 17.321 280.03 18.0849C279.724 19.7218 279.064 21.1248 278.065 22.294ZM276.503 13.1743C276.503 14.5306 276.165 15.6062 275.473 16.4013C275.199 16.6351 274.941 16.6351 274.732 16.4013C274.522 16.1674 274.539 15.918 274.796 15.6842C275.312 15.045 275.569 14.0941 275.585 12.8469V11.818C275.569 11.1788 275.891 10.8671 276.551 10.8671H278.323C278.983 10.8671 279.321 11.1944 279.337 11.8492V15.2009C279.337 15.4347 279.466 15.5594 279.708 15.5594H279.804C280.03 15.5594 280.159 15.4503 280.175 15.2165V14.094C280.175 13.7667 280.336 13.6108 280.642 13.6108C280.932 13.6108 281.076 13.7667 281.093 14.094V15.388C281.076 16.0895 280.706 16.448 279.998 16.448H279.434C278.741 16.448 278.403 16.1051 278.419 15.4347V12.1922C278.403 11.896 278.242 11.7401 277.952 11.7556H276.954C276.648 11.7556 276.487 11.9115 276.503 12.2077V13.1743Z" fill="white" stroke="white" stroke-width="1.56098" mask="url(#path-27-inside-1_1164_1715)"/>
<path d="M272.521 35.5084L272.521 35.5186C272.454 36.7924 272.172 38.1837 271.664 39.7061L271.663 39.7097L271.663 39.7097C271.645 39.7603 271.64 39.7922 271.639 39.8098C271.65 39.8159 271.669 39.8242 271.698 39.833C271.728 39.8421 271.748 39.8451 271.759 39.8459C271.769 39.8319 271.787 39.8004 271.805 39.7372L271.809 39.7239L271.809 39.724C272.332 38.1594 272.613 36.7608 272.675 35.5257C272.675 35.5256 272.675 35.5255 272.675 35.5253L272.521 35.5084ZM272.521 35.5084V35.4982M272.521 35.5084V35.4982M272.521 35.4982C272.521 35.4625 272.525 35.4386 272.528 35.4239M272.521 35.4982L272.528 35.4239M272.528 35.4239C272.543 35.421 272.57 35.4185 272.611 35.4203C272.64 35.4218 272.659 35.4255 272.67 35.4285L272.528 35.4239ZM268.495 27.8491L268.517 27.438H268.105H266.705C266.678 27.438 266.658 27.4363 266.643 27.4341C266.643 27.428 266.643 27.421 266.643 27.4129L266.644 27.4024V27.3918C266.644 27.3653 266.646 27.3465 266.648 27.334C266.66 27.3319 266.679 27.3299 266.705 27.3299H271.181C271.205 27.3299 271.221 27.3319 271.23 27.3338C271.234 27.3457 271.239 27.3672 271.242 27.4022C271.241 27.417 271.24 27.4291 271.239 27.4386C271.229 27.4392 271.217 27.4393 271.201 27.4385L271.191 27.438H271.181H269.039H268.689L268.652 27.7861C268.525 28.9519 268.319 30.0351 268.021 31.0376L267.872 31.539H268.395H269.893C270.216 31.539 270.384 31.616 270.472 31.6991C270.556 31.7784 270.63 31.9238 270.63 32.2089V38.8499C270.63 39.155 270.553 39.3083 270.469 39.3899C270.382 39.474 270.216 39.5509 269.893 39.5509H268.508C268.184 39.5509 268.02 39.4736 267.936 39.3914C267.855 39.3124 267.78 39.1623 267.787 38.8585L267.787 38.8585V38.8499V33.6431L267.05 33.464C267.018 33.5255 266.988 33.5847 266.959 33.642C266.852 33.8523 266.758 34.0357 266.655 34.2034C266.627 34.2406 266.603 34.2632 266.586 34.2765C266.577 34.2835 266.571 34.2875 266.567 34.2897C266.564 34.2911 266.562 34.2918 266.561 34.2921C266.561 34.2921 266.561 34.292 266.56 34.292C266.556 34.2913 266.541 34.2878 266.514 34.2722L266.514 34.2722L266.511 34.2705C266.489 34.2577 266.474 34.2469 266.464 34.2391C266.47 34.223 266.481 34.1979 266.503 34.1632L266.503 34.1633L266.509 34.1541C267.713 32.1252 268.379 30.0223 268.495 27.8491ZM279.982 29.3448C279.986 29.3568 279.991 29.3782 279.994 29.4132C279.993 29.4281 279.992 29.4401 279.991 29.4497C279.981 29.4502 279.969 29.4503 279.953 29.4495L279.943 29.449H279.933H276.874H276.483V29.8393V31.1488V31.539H276.874H279.933C279.957 31.539 279.975 31.5408 279.986 31.5426C279.989 31.5542 279.992 31.5715 279.994 31.596C279.993 31.6181 279.992 31.6351 279.99 31.6478C279.98 31.6483 279.968 31.6484 279.953 31.6476L279.943 31.6471H279.933H276.874H276.483V32.0374V33.456V33.8463H276.874H279.353C279.767 33.8463 279.999 33.9356 280.123 34.0442C280.236 34.1422 280.323 34.3108 280.316 34.6329L280.316 34.6329V34.6408C280.316 36.8113 280.267 38.1486 280.176 38.7223C280.072 39.2971 279.917 39.6868 279.738 39.929C279.626 40.0316 279.473 40.1236 279.269 40.1979L279.269 40.1979L279.266 40.199C279.129 40.2499 278.885 40.2833 278.499 40.2683L278.491 40.268H278.484C278.149 40.268 277.589 40.1465 276.805 39.883L276.778 39.8742L276.751 39.8692C276.673 39.8548 276.639 39.8359 276.628 39.8278C276.627 39.8203 276.626 39.8052 276.629 39.7803C276.637 39.7499 276.645 39.7347 276.649 39.729L276.651 39.7258L276.651 39.7252L276.651 39.7252C276.652 39.725 276.654 39.7238 276.659 39.7222C276.663 39.7205 276.671 39.7183 276.683 39.7166C276.703 39.7138 276.731 39.7125 276.77 39.7159C277.323 39.9076 277.809 40.0301 278.22 40.0704C278.635 40.111 279.027 40.0734 279.334 39.8832L279.346 39.8756L279.357 39.8672C279.545 39.7307 279.675 39.5565 279.772 39.3871L279.788 39.3609L279.798 39.3327C279.926 39.001 280.004 38.4697 280.057 37.7885C280.11 37.0935 280.138 36.1985 280.146 35.1114H280.146V35.1085C280.146 34.8037 280.081 34.4992 279.88 34.2706C279.671 34.0314 279.377 33.9454 279.074 33.9544H273.057C272.765 33.9544 272.629 33.8847 272.565 33.8223C272.505 33.7633 272.442 33.6449 272.449 33.3879L272.449 33.3879V33.3781V27.8283H272.449L272.449 27.8193C272.442 27.5319 272.512 27.3944 272.588 27.3214C272.669 27.2429 272.831 27.1657 273.158 27.1584H280.046C280.102 27.1584 280.133 27.1647 280.148 27.1692C280.15 27.1783 280.153 27.1931 280.155 27.2152C280.154 27.2288 280.153 27.2394 280.152 27.2474C280.136 27.2505 280.108 27.2534 280.064 27.2514L280.055 27.2509H280.046H276.874H276.483V27.6412V28.9507V29.3409H276.874H279.933C279.957 29.3409 279.973 29.3429 279.982 29.3448ZM277.799 35.1589C277.808 35.168 277.826 35.1904 277.848 35.239C278.131 36.0164 278.382 36.8219 278.586 37.6864C278.593 37.725 278.595 37.7499 278.594 37.7645C278.583 37.7693 278.564 37.7757 278.535 37.7816C278.504 37.7879 278.482 37.7894 278.469 37.7893C278.463 37.7757 278.457 37.7527 278.451 37.7173L278.449 37.6985L278.444 37.6801C278.232 36.8296 278.004 36.0379 277.741 35.2908L277.741 35.2908L277.738 35.2815C277.721 35.2382 277.714 35.208 277.712 35.1891C277.719 35.1851 277.729 35.1802 277.743 35.1748C277.771 35.1634 277.79 35.1599 277.799 35.1589ZM270.492 38.5237L270.493 38.5154V38.507V32.5207C270.493 32.2775 270.417 32.0281 270.201 31.853C270.002 31.6916 269.747 31.6471 269.506 31.6471H268.814C268.594 31.6471 268.349 31.6969 268.164 31.8726C267.972 32.0533 267.915 32.2975 267.925 32.5293V38.507C267.925 38.7408 267.974 38.9918 268.145 39.1861C268.325 39.39 268.574 39.4584 268.814 39.4584H269.506C269.758 39.4584 270.015 39.3974 270.212 39.211C270.409 39.024 270.482 38.7712 270.492 38.5237ZM276.362 32.0374V31.6471H275.972H272.977H272.586V32.0374V32.9944C272.577 33.2011 272.621 33.4346 272.797 33.6142C272.973 33.7944 273.211 33.8463 273.428 33.8463H275.972H276.362V33.456V32.0374ZM272.578 28.9507V29.3409H272.969H275.964H276.354V28.9507V27.6412V27.2509H275.964H273.484C273.248 27.2509 272.99 27.3047 272.8 27.5009C272.613 27.6952 272.57 27.9504 272.578 28.1793V28.9507ZM272.578 31.1488V31.539H272.969H275.964H276.354V31.1488V29.8393V29.449H275.964H272.969H272.578V29.8393V31.1488ZM274.144 35.6488L274.143 35.6371L274.141 35.6255C274.132 35.5829 274.13 35.553 274.13 35.5339C274.14 35.5311 274.153 35.5281 274.171 35.5254C274.202 35.5206 274.224 35.52 274.238 35.5206C274.243 35.5344 274.25 35.5581 274.256 35.5962C274.383 36.7147 274.462 37.9112 274.494 39.1555C274.491 39.2109 274.481 39.2407 274.475 39.2545C274.468 39.2555 274.456 39.2562 274.439 39.2553L274.428 39.2547H274.418C274.4 39.2547 274.386 39.2536 274.376 39.2522C274.373 39.2348 274.371 39.2067 274.373 39.1653L274.373 39.1557V39.1461C274.373 37.913 274.292 36.742 274.144 35.6488ZM274.23 35.5042C274.23 35.5041 274.23 35.5046 274.231 35.5056L274.23 35.5042ZM275.917 35.4555L275.913 35.4395L275.908 35.424C275.902 35.404 275.898 35.388 275.895 35.3756C275.906 35.3714 275.921 35.3667 275.939 35.3619L275.939 35.3621L275.95 35.3591C275.975 35.352 275.991 35.3502 275.999 35.3499C276.008 35.3593 276.025 35.3826 276.045 35.4324C276.218 36.3765 276.375 37.3661 276.517 38.4161C276.518 38.4607 276.514 38.4872 276.51 38.5013C276.501 38.5035 276.487 38.5059 276.466 38.507L276.458 38.5075L276.45 38.5083C276.428 38.5104 276.411 38.5106 276.399 38.5102C276.396 38.4951 276.394 38.4737 276.394 38.4446V38.4266L276.393 38.4087C276.294 37.3465 276.13 36.3621 275.917 35.4555ZM272.509 35.4291C272.509 35.4291 272.509 35.4288 272.511 35.4283L272.509 35.4291ZM272.666 35.4157C272.666 35.4157 272.666 35.4159 272.666 35.4164L272.666 35.4157Z" fill="white" stroke="white" stroke-width="0.780488"/>
<path d="M279.785 48.0517C279.788 48.0632 279.791 48.0805 279.792 48.1049C279.792 48.1197 279.791 48.1317 279.79 48.1412C279.78 48.1418 279.767 48.1419 279.752 48.1411L279.742 48.1406H279.732H276.109H275.718V48.5309V53.8001C275.718 53.835 275.715 53.8587 275.712 53.8737C275.701 53.8757 275.683 53.8775 275.658 53.8775C275.63 53.8775 275.611 53.8753 275.598 53.8729C275.596 53.861 275.595 53.8438 275.597 53.8202L275.597 53.8101V53.8001V48.5309V48.1406H275.207H271.02H270.63V48.5309V49.2947C270.63 50.8412 270.178 52.2195 269.286 53.4416C269.253 53.4757 269.227 53.4944 269.21 53.5042C269.2 53.5096 269.194 53.5121 269.191 53.5132L269.187 53.5141L269.186 53.5143L269.186 53.5143L269.186 53.5143C269.186 53.5143 269.186 53.5143 269.186 53.5142C269.185 53.5141 269.182 53.5135 269.176 53.5112C269.165 53.5065 269.141 53.4941 269.108 53.4637L269.102 53.4589L269.097 53.4543C269.078 53.4381 269.067 53.4256 269.061 53.4178C269.068 53.401 269.087 53.3645 269.142 53.3082L269.161 53.2886L269.177 53.2666C270.048 52.077 270.475 50.7505 270.492 49.2993L270.492 49.2993V49.2947V45.7871V45.7795L270.492 45.7719C270.478 45.4118 270.555 45.2203 270.646 45.1185C270.732 45.0214 270.891 44.9366 271.205 44.9302L271.206 44.9301C273.856 44.8676 276.283 44.6956 278.503 44.4135C278.592 44.4055 278.624 44.4197 278.63 44.4223C278.634 44.4275 278.644 44.4425 278.653 44.4778C278.654 44.4958 278.653 44.5081 278.652 44.5155C278.64 44.5221 278.611 44.534 278.554 44.5427C276.33 44.7904 274.01 44.9607 271.577 45.0384C271.307 45.0398 271.046 45.13 270.862 45.354C270.687 45.5664 270.63 45.8415 270.63 46.1145V47.6579V48.0481H271.02H279.732C279.756 48.0481 279.773 48.0498 279.785 48.0517ZM278.627 44.4202C278.627 44.42 278.628 44.4206 278.629 44.4222C278.628 44.421 278.627 44.4203 278.627 44.4202ZM280.128 42.6692L280.119 42.6688H280.11H268.484C268.23 42.6688 267.964 42.7268 267.763 42.9135C267.556 43.1059 267.488 43.3689 267.498 43.6279V54.143C267.498 54.4206 267.573 54.697 267.784 54.9008C267.992 55.1025 268.27 55.1724 268.548 55.1724H280.239C280.284 55.1724 280.311 55.1772 280.324 55.181C280.327 55.1904 280.33 55.2058 280.332 55.2292C280.331 55.2435 280.33 55.2546 280.329 55.2629C280.314 55.2652 280.291 55.267 280.258 55.2654L280.249 55.2649H280.239H268.307C267.902 55.2649 267.682 55.1684 267.562 55.0499C267.444 54.9339 267.353 54.7285 267.36 54.3529L267.36 54.3529V54.3457V43.2617C267.36 42.9566 267.437 42.8033 267.521 42.7217C267.608 42.6376 267.774 42.5607 268.097 42.5607H280.11C280.166 42.5607 280.197 42.5669 280.212 42.5714C280.214 42.5805 280.217 42.5954 280.219 42.6176C280.219 42.6391 280.217 42.6547 280.215 42.6654C280.199 42.6684 280.171 42.6712 280.128 42.6692ZM280.234 42.66C280.234 42.66 280.234 42.6603 280.233 42.6606L280.234 42.66Z" fill="white" stroke="white" stroke-width="0.780488"/>
</svg>
