<svg width="64" height="64" viewBox="0 0 64 64" fill="none" xmlns="http://www.w3.org/2000/svg">
<path d="M46.2222 0C50.9372 0 55.459 1.87301 58.793 5.20699C62.127 8.54097 64 13.0628 64 17.7778V46.2222C64 50.9372 62.127 55.459 58.793 58.793C55.459 62.127 50.9372 64 46.2222 64H17.7778C13.0628 64 8.54097 62.127 5.20699 58.793C1.87301 55.459 0 50.9372 0 46.2222V17.7778C0 13.0628 1.87301 8.54097 5.20699 5.20699C8.54097 1.87301 13.0628 0 17.7778 0H46.2222ZM32 17.7778C28.3511 17.7778 24.8419 19.1802 22.198 21.695C19.5541 24.2098 17.978 27.6446 17.7956 31.2889L17.7778 32C17.7778 34.8129 18.6119 37.5626 20.1747 39.9014C21.7374 42.2403 23.9586 44.0632 26.5574 45.1396C29.1562 46.2161 32.0158 46.4977 34.7746 45.9489C37.5335 45.4002 40.0676 44.0456 42.0566 42.0566C44.0456 40.0676 45.4002 37.5335 45.9489 34.7746C46.4977 32.0158 46.2161 29.1562 45.1396 26.5574C44.0632 23.9586 42.2403 21.7374 39.9014 20.1747C37.5626 18.6119 34.8129 17.7778 32 17.7778ZM48 12.4444C47.1291 12.4446 46.2886 12.7643 45.6378 13.343C44.987 13.9217 44.5712 14.7191 44.4693 15.584L44.4444 16.0356C44.4454 16.9418 44.7925 17.8134 45.4146 18.4724C46.0367 19.1314 46.8869 19.5279 47.7916 19.5811C48.6963 19.6342 49.5871 19.3398 50.2821 18.7582C50.977 18.1765 51.4236 17.3515 51.5307 16.4516L51.5556 16C51.5556 15.057 51.181 14.1526 50.5142 13.4858C49.8474 12.819 48.943 12.4444 48 12.4444Z" fill="black"/>
</svg>
