<svg width="60" height="50" viewBox="0 0 60 50" fill="none" xmlns="http://www.w3.org/2000/svg">
<path d="M13.5331 14.208C12.9251 14.208 12.3331 14.096 11.7571 13.872C11.1917 13.6373 10.7064 13.3493 10.3011 13.008L11.0051 12.032C11.3891 12.3413 11.7837 12.592 12.1891 12.784C12.5944 12.976 13.0584 13.072 13.5811 13.072C14.1571 13.072 14.5837 12.944 14.8611 12.688C15.1491 12.4213 15.2931 12.096 15.2931 11.712C15.2931 11.4133 15.1917 11.168 14.9891 10.976C14.7971 10.7733 14.5464 10.6027 14.2371 10.464C13.9384 10.3147 13.6291 10.1813 13.3091 10.064C12.9037 9.904 12.5037 9.728 12.1091 9.536C11.7251 9.33333 11.4051 9.07733 11.1491 8.768C10.9037 8.448 10.7811 8.04267 10.7811 7.552C10.7811 7.08267 10.8984 6.66667 11.1331 6.304C11.3677 5.93067 11.7091 5.63733 12.1571 5.424C12.6051 5.2 13.1437 5.088 13.7731 5.088C14.3064 5.088 14.8024 5.184 15.2611 5.376C15.7304 5.568 16.1304 5.80267 16.4611 6.08L15.7571 6.992C15.4584 6.77867 15.1491 6.59733 14.8291 6.448C14.5197 6.29867 14.1731 6.224 13.7891 6.224C13.2344 6.224 12.8237 6.352 12.5571 6.608C12.3011 6.85333 12.1731 7.14667 12.1731 7.488C12.1731 7.75467 12.2584 7.97867 12.4291 8.16C12.6104 8.34133 12.8451 8.496 13.1331 8.624C13.4211 8.74133 13.7251 8.864 14.0451 8.992C14.3651 9.10933 14.6797 9.23733 14.9891 9.376C15.3091 9.51467 15.5917 9.68 15.8371 9.872C16.0931 10.064 16.2957 10.304 16.4451 10.592C16.6051 10.8693 16.6851 11.216 16.6851 11.632C16.6851 12.1013 16.5624 12.5333 16.3171 12.928C16.0824 13.3227 15.7304 13.6373 15.2611 13.872C14.8024 14.096 14.2264 14.208 13.5331 14.208ZM22.1694 14.208C21.4014 14.208 20.7081 14.032 20.0894 13.68C19.4814 13.3173 18.9961 12.8 18.6334 12.128C18.2814 11.4453 18.1054 10.624 18.1054 9.664C18.1054 8.69333 18.2974 7.872 18.6814 7.2C19.0654 6.51733 19.5774 5.99467 20.2174 5.632C20.8574 5.26933 21.5454 5.088 22.2814 5.088C22.8468 5.088 23.3321 5.18933 23.7374 5.392C24.1534 5.59467 24.5108 5.83467 24.8094 6.112L24.0734 7.072C23.8281 6.848 23.5614 6.66667 23.2734 6.528C22.9961 6.38933 22.6868 6.32 22.3454 6.32C21.8228 6.32 21.3534 6.45867 20.9374 6.736C20.5214 7.01333 20.1961 7.40267 19.9614 7.904C19.7268 8.40533 19.6094 8.992 19.6094 9.664C19.6094 10.3253 19.7214 10.9067 19.9454 11.408C20.1801 11.9093 20.4948 12.2987 20.8894 12.576C21.2948 12.8533 21.7641 12.992 22.2974 12.992C22.7028 12.992 23.0761 12.912 23.4174 12.752C23.7588 12.5813 24.0681 12.3733 24.3454 12.128L24.9854 13.12C24.5908 13.4613 24.1534 13.728 23.6734 13.92C23.1934 14.112 22.6921 14.208 22.1694 14.208ZM26.9017 14V5.312H28.1017L28.2457 6.896H28.2777C28.5764 6.34133 28.939 5.904 29.3657 5.584C29.803 5.25333 30.2617 5.088 30.7417 5.088C30.9444 5.088 31.115 5.104 31.2537 5.136C31.403 5.15733 31.5417 5.20533 31.6697 5.28L31.3977 6.544C31.2484 6.50133 31.115 6.46933 30.9977 6.448C30.8804 6.416 30.731 6.4 30.5497 6.4C30.1977 6.4 29.819 6.55467 29.4137 6.864C29.0084 7.16267 28.6617 7.68 28.3737 8.416V14H26.9017ZM36.2621 14.208C35.5581 14.208 34.8967 14.032 34.2781 13.68C33.6594 13.3173 33.1634 12.8 32.7901 12.128C32.4274 11.4453 32.2461 10.624 32.2461 9.664C32.2461 8.69333 32.4274 7.872 32.7901 7.2C33.1634 6.51733 33.6594 5.99467 34.2781 5.632C34.8967 5.26933 35.5581 5.088 36.2621 5.088C36.7954 5.088 37.3021 5.18933 37.7821 5.392C38.2727 5.59467 38.7047 5.89333 39.0781 6.288C39.4514 6.68267 39.7447 7.16267 39.9581 7.728C40.1714 8.29333 40.2781 8.93867 40.2781 9.664C40.2781 10.624 40.0914 11.4453 39.7181 12.128C39.3447 12.8 38.8541 13.3173 38.2461 13.68C37.6381 14.032 36.9767 14.208 36.2621 14.208ZM36.2621 12.992C36.7634 12.992 37.2007 12.8533 37.5741 12.576C37.9581 12.2987 38.2567 11.9093 38.4701 11.408C38.6834 10.9067 38.7901 10.3253 38.7901 9.664C38.7901 8.992 38.6834 8.40533 38.4701 7.904C38.2567 7.40267 37.9581 7.01333 37.5741 6.736C37.2007 6.45867 36.7634 6.32 36.2621 6.32C35.7607 6.32 35.3181 6.45867 34.9341 6.736C34.5607 7.01333 34.2674 7.40267 34.0541 7.904C33.8514 8.40533 33.7501 8.992 33.7501 9.664C33.7501 10.3253 33.8514 10.9067 34.0541 11.408C34.2674 11.9093 34.5607 12.2987 34.9341 12.576C35.3181 12.8533 35.7607 12.992 36.2621 12.992ZM44.1252 14.208C43.7625 14.208 43.4692 14.1333 43.2452 13.984C43.0212 13.8347 42.8559 13.616 42.7492 13.328C42.6425 13.0293 42.5892 12.6773 42.5892 12.272V1.264H44.0612V12.368C44.0612 12.592 44.0985 12.752 44.1732 12.848C44.2585 12.944 44.3545 12.992 44.4612 12.992C44.5039 12.992 44.5465 12.992 44.5892 12.992C44.6319 12.9813 44.6905 12.9707 44.7652 12.96L44.9732 14.08C44.8665 14.112 44.7492 14.1387 44.6212 14.16C44.4932 14.192 44.3279 14.208 44.1252 14.208ZM48.6721 14.208C48.3094 14.208 48.0161 14.1333 47.7921 13.984C47.5681 13.8347 47.4027 13.616 47.2961 13.328C47.1894 13.0293 47.1361 12.6773 47.1361 12.272V1.264H48.6081V12.368C48.6081 12.592 48.6454 12.752 48.7201 12.848C48.8054 12.944 48.9014 12.992 49.0081 12.992C49.0507 12.992 49.0934 12.992 49.1361 12.992C49.1787 12.9813 49.2374 12.9707 49.3121 12.96L49.5201 14.08C49.4134 14.112 49.2961 14.1387 49.1681 14.16C49.0401 14.192 48.8747 14.208 48.6721 14.208Z" fill="url(#paint0_radial_1016_606)"/>
<path d="M24.3333 32L29.9999 37.6667M29.9999 37.6667L35.6666 32M29.9999 37.6667V26.3334M44.1666 32C44.1666 39.8241 37.824 46.1667 29.9999 46.1667C22.1759 46.1667 15.8333 39.8241 15.8333 32C15.8333 24.176 22.1759 17.8334 29.9999 17.8334C37.824 17.8334 44.1666 24.176 44.1666 32Z" stroke="url(#paint1_radial_1016_606)" stroke-width="3.5" stroke-linecap="round" stroke-linejoin="round"/>
<defs>
<radialGradient id="paint0_radial_1016_606" cx="0" cy="0" r="1" gradientUnits="userSpaceOnUse" gradientTransform="translate(30 8) rotate(90) scale(7 20.5)">
<stop stop-color="#1A8C16"/>
<stop offset="1" stop-color="#20591E"/>
</radialGradient>
<radialGradient id="paint1_radial_1016_606" cx="0" cy="0" r="1" gradientUnits="userSpaceOnUse" gradientTransform="translate(29.9999 32) rotate(90) scale(14.1667)">
<stop stop-color="#1A8C16"/>
<stop offset="1" stop-color="#20591E"/>
</radialGradient>
</defs>
</svg>

