<svg width="206" height="49" viewBox="0 0 206 49" fill="none" xmlns="http://www.w3.org/2000/svg">
<path d="M35.42 30.13L7.72998 46.12H205.73" stroke="white" stroke-width="4" stroke-miterlimit="10"/>
<path d="M70.2065 34.9659V7.8175H72.7847V12.1339H72.8433C73.2209 11.2094 73.7417 10.3956 74.4058 9.6925C75.0698 8.98938 75.8576 8.4425 76.769 8.05188C77.6805 7.64823 78.6766 7.44641 79.7573 7.44641C81.4761 7.44641 82.98 7.88261 84.269 8.755C85.5581 9.6274 86.5607 10.8514 87.2769 12.4269C88.006 14.0024 88.3706 15.8514 88.3706 17.9738V17.9933C88.3706 20.1157 88.006 21.9646 87.2769 23.5402C86.5607 25.1027 85.5581 26.3201 84.269 27.1925C82.993 28.0649 81.5021 28.5011 79.7964 28.5011C78.7157 28.5011 77.7131 28.3058 76.7886 27.9152C75.8771 27.5245 75.0828 26.9842 74.4058 26.2941C73.7417 25.5909 73.2209 24.7837 72.8433 23.8722H72.7847V34.9659H70.2065ZM79.3081 26.1964C80.6102 26.1964 81.743 25.8579 82.7065 25.1808C83.6701 24.5037 84.4188 23.5532 84.9526 22.3292C85.4865 21.0922 85.7534 19.6469 85.7534 17.9933V17.9738C85.7534 16.2941 85.4865 14.8422 84.9526 13.6183C84.4188 12.3813 83.6701 11.4308 82.7065 10.7667C81.743 10.0896 80.6102 9.7511 79.3081 9.7511C78.0321 9.7511 76.8993 10.0962 75.9097 10.7863C74.9331 11.4633 74.1649 12.4204 73.605 13.6573C73.0451 14.8813 72.7651 16.3201 72.7651 17.9738V17.9933C72.7651 19.6209 73.0451 21.0532 73.605 22.2902C74.1649 23.5271 74.9331 24.4907 75.9097 25.1808C76.8993 25.8579 78.0321 26.1964 79.3081 26.1964ZM91.8081 28.13V7.8175H94.3862V11.4698H94.4448C94.8094 10.2198 95.4214 9.23678 96.2808 8.52063C97.1532 7.80448 98.2078 7.44641 99.4448 7.44641C99.7834 7.44641 100.096 7.47245 100.382 7.52454C100.669 7.57662 100.89 7.6287 101.046 7.68079V10.2003C100.877 10.1222 100.623 10.0571 100.285 10.005C99.9461 9.9399 99.549 9.90735 99.0933 9.90735C98.1427 9.90735 97.3094 10.1417 96.5933 10.6105C95.8901 11.0662 95.3433 11.7172 94.9526 12.5636C94.575 13.41 94.3862 14.406 94.3862 15.5519V28.13H91.8081ZM110.89 28.5011C108.989 28.5011 107.348 28.0779 105.968 27.2316C104.588 26.3722 103.52 25.1613 102.765 23.5988C102.023 22.0232 101.652 20.1678 101.652 18.0323V18.0128C101.652 15.8904 102.023 14.035 102.765 12.4464C103.52 10.8579 104.575 9.6274 105.929 8.755C107.283 7.88261 108.865 7.44641 110.675 7.44641C112.485 7.44641 114.048 7.86959 115.363 8.71594C116.691 9.54928 117.713 10.7277 118.429 12.2511C119.158 13.7745 119.523 15.5519 119.523 17.5831V18.5988H102.941V16.548H118.273L116.964 18.4034V17.4269C116.964 15.7602 116.691 14.3605 116.144 13.2277C115.61 12.0818 114.868 11.2159 113.917 10.63C112.98 10.0441 111.893 9.7511 110.656 9.7511C109.419 9.7511 108.319 10.0506 107.355 10.6495C106.391 11.2485 105.63 12.1274 105.07 13.2863C104.523 14.4321 104.25 15.8123 104.25 17.4269V18.4034C104.25 20.0571 104.523 21.4633 105.07 22.6222C105.63 23.781 106.411 24.6665 107.414 25.2784C108.416 25.8904 109.595 26.1964 110.949 26.1964C111.938 26.1964 112.824 26.0467 113.605 25.7472C114.386 25.4347 115.037 24.9985 115.558 24.4386C116.079 23.8787 116.45 23.2277 116.671 22.4855L116.73 22.3097H119.269L119.23 22.505C119.048 23.3644 118.716 24.1652 118.234 24.9073C117.765 25.6365 117.166 26.2745 116.437 26.8214C115.708 27.3553 114.875 27.7719 113.937 28.0714C113 28.3579 111.984 28.5011 110.89 28.5011ZM127.96 28.13L120.402 7.8175H123.117L129.289 25.4347H129.367L135.558 7.8175H138.234L130.695 28.13H127.96ZM140.988 28.13V7.8175H143.566V28.13H140.988ZM142.277 4.14563C141.808 4.14563 141.404 3.98287 141.066 3.65735C140.74 3.31881 140.578 2.90865 140.578 2.42688C140.578 1.95813 140.74 1.56099 141.066 1.23547C141.404 0.896932 141.808 0.727661 142.277 0.727661C142.759 0.727661 143.162 0.896932 143.488 1.23547C143.826 1.56099 143.996 1.95813 143.996 2.42688C143.996 2.90865 143.826 3.31881 143.488 3.65735C143.162 3.98287 142.759 4.14563 142.277 4.14563ZM156.457 28.5011C154.621 28.4881 153.006 28.0584 151.613 27.212C150.22 26.3527 149.132 25.1352 148.351 23.5597C147.583 21.9842 147.199 20.1222 147.199 17.9738V17.9347C147.199 15.7863 147.583 13.9308 148.351 12.3683C149.132 10.7928 150.22 9.58183 151.613 8.73547C153.006 7.8761 154.614 7.44641 156.437 7.44641C158.286 7.44641 159.901 7.8761 161.281 8.73547C162.674 9.58183 163.761 10.7863 164.542 12.3488C165.324 13.9113 165.714 15.7732 165.714 17.9347V17.9738C165.714 20.1352 165.324 22.0037 164.542 23.5792C163.761 25.1417 162.681 26.3527 161.3 27.212C159.92 28.0714 158.306 28.5011 156.457 28.5011ZM156.476 26.1964C157.804 26.1964 158.963 25.8709 159.953 25.2198C160.942 24.5688 161.71 23.6248 162.257 22.3878C162.804 21.1508 163.078 19.6795 163.078 17.9738V17.9347C163.078 16.2159 162.804 14.7446 162.257 13.5206C161.71 12.2967 160.936 11.3657 159.933 10.7277C158.944 10.0766 157.778 9.7511 156.437 9.7511C155.122 9.7511 153.97 10.0766 152.98 10.7277C151.99 11.3787 151.216 12.3162 150.656 13.5402C150.109 14.7641 149.835 16.229 149.835 17.9347V17.9738C149.835 19.6795 150.109 21.1508 150.656 22.3878C151.216 23.6248 151.99 24.5688 152.98 25.2198C153.97 25.8709 155.135 26.1964 156.476 26.1964ZM176.203 28.4816C174.705 28.4816 173.423 28.1756 172.355 27.5636C171.287 26.9516 170.467 26.0727 169.894 24.9269C169.321 23.781 169.035 22.4139 169.035 20.8253V7.8175H171.613V20.3956C171.613 22.2837 172.069 23.7225 172.98 24.712C173.904 25.7016 175.226 26.1964 176.945 26.1964C177.843 26.1964 178.651 26.0467 179.367 25.7472C180.083 25.4347 180.701 24.9985 181.222 24.4386C181.756 23.8787 182.16 23.2146 182.433 22.4464C182.72 21.6652 182.863 20.7993 182.863 19.8488V7.8175H185.421V28.13H182.863V24.6534H182.785C182.446 25.3826 181.971 26.0402 181.359 26.6261C180.747 27.199 180.005 27.6547 179.132 27.9933C178.273 28.3188 177.296 28.4816 176.203 28.4816ZM196.867 28.5011C195.33 28.5011 193.989 28.2472 192.843 27.7394C191.71 27.2185 190.806 26.5089 190.128 25.6105C189.451 24.699 189.048 23.6443 188.917 22.4464L188.898 22.2706H191.457L191.496 22.4464C191.704 23.6313 192.27 24.5753 193.195 25.2784C194.119 25.9685 195.343 26.3136 196.867 26.3136C197.908 26.3136 198.8 26.1704 199.542 25.8839C200.298 25.5975 200.877 25.1873 201.281 24.6534C201.697 24.1066 201.906 23.4816 201.906 22.7784V22.7589C201.906 21.8735 201.632 21.1704 201.085 20.6495C200.539 20.1287 199.582 19.7055 198.214 19.38L195.148 18.6573C193.872 18.3448 192.811 17.9477 191.964 17.4659C191.131 16.9842 190.506 16.3982 190.089 15.7081C189.686 15.005 189.484 14.1847 189.484 13.2472V13.2277C189.484 12.0948 189.79 11.0988 190.402 10.2394C191.027 9.36698 191.88 8.68339 192.96 8.1886C194.054 7.69381 195.304 7.44641 196.71 7.44641C198.156 7.44641 199.412 7.70683 200.48 8.22766C201.561 8.73547 202.414 9.44511 203.039 10.3566C203.677 11.255 204.041 12.2902 204.132 13.462L204.152 13.6769H201.691L201.671 13.5402C201.515 12.3553 201.001 11.4113 200.128 10.7081C199.269 9.99198 198.13 9.63391 196.71 9.63391C195.786 9.63391 194.979 9.78365 194.289 10.0831C193.598 10.3696 193.065 10.7797 192.687 11.3136C192.309 11.8344 192.121 12.4399 192.121 13.13V13.1495C192.121 13.6834 192.244 14.1652 192.492 14.5948C192.752 15.0115 193.156 15.3696 193.703 15.6691C194.263 15.9685 194.992 16.229 195.89 16.4503L198.937 17.173C200.968 17.6547 202.407 18.3253 203.253 19.1847C204.113 20.031 204.542 21.1639 204.542 22.5831V22.6027C204.542 23.7615 204.21 24.7837 203.546 25.6691C202.882 26.5545 201.971 27.2511 200.812 27.7589C199.666 28.2537 198.351 28.5011 196.867 28.5011Z" fill="white"/>
</svg>
