<svg width="206" height="44" viewBox="0 0 206 44" fill="none" xmlns="http://www.w3.org/2000/svg">
<g clip-path="url(#clip0_1273_6525)">
<path d="M170.31 25.8L198 41.79H0" stroke="black" stroke-width="4" stroke-miterlimit="10"/>
<path d="M69.07 25.8V5.49002H71.65V8.97002H71.71C72.23 7.86002 73.05 6.95002 74.17 6.23002C75.29 5.51002 76.66 5.15002 78.29 5.15002C80.54 5.15002 82.3 5.83002 83.56 7.18002C84.82 8.54002 85.45 10.41 85.45 12.8V25.81H82.87V13.23C82.87 11.34 82.41 9.90002 81.5 8.91002C80.59 7.92002 79.27 7.43002 77.54 7.43002C76.36 7.43002 75.32 7.70002 74.43 8.23002C73.54 8.77002 72.86 9.50002 72.37 10.45C71.88 11.4 71.64 12.5 71.64 13.78V25.81H69.06L69.07 25.8Z" fill="black"/>
<path d="M98.01 26.17C96.11 26.17 94.47 25.74 93.09 24.89C91.71 24.04 90.65 22.83 89.9 21.26C89.15 19.69 88.78 17.84 88.78 15.7V15.68C88.78 13.56 89.15 11.7 89.9 10.11C90.65 8.51998 91.7 7.28999 93.05 6.41999C94.4 5.54999 95.99 5.10999 97.8 5.10999C99.61 5.10999 101.18 5.52999 102.5 6.36999C103.82 7.20999 104.84 8.38999 105.57 9.90999C106.3 11.43 106.65 13.21 106.65 15.24V16.26H90.07V14.21H105.4L104.09 16.07V15.09C104.09 13.42 103.82 12.02 103.28 10.88C102.74 9.73999 102 8.87999 101.05 8.28999C100.1 7.69999 99.02 7.40999 97.78 7.40999C96.54 7.40999 95.44 7.70999 94.48 8.30999C93.52 8.90999 92.76 9.77998 92.2 10.94C91.64 12.1 91.37 13.48 91.37 15.09V16.07C91.37 17.72 91.65 19.13 92.2 20.29C92.75 21.45 93.53 22.33 94.53 22.95C95.53 23.56 96.71 23.87 98.07 23.87C99.06 23.87 99.95 23.72 100.73 23.41C101.51 23.11 102.16 22.67 102.68 22.11C103.2 21.55 103.57 20.9 103.79 20.16L103.85 19.98H106.39L106.35 20.18C106.17 21.04 105.84 21.84 105.36 22.57C104.88 23.31 104.28 23.95 103.55 24.48C102.82 25.02 101.99 25.44 101.05 25.73C100.11 26.02 99.1 26.17 98 26.17H98.01Z" fill="black"/>
<path d="M108.03 25.8L115.18 15.59L108.11 5.48999H111.02L116.61 13.65H116.67L122.22 5.48999H125.13L118.02 15.49L125.07 25.8H122.18L116.59 17.46H116.53L110.92 25.8H108.03Z" fill="black"/>
<path d="M133.83 26.17C132.16 26.17 130.92 25.76 130.09 24.93C129.26 24.1 128.85 22.81 128.85 21.03V7.66H125.86V5.49H128.85V0H131.51V5.49H135.51V7.66H131.51V21C131.51 22.12 131.75 22.9 132.22 23.34C132.7 23.78 133.41 24 134.36 24C134.58 24 134.79 24 134.99 23.97C135.19 23.94 135.36 23.93 135.51 23.92V26.01C135.31 26.05 135.06 26.09 134.76 26.12C134.45 26.15 134.14 26.17 133.83 26.17Z" fill="black"/>
</g>
<defs>
<clipPath id="clip0_1273_6525">
<rect width="205.46" height="43.79" fill="white"/>
</clipPath>
</defs>
</svg>
