<svg width="206" height="46" viewBox="0 0 206 46" fill="none" xmlns="http://www.w3.org/2000/svg">
<g clip-path="url(#clip0_1273_6533)">
<path d="M35.15 27.4L7.46001 43.39H205.46" stroke="black" stroke-width="4" stroke-miterlimit="10"/>
<path d="M69.94 34.24V7.08997H72.52V11.41H72.58C72.96 10.49 73.48 9.66997 74.14 8.96997C74.8 8.26997 75.59 7.71997 76.5 7.31997C77.41 6.91997 78.41 6.71997 79.49 6.71997C81.21 6.71997 82.71 7.15997 84 8.02997C85.29 8.89997 86.29 10.13 87.02 11.7C87.75 13.27 88.1 15.12 88.1 17.25V17.27C88.1 19.39 87.74 21.24 87.02 22.81C86.3 24.38 85.29 25.6 84.01 26.47C82.73 27.34 81.23 27.78 79.53 27.78C78.45 27.78 77.45 27.58 76.53 27.19C75.61 26.8 74.82 26.26 74.15 25.56C73.48 24.86 72.96 24.06 72.58 23.15H72.52V34.24H69.94ZM79.04 25.47C80.34 25.47 81.47 25.13 82.44 24.45C83.41 23.77 84.15 22.82 84.69 21.59C85.23 20.36 85.49 18.92 85.49 17.26V17.24C85.49 15.56 85.22 14.11 84.69 12.87C84.16 11.63 83.41 10.69 82.44 10.02C81.47 9.34997 80.34 9.00997 79.04 9.00997C77.74 9.00997 76.63 9.34997 75.65 10.04C74.67 10.73 73.9 11.68 73.34 12.91C72.78 14.14 72.5 15.58 72.5 17.24V17.26C72.5 18.89 72.78 20.32 73.34 21.56C73.9 22.8 74.67 23.76 75.65 24.44C76.63 25.12 77.76 25.47 79.04 25.47Z" fill="black"/>
<path d="M91.54 27.4V7.08997H94.12V10.74H94.18C94.54 9.48997 95.16 8.50997 96.03 7.78997C96.9 7.06997 97.95 6.71997 99.18 6.71997C99.52 6.71997 99.83 6.74997 100.12 6.79997C100.41 6.84997 100.63 6.89997 100.78 6.95997V9.47997C100.61 9.39997 100.36 9.32997 100.02 9.26997C99.68 9.20997 99.28 9.17997 98.83 9.17997C97.88 9.17997 97.05 9.40997 96.34 9.86997C95.63 10.33 95.08 10.99 94.7 11.83C94.32 12.67 94.12 13.67 94.12 14.82V27.4H91.54Z" fill="black"/>
<path d="M110.62 27.77C108.72 27.77 107.08 27.34 105.7 26.49C104.32 25.64 103.26 24.43 102.51 22.86C101.76 21.29 101.39 19.44 101.39 17.3V17.28C101.39 15.16 101.76 13.3 102.51 11.71C103.26 10.12 104.31 8.89002 105.66 8.02002C107.01 7.15002 108.6 6.71002 110.41 6.71002C112.22 6.71002 113.79 7.13002 115.11 7.97002C116.43 8.81002 117.45 9.99002 118.18 11.51C118.91 13.03 119.26 14.81 119.26 16.84V17.86H102.68V15.81H118.01L116.7 17.67V16.69C116.7 15.02 116.43 13.62 115.89 12.48C115.35 11.34 114.61 10.48 113.66 9.89002C112.71 9.30002 111.63 9.01002 110.39 9.01002C109.15 9.01002 108.05 9.31002 107.09 9.91002C106.13 10.51 105.37 11.38 104.81 12.54C104.25 13.7 103.98 15.08 103.98 16.69V17.67C103.98 19.32 104.26 20.73 104.81 21.89C105.36 23.05 106.14 23.93 107.14 24.55C108.14 25.17 109.32 25.47 110.68 25.47C111.67 25.47 112.56 25.32 113.34 25.01C114.12 24.7 114.77 24.27 115.29 23.71C115.81 23.15 116.18 22.5 116.4 21.76L116.46 21.58H119L118.96 21.78C118.78 22.64 118.45 23.44 117.97 24.17C117.49 24.9 116.89 25.54 116.16 26.08C115.43 26.62 114.6 27.04 113.66 27.33C112.72 27.62 111.71 27.77 110.61 27.77H110.62Z" fill="black"/>
<path d="M127.69 27.4L120.13 7.09003H122.84L129.01 24.71H129.09L135.28 7.09003H137.96L130.42 27.4H127.69Z" fill="black"/>
<path d="M141.99 3.42C141.52 3.42 141.12 3.25 140.79 2.92C140.46 2.59 140.29 2.18 140.29 1.7C140.29 1.22 140.46 0.83 140.79 0.5C141.12 0.17 141.52 0 141.99 0C142.46 0 142.88 0.17 143.21 0.5C143.54 0.83 143.71 1.23 143.71 1.7C143.71 2.17 143.54 2.59 143.21 2.92C142.88 3.25 142.47 3.42 141.99 3.42ZM140.7 27.4V7.09H143.28V27.4H140.7Z" fill="black"/>
<path d="M156.17 27.77C154.33 27.76 152.72 27.32 151.33 26.47C149.94 25.62 148.85 24.4 148.08 22.83C147.31 21.26 146.92 19.39 146.92 17.24V17.2C146.92 15.05 147.31 13.19 148.08 11.62C148.85 10.05 149.94 8.84002 151.33 7.99002C152.72 7.14002 154.33 6.71002 156.15 6.71002C157.97 6.71002 159.62 7.14002 161 7.99002C162.38 8.84002 163.47 10.05 164.25 11.61C165.03 13.17 165.42 15.03 165.42 17.2V17.24C165.42 19.4 165.03 21.27 164.25 22.84C163.47 24.41 162.39 25.62 161.01 26.48C159.63 27.34 158.01 27.77 156.17 27.77ZM156.19 25.47C157.52 25.47 158.68 25.14 159.67 24.49C160.66 23.84 161.43 22.9 161.97 21.66C162.51 20.42 162.79 18.95 162.79 17.25V17.21C162.79 15.49 162.52 14.02 161.97 12.8C161.42 11.58 160.65 10.64 159.66 10C158.67 9.36002 157.49 9.03002 156.15 9.03002C154.81 9.03002 153.68 9.36002 152.69 10.01C151.7 10.66 150.93 11.6 150.38 12.82C149.83 14.04 149.55 15.51 149.55 17.21V17.25C149.55 18.96 149.83 20.43 150.38 21.66C150.93 22.89 151.71 23.84 152.69 24.49C153.67 25.14 154.85 25.47 156.19 25.47Z" fill="black"/>
<path d="M175.91 27.75C174.41 27.75 173.13 27.44 172.06 26.83C170.99 26.22 170.17 25.34 169.6 24.19C169.03 23.04 168.74 21.68 168.74 20.09V7.09003H171.32V19.67C171.32 21.56 171.78 23 172.7 23.99C173.62 24.98 174.94 25.47 176.66 25.47C177.56 25.47 178.37 25.32 179.08 25.01C179.79 24.7 180.42 24.27 180.95 23.71C181.48 23.15 181.88 22.48 182.16 21.71C182.44 20.94 182.58 20.07 182.58 19.12V7.09003H185.14V27.4H182.58V23.92H182.5C182.16 24.65 181.69 25.3 181.07 25.88C180.45 26.46 179.72 26.92 178.85 27.25C177.98 27.58 177 27.75 175.91 27.75Z" fill="black"/>
<path d="M196.56 27.77C195.02 27.77 193.69 27.51 192.55 27C191.41 26.49 190.5 25.78 189.83 24.87C189.16 23.96 188.75 22.91 188.62 21.72L188.6 21.54H191.16L191.2 21.72C191.41 22.9 191.97 23.85 192.9 24.54C193.83 25.23 195.05 25.58 196.57 25.58C197.61 25.58 198.51 25.44 199.26 25.15C200.01 24.86 200.59 24.45 201 23.91C201.41 23.37 201.62 22.75 201.62 22.04V22.02C201.62 21.13 201.35 20.43 200.8 19.91C200.25 19.39 199.3 18.97 197.93 18.64L194.86 17.92C193.58 17.61 192.53 17.21 191.69 16.73C190.85 16.25 190.23 15.66 189.81 14.96C189.39 14.26 189.19 13.45 189.19 12.51V12.49C189.19 11.36 189.5 10.36 190.12 9.49002C190.74 8.62002 191.59 7.94002 192.68 7.45002C193.77 6.96002 195.01 6.71002 196.42 6.71002C197.83 6.71002 199.13 6.97002 200.2 7.48002C201.27 7.99002 202.13 8.70002 202.76 9.61002C203.39 10.52 203.75 11.55 203.84 12.73L203.86 12.94H201.4L201.38 12.8C201.22 11.62 200.71 10.67 199.85 9.96002C198.99 9.25002 197.84 8.90002 196.42 8.90002C195.5 8.90002 194.69 9.05002 194 9.34002C193.31 9.63002 192.78 10.04 192.4 10.57C192.02 11.1 191.83 11.71 191.83 12.4V12.42C191.83 12.95 191.96 13.43 192.21 13.86C192.46 14.29 192.87 14.64 193.42 14.94C193.97 15.24 194.7 15.5 195.6 15.72L198.65 16.44C200.68 16.92 202.12 17.59 202.98 18.44C203.84 19.29 204.26 20.43 204.26 21.85V21.87C204.26 23.03 203.93 24.05 203.26 24.94C202.59 25.83 201.69 26.52 200.54 27.02C199.39 27.52 198.07 27.77 196.58 27.77H196.56Z" fill="black"/>
</g>
<defs>
<clipPath id="clip0_1273_6533">
<rect width="205.46" height="45.39" fill="white"/>
</clipPath>
</defs>
</svg>
