<svg width="148" height="136" viewBox="0 0 148 136" fill="none" xmlns="http://www.w3.org/2000/svg">
<path d="M0 74C0 33.1309 33.1309 0 74 0C114.869 0 148 33.1309 148 74V97.1429C148 118.603 130.603 136 109.143 136H38.8571C17.3969 136 0 118.603 0 97.1429V74Z" fill="white" fill-opacity="0.9"/>
<g filter="url(#filter0_d_1313_1833)">
<rect x="8" y="94" width="132" height="32" rx="16" fill="#0DF205" shape-rendering="crispEdges"/>
<path d="M21.16 103.86H37.98V105.72H21.16V103.86ZM20.48 115.96H38.56V117.86H20.48V115.96ZM28.46 100.12H30.44V104.9H28.46V100.12ZM33.14 106.54L35.3 106.94C35.1 107.767 34.88 108.62 34.64 109.5C34.4 110.367 34.1467 111.233 33.88 112.1C33.6267 112.953 33.3667 113.767 33.1 114.54C32.8467 115.313 32.5933 116.007 32.34 116.62L30.52 116.18C30.7733 115.553 31.02 114.847 31.26 114.06C31.5133 113.26 31.7533 112.427 31.98 111.56C32.22 110.693 32.44 109.833 32.64 108.98C32.84 108.113 33.0067 107.3 33.14 106.54ZM23.8 107.12L25.6 106.64C25.9333 107.493 26.2333 108.4 26.5 109.36C26.7667 110.32 26.9867 111.26 27.16 112.18C27.3467 113.087 27.4733 113.907 27.54 114.64L25.58 115.14C25.5533 114.42 25.4533 113.6 25.28 112.68C25.12 111.747 24.9067 110.8 24.64 109.84C24.3867 108.867 24.1067 107.96 23.8 107.12ZM42.68 105.06H48.3V106.74H42.68V105.06ZM41.78 101.16H43.58V116.06L41.78 116.4V101.16ZM40.4 115.76C41.0267 115.613 41.7533 115.433 42.58 115.22C43.4067 115.007 44.2867 114.78 45.22 114.54C46.1533 114.3 47.0867 114.053 48.02 113.8L48.24 115.58C47.4133 115.833 46.5667 116.087 45.7 116.34C44.8333 116.593 44 116.833 43.2 117.06C42.4 117.287 41.6667 117.5 41 117.7L40.4 115.76ZM45.42 112.06L46.94 111.32C47.38 111.88 47.8067 112.493 48.22 113.16C48.6467 113.827 49.0333 114.48 49.38 115.12C49.7267 115.76 49.9867 116.333 50.16 116.84L48.48 117.68C48.32 117.173 48.08 116.6 47.76 115.96C47.44 115.307 47.0733 114.64 46.66 113.96C46.26 113.267 45.8467 112.633 45.42 112.06ZM42.64 101.16H49.4V110.62H42.64V108.86H47.62V102.92H42.64V101.16ZM56.26 101.14H58.22V113.32C58.22 113.813 58.16 114.22 58.04 114.54C57.9333 114.86 57.72 115.107 57.4 115.28C57.08 115.453 56.6733 115.567 56.18 115.62C55.6867 115.66 55.1067 115.68 54.44 115.68C54.4133 115.493 54.3667 115.273 54.3 115.02C54.2333 114.767 54.1533 114.513 54.06 114.26C53.9667 114.007 53.8733 113.793 53.78 113.62C54.2467 113.633 54.68 113.64 55.08 113.64C55.4933 113.64 55.7733 113.64 55.92 113.64C56.0533 113.64 56.14 113.613 56.18 113.56C56.2333 113.507 56.26 113.413 56.26 113.28V101.14ZM50.72 101.14H57.32V103.04H52.66V118.68H50.72V101.14ZM60.8 100.92H68V102.62H60.8V100.92ZM62.78 105.14H66.34V106.72H62.78V105.14ZM68.66 113.62H71.66V114.92H68.66V113.62ZM74.84 113.62H77.94V114.92H74.84V113.62ZM62.78 109.24H66.34V110.82H62.78V109.24ZM61.78 101.8H63.36V114.5H61.78V101.8ZM65.34 101.8H66.96V118.68H65.34V101.8ZM73.9 109.8H75.46V118.68H73.9V109.8ZM68.12 110.5H69.52V115.76H68.12V110.5ZM77.06 110.5H78.52V115.72H77.06V110.5ZM60.52 114.14C61.24 114.033 62.0933 113.893 63.08 113.72C64.08 113.547 65.1 113.353 66.14 113.14L66.26 114.8C65.3133 114.987 64.3667 115.18 63.42 115.38C62.4867 115.58 61.6267 115.76 60.84 115.92L60.52 114.14ZM71.02 109.84H72.56V113.18C72.56 113.927 72.4867 114.647 72.34 115.34C72.1933 116.02 71.8933 116.647 71.44 117.22C70.9867 117.807 70.2867 118.313 69.34 118.74C69.2867 118.62 69.2 118.48 69.08 118.32C68.9733 118.173 68.86 118.02 68.74 117.86C68.62 117.713 68.5067 117.593 68.4 117.5C69.1733 117.14 69.7467 116.727 70.12 116.26C70.4933 115.793 70.7333 115.3 70.84 114.78C70.96 114.26 71.02 113.72 71.02 113.16V109.84ZM67.5 108.1C68.1533 108.06 68.9133 108.007 69.78 107.94C70.6467 107.873 71.5533 107.807 72.5 107.74L72.52 109C71.6533 109.093 70.8067 109.18 69.98 109.26C69.1533 109.327 68.3933 109.393 67.7 109.46L67.5 108.1ZM67.78 103.76L68.6 102.68C69.0667 103.04 69.5333 103.46 70 103.94C70.4667 104.407 70.8067 104.833 71.02 105.22L70.14 106.44C69.9267 106.053 69.5933 105.607 69.14 105.1C68.6867 104.593 68.2333 104.147 67.78 103.76ZM71.24 106.68L72.38 106.32C72.6467 106.773 72.8867 107.273 73.1 107.82C73.3133 108.367 73.4467 108.84 73.5 109.24L72.3 109.66C72.2467 109.26 72.12 108.787 71.92 108.24C71.72 107.68 71.4933 107.16 71.24 106.68ZM70.22 100.12L71.78 100.62C71.4467 101.22 71.0933 101.853 70.72 102.52C70.36 103.173 70.0267 103.72 69.72 104.16L68.66 103.74C68.86 103.42 69.0533 103.047 69.24 102.62C69.44 102.193 69.6267 101.76 69.8 101.32C69.9733 100.88 70.1133 100.48 70.22 100.12ZM71.66 102.62L73.08 103.12C72.7333 103.747 72.3467 104.407 71.92 105.1C71.5067 105.793 71.0867 106.467 70.66 107.12C70.2333 107.76 69.8267 108.32 69.44 108.8L68.44 108.34C68.8133 107.847 69.2 107.267 69.6 106.6C70 105.933 70.38 105.247 70.74 104.54C71.1133 103.833 71.42 103.193 71.66 102.62ZM73.36 108.06C74.0133 108.02 74.7733 107.967 75.64 107.9C76.5067 107.833 77.4133 107.767 78.36 107.7L78.38 108.94C77.5267 109.02 76.6867 109.107 75.86 109.2C75.0467 109.28 74.2933 109.353 73.6 109.42L73.36 108.06ZM73.24 103.72L74.04 102.6C74.5333 102.96 75.02 103.38 75.5 103.86C75.9933 104.327 76.3467 104.76 76.56 105.16L75.72 106.44C75.4933 106.027 75.14 105.567 74.66 105.06C74.1933 104.553 73.72 104.107 73.24 103.72ZM76.86 106.68L78.04 106.28C78.3467 106.773 78.62 107.32 78.86 107.92C79.1133 108.507 79.2733 109.013 79.34 109.44L78.08 109.9C78.0267 109.473 77.88 108.96 77.64 108.36C77.4133 107.747 77.1533 107.187 76.86 106.68ZM75.76 100.12L77.36 100.62C77.0133 101.233 76.6533 101.873 76.28 102.54C75.9067 103.193 75.5667 103.747 75.26 104.2L74.16 103.74C74.3467 103.42 74.54 103.047 74.74 102.62C74.94 102.193 75.1267 101.76 75.3 101.32C75.4867 100.88 75.64 100.48 75.76 100.12ZM77.26 102.56L78.74 103.1C78.3933 103.727 78.0067 104.387 77.58 105.08C77.1533 105.773 76.7267 106.44 76.3 107.08C75.8733 107.72 75.4667 108.28 75.08 108.76L74.04 108.3C74.4133 107.793 74.8 107.207 75.2 106.54C75.6 105.873 75.98 105.193 76.34 104.5C76.7 103.793 77.0067 103.147 77.26 102.56ZM89.1 114.5H90.98V118.7H89.1V114.5ZM84.82 100.1H86.44V109.64H84.82V100.1ZM81.88 108.16H83.32V110.7H81.88V108.16ZM88.32 109.3L89.82 110.04C89.3133 110.427 88.78 110.8 88.22 111.16C87.66 111.52 87.14 111.827 86.66 112.08L85.5 111.44C85.9667 111.147 86.4667 110.8 87 110.4C87.5333 110 87.9733 109.633 88.32 109.3ZM92.46 110.1L93.98 110.96C93.2467 111.427 92.44 111.9 91.56 112.38C90.6933 112.847 89.82 113.293 88.94 113.72C88.06 114.133 87.2333 114.493 86.46 114.8L85.36 114.02C86.1467 113.687 86.9733 113.3 87.84 112.86C88.7067 112.42 89.5467 111.96 90.36 111.48C91.1733 110.987 91.8733 110.527 92.46 110.1ZM83.42 111.54L84.68 110.58C85.1467 110.78 85.6467 111.013 86.18 111.28C86.7267 111.547 87.24 111.827 87.72 112.12C88.2133 112.4 88.62 112.667 88.94 112.92L87.64 113.98C87.3467 113.74 86.96 113.473 86.48 113.18C86.0133 112.887 85.5067 112.6 84.96 112.32C84.4267 112.027 83.9133 111.767 83.42 111.54ZM92.84 112.86L94.02 111.94C94.58 112.18 95.16 112.467 95.76 112.8C96.36 113.133 96.9333 113.473 97.48 113.82C98.0267 114.167 98.4733 114.493 98.82 114.8L97.58 115.84C97.2467 115.533 96.8133 115.207 96.28 114.86C95.7467 114.5 95.18 114.147 94.58 113.8C93.98 113.44 93.4 113.127 92.84 112.86ZM92.66 116.22L93.96 115.26C94.5067 115.433 95.08 115.647 95.68 115.9C96.2933 116.14 96.88 116.393 97.44 116.66C98 116.927 98.4733 117.18 98.86 117.42L97.46 118.48C97.1267 118.253 96.6867 118 96.14 117.72C95.5933 117.44 95.0133 117.173 94.4 116.92C93.7867 116.653 93.2067 116.42 92.66 116.22ZM81.36 113.78C82.28 113.793 83.3267 113.793 84.5 113.78C85.6733 113.767 86.9267 113.76 88.26 113.76C89.6067 113.747 90.9933 113.733 92.42 113.72C93.8467 113.707 95.2733 113.693 96.7 113.68L96.62 114.9C94.7933 114.953 92.9533 115.007 91.1 115.06C89.26 115.113 87.5067 115.16 85.84 115.2C84.1733 115.227 82.7 115.247 81.42 115.26L81.36 113.78ZM85.82 115.38L87.46 116.04C87.02 116.36 86.5067 116.68 85.92 117C85.3333 117.307 84.7333 117.587 84.12 117.84C83.5067 118.107 82.92 118.34 82.36 118.54C82.2667 118.42 82.1333 118.28 81.96 118.12C81.8 117.96 81.6333 117.8 81.46 117.64C81.2867 117.493 81.1333 117.373 81 117.28C81.8533 117.053 82.72 116.773 83.6 116.44C84.4933 116.107 85.2333 115.753 85.82 115.38ZM81.36 101.06H90V102.06H81.36V101.06ZM92.34 100.72H96.1V102.02H92.34V100.72ZM90.76 104.96H97V106.24H90.76V104.96ZM81.16 106.9H90.12V107.92H81.16V106.9ZM83.22 104.88V105.52H88.08V104.88H83.22ZM83.22 103.46V104.06H88.08V103.46H83.22ZM81.86 102.62H89.52V106.36H81.86V102.62ZM91.42 100.72H93.04V102C93.04 102.587 92.9067 103.18 92.64 103.78C92.3733 104.38 91.82 104.9 90.98 105.34C90.9133 105.22 90.8067 105.08 90.66 104.92C90.5267 104.747 90.38 104.58 90.22 104.42C90.0733 104.26 89.9467 104.14 89.84 104.06C90.5333 103.753 90.9667 103.42 91.14 103.06C91.3267 102.687 91.42 102.313 91.42 101.94V100.72ZM95.28 100.72H96.9V102.42C96.9 102.727 96.9133 102.907 96.94 102.96C96.98 102.987 97.02 103.007 97.06 103.02C97.1 103.02 97.1533 103.02 97.22 103.02C97.2733 103.02 97.34 103.02 97.42 103.02C97.5133 103.02 97.5867 103.02 97.64 103.02C97.7067 103.02 97.7667 103.02 97.82 103.02C97.8867 103.007 97.9333 102.993 97.96 102.98C98.0533 102.953 98.12 102.867 98.16 102.72C98.1867 102.627 98.2 102.487 98.2 102.3C98.2133 102.113 98.2267 101.9 98.24 101.66C98.3733 101.78 98.5533 101.9 98.78 102.02C99.0067 102.127 99.22 102.213 99.42 102.28C99.4067 102.573 99.38 102.853 99.34 103.12C99.3 103.387 99.2533 103.58 99.2 103.7C99.1333 103.82 99.0467 103.927 98.94 104.02C98.8333 104.113 98.7133 104.187 98.58 104.24C98.4733 104.28 98.3333 104.313 98.16 104.34C98 104.367 97.8467 104.38 97.7 104.38C97.58 104.38 97.4267 104.38 97.24 104.38C97.0667 104.38 96.9267 104.38 96.82 104.38C96.6067 104.38 96.3933 104.353 96.18 104.3C95.9667 104.233 95.7933 104.133 95.66 104C95.5133 103.867 95.4133 103.693 95.36 103.48C95.3067 103.253 95.28 102.893 95.28 102.4V100.72ZM92.66 106.12C93.2067 107.12 94.0667 107.913 95.24 108.5C96.4133 109.087 97.82 109.473 99.46 109.66C99.2867 109.82 99.1 110.04 98.9 110.32C98.7133 110.6 98.5733 110.847 98.48 111.06C96.7067 110.767 95.2133 110.247 94 109.5C92.7867 108.74 91.86 107.733 91.22 106.48L92.66 106.12ZM96.44 104.96H96.78L97.08 104.9L98.04 105.24C97.6667 106.307 97.12 107.193 96.4 107.9C95.68 108.593 94.8333 109.153 93.86 109.58C92.8867 109.993 91.8133 110.313 90.64 110.54C90.5733 110.34 90.4667 110.113 90.32 109.86C90.1733 109.607 90.0267 109.4 89.88 109.24C90.8933 109.08 91.84 108.833 92.72 108.5C93.6133 108.167 94.38 107.727 95.02 107.18C95.6733 106.633 96.1467 105.96 96.44 105.16V104.96ZM88.06 108.16H89.5V110.04H82.72V109.02H88.06V108.16Z" fill="black"/>
<path d="M116.089 101C116.089 100.801 116.01 100.61 115.869 100.47C115.729 100.329 115.538 100.25 115.339 100.25C115.14 100.25 114.949 100.329 114.809 100.47C114.668 100.61 114.589 100.801 114.589 101V102.978C114.589 103.177 114.668 103.368 114.809 103.508C114.949 103.649 115.14 103.728 115.339 103.728C115.538 103.728 115.729 103.649 115.869 103.508C116.01 103.368 116.089 103.177 116.089 102.978V101ZM110.483 102.945C110.342 102.807 110.153 102.731 109.956 102.731C109.76 102.732 109.571 102.81 109.431 102.948C109.291 103.087 109.211 103.274 109.209 103.471C109.206 103.668 109.281 103.858 109.417 104L110.887 105.483C110.955 105.559 111.037 105.621 111.129 105.665C111.222 105.708 111.322 105.732 111.424 105.736C111.526 105.739 111.627 105.722 111.722 105.685C111.817 105.647 111.904 105.591 111.976 105.52C112.049 105.448 112.106 105.362 112.144 105.267C112.182 105.173 112.201 105.072 112.199 104.97C112.196 104.868 112.173 104.767 112.131 104.674C112.089 104.582 112.028 104.498 111.952 104.43L110.483 102.945ZM121.261 104C121.393 103.857 121.464 103.669 121.46 103.474C121.456 103.28 121.376 103.095 121.238 102.958C121.1 102.822 120.914 102.744 120.72 102.741C120.525 102.739 120.338 102.812 120.196 102.945L118.726 104.429C118.653 104.498 118.594 104.581 118.553 104.673C118.513 104.765 118.491 104.865 118.49 104.966C118.489 105.066 118.508 105.166 118.546 105.259C118.584 105.353 118.641 105.437 118.712 105.508C118.784 105.579 118.869 105.635 118.962 105.672C119.056 105.709 119.156 105.727 119.257 105.725C119.357 105.723 119.457 105.7 119.548 105.659C119.64 105.617 119.723 105.558 119.791 105.484L121.261 104ZM116.3 108.096C115.275 107.692 114.306 108.713 114.69 109.706L118.271 118.956C118.681 120.014 120.172 120.015 120.582 118.956L121.956 115.413L125.464 114.028C126.512 113.614 126.512 112.125 125.464 111.711L116.3 108.096ZM109.46 108.163H107.5C107.301 108.163 107.11 108.242 106.97 108.383C106.829 108.523 106.75 108.714 106.75 108.913C106.75 109.112 106.829 109.303 106.97 109.443C107.11 109.584 107.301 109.663 107.5 109.663H109.46C109.659 109.663 109.85 109.584 109.99 109.443C110.131 109.303 110.21 109.112 110.21 108.913C110.21 108.714 110.131 108.523 109.99 108.383C109.85 108.242 109.659 108.163 109.46 108.163ZM111.952 113.397C112.088 113.255 112.163 113.065 112.161 112.868C112.158 112.672 112.078 112.484 111.939 112.345C111.799 112.207 111.61 112.129 111.414 112.128C111.217 112.127 111.028 112.204 110.887 112.341L109.417 113.825C109.348 113.895 109.293 113.978 109.256 114.069C109.218 114.16 109.199 114.258 109.2 114.357C109.2 114.455 109.22 114.553 109.258 114.643C109.296 114.734 109.352 114.817 109.422 114.886C109.492 114.955 109.575 115.01 109.666 115.047C109.757 115.085 109.855 115.104 109.954 115.103C110.052 115.103 110.15 115.083 110.24 115.045C110.331 115.007 110.414 114.951 110.483 114.881L111.952 113.397Z" fill="white"/>
</g>
<defs>
<filter id="filter0_d_1313_1833" x="4" y="94" width="140" height="40" filterUnits="userSpaceOnUse" color-interpolation-filters="sRGB">
<feFlood flood-opacity="0" result="BackgroundImageFix"/>
<feColorMatrix in="SourceAlpha" type="matrix" values="0 0 0 0 0 0 0 0 0 0 0 0 0 0 0 0 0 0 127 0" result="hardAlpha"/>
<feOffset dy="4"/>
<feGaussianBlur stdDeviation="2"/>
<feComposite in2="hardAlpha" operator="out"/>
<feColorMatrix type="matrix" values="0 0 0 0 0.12549 0 0 0 0 0.34902 0 0 0 0 0.117647 0 0 0 1 0"/>
<feBlend mode="normal" in2="BackgroundImageFix" result="effect1_dropShadow_1313_1833"/>
<feBlend mode="normal" in="SourceGraphic" in2="effect1_dropShadow_1313_1833" result="shape"/>
</filter>
</defs>
</svg>
